<svg xmlns="http://www.w3.org/2000/svg" xmlns:xlink="http://www.w3.org/1999/xlink" viewBox="0 0 446.79 412.44"><defs><style>.cls-1,.cls-11,.cls-12,.cls-13,.cls-16,.cls-18,.cls-2,.cls-21,.cls-22,.cls-24,.cls-25,.cls-26,.cls-3,.cls-31,.cls-33{fill:none;}.cls-2,.cls-3{stroke:#b9d0f9;}.cls-11,.cls-12,.cls-13,.cls-16,.cls-18,.cls-2,.cls-21,.cls-22,.cls-24,.cls-25,.cls-26,.cls-3,.cls-31,.cls-33{stroke-linecap:round;stroke-linejoin:round;}.cls-2{stroke-width:2.63px;}.cls-3{stroke-width:1.63px;}.cls-4{fill:#8ff2d1;opacity:0.27;}.cls-5{fill:#b9d0f9;}.cls-6{fill:#624bef;}.cls-7{fill:#fff;}.cls-8{fill:#e4e4fd;}.cls-29,.cls-9{fill:#34304f;}.cls-10{fill:#a7a7fc;}.cls-11,.cls-24,.cls-25{stroke:#624bef;}.cls-11{stroke-width:1.68px;}.cls-12,.cls-21{stroke:#34304f;}.cls-12{stroke-width:5.52px;}.cls-13,.cls-16,.cls-18{stroke:#e4e4fd;}.cls-13{stroke-width:2.65px;}.cls-14{fill:#f9a41c;}.cls-15,.cls-32{fill:#e56700;}.cls-15{opacity:0.6;}.cls-16{stroke-width:2.64px;}.cls-17{fill:#a095f8;}.cls-18{stroke-width:2.63px;}.cls-19{fill:#a2a2ed;}.cls-20{fill:#7973ef;}.cls-21{stroke-width:3.53px;}.cls-22,.cls-31{stroke:#fff;}.cls-22{stroke-width:1.74px;}.cls-23{fill:#fac119;}.cls-24{stroke-width:1.9px;}.cls-25{stroke-width:1.6px;}.cls-26{stroke:#a7a7fc;stroke-width:1.23px;}.cls-27{clip-path:url(#clip-path);}.cls-28{font-size:92.2px;fill:#7195f5;}.cls-28,.cls-29,.cls-30,.cls-32{font-family:Montserrat-Black, Montserrat;font-weight:800;}.cls-29{font-size:71.02px;}.cls-30{font-size:59px;fill:#9fbdff;}.cls-31{stroke-width:5.37px;}.cls-32{font-size:25.76px;}.cls-33{stroke:#e88900;stroke-width:2.21px;}</style><clipPath id="clip-path"><rect class="cls-1" x="250.31" y="163.65" width="122.72" height="68.05"></rect></clipPath></defs><title>Asset 1</title><g id="Layer_2" data-name="Layer 2"><g id="OBJECTS"><line class="cls-2" x1="61.21" y1="95.83" x2="61.21" y2="119.47"></line><line class="cls-2" x1="73.03" y1="107.65" x2="49.39" y2="107.65"></line><line class="cls-2" x1="346.6" y1="121.27" x2="346.6" y2="144.91"></line><line class="cls-2" x1="358.42" y1="133.09" x2="334.78" y2="133.09"></line><line class="cls-3" x1="138.76" y1="25.8" x2="138.76" y2="40.51"></line><line class="cls-3" x1="146.12" y1="33.16" x2="131.41" y2="33.16"></line><line class="cls-3" x1="328.82" y1="27.64" x2="328.82" y2="42.35"></line><line class="cls-3" x1="336.18" y1="34.99" x2="321.46" y2="34.99"></line><line class="cls-2" x1="433.66" y1="237.76" x2="433.66" y2="261.39"></line><line class="cls-2" x1="445.48" y1="249.58" x2="421.84" y2="249.58"></line><path class="cls-4" d="M4.15,396.93C-.55,370.61-3.34,342.44,7.53,318c14.14-31.76,51.31-50.66,85.72-45.73,16.32,2.34,32,9.35,48.47,9.25a57.15,57.15,0,0,0,28.5-7.87c26.28-15.47,35.71-48.44,55.22-71.89a100.27,100.27,0,0,1,50.17-32.3c41.49-11.36,82.47,8.16,105.06,43.68a118.42,118.42,0,0,1,18.4,59c.24,6.62-6.42,62-9.05,60.81,14.56,6.54,23.7,24.55,24.23,40.49,12.53.05,24.63,9.31,27.44,21.52Z"></path><path class="cls-5" d="M255.84,23.68c-1.53-.63-3.11-1.21-4.68-1.73l-.47,1.4c1.54.51,3.09,1.08,4.6,1.69Z"></path><path class="cls-5" d="M273.14,33.61c-1.32-1-2.69-2-4.07-2.91l-.82,1.22c1.36.91,2.7,1.87,4,2.86Z"></path><path class="cls-5" d="M264.82,28.06c-1.44-.83-2.92-1.61-4.41-2.34l-.65,1.33c1.46.71,2.91,1.48,4.33,2.29Z"></path><path class="cls-5" d="M246.36,20.53c-1.61-.41-3.25-.78-4.88-1.08l-.28,1.45c1.6.3,3.21.66,4.79,1.06Z"></path><path class="cls-5" d="M297.08,65.12c-.62-1.54-1.3-3.08-2-4.58l-1.33.64c.71,1.47,1.38,3,2,4.49Z"></path><path class="cls-5" d="M299.87,73.49c-.34-1.23-.69-2.46-1.08-3.67l-1.41.46c.35,1.06.66,2.13,1,3.21Z"></path><path class="cls-5" d="M236.53,18.69c-1.65-.2-3.33-.34-5-.42l-.08,1.47c1.63.08,3.27.22,4.89.42Z"></path><path class="cls-5" d="M287.22,47.75c-1-1.32-2.07-2.62-3.16-3.88l-1.12,1c1.08,1.23,2.12,2.51,3.1,3.81Z"></path><path class="cls-5" d="M292.73,56.1c-.82-1.44-1.7-2.88-2.62-4.27l-1.23.82c.9,1.36,1.76,2.77,2.56,4.18Z"></path><path class="cls-5" d="M280.65,40.21c-1.17-1.18-2.4-2.33-3.65-3.43l-1,1.11c1.22,1.08,2.42,2.21,3.57,3.36Z"></path><path class="cls-5" d="M207.22,22.5l-.41-1.42c-1.6.47-3.21,1-4.77,1.55l.51,1.39C204.08,23.47,205.65,23,207.22,22.5Z"></path><path class="cls-5" d="M174.13,42.75l-1.08-1c-1.14,1.22-2.25,2.48-3.3,3.76l1.14.94C171.92,45.18,173,43.94,174.13,42.75Z"></path><path class="cls-5" d="M162.74,58.65,161.43,58c-.78,1.47-1.52,3-2.19,4.49l1.34.6C161.25,61.57,162,60.09,162.74,58.65Z"></path><path class="cls-5" d="M167.9,50.33l-1.2-.86c-1,1.35-1.9,2.75-2.78,4.16l1.26.77C166,53,167,51.65,167.9,50.33Z"></path><path class="cls-5" d="M226.57,19.64l0-1.47c-1.67,0-3.35.1-5,.23l.12,1.47C223.29,19.74,224.93,19.67,226.57,19.64Z"></path><path class="cls-5" d="M158.73,67.59l-1.38-.51c-.58,1.56-1.11,3.15-1.58,4.75l1.42.41C157.65,70.68,158.17,69.12,158.73,67.59Z"></path><path class="cls-5" d="M198,25.85l-.59-1.35c-1.52.67-3,1.4-4.51,2.18l.68,1.3C195,27.22,196.5,26.51,198,25.85Z"></path><path class="cls-5" d="M216.8,20.43,216.58,19c-1.65.24-3.3.54-4.92.89L212,21.3C213.56,21,215.18,20.66,216.8,20.43Z"></path><path class="cls-5" d="M189.3,30.4l-.77-1.25c-1.41.86-2.82,1.79-4.17,2.75l.85,1.21C186.54,32.16,187.92,31.25,189.3,30.4Z"></path><path class="cls-5" d="M181.3,36.07l-.93-1.14c-1.29,1-2.56,2.16-3.77,3.29l1,1.08C178.79,38.19,180,37.1,181.3,36.07Z"></path><rect class="cls-6" x="16.56" y="151.13" width="171.13" height="243.84" rx="11.25"></rect><rect class="cls-7" x="29.61" y="171.19" width="134.7" height="188.69"></rect><path class="cls-8" d="M154.94,170.82a207,207,0,0,1-10.29,36.77c-12.61,33-32.64,63.87-56.11,91.28a202.36,202.36,0,0,1-37.08,34A119.31,119.31,0,0,1,29.8,345.2v30.07H175.47V170.82Z"></path><ellipse class="cls-9" cx="102.4" cy="146.01" rx="25.88" ry="23.79"></ellipse><path class="cls-9" d="M154.15,177.21a19,19,0,0,0,1.74-7.93h0c0-11.34-10.09-20.62-22.43-20.62H69c-12.34,0-22.44,9.28-22.44,20.62h0a19,19,0,0,0,1.74,7.93Z"></path><path class="cls-10" d="M149.5,216h-94a4,4,0,0,1-4-4h0a4,4,0,0,1,4-4h94a4,4,0,0,1,4,4h0A4,4,0,0,1,149.5,216Z"></path><path class="cls-10" d="M149.5,238.82h-94a4,4,0,0,1-4-4h0a4,4,0,0,1,4-4h94a4,4,0,0,1,4,4h0A4,4,0,0,1,149.5,238.82Z"></path><path class="cls-10" d="M149.5,266.26h-94a4,4,0,0,1-4-4h0a4,4,0,0,1,4-4h94a4,4,0,0,1,4,4h0A4,4,0,0,1,149.5,266.26Z"></path><rect class="cls-10" x="51.52" y="285.69" width="101.98" height="8" rx="4"></rect><path class="cls-10" d="M149.5,321.13h-94a4,4,0,0,1-4-4h0a4,4,0,0,1,4-4h94a4,4,0,0,1,4,4h0A4,4,0,0,1,149.5,321.13Z"></path><path class="cls-10" d="M149.5,348.56h-94a4,4,0,0,1-4-4h0a4,4,0,0,1,4-4h94a4,4,0,0,1,4,4h0A4,4,0,0,1,149.5,348.56Z"></path><ellipse class="cls-7" cx="102.73" cy="143.34" rx="8.03" ry="7.38"></ellipse><path class="cls-11" d="M55.85,171.38h0a12.34,12.34,0,0,1,12.09-12.57h66.95a11.85,11.85,0,0,1,11.61,12.08v2.21"></path><path class="cls-12" d="M12.13,395.34H437"></path><path class="cls-5" d="M96,98.61a3.68,3.68,0,1,1-5.21,0A3.69,3.69,0,0,1,96,98.61Z"></path><circle class="cls-5" cx="104.85" cy="78.32" r="1.63"></circle><path class="cls-5" d="M84.41,85.27a1.64,1.64,0,1,1-1.63-1.64A1.63,1.63,0,0,1,84.41,85.27Z"></path><path class="cls-5" d="M37.41,116.13a5.93,5.93,0,1,1-5.93-5.93A5.92,5.92,0,0,1,37.41,116.13Z"></path><path class="cls-5" d="M34.55,144.74a1.84,1.84,0,1,1-1.84-1.84A1.85,1.85,0,0,1,34.55,144.74Z"></path><circle class="cls-5" cx="115.27" cy="121.44" r="1.63"></circle><path class="cls-5" d="M209.48,188.06a4.7,4.7,0,1,1-4.7-4.7A4.69,4.69,0,0,1,209.48,188.06Z"></path><circle class="cls-5" cx="205.25" cy="160.84" r="1.84"></circle><path class="cls-5" d="M196.81,204.82a1.43,1.43,0,1,1-1.43-1.43A1.43,1.43,0,0,1,196.81,204.82Z"></path><path class="cls-5" d="M237.28,177.23a6.54,6.54,0,1,1-6.54-6.54A6.54,6.54,0,0,1,237.28,177.23Z"></path><path class="cls-5" d="M416.3,168.44a3.48,3.48,0,1,1-3.48-3.47A3.48,3.48,0,0,1,416.3,168.44Z"></path><path class="cls-5" d="M381.6,77a3.47,3.47,0,1,1-3.47-3.48A3.47,3.47,0,0,1,381.6,77Z"></path><path class="cls-5" d="M404,194.81a5.32,5.32,0,1,1-5.32-5.32A5.32,5.32,0,0,1,404,194.81Z"></path><path class="cls-5" d="M391,143.92a3.48,3.48,0,1,1-3.48-3.47A3.47,3.47,0,0,1,391,143.92Z"></path><path class="cls-5" d="M403.67,40.38a3.47,3.47,0,1,1-3.47-3.48A3.47,3.47,0,0,1,403.67,40.38Z"></path><line class="cls-13" x1="264.07" y1="223.34" x2="297.11" y2="267.8"></line><rect class="cls-14" x="248.52" y="231.8" width="124.51" height="114.14"></rect><rect class="cls-15" x="320.09" y="231.8" width="52.93" height="114.14"></rect><rect class="cls-9" x="258.94" y="240.99" width="35.56" height="19.01"></rect><rect class="cls-9" x="259.55" y="264.29" width="35.56" height="8.99"></rect><polygon class="cls-13" points="230.3 267.8 230.3 345.98 341.08 345.98 387.99 269.58 230.3 267.8"></polygon><line class="cls-13" x1="197.26" y1="223.34" x2="230.3" y2="267.8"></line><line class="cls-16" x1="247.74" y1="269.29" x2="247.74" y2="343.96"></line><line class="cls-13" x1="272.74" y1="269.35" x2="272.74" y2="344.41"></line><line class="cls-13" x1="296.85" y1="269.8" x2="296.85" y2="344.85"></line><line class="cls-13" x1="320.08" y1="270.25" x2="320.08" y2="345.3"></line><line class="cls-13" x1="344.19" y1="345.75" x2="344.19" y2="270.69"></line><line class="cls-13" x1="231.21" y1="295.71" x2="404" y2="295.71"></line><line class="cls-13" x1="231.21" y1="325.64" x2="385.19" y2="325.2"></line><line class="cls-13" x1="366.11" y1="346.36" x2="366.55" y2="271.12"></line><path class="cls-17" d="M278,224.84H183.37a4.19,4.19,0,0,1-4.18-4.18h0a4.19,4.19,0,0,1,4.18-4.18H278a4.19,4.19,0,0,1,4.17,4.18h0A4.19,4.19,0,0,1,278,224.84Z"></path><path class="cls-9" d="M278,216.48h-33a62.54,62.54,0,0,0,2.13,8.36H278a4.18,4.18,0,0,0,0-8.36Z"></path><polyline class="cls-18" points="382.04 269.29 422.63 269.88 373.03 345.94 320.08 345.3"></polyline><line class="cls-16" x1="359.46" y1="345.24" x2="403.81" y2="271.64"></line><path class="cls-6" d="M277.81,389a12.36,12.36,0,1,1-3.66-17.1A12.36,12.36,0,0,1,277.81,389Z"></path><path class="cls-9" d="M272.89,385.78a6.49,6.49,0,1,1-1.93-9A6.49,6.49,0,0,1,272.89,385.78Z"></path><path class="cls-19" d="M265.58,381.56h0a4.54,4.54,0,0,1-2.67-5.81l6.53-17.63a4.54,4.54,0,0,1,5.81-2.67h0a4.53,4.53,0,0,1,2.67,5.81l-6.52,17.63A4.55,4.55,0,0,1,265.58,381.56Z"></path><polygon class="cls-20" points="369.9 340.37 352.38 340.37 391.7 277.5 408.76 277.96 369.9 340.37"></polygon><circle class="cls-6" cx="361.28" cy="382.65" r="12.36"></circle><circle class="cls-9" cx="361.28" cy="382.65" r="6.03"></circle><rect class="cls-19" x="356.08" y="355.28" width="7.81" height="26.33" rx="3.7"></rect><line class="cls-21" x1="230.3" y1="356.7" x2="368.33" y2="356.7"></line><circle class="cls-6" cx="235.02" cy="381.95" r="12.36"></circle><circle class="cls-22" cx="235.02" cy="381.95" r="7.35"></circle><circle class="cls-6" cx="332.99" cy="382.65" r="12.36"></circle><path class="cls-19" d="M233.17,381.27h0a4.55,4.55,0,0,1-2.67-5.82L237,357.83a4.53,4.53,0,0,1,5.81-2.67h0a4.54,4.54,0,0,1,2.67,5.81L239,378.59A4.55,4.55,0,0,1,233.17,381.27Z"></path><circle class="cls-22" cx="332.54" cy="382.3" r="7.35"></circle><rect class="cls-19" x="327.79" y="354.68" width="7.81" height="26.93" rx="3.74"></rect><path class="cls-23" d="M319.63,231.8,340.79,253h65.29l-21.31-21.31Z"></path><circle class="cls-5" cx="421.2" cy="234.86" r="1.63"></circle><path class="cls-5" d="M424.88,335.61a3.48,3.48,0,1,1-3.47-3.47A3.47,3.47,0,0,1,424.88,335.61Z"></path><path class="cls-10" d="M149.19,128.2V86h77.13c17.1,0,28.26,16.7,42,26.71C279.45,101,294,91.24,308.18,82.36a14.87,14.87,0,0,1,18,1.79l.16.15a9.67,9.67,0,0,1-.09,14.21c-14.89,13.58-28.5,28.21-42.74,42.6-3.91,3.95-7.84,8-12.6,10.88s-10.54,4.59-16,3.39Z"></path><path class="cls-24" d="M227.81,111.9l37,23.79a9.78,9.78,0,0,0,12.66-1.79h0a9.47,9.47,0,0,0-.64-13.13l-8.47-8"></path><rect class="cls-9" x="135.44" y="75.97" width="29.09" height="60.35"></rect><path class="cls-25" d="M275.42,125.44l-6.35,7.87a1.21,1.21,0,0,1-1.68.18l-4.69-3.68a1.17,1.17,0,0,1-.2-1.66l6.35-7.87a1.22,1.22,0,0,1,1.69-.19l4.69,3.69A1.18,1.18,0,0,1,275.42,125.44Z"></path><path class="cls-26" d="M155.94,89A4.91,4.91,0,1,1,151,84,4.9,4.9,0,0,1,155.94,89Z"></path><g class="cls-27"><text class="cls-28" transform="translate(251.16 232.25)">B</text><text class="cls-29" transform="translate(315.42 238.56)">B</text><text class="cls-30" transform="translate(298.19 238.5)">2</text></g><circle class="cls-23" cx="167.27" cy="375.38" r="37.06"></circle><polyline class="cls-31" points="151.16 374.49 162.48 386.02 186.07 359.72"></polyline><path class="cls-23" d="M175.86,348.08c14.38-.91,27.09-13.56,28-27.94a39.61,39.61,0,0,1-10.34,38.7C192.14,351.86,183,348.42,175.86,348.08Z"></path><circle class="cls-23" cx="229.38" cy="32.01" r="32.01"></circle><circle class="cls-23" cx="229.38" cy="32.01" r="32.01"></circle><circle class="cls-14" cx="229.38" cy="32.01" r="23.54"></circle><text class="cls-32" transform="translate(220.92 42.11)">$</text><line class="cls-33" x1="202.89" y1="12.88" x2="209.88" y2="18.4"></line><line class="cls-33" x1="209.92" y1="5.86" x2="215.36" y2="12.91"></line><line class="cls-33" x1="219.24" y1="1.66" x2="222.96" y2="9.75"></line><line class="cls-33" x1="253.7" y1="52.95" x2="246.71" y2="47.43"></line><line class="cls-33" x1="244.64" y1="59.38" x2="239.58" y2="52.05"></line><line class="cls-33" x1="235.51" y1="63.44" x2="231.79" y2="55.35"></line><polygon class="cls-7" points="246.36 12.51 249.19 17.7 254.38 20.54 249.19 23.37 246.36 28.56 243.52 23.37 238.34 20.54 243.52 17.7 246.36 12.51"></polygon></g></g></svg>