<svg xmlns="http://www.w3.org/2000/svg" viewBox="0 0 408.43 409.55"><defs><style>.cls-1{isolation:isolate;}.cls-2{fill:none;stroke:#67affb;stroke-miterlimit:10;}.cls-3{fill:#b8f3ff;}.cls-10,.cls-104,.cls-13,.cls-15,.cls-20,.cls-3,.cls-38,.cls-41,.cls-44,.cls-45,.cls-49,.cls-50,.cls-51,.cls-52,.cls-59,.cls-66,.cls-83,.cls-88,.cls-89{mix-blend-mode:multiply;}.cls-4{fill:#5ca1e0;}.cls-5{fill:#335980;}.cls-6{fill:#4880c1;}.cls-7{fill:#f2d031;}.cls-12,.cls-56,.cls-57,.cls-8{fill:#fff;}.cls-10,.cls-9{fill:#6ca559;}.cls-10,.cls-104,.cls-15,.cls-20,.cls-38,.cls-44,.cls-45,.cls-50,.cls-51,.cls-59,.cls-83,.cls-88{opacity:0.4;}.cls-11{fill:#86cf75;}.cls-12{fill-rule:evenodd;}.cls-13{fill:#b8babb;}.cls-13,.cls-56{opacity:0.5;}.cls-14,.cls-15{fill:#6d6e70;}.cls-16,.cls-44{fill:#434244;}.cls-17{fill:#9c9c9c;}.cls-18{fill:#59595b;}.cls-19,.cls-20{fill:#cc5499;}.cls-21{fill:#7dbae8;}.cls-22{fill:#cccbd0;}.cls-23{fill:#4275bb;}.cls-24{fill:#bfbfbf;}.cls-25{fill:#e5e5e6;}.cls-26{fill:#c6a37d;}.cls-27{fill:#d8d6bc;}.cls-28{fill:#ada67f;}.cls-29{fill:#666536;}.cls-30{fill:#b1afd6;}.cls-31{fill:#989ac9;}.cls-32{fill:#544294;}.cls-33{fill:#dcd5e9;}.cls-34,.cls-38{fill:#7d809b;}.cls-35{fill:#36404f;}.cls-36{fill:#aeaef2;}.cls-37{fill:#6a6e81;}.cls-39{fill:#9ca4bd;}.cls-40{fill:#30559f;}.cls-41{fill:#453d8d;}.cls-41,.cls-49{opacity:0.3;}.cls-42{fill:#efc9a2;}.cls-43,.cls-50,.cls-52{fill:#272425;}.cls-46{fill:#d2607a;}.cls-47{fill:#e6ba94;}.cls-48{fill:#4e2b07;}.cls-49{fill:#c5d2e3;}.cls-51{fill:#d4d4d5;}.cls-53{fill:#d3b180;}.cls-54{fill:#ac8559;}.cls-55{fill:#e4ca97;}.cls-57{opacity:0.7;}.cls-58,.cls-59{fill:#6d4abe;}.cls-60{fill:#865adf;}.cls-61{fill:#e7ad42;}.cls-62{fill:#f6df5c;}.cls-63{fill:#95601d;}.cls-64{fill:#e0952f;}.cls-65{fill:#dc883c;}.cls-67{fill:#cbdbfd;}.cls-68{fill:#cbddfc;}.cls-69{fill:#dbe8fd;}.cls-70{fill:#f0f6ff;}.cls-71{fill:#487fbf;}.cls-72{fill:#62aad5;}.cls-73{fill:#90bf4f;}.cls-74{fill:#6fa44b;}.cls-75{fill:#9bc24d;}.cls-76{fill:#ebb941;}.cls-77{fill:#de932f;}.cls-78{fill:#f0d07c;}.cls-79{fill:#e5ab42;}.cls-80{fill:#f0ce31;}.cls-81{fill:#f5e27b;}.cls-82{fill:#3b5dc3;}.cls-83{fill:#4e77ca;}.cls-84{fill:#577fe3;}.cls-85{fill:#6288d2;}.cls-86{fill:#82debe;}.cls-87{fill:#ce4044;}.cls-88{fill:#4169fa;}.cls-89{fill:#8f9193;opacity:0.6;}.cls-90{fill:#a61933;}.cls-91{fill:#508c7f;}.cls-92{fill:#6dbab7;}.cls-93{fill:#5fa7a4;}.cls-94{fill:#7659b3;}.cls-95{fill:#a796e1;}.cls-96{fill:#8c55fa;}.cls-97{fill:#9a2085;}.cls-98{fill:#ca7daf;}.cls-99{fill:#cc2f71;}.cls-100{fill:#7c8a87;}.cls-101{fill:#c9dbda;}.cls-102{fill:#889fb3;}.cls-103,.cls-104{fill:#ccb535;}.cls-105{fill:#f5de3d;}</style></defs><title>Asset 1</title><g class="cls-1"><g id="Layer_2" data-name="Layer 2"><g id="OBJECTS"><ellipse class="cls-2" cx="204.1" cy="255.47" rx="164.5" ry="79.46"></ellipse><path class="cls-3" d="M355,255.47c0,39.25-67.56,71.06-150.9,71.06S53.2,294.72,53.2,255.47s67.56-71.06,150.9-71.06S355,216.22,355,255.47Z"></path><path class="cls-4" d="M13.43,268,50.88,246a1.88,1.88,0,0,0,.83-1.46l0-26.85a.64.64,0,0,0-.22-.52h0l-.06,0-1.34-.77h0a.57.57,0,0,0-.61.05l-37.44,22a1.89,1.89,0,0,0-.84,1.46v26.85a.58.58,0,0,0,.26.55l1.33.75A.58.58,0,0,0,13.43,268Z"></path><path class="cls-5" d="M12.86,239.84l-1.39-.79a1.69,1.69,0,0,0-.25.83v26.85a.58.58,0,0,0,.26.55l1.33.75,0,0Z"></path><path class="cls-6" d="M12.6,267.52c0,.53.37.75.83.48L50.88,246a1.88,1.88,0,0,0,.83-1.46l0-26.85c0-.53-.38-.75-.84-.47l-37.44,22a1.89,1.89,0,0,0-.84,1.46Z"></path><path class="cls-7" d="M15.2,253.86c0,.13.09.19.21.12l9.39-5.53a.48.48,0,0,0,.21-.37v-6.74c0-.13-.09-.19-.21-.12l-9.39,5.53a.48.48,0,0,0-.21.37Z"></path><path class="cls-8" d="M15.23,259.09c0,.09.07.13.15.08l6.43-3.79a.32.32,0,0,0,.15-.25v-1.51c0-.09-.07-.13-.15-.08l-6.43,3.79a.32.32,0,0,0-.15.25Z"></path><path class="cls-8" d="M45.94,241.73c0,.09.06.13.14.08l2.46-1.55a.32.32,0,0,0,.15-.25V238.5c0-.09-.07-.13-.14-.08L46.08,240a.32.32,0,0,0-.14.25Z"></path><path class="cls-8" d="M24.48,253.92c0,.1.07.13.15.08L44.1,242.85a.33.33,0,0,0,.14-.26v-1.51c0-.09-.06-.13-.14-.08L24.63,252.16a.33.33,0,0,0-.15.25Z"></path><path class="cls-9" d="M192.76,39.17a2.49,2.49,0,0,1,2.57.22L216.7,51.92a8,8,0,0,1,3.59,6.2V84a2.42,2.42,0,0,1-1.22,2.4h0l-4.69,2.39L188.77,74l-.68-32.41Z"></path><path class="cls-10" d="M195.33,39.39,216.7,51.92a7.58,7.58,0,0,1,2.79,3.16h0l-4.93,2.07-26.47-15.6,4.67-2.38A2.49,2.49,0,0,1,195.33,39.39Z"></path><path class="cls-11" d="M190.59,41.81,212,54.35a7.9,7.9,0,0,1,3.59,6.2V86.4c0,2.28-1.62,3.22-3.59,2.09L190.59,76.17A7.93,7.93,0,0,1,187,70V43.89C187,41.61,188.61,40.68,190.59,41.81Z"></path><path class="cls-12" d="M197.7,54.43c-1.17.62-3.86,1.45-4.37,4.08a16.68,16.68,0,0,0,1.43,9.13c1.23,2.48,3,5.85,5.74,7.41s6.25-.35,6.25-.35l.9-2.18s-1.54-1.85-2.51-2.9a1.56,1.56,0,0,0-1.87-.56l-2.63,1.39a13.54,13.54,0,0,1-3.81-8.55s1.59-.55,2.73-.92a1.59,1.59,0,0,0,1-1.7l-.64-4Z"></path><path class="cls-13" d="M142.74,295.09c3.29,2.33,3,5.69-.61,7.45l-57,29.29A14.38,14.38,0,0,1,72.4,331l-8.15-5.33c-3.37-2.2-3.16-5.42.47-7.15l58.18-29.73a13.79,13.79,0,0,1,12.57,1.09Z"></path><path class="cls-14" d="M133.07,301.17c4.15-2.11,7.26-8.77,7.25-13.43l.06-131.47s-6.8-4.31-9.2-6.05a4.64,4.64,0,0,0-4.93-.19L71.82,177.5a15.08,15.08,0,0,0-7.55,12.29l.21,129.51a4.44,4.44,0,0,0,2,4c2.29,1.58,9.31,7.11,9.31,7.11Z"></path><path class="cls-15" d="M76.11,190,66,183.66a13.55,13.55,0,0,0-1.69,6.13l.21,129.51a4.44,4.44,0,0,0,2,4c2.29,1.58,9.31,7.11,9.31,7.11Z"></path><path class="cls-16" d="M143.91,290.83a15.13,15.13,0,0,1-7.54,12.31l-54.45,27.7c-4.16,2.11-7.56,0-7.57-4.63l-.2-129.52a15.07,15.07,0,0,1,7.55-12.28l54.43-27.47c4.16-2.09,7.57,0,7.58,4.65Z"></path><path class="cls-17" d="M102.27,170.13a1.58,1.58,0,0,1-1.78-.25l-.49-.49a.8.8,0,0,1,.19-1.34l11.27-6.29a1.58,1.58,0,0,1,1.78.25l.5.49a.81.81,0,0,1-.19,1.35"></path><path class="cls-18" d="M117.38,302.79c0,2.85-2.29,6.37-5.14,7.86s-5.14.4-5.15-2.44,2.3-6.36,5.14-7.86S117.38,300,117.38,302.79Z"></path><polygon class="cls-19" points="137.64 283.84 77.04 313.81 76.88 207.51 137.47 177.53 137.64 283.84"></polygon><polygon class="cls-20" points="137.47 177.53 137.64 283.84 77.04 313.81 137.47 177.53"></polygon><polygon class="cls-21" points="102.47 227.11 92.36 232.11 76.88 207.51 86.98 202.51 102.47 227.11"></polygon><polygon class="cls-8" points="112.57 222.12 102.47 227.11 86.98 202.51 97.08 197.51 112.57 222.12"></polygon><polygon class="cls-21" points="122.67 217.12 112.57 222.12 97.08 197.51 107.19 192.52 122.67 217.12"></polygon><polygon class="cls-8" points="132.77 212.13 122.67 217.12 107.19 192.52 117.28 187.52 132.77 212.13"></polygon><polygon class="cls-21" points="142.88 207.13 132.77 212.13 117.28 187.52 127.39 182.53 142.88 207.13"></polygon><polygon class="cls-8" points="152.98 202.13 142.88 207.13 127.39 182.53 137.49 177.53 152.98 202.13"></polygon><path class="cls-22" d="M153,202.13l-10.1,5s-.24,5.81,3.94,5.33S153.53,205.78,153,202.13Z"></path><path class="cls-23" d="M142.88,207.12l-10.11,5s-.23,5.82,3.95,5.34S143.43,210.77,142.88,207.12Z"></path><path class="cls-22" d="M132.77,212.12l-10.1,5s-.23,5.81,4,5.33S133.33,215.77,132.77,212.12Z"></path><path class="cls-23" d="M122.67,217.12l-10.1,5s-.23,5.81,3.94,5.33S123.22,220.76,122.67,217.12Z"></path><path class="cls-22" d="M112.57,222.11l-10.1,5s-.24,5.81,3.94,5.34S113.12,225.76,112.57,222.11Z"></path><path class="cls-23" d="M102.46,227.11l-10.09,5s-.24,5.81,3.94,5.33S103,230.75,102.46,227.11Z"></path><polygon class="cls-24" points="92.36 232.11 76.88 221.38 76.88 207.51 92.36 232.11"></polygon><polygon class="cls-8" points="108.75 260.9 129.63 250.6 129.63 226.65 108.75 236.82 108.75 260.9"></polygon><polygon class="cls-25" points="129.63 250.6 108.75 241.52 108.75 260.9 129.63 250.6"></polygon><path class="cls-26" d="M113.69,242.87s-1.27-6.32,2.34-7.61c3.81-1.37,3.81,2.76,3.52,5.05l.36,0s1.43-5.17-1.82-5.8-6.28,2-4.7,8.58Z"></path><path class="cls-27" d="M112.44,244.21s9.7-3.63,11.85-6.74c0,0,5.45,4.1,4.43,10,0,0-7.39,7-14.69,7.33Z"></path><path class="cls-28" d="M114,254.81a9.86,9.86,0,0,1-5.12-4l1.25-7.55s.94,1.48,2.28.92Z"></path><path class="cls-29" d="M112.44,244.21c-1.34.56-2.28-.92-2.28-.92l11.33-6.78,2.8,1C122.14,240.58,112.44,244.21,112.44,244.21Z"></path><path class="cls-26" d="M115.91,244.87s-1.35-6.69,2.47-8.05c4-1.45,4,2.91,3.73,5.35l.38,0s1.51-5.48-1.93-6.14-6.64,2.11-5,9.08Z"></path><polygon class="cls-28" points="118.42 247.7 122.72 245.48 122.31 243.56 118.01 245.78 118.42 247.7"></polygon><polygon class="cls-8" points="85.14 301.53 106.01 291.24 106.01 267.28 85.14 277.44 85.14 301.53"></polygon><polygon class="cls-25" points="106.01 291.24 85.14 282.15 85.14 301.53 106.01 291.24"></polygon><path class="cls-30" d="M90.1,286.93s8.11-3.05,9.91-5.65c0,0,4.56,3.42,3.71,8.37,0,0-6.17,5.87-12.27,6.14Z"></path><path class="cls-31" d="M91.45,295.79a8.17,8.17,0,0,1-4.29-3.31l1-6.32s.79,1.24,1.91.77Z"></path><path class="cls-32" d="M90.1,286.93c-1.12.47-1.91-.77-1.91-.77l9.47-5.68,2.35.8C98.21,283.88,90.1,286.93,90.1,286.93Z"></path><path class="cls-33" d="M90.16,285.62s-1.66-8.17,3-9.84c4.93-1.77,4.94,3.56,4.57,6.53l.46-.06s1.84-6.69-2.36-7.49-8.11,2.59-6.06,11.09Z"></path><polygon class="cls-8" points="113.3 267.83 127.29 261.22 127.29 260.46 113.3 266.97 113.3 267.83"></polygon><polygon class="cls-8" points="113.3 270.65 127.29 264.05 127.29 263.29 113.3 269.79 113.3 270.65"></polygon><polygon class="cls-8" points="113.3 273.48 127.29 266.87 127.29 266.11 113.3 272.61 113.3 273.48"></polygon><polygon class="cls-8" points="113.3 276.3 127.29 269.69 127.29 268.93 113.3 275.44 113.3 276.3"></polygon><polygon class="cls-8" points="113.3 284.13 127.29 277.52 127.29 276.76 113.3 283.27 113.3 284.13"></polygon><polygon class="cls-8" points="86.81 250.11 100.81 243.5 100.81 242.74 86.81 249.25 86.81 250.11"></polygon><polygon class="cls-8" points="86.81 252.93 100.81 246.32 100.81 245.56 86.81 252.07 86.81 252.93"></polygon><polygon class="cls-8" points="86.81 255.75 100.81 249.15 100.81 248.39 86.81 254.89 86.81 255.75"></polygon><polygon class="cls-8" points="86.81 258.58 100.81 251.97 100.81 251.21 86.81 257.71 86.81 258.58"></polygon><polygon class="cls-8" points="86.81 266.41 100.81 259.8 100.81 259.04 86.81 265.54 86.81 266.41"></polygon><polygon class="cls-34" points="285.77 198.33 307.46 211.13 307.54 151.59 285.85 138.8 285.77 198.33"></polygon><polygon class="cls-35" points="285.85 138.8 307.54 151.59 311.82 149.51 290.13 136.71 285.85 138.8"></polygon><polygon class="cls-36" points="307.46 211.13 311.74 208.13 311.82 149.51 307.54 151.59 307.46 211.13"></polygon><polygon class="cls-37" points="307.46 211.13 311.74 208.13 311.82 149.51 307.54 151.59 307.46 211.13"></polygon><path class="cls-34" d="M252,38.25l3-1.85h0a1.59,1.59,0,0,1,1.75.12l95,55.85a5.34,5.34,0,0,1,2.37,4.14v81.72a1.8,1.8,0,0,1-.54,1.41h0l-.1.07-.1.06-3,1.87-93.8-54.21-5.35-5.9Z"></path><path class="cls-38" d="M350.42,181.65,350.26,96l3.3-1.57h0a4.73,4.73,0,0,1,.58,2.12v81.72a1.8,1.8,0,0,1-.54,1.41h0l-.1.07-.1.06-3,1.87Z"></path><path class="cls-39" d="M251.27,121.54a5.31,5.31,0,0,0,2.37,4.14l95,55.85c1.3.77,2.37.16,2.37-1.36V98.45a5.34,5.34,0,0,0-2.37-4.14l-95-55.85c-1.31-.77-2.37-.16-2.37,1.36Z"></path><path class="cls-40" d="M254.66,110.44a5.35,5.35,0,0,0,2.37,4.15l88.51,52.31c1.3.76,2.36.16,2.36-1.36V101.23a5.36,5.36,0,0,0-2.36-4.15L257,44.78c-1.3-.77-2.37-.16-2.37,1.35Z"></path><path class="cls-41" d="M345.54,166.9,257,114.59a5.35,5.35,0,0,1-2.37-4.15V46.13a2.24,2.24,0,0,1,.05-.46l91.53,121.5A2.45,2.45,0,0,1,345.54,166.9Z"></path><path class="cls-34" d="M326.17,162.31c0,.86-.61,1.21-1.36.77l-54.22-31.86a3.06,3.06,0,0,1-1.35-2.37v-2.5l56.93,33.46Z"></path><path class="cls-42" d="M165.05,230.44c.14-.36-2.15-4-2.15-4s-4.64-3.15-6.23-4.21-3.58-2.51-4-2,.06.94.86,1.71a2.67,2.67,0,0,1,1,2c0,.55-1,1.91,1.42,3.36s4.78,1.86,5.25,2.25a12.39,12.39,0,0,1,1.4,2.65Z"></path><path class="cls-43" d="M179.76,333.2s-1.06,2.51-1.67,3.54-1.09,3.67,1.28,2.45a12.71,12.71,0,0,0,5.32-5.75c.62-1.7.34-2,.34-2l.37,4h.48l-.48-8.79-4.22.91A19.83,19.83,0,0,1,179.76,333.2Z"></path><path class="cls-42" d="M180.34,318.7s.79,10.25-.19,13c-1.36,3.71-.47,5.27.49,4.74,1.48-.81,3.37-4.37,3.62-6.24s-.1-11.28-.1-11.28Z"></path><path class="cls-43" d="M194.85,331.09l.47.22.34,10.6-.41.13-.23-2.21a15.39,15.39,0,0,1-1.06,4.05c-.67,1.12-3.64,3.24-4.42,2.21s-.64-4.29-.5-5.41,1.48-7.78,1.48-7.78Z"></path><path class="cls-42" d="M190,318.65l5.26,0s-.41,12.23-.46,14.92a20.57,20.57,0,0,1-1.16,7.24c-.81,1.86-3.11,2.89-3.4.95s.47-10,.42-12S190,318.65,190,318.65Z"></path><path class="cls-16" d="M194.47,261.47s2.67,8,2.52,12-2.36,19.84-2.52,21.88,2.67,13.7,2.67,17S196.2,335,196.2,335l-6.45.63s-2.21-32-3-34.95-1.26-21.73-1.26-21.26-1.1,17.79-1.1,17.79l2.05,30.23-6.61.32s-3.15-30.86-3.62-36.21-1-24.41,1.73-32.12Z"></path><path class="cls-44" d="M195.42,312.9c.15-1.86-2.8-16.29-2.8-16.29s.63-6.51,1.24-9.46-1.11-19.56-1.11-19.56l2.81-2.48a32.87,32.87,0,0,1,1.43,8.33c-.16,3.94-2.36,19.84-2.52,21.88s2.67,13.7,2.67,17S196.2,335,196.2,335,195.26,314.76,195.42,312.9Z"></path><path class="cls-44" d="M183.13,296.55c0-1.29,0-7.2.12-8.62s2.6-14.17,2.6-14.17.12,4.85.59,5.67-.61,9.34-.61,9.34v0c-.22-5-.34-9.61-.34-9.37,0,.47-1.1,17.79-1.1,17.79l2.05,30.23-.94.05S183.13,297.85,183.13,296.55Z"></path><path class="cls-42" d="M199,265.7s-1,5.73-1.43,7a9.16,9.16,0,0,1-2.49,3.33c-.54.41-.66,1.43-.42,2.73s2.85,2.49,4.52.95,1.66-4.1,1.72-5.88a58.15,58.15,0,0,1,1.47-7.18Z"></path><path class="cls-25" d="M198.86,255.39c-.83-2.73-1.9-7.24-1.9-7.24a36.2,36.2,0,0,0-1.31,7.48c0,2.85.6,11.28.6,11.28s-14.75,4.08-20.12-2.49c0,0,2.53-8.54,2.89-13.41s.6-8.33-.11-9.4,1.55-10.09,1.55-11.28,1.09-4.75,2.52-4.75,8.92,1.84,12,3.8c0,0,4.28,2.38,5.46,4.28s3.33,3.56,3.45,7.84.51,10.87.27,13Z"></path><g class="cls-45"><path class="cls-46" d="M193.91,267.4Z"></path></g><path class="cls-47" d="M185.87,224a3.66,3.66,0,0,1-2.21,3.56s-1.59,3.8,1,5.39,8.47.47,11-2.3a18,18,0,0,1-2.16-10A8.37,8.37,0,0,0,185.87,224Z"></path><path class="cls-42" d="M182.86,209.39a10.88,10.88,0,0,0-1,3.72,14.48,14.48,0,0,1-.47,3.88c-.24.8.59,6.25,2.25,7.74.84.74,6.7.18,9.07-4.1,0,0,2.45.16,3.09-1.9s-.87-2.69-1.58-2.29a11.64,11.64,0,0,0-1.59,1.18S194.27,207.25,182.86,209.39Z"></path><path class="cls-48" d="M191.93,204.68c6.63,2.65,5.5,7.56,5.5,11.13s-.39,7.2,1,10-3.2,3.52-4.24,3.14c-2.56-.92-.69-8.34-.69-8.34,3.28-.88,2.22-3.36,2.22-3.36-1-1.82-3.07.4-3.07.4-6.57-1.34-8.61-8.42-8.61-8.42s-1.53,0-1.84,2c0,0-.72-1.12-.09-4.08S187.34,202.85,191.93,204.68Z"></path><path class="cls-43" d="M194.22,228.92s-5.42,6.35-6.83,8.59-.95,33.06-.95,33.06,7.32.95,11-.7l-.95-13.35.49-8.37s2.17,8.73,2.15,9.55-1.11,9.44-1.11,9.44l5,1.62s1.69-9.19,1.64-11.3-.46-18.12-.46-18.12-1.33-4.59-3.71-6.73A24.9,24.9,0,0,0,194.22,228.92Z"></path><path class="cls-43" d="M185.58,225.59a2.88,2.88,0,0,1-1.68,1.8c-.72.3-.78,2.6-.94,5.13s-1.48,16.92-2.19,20.34-1,16.53-1,16.53l-4.79-3s2.89-16.76,3-20.1-.23-8.93-.21-11,3.07-8.55,4.11-9.33C181.91,226,182.82,225.14,185.58,225.59Z"></path><path class="cls-43" d="M180.87,227.64l-9.4,9.33-6.78-8.86-3.8,1.72s7.14,12,9.89,13.85c1.59,1.1,3.58-.06,5.85-1.06a20.05,20.05,0,0,0,3.78-2.17Z"></path><path class="cls-49" d="M173.3,333c-3.76,1.95-3.9,5.53-.3,7.95l10.74,6.77a15.31,15.31,0,0,0,13.52,1.12l28.28-15.1c3.84-1.8,4-5.23.41-7.62l-11.89-7.42c-3.62-2.38-9.66-2.73-13.42-.78Z"></path><path class="cls-42" d="M257.49,122.76a10.59,10.59,0,0,0,1.28-2.32,14,14,0,0,1,.07-2.19c.06-1,.32-1.54,1.61-1.61s3.21-.12,3.92-1.09,1.61-2.51,2.45-2.12,1.67,3,.45,4.57a8.73,8.73,0,0,1-3.48,2.51,37,37,0,0,0-3.86,3.67Z"></path><path class="cls-43" d="M240.4,223.93s5.8,6.41,7.93,7.48,3.06,2,2.45,2.75-4.43,2.29-7.94.3a25.89,25.89,0,0,1-5.19-3.66l-.61.91-3.82-2.29.92-5.95S238.57,224.85,240.4,223.93Z"></path><path class="cls-43" d="M226.18,232.17l-6.12.21s.1,4.56,0,6.12,1.35,3.42,2.49,4.15,6.22,1.66,6.64.52-1-5.91-1.66-7.37S226.18,232.17,226.18,232.17Z"></path><path class="cls-43" d="M234,183.33s-4.27,19.18-4.27,20.6-2.36,29.12-2.36,29.12l-7.82-.23s.94-27.95.94-32,1.19-35,1.19-35l23.21-4.26s.47,18-.48,24.63-3.07,38.36-3.07,38.36l-8.29-.47s.71-25.81.71-26.52S234,183.33,234,183.33Z"></path><path class="cls-50" d="M231.45,184.6c1.06-2.4,3.73-11.21,3.73-11.21a57.55,57.55,0,0,1,1.6,5.61c.27,1.6,1.34,5.34,1.6,7.47s-1.88,37.82-1.88,37.82l-3.43-.23s.71-25.81.71-26.52.24-14.21.24-14.21-4.27,19.18-4.27,20.6-2.36,29.12-2.36,29.12.08-28.43.08-30.83S230.37,187,231.45,184.6Z"></path><path class="cls-50" d="M220.51,200.85c0-4,1.19-35,1.19-35l23-4.21c-1.1,5.29-15.34,6.73-17.18,8.07s-3.77,7.74-4.84,9.34-2.39,33.09-2.39,33.09h0C220.39,206.86,220.51,202.29,220.51,200.85Z"></path><path class="cls-8" d="M229,119s-7.86,3.06-9.2,4.13-5.31,6.23-6.25,12.64L220,140l2-4.11a61.67,61.67,0,0,0,1.41,10.61c1.2,5-2.17,19.66-2.17,19.66s18.18,2.57,24.39-5.64c0,0,1-24.23-1.4-28.83l4-2.8s-1.4-6.21-3.8-8.81S234,116.66,229,119Z"></path><path class="cls-51" d="M221.22,166.15s3.37-14.65,2.17-19.66A61.67,61.67,0,0,1,222,135.88L220,140l-1.12-.51a5.66,5.66,0,0,1,1.53-3.8c1.6-1.59,3.2-7.19,3.2-7.19l.8,5s1,6,2,9.58.2,6.6-.4,11.59,1.52,10.08,2.39,11.86C224.38,166.43,221.22,166.15,221.22,166.15Z"></path><path class="cls-51" d="M244.82,131.25l-.61.43c1.16,2.22,1.52,9,1.59,15.45,0-.15,0-.27,0-.46-.2-5.39-2.2-14-2.6-15.79a54.13,54.13,0,0,1-.46-6.85Z"></path><path class="cls-43" d="M228.82,119.07a15,15,0,0,0,.52,7.53c1.37,3.91,2.15,37.09-2.54,40.8a14.9,14.9,0,0,1-10.34,2.92s5.46-12.29,5.66-17S220.48,139,220.48,139s.48-11.21-4.11-12.27C216.37,126.69,218.29,120.25,228.82,119.07Z"></path><path class="cls-52" d="M216.46,170.32s5.46-12.29,5.66-17S220.48,139,220.48,139s0-.34,0-.87L221.92,128s.59,9.17.59,11.32,2.54,12.1,2.54,12.1-1,9.57-.59,10.93,4.62-.68,4.63-.68c-.55,2.86-1.3,5-2.29,5.76A14.9,14.9,0,0,1,216.46,170.32Z"></path><path class="cls-16" d="M228.82,119.08a14.83,14.83,0,0,0,.52,7.52c.77,2.22,1.36,13.85.87,24.18-.2-.19-.32-.69-.28-1.73.19-6.44-6.06-24.4-6.06-24.4Z"></path><path class="cls-42" d="M218.86,139.48s-2.7,10.1-2.58,11.67,7.07,15.26,7.29,15.6,2,.45,1.57,2.69-.72,4.92-2.18,5-2.3-3.12-2.64-4.13-1.12-2.81-1.12-2.81-8.08-11.22-8.87-12.79,2.7-17.92,2.7-17.92Z"></path><path class="cls-43" d="M221.14,136.75l-4.86,14.4,6.62,12.93-5.07,4.49s-8-12.3-8.79-14.84,4.37-20.66,4.82-23.4,3.2-5,3.2-5S223.59,129.5,221.14,136.75Z"></path><path class="cls-43" d="M237.7,116.46l-.3,5.11s7.21,25.53,7.36,32.75S245,177,245,177l2.32-1.57s.37-12.69.56-18.94-3.28-23.65-2.73-26.74c.59-3.31-1.23-10.71-3.51-11.27A10.49,10.49,0,0,1,237.7,116.46Z"></path><path class="cls-16" d="M237.59,119.66l-.19,1.91,6.22,25s-3.83-22.43-3.83-24.56Z"></path><path class="cls-47" d="M237.7,116.46a37,37,0,0,1-.3,5.11,6.79,6.79,0,0,1-8.54-.5l-.17-8.69S235.6,115,237.7,116.46Z"></path><path class="cls-42" d="M241,101.85a29.18,29.18,0,0,0,.54,5.61c.52,2.13-.81,5.87-1.34,8.54s-1.87,2.94-5.07,1.87-5.61-.8-5.61-2.94v-2.14a3.09,3.09,0,0,1-2.13-2.39c-.27-1.88,1.28-3.09,2.1-1.9a1.65,1.65,0,0,0,1.65-1.12,8,8,0,0,0-.3-3.44s4.87-.07,6.81-.07S241,101.85,241,101.85Z"></path><path class="cls-43" d="M227.5,110.85a6.36,6.36,0,0,1-1.67-4.74c-.08-3.67.15-5.46.45-6.06s.23-2,.67-2.17a52.68,52.68,0,0,1,5.09-1.8c2.24-.59,2.55-.3,4.71.45s4.94,2.78,5.91,2.62a8.73,8.73,0,0,1-2.77,3.84c-2.09,1.62-5,1.19-9,1,0,0,1.88,4.24-1.35,4.56a1,1,0,0,0-1.48-.18C227.09,109,227.5,110.85,227.5,110.85Z"></path><path class="cls-43" d="M246.2,121.85c1.42,3,4.58,10.66,4.58,10.66l7-12.67,5.19,3.28s-9.47,18.7-11.3,19.31-6.26-2.14-6.87-6c-.31-2-4.88-18.17-4.88-18.17A6.29,6.29,0,0,1,246.2,121.85Z"></path><path class="cls-49" d="M251,230.83c3.76,2,3.9,5.54.3,8l-10.74,6.77a15.31,15.31,0,0,1-13.52,1.12l-28.28-15.1c-3.85-1.8-4-5.23-.41-7.62l11.89-7.42c3.62-2.38,9.66-2.74,13.42-.78Z"></path><polygon class="cls-53" points="352.41 303.34 329.6 291.05 329.6 267.13 352.41 279.42 352.41 303.34"></polygon><polygon class="cls-54" points="352.41 303.34 373.27 291.71 373.27 269.07 352.41 279.42 352.41 303.34"></polygon><polygon class="cls-55" points="329.6 267.13 352.41 279.42 373.27 269.07 350.89 257.35 329.6 267.13"></polygon><polygon class="cls-56" points="342.19 297.78 338.73 295.92 338.84 272.13 342.19 273.91 342.19 297.78"></polygon><polygon class="cls-57" points="362.23 263.25 359.02 261.57 338.84 272.13 342.19 273.91 362.23 263.25"></polygon><polygon class="cls-56" points="362.24 297.94 365.31 296.17 365.3 273.05 362.24 274.55 362.24 297.94"></polygon><polygon class="cls-57" points="339.35 262.65 342.41 261.24 365.3 273.05 362.24 274.55 339.35 262.65"></polygon><polygon class="cls-53" points="327.06 317.33 304.25 305.04 304.25 281.12 327.06 293.41 327.06 317.33"></polygon><polygon class="cls-54" points="327.06 317.33 347.92 305.69 347.92 283.06 327.06 293.41 327.06 317.33"></polygon><polygon class="cls-55" points="304.25 281.12 327.06 293.41 347.92 283.06 325.54 271.33 304.25 281.12"></polygon><polygon class="cls-56" points="316.84 311.77 313.38 309.9 313.5 286.12 316.84 287.9 316.84 311.77"></polygon><polygon class="cls-57" points="336.88 277.24 333.67 275.56 313.5 286.12 316.84 287.9 336.88 277.24"></polygon><polygon class="cls-56" points="336.9 311.93 339.97 310.16 339.95 287.04 336.9 288.54 336.9 311.93"></polygon><polygon class="cls-57" points="314 276.64 317.07 275.23 339.95 287.04 336.9 288.54 314 276.64"></polygon><polygon class="cls-53" points="336.51 285.61 313.69 273.32 313.69 249.4 336.51 261.69 336.51 285.61"></polygon><polygon class="cls-54" points="336.51 285.61 357.36 273.98 357.36 251.35 336.51 261.69 336.51 285.61"></polygon><polygon class="cls-55" points="313.69 249.4 336.51 261.69 357.36 251.35 334.99 239.62 313.69 249.4"></polygon><polygon class="cls-56" points="326.29 280.06 322.82 278.19 322.94 254.41 326.29 256.18 326.29 280.06"></polygon><polygon class="cls-57" points="346.33 245.53 343.12 243.84 322.94 254.41 326.29 256.18 346.33 245.53"></polygon><polygon class="cls-56" points="346.34 280.21 349.41 278.44 349.39 255.32 346.34 256.82 346.34 280.21"></polygon><polygon class="cls-57" points="323.44 244.92 326.51 243.51 349.39 255.32 346.34 256.82 323.44 244.92"></polygon><polygon class="cls-58" points="14.85 171.6 28.74 179.27 28.74 110.8 14.85 103.13 14.85 171.6"></polygon><polygon class="cls-59" points="14.85 171.6 28.74 179.27 28.74 110.8 14.85 103.13 14.85 171.6"></polygon><polygon class="cls-58" points="41.11 87.74 54.99 95.41 28.74 110.8 14.85 103.13 41.11 87.74"></polygon><polygon class="cls-58" points="14.85 171.6 28.74 179.27 13.88 187.88 0 180.21 14.85 171.6"></polygon><polygon class="cls-58" points="54.9 148.38 68.79 156.05 53.94 164.66 40.05 156.99 54.9 148.38"></polygon><polygon class="cls-60" points="54.99 164.05 54.99 95.41 28.74 110.8 28.74 179.27 13.88 187.88 41.2 203.8 68.79 156.05 54.99 164.05"></polygon><path class="cls-8" d="M44.47,121.43a7,7,0,0,1-1.29,4,10.47,10.47,0,0,1-3.56,3.24,7.84,7.84,0,0,1-3.73,1.23v-3a11,11,0,0,0,2.26-.33,7.4,7.4,0,0,0,1.68-.69,4.28,4.28,0,0,0,1.41-1.22,2.46,2.46,0,0,0,.49-1.48.94.94,0,0,0-.21-.67,1.16,1.16,0,0,0-.64-.3,8.45,8.45,0,0,0-1.7,0,4.59,4.59,0,0,1-1.81-.22,2.05,2.05,0,0,1-1-.84,3.24,3.24,0,0,1-.36-1.67,7,7,0,0,1,1.18-3.84,9.38,9.38,0,0,1,3.27-3,8.14,8.14,0,0,1,2-.85,10.21,10.21,0,0,1,1.94-.33l-.9,3a10.32,10.32,0,0,0-1.74.3,6.15,6.15,0,0,0-1.35.59,3.29,3.29,0,0,0-1.21,1.12,2.47,2.47,0,0,0-.43,1.35,1.07,1.07,0,0,0,.17.65.94.94,0,0,0,.55.29,8.74,8.74,0,0,0,1.76,0,3.65,3.65,0,0,1,2.53.59A2.74,2.74,0,0,1,44.47,121.43Z"></path><path class="cls-8" d="M43.47,146.89l-.95-3.06-4.79,2.76-1,4.15-3,1.73,4.64-17.9,3.41-2,4.66,12.55Zm-1.62-5.38c-.88-2.76-1.37-4.33-1.48-4.69a7.22,7.22,0,0,1-.24-.88q-.3,1.5-1.7,7.54Z"></path><path class="cls-8" d="M36.57,171.53V156.36l2.79-1.6v12.51l5.34-3.07v2.66Z"></path><path class="cls-8" d="M44.19,187.82l-7.57,4.36V177l7.57-4.36v2.64L39.41,178v3.33l4.45-2.56v2.64L39.41,184v3.91l4.78-2.75Z"></path><path class="cls-61" d="M122.45,163.25c-5.3,14.45-15.88,20.67-26.34,18.71-16.54-4.9-16.92-22.71-9.81-37.45,6.6-13.66,18.08-20.64,31.2-12.84C126.52,136.85,127.39,149.8,122.45,163.25Z"></path><path class="cls-62" d="M122.77,163c-5.48,14.09-17.44,23.08-26.66,19-9.59-4.27-11.79-20.46-4.7-34.93C98,133.62,110,127.32,118,131.93,125.68,136.38,127.87,149.87,122.77,163Z"></path><path class="cls-8" d="M120.76,162.29c-5.07,12.94-16,21.24-24.24,17.52-8.63-3.88-10.18-18.71-3.64-32,6.07-12.32,16.66-18.15,23.83-14C123.64,137.89,125.48,150.25,120.76,162.29Z"></path><path class="cls-63" d="M103.16,174.68l-4.85,2.79V176.3l1.74-3c.52-.9.85-1.52,1-1.85a5.16,5.16,0,0,0,.34-.85,2.47,2.47,0,0,0,.11-.68c0-.32-.08-.52-.23-.59a.76.76,0,0,0-.62.12,3.17,3.17,0,0,0-.78.67,8.58,8.58,0,0,0-.79,1.06l-.8-.63a11.69,11.69,0,0,1,.85-1.2,6.47,6.47,0,0,1,.73-.75,6.79,6.79,0,0,1,.9-.62,2.49,2.49,0,0,1,1.15-.39.91.91,0,0,1,.77.32,1.53,1.53,0,0,1,.27,1,4.18,4.18,0,0,1-.16,1.14,8,8,0,0,1-.53,1.29c-.23.48-.65,1.2-1.24,2.17l-.89,1.48V175l3-1.74Z"></path><path class="cls-63" d="M108.86,169.74l-.83.48v1.66l-1.43.83v-1.66l-3,1.7v-1.18l3.05-6.91,1.35-.78v5l.83-.48Zm-2.26,0v-1.36c0-.22,0-.55,0-1s0-.7,0-.78l0,0c-.12.36-.26.74-.42,1.12l-1.28,2.94Z"></path><path class="cls-63" d="M114.67,168.06l-1.45.83v-3.57c0-.89-.28-1.16-.85-.84a2.07,2.07,0,0,0-.88,1,4.38,4.38,0,0,0-.27,1.7V170l-1.45.84v-8.52l1.45-.83v1.73c0,.14,0,.46,0,1l0,.51.07,0a3.55,3.55,0,0,1,1.54-1.78c.62-.36,1.1-.44,1.42-.24s.48.67.48,1.39Z"></path><polygon class="cls-64" points="91.83 154.16 105.84 156.17 118.7 138.08 106.56 159.09 91.83 154.16"></polygon><path class="cls-65" d="M108.37,157.45c-.75,2-2.38,3.23-3.62,2.66s-1.55-2.85-.58-4.87,2.48-2.76,3.56-2.12S109.07,155.62,108.37,157.45Z"></path><g class="cls-66"><polygon class="cls-67" points="206.69 358.66 196.57 364.8 220.32 364.8 220.32 379.1 230.55 372.84 230.55 358.66 206.69 358.66"></polygon><polygon class="cls-68" points="190.15 369.15 180.03 375.29 203.78 375.29 203.78 389.58 214.01 383.32 214.01 369.15 190.15 369.15"></polygon><polygon class="cls-69" points="172.91 378.57 162.79 384.84 186.55 384.84 186.55 399.13 196.77 392.87 196.77 378.7 172.91 378.57"></polygon><polygon class="cls-70" points="156.67 388.98 146.55 395.25 170.3 395.25 170.3 409.55 180.52 403.28 180.52 389.11 156.67 388.98"></polygon></g><g class="cls-66"><polygon class="cls-67" points="185.42 200.8 195.54 194.66 171.78 194.66 171.78 180.36 161.56 186.63 161.56 200.8 185.42 200.8"></polygon><polygon class="cls-68" points="201.96 190.32 212.08 184.18 188.32 184.18 188.32 169.88 178.1 176.15 178.1 190.32 201.96 190.32"></polygon><polygon class="cls-69" points="219.19 180.9 229.32 174.63 205.56 174.63 205.56 160.33 195.34 166.6 195.34 180.77 219.19 180.9"></polygon><polygon class="cls-70" points="235.44 170.48 245.56 164.22 221.81 164.22 221.81 149.92 211.59 156.19 211.59 170.36 235.44 170.48"></polygon></g><polygon class="cls-4" points="296.93 133.08 304.19 137.19 304.19 100.78 301.19 95.94 296.93 96.66 296.93 133.08"></polygon><polygon class="cls-71" points="309.71 134.69 304.19 137.19 304.19 100.78 309.71 98.27 309.71 134.69"></polygon><polygon class="cls-72" points="306.13 93.1 309.71 98.27 304.19 100.78 301.19 95.94 306.13 93.1"></polygon><polygon class="cls-71" points="302.44 94.15 306.13 93.1 301.19 95.94 296.93 96.66 302.44 94.15"></polygon><polygon class="cls-73" points="306.96 138.88 314.22 143 314.22 111.44 311.22 106.6 306.96 107.32 306.96 138.88"></polygon><polygon class="cls-74" points="319.73 140.49 314.22 143 314.22 111.44 319.73 108.93 319.73 140.49"></polygon><polygon class="cls-75" points="316.16 103.77 319.73 108.93 314.22 111.44 311.22 106.6 316.16 103.77"></polygon><polygon class="cls-74" points="312.47 104.81 316.16 103.77 311.22 106.6 306.96 107.32 312.47 104.81"></polygon><polygon class="cls-76" points="316.97 144.49 324.23 148.61 324.23 99.61 321.23 94.77 316.97 95.49 316.97 144.49"></polygon><polygon class="cls-77" points="329.74 146.1 324.23 148.61 324.23 99.61 329.74 97.1 329.74 146.1"></polygon><polygon class="cls-78" points="326.17 91.94 329.74 97.1 324.23 99.61 321.23 94.77 326.17 91.94"></polygon><polygon class="cls-79" points="322.48 92.98 326.17 91.94 321.23 94.77 316.97 95.49 322.48 92.98"></polygon><polygon class="cls-62" points="327.48 150.23 334.75 154.35 334.75 114.71 331.74 109.87 327.48 110.59 327.48 150.23"></polygon><polygon class="cls-80" points="340.26 151.84 334.75 154.35 334.75 114.71 340.26 112.2 340.26 151.84"></polygon><polygon class="cls-81" points="336.68 107.04 340.26 112.2 334.75 114.71 331.74 109.87 336.68 107.04"></polygon><polygon class="cls-80" points="333 108.09 336.68 107.04 331.74 109.87 327.48 110.59 333 108.09"></polygon><path class="cls-82" d="M298.51.26a2.39,2.39,0,0,1,2.47.2l20.46,12a7.59,7.59,0,0,1,3.43,5.93V43.16a2.31,2.31,0,0,1-1.17,2.29h0l-4.48,2.3L294.7,33.57l-.66-31Z"></path><path class="cls-83" d="M301,.46l20.46,12a7.26,7.26,0,0,1,2.67,3h0l-4.73,2L294,2.53,298.51.26A2.39,2.39,0,0,1,301,.46Z"></path><path class="cls-84" d="M296.43,2.78l20.46,12a7.57,7.57,0,0,1,3.44,5.93V45.48c0,2.18-1.55,3.08-3.45,2l-20.44-11.8A7.55,7.55,0,0,1,293,29.75v-25C293,2.59,294.54,1.7,296.43,2.78Z"></path><path class="cls-8" d="M310.75,25.07l-3.24-1.92V21c0-1,.65-.72.86-.6l2.33,1.38V18.38l-3.26-1.92c-.37-.23-1.75-1-2.69-.71s-1.31,1.25-1.31,2.86v2.14l-2.17-1.28v3.46l2.17,1.28V34.42l4.07,2.41V26.62l2.77,1.63Z"></path><polygon class="cls-8" points="262.37 58.45 295.22 77.53 295.22 80.18 262.37 61.11 262.37 58.45"></polygon><polygon class="cls-8" points="262.37 66.85 295.22 85.92 295.22 88.58 262.37 69.5 262.37 66.85"></polygon><polygon class="cls-8" points="262.37 76.36 278.92 86.02 278.92 88.67 262.37 79.02 262.37 76.36"></polygon><path class="cls-85" d="M309.11,327a43.17,43.17,0,1,1-11.8-59.89A43.17,43.17,0,0,1,309.11,327Z"></path><path class="cls-86" d="M290.19,274.78s0,0-.07-.12l-.1-.08c-.06-.07-.16-.13-.12-.2a.48.48,0,0,1,.13-.12s.22,0,.25.12,0,0,0,.09.11.23.14.26.19.19.31.2.23.1.3.11.4.11.28-.07a1.51,1.51,0,0,1-.15-.28s-.12-.09,0-.12.06-.07.19-.07.2-.1.31,0,.35,0,.49,0a.86.86,0,0,1,.38.08.74.74,0,0,0,.18-.06l.15-.22-.09-.19,0-.25s0-.09.11,0a1.55,1.55,0,0,0,.34.16.3.3,0,0,0,.09-.07,1,1,0,0,0,.05-.18l-.1-.22s.06,0-.07-.11l-.14-.09a1,1,0,0,1-.2-.18s.06-.11.12-.09l.14.05h.16a.12.12,0,0,1,.12-.08h.11s.33-.11.18-.27a1.75,1.75,0,0,0-.34-.31c-.09-.07-.11-.13-.21-.16a.71.71,0,0,1-.18-.05l-.36-.19c-.06,0,0,0-.14-.1a1.68,1.68,0,0,1-.31-.15s-.19-.08,0-.08a1.5,1.5,0,0,1,.28,0,.41.41,0,0,1,.22.1l.2.13a1.34,1.34,0,0,0,.24.12c.1,0,.22.07.2,0a.74.74,0,0,0-.14-.28c-.05,0-.07-.06-.17-.12s-.05-.06-.17-.09-.17-.07-.27-.08-.08,0-.23-.07a.48.48,0,0,1-.29-.11,1.63,1.63,0,0,1-.3-.29,1,1,0,0,0-.14-.29c-.09-.09.08,0-.22-.2s-.5-.37-.5-.37a2.36,2.36,0,0,0-.33-.42c-.12-.08-.25-.23-.32-.21s-.21,0-.32,0-.16-.08-.26-.11l-.38-.13c-.16-.07-.85-.41-1.08-.55a2.63,2.63,0,0,1-.38-.25s.15,0,0-.16l-.14-.14-.1.05h-.17s-.15,0-.1-.06l0-.07s0-.16-.13-.18-.16-.06-.3-.09-.2-.06-.35-.09a1.89,1.89,0,0,1-.49-.26s-.8-.25-1-.55-.25-.33-.4-.29a1.32,1.32,0,0,1-.31,0,.66.66,0,0,1-.41-.11c-.13-.09,0,0-.27-.21l-.23-.22c-.1-.09-.08-.13-.27-.13s-.22.06-.32.09-.24-.07-.35,0,0,.12-.26.06a1.38,1.38,0,0,1-.38-.17s-.9-.27-1.27-.4-.43-.17-.55-.13-.13,0-.32,0a1.93,1.93,0,0,0-.57-.1c-.24,0,0,.05-.24,0s-.46-.16-.54-.15a3.63,3.63,0,0,1-.47,0,.38.38,0,0,0,.11.22c.1.06.18.06.18.14s0,.21,0,.26a1.24,1.24,0,0,0,.22.18c.07.05.06.05.19.06s.16,0,.25,0a1.75,1.75,0,0,1,.36.17s.27.24.28.3l0,.06.25.12c.1,0,.12,0,.19.07a1.85,1.85,0,0,1,.26.16c.13.08.52.39.49.44s0,.22.1.3.06-.1.06.08-.11.18,0,.3.11,0,.08.12a.9.9,0,0,1-.1.2.59.59,0,0,0,0,.2l.1.22.06,0,0,0h0l.05,0a2.53,2.53,0,0,1,.22.15s.28.19.22.26a.15.15,0,0,1-.19,0l-.24-.15a.54.54,0,0,0-.22-.12c-.07,0-.07,0-.15,0s.06.07-.09,0,0-.17-.14,0-.25.15-.2.22a1.85,1.85,0,0,0,.16.18.39.39,0,0,0,.16.1c.06,0,.08,0,.16,0s.17,0,.22,0l.19.08a.51.51,0,0,1,.14.07c.07.05.2.14.16.18s-.07.06-.14.06-.1,0-.22-.05-.31-.09-.38-.1h-.26c-.08,0,0-.11-.22-.05s-.37.07-.41.12a.59.59,0,0,1-.14.12.43.43,0,0,0-.12.16c-.07.13.07.23,0,.36s-.13.11-.16.24.05.13,0,.28,0,.62,0,.66a.72.72,0,0,0,0,.39c.05.14.16.15.16.32s0,.21.11.27.12,0,.19.15a3.72,3.72,0,0,0,.72.67,2.11,2.11,0,0,1,.26.25,1.16,1.16,0,0,1,.27.2c.11.13.09.18.22.2a.63.63,0,0,0,.45-.09c.14-.1,0-.18.21-.25s.15-.11.33-.2.15-.12.28-.12a2,2,0,0,1,.34-.06,1,1,0,0,0,.24,0c.14,0,.12.11.26-.1s.2-.25.31-.22l.17.07s.44.22.54.25,1.17.34,1.3.34.23-.06.46-.06.32-.13.46-.05a.5.5,0,0,0,.33.08c.05,0,0-.12.21-.06l.36.16a1.24,1.24,0,0,0,.19.21,1.28,1.28,0,0,0,.49.3,9,9,0,0,0,1.15.38c.19,0,.23,0,.33.07a.52.52,0,0,0,.32.1C290.13,274.84,290.21,274.83,290.19,274.78Z"></path><path class="cls-86" d="M292.17,278.52a3.05,3.05,0,0,1,.35.15c.22.09,0-.07,0-.2s0,0,0-.06-.11-.14-.09-.21-.08-.11-.17-.32,0,0,.05-.07-.05-.14-.1-.17a5,5,0,0,0-.49-.28s-.1.07-.1.07l-.26,0-.34-.25c-.14-.09-.1-.05-.16-.06s-.17-.11-.35-.23a.71.71,0,0,1-.26-.32c0-.05-.17-.14-.2-.18s0-.21-.09-.28-.27-.06-.42-.12a1.38,1.38,0,0,0-.28,0,.44.44,0,0,0,.17.25,1.64,1.64,0,0,1,.25.22c.15.15,0,0,.05.13s0,.09-.1.1,0,0-.14-.09-.12,0-.2-.06,0,.07,0,.19,0,0,.14.21,0,.11,0,.11.15.27.2.34a1.49,1.49,0,0,0,.3.26c.16.13.19.18.41.34s.24.2.39.25a.9.9,0,0,0,.26,0c.1,0,.47.1.72.16Z"></path><path class="cls-86" d="M270,266.57l-.11,0a.73.73,0,0,1-.26,0,.78.78,0,0,0-.28,0l-.09.12a.78.78,0,0,0,.22,0,.73.73,0,0,1,.22.06c.11,0,.12.06.17.06s.14,0,.18,0,0-.08,0-.08l.05-.07Z"></path><path class="cls-86" d="M271,273.65a.33.33,0,0,0,.25,0c.1,0,0-.15,0-.15l-.33-.27a1.3,1.3,0,0,1-.17-.17c-.09-.09,0,0-.18-.12a.64.64,0,0,0-.22-.11c-.14-.06,0,0-.06.07s.09.23.09.23l0,.13c-.11,0,.32.24.48.28S270.87,273.58,271,273.65Z"></path><path class="cls-86" d="M267.21,268.55a1,1,0,0,0,.38.15c.21,0,0,0,0-.09s-.12-.12-.2-.17a.56.56,0,0,0-.16-.07l-.14-.08s0-.07-.09-.11a1.74,1.74,0,0,0-.31-.23c-.13-.09.09.24.09.24s.07.17.09.2a.89.89,0,0,0,.29.13C267.28,268.53,267.16,268.52,267.21,268.55Z"></path><path class="cls-86" d="M273.35,274.48c.1-.11,0,0,.11,0s.15-.09.14-.18-.07-.05-.14-.06l-.21,0a.77.77,0,0,0-.36.08c-.26.09-.22.07-.33.07s-.14.08-.41.13a1.06,1.06,0,0,0-.29.07s-.28,0-.32.09l0,.21a1.18,1.18,0,0,0,.28.19,1.74,1.74,0,0,1,.41.2c.11.07.11.14.14.18s.12.24.17.27a2,2,0,0,0,.39.09c.08,0,.18-.11.29-.17s.2.07.34.09.11,0,.24-.08-.12-.12-.11-.2.09-.12.07-.2-.11-.07-.18-.12a.41.41,0,0,1-.18-.19c0-.09,0,0,0-.12s-.09-.06-.17-.19S273.24,274.58,273.35,274.48Z"></path><path class="cls-86" d="M273.34,276.47c.09,0,.09,0,.14,0s.06-.06.14-.17,0,0,0-.1-.05-.07-.09-.13l-.08-.11c-.05,0-.08,0-.21,0s0,0,0,0-.18.05-.2.08a2.62,2.62,0,0,0-.06.3.31.31,0,0,0,.27,0C273.4,276.41,273.26,276.46,273.34,276.47Z"></path><path class="cls-86" d="M255.79,282.85a.61.61,0,0,0,.42,0c.12-.05,0-.17,0-.17l-.11-.34a2.79,2.79,0,0,1-.19-.31,1.35,1.35,0,0,1-.11-.32,1,1,0,0,1-.08-.55c0-.33-.09-.15-.11-.22a6.37,6.37,0,0,1-.55-.9c0-.1-.1-.15-.14-.25s-.24,0-.29-.07-.23,0-.28,0-.1.07-.22.09a1.93,1.93,0,0,1-.34,0c-.13,0,0,.24,0,.24l.21,0,.19.06.22,0a4.31,4.31,0,0,1,.19.46,2.4,2.4,0,0,0,.16.3,1.24,1.24,0,0,0,.26.32c.06.08,0,.17-.06.21s0,.13.06.27-.05.18-.05.18a2.07,2.07,0,0,1-.14.31c-.07.1.1.12.22.21s.25.2.35.27A1.51,1.51,0,0,0,255.79,282.85Z"></path><path class="cls-86" d="M256.82,284.54l.34.26c.1.07.17,0,.36,0s.06-.16.06-.16l-.08-.24a1.47,1.47,0,0,1,0-.27c0-.07,0-.21-.27-.48s-.2-.11-.27-.16a.33.33,0,0,1-.1-.16,2.17,2.17,0,0,0-.35-.25c-.13-.07-.16.05-.19.1s0,.26,0,.26,0,.17-.07.22-.17,0-.29-.09-.06,0-.08-.2-.09-.07-.19-.14-.11,0-.18,0-.08.27-.11.3l.07.33a1.09,1.09,0,0,0,.28.16c.09,0,.12,0,.25.09s.16.18.2.21l.32.12c.16.05,0,0,.11-.07S256.76,284.5,256.82,284.54Z"></path><path class="cls-86" d="M254.55,282.76c-.16-.12-.08-.09-.16-.12s0-.08-.09,0-.21.08-.22.15a.32.32,0,0,0,0,.16c0,.07,0,.08.1.16a1.18,1.18,0,0,0,.45.19c.06,0,.07-.16,0-.2l-.19-.2S254.71,282.89,254.55,282.76Z"></path><path class="cls-86" d="M257.88,285.27l.17.22.22.15c.13.08.08,0,.19-.11s0-.1-.08-.16-.07-.08-.06-.15-.08-.14-.11-.18a.43.43,0,0,0-.12-.06l-.06.15-.07,0A.11.11,0,0,0,257.88,285.27Z"></path><path class="cls-86" d="M302.59,280.73a.64.64,0,0,0,.24.21c.23.16.28.19.42.14s.18-.09.3-.05a.72.72,0,0,1,.35.18.22.22,0,0,1,0,.19.18.18,0,0,0,.06.19,2.88,2.88,0,0,1,.24.18.93.93,0,0,0,.23.23c.11,0,.2.08.25,0s.18,0,0-.19a4.14,4.14,0,0,1-.29-.38l.05-.07a.16.16,0,0,1,.17,0c.1.06.16.06.23.11l.35.19.24.2h.12s.42.14.16-.11a5.6,5.6,0,0,0-.5-.41s-.25-.3-.32-.37.13,0-.16-.18l-.46-.31-.38-.25c-.14-.1-.15-.16-.21-.17a.54.54,0,0,0-.22,0,2,2,0,0,0-.38-.18c-.07,0-.41.34-.41.34l-.12.18C302.57,280.58,302.5,280.65,302.59,280.73Zm1.17-.32.32.21a1.36,1.36,0,0,1,.25.17s.25.19.13.23-.14,0-.2,0a1.91,1.91,0,0,1-.31-.18l-.28-.19S303.62,280.32,303.76,280.41Z"></path><path class="cls-86" d="M292.79,330.39c.14-.16-.05-.36-.21-.43s-.31.36-.31.36a1.85,1.85,0,0,1-.32.21.59.59,0,0,0-.25.26l-.52.26a.71.71,0,0,1-.54-.05.58.58,0,0,0-.4-.15c-.13,0-.31.1-.45.15s-.38.25-.59.35-.24.23-.32.36a8.23,8.23,0,0,1-.67.9c-.21.21-.18.05-.34.09a3,3,0,0,0-.66.44,2.9,2.9,0,0,1-.48.36c-.22.1-.1.14-.21.25a1.8,1.8,0,0,0-.25.37.49.49,0,0,0-.08.33,1.41,1.41,0,0,0,.31.39c.14.1.18-.06.55-.13s.18.05.36,0,.34,0,.47-.07a4.44,4.44,0,0,0,.58-.65c.31-.36.29-.16.41-.29s1-.76,1.25-.91a4.52,4.52,0,0,1,.54-.27,1.9,1.9,0,0,0,.51-.51,1.48,1.48,0,0,1,.47-.33l.24,0,.4-.44c.16-.18.06-.35.21-.57S292.65,330.54,292.79,330.39Z"></path><path class="cls-86" d="M302.75,303.27Z"></path><path class="cls-86" d="M302.75,303.27v0Z"></path><path class="cls-86" d="M302.08,303.17a.33.33,0,0,0,.12.29c.15.12.13.06.21,0a.34.34,0,0,1,.22,0,.23.23,0,0,0,.19,0c.11,0,0,0,.05-.18s0,0-.11-.09l-.25-.19Z"></path><path class="cls-86" d="M302.75,303.27l0,0Z"></path><path class="cls-86" d="M296,293.7c0-.13,0,0-.07-.07s.05-.18,0-.3a.89.89,0,0,0-.18,0c-.07,0-.06.06-.13,0s-.07.08-.1.12l-.11.17v.26a.55.55,0,0,0,.27.07c.2,0,0,0,.16,0A.25.25,0,0,0,296,293.7Z"></path><path class="cls-86" d="M295,294.43l0,.18-.18.09a1.13,1.13,0,0,1-.19.18c-.09.05,0,.1,0,.1l.21.14c.07.05.45.07.5,0s.11-.06.18-.09.13-.09.16-.24,0,0,0-.07a.18.18,0,0,1,0-.21.18.18,0,0,0,0-.17l-.26-.15a.74.74,0,0,0-.24,0H295C294.94,294.18,295,294.43,295,294.43Z"></path><path class="cls-86" d="M291.19,283.7a1.51,1.51,0,0,1,.12.28c.06.15,0,0-.08,0a2.08,2.08,0,0,1-.25,0c-.1,0-.06.05-.26.27s.19.2.19.2l.19.15a.53.53,0,0,0,.27.13.64.64,0,0,0,.26,0c.1,0,.16,0,.22,0s.19.11.38.18.13.06.23,0,.09-.05.13-.12,0-.17.08-.26a.8.8,0,0,1,.13-.19c.07-.08.17,0,.17,0a1.21,1.21,0,0,0,.11-.19c0-.06-.17-.25-.17-.25a.79.79,0,0,0-.13-.26c-.09-.11-.1-.06-.17-.11l-.27-.18a.28.28,0,0,0-.19,0,.69.69,0,0,1-.24.18.2.2,0,0,1-.2,0c-.09,0-.08-.06-.16-.11s-.11-.05-.11-.05l-.24,0v.3Z"></path><path class="cls-86" d="M293.27,283.46a1,1,0,0,0,.11.26.11.11,0,0,1,0,.15.56.56,0,0,0,.16.08l.15,0a1.34,1.34,0,0,0-.13.15l-.12.21.09.06.35.21.06.27,0,.21a.68.68,0,0,1,0,.26c0,.07-.08,0-.17,0a.19.19,0,0,1-.12-.06l-.29,0c-.18,0,0,0,0,.24s-.19,0-.19,0H293c-.19,0-.11.09-.16.17s.14.1.21.15l.19.13a.92.92,0,0,1,.13.27c0,.14-.15,0-.15,0a3,3,0,0,0-.44-.13c-.26-.06,0,0-.1-.05a.68.68,0,0,0-.27,0c-.08,0-.13.24-.13.24s.33.2.44.25a.25.25,0,0,0,.2,0c.09,0,.2.11.27.09s.2,0,.2,0l.23.13s.34.18.41.23.25.19.32.24l.3.17c.19.11.31.12.37.06s-.05-.07-.05-.15a.82.82,0,0,0,0-.19l.18-.09c.18-.1.28,0,.28,0l0-.29c0-.29-.21-.14-.28-.19s-.07-.07-.16-.25,0,0,0-.09a1.16,1.16,0,0,1-.06-.42c0-.1-.05-.13-.07-.24a2.83,2.83,0,0,1-.11-.64c0-.16-.06-.2-.09-.36a.37.37,0,0,1,.05-.28.62.62,0,0,1,.08-.21c.06-.08.17,0,.26-.16s0,0-.05-.05-.11,0-.16-.06a1.49,1.49,0,0,1-.23-.2c-.09-.11,0-.11,0-.16s.2,0,.2,0l.24-.12c.25-.12,0-.11,0-.11l-.21-.07s-.15-.1-.31-.23-.15,0-.22,0-.25.16-.34.18a1.47,1.47,0,0,1-.36,0l-.15.19C293.23,283.41,293.27,283.46,293.27,283.46Z"></path><path class="cls-86" d="M293.39,284.94l.21.05.08-.09c.08-.09-.09-.15-.09-.15l-.21-.1c-.13-.07-.16.08-.16.08S293.27,284.91,293.39,284.94Z"></path><path class="cls-86" d="M310,290.27a.76.76,0,0,0,.16.22l.22.17s.17-.15.05-.22-.17-.1-.16-.16.11-.12,0-.17-.17-.18-.2-.13-.06,0-.08.11S309.93,290.14,310,290.27Z"></path><path class="cls-86" d="M310.7,289.9c.05.1.16.08.16.29a.82.82,0,0,0,.07.36,2.87,2.87,0,0,0,.21.33c.06.11,0,.09.13.16s.39.21.39.21.22,0,.12-.17a.73.73,0,0,1-.17-.34c0-.16-.07-.21-.08-.31s0-.31,0-.33a1.12,1.12,0,0,1,.22-.09c.08,0,0-.16.19,0l.35.22a2.46,2.46,0,0,0,.26.14.87.87,0,0,1,.15.13,1.66,1.66,0,0,0,.22.17l.05,0,.13-.12a.12.12,0,0,0,0-.17l-.39-.26s-.12-.1-.27-.2-.18-.19-.33-.29a1.37,1.37,0,0,0-.26-.18c-.08,0-.23-.18-.35-.21s-.17-.11-.24,0-.13.16-.18.24a.34.34,0,0,1-.18.12c-.07,0,.16-.09-.07,0S310.65,289.79,310.7,289.9Z"></path><path class="cls-86" d="M262,305.79c.12-.19.09-.17.19-.32a.73.73,0,0,0,.12-.43c0-.05-.06-.31-.06-.31a.18.18,0,0,0-.05-.27c-.18-.12-.16-.12-.3-.2s-.25-.09-.29-.17a2.21,2.21,0,0,1-.18-.55c0-.09-.27-.66-.33-1s0-.45-.19-.54a1.74,1.74,0,0,1-.39-.23,1.28,1.28,0,0,1-.23-.4c-.08-.15-.1-.25-.17-.27a.86.86,0,0,0-.28,0c-.09,0-.09-.11-.23,0s-.16.16-.23,0-.13-.26-.06-.33a1.77,1.77,0,0,0,.16-.22l-.19-.47a.35.35,0,0,1-.27-.29,1,1,0,0,0-.2-.52c-.09-.06-.09-.19-.19-.13s.12.15-.09.06-.47-.15-.36-.22a1.5,1.5,0,0,0,.23-.29.75.75,0,0,1-.15-.24c0-.11-.19-.22-.11-.33s.07-.35.13-.42a1.18,1.18,0,0,0,.19-.25s.1-.41.1-.41a2.26,2.26,0,0,1,.07-.7,4.2,4.2,0,0,1,.18-.68,1,1,0,0,0,0-.58c0-.17-.24-.53-.22-.57a.42.42,0,0,0-.18-.42c-.18-.12-.12-.21-.33-.22a1.7,1.7,0,0,1-.4-.1,3.14,3.14,0,0,1-.25-.31l-.43-.71a2.09,2.09,0,0,1,.23-.49c.13-.19.26-.18.15-.36s-.32-.39-.3-.5.06-.46.06-.46a.46.46,0,0,0,0-.36c-.11-.16-.24-.26-.26-.33a2.11,2.11,0,0,0-.13-.34c-.05-.08-.1-.35-.22-.43s-.18-.19-.32-.11a1.11,1.11,0,0,1-.35.14.25.25,0,0,1-.18-.14c0-.07,0-.28,0-.36a.83.83,0,0,0-.18-.19s.09-.28-.15-.19-.26.18-.31,0-.12-.46-.12-.46.33-.28.21-.44-.28-.26-.25-.38,0-.17.07-.24.21-.23.09-.31-.16-.25-.37-.28-.22-.15-.34,0-.06.06-.31.23,0,.16-.26.17-.16.05-.34-.07.07-.13-.19-.12a1.79,1.79,0,0,0-.39,0c-.16,0-.18,0-.26,0l-.35.34a2.44,2.44,0,0,1-.66.44c-.18,0-.15-.17-.2-.2s-.06-.09,0-.36.08-.49-.09-.51-.16-.22-.34-.13a.82.82,0,0,1-.48.08,1.64,1.64,0,0,1-.32-.15s0,0,0-.29-.08-.38.06-.6a7.16,7.16,0,0,1,.44-.69,6.35,6.35,0,0,0,.4-.52c.11-.13.33-.46.33-.46s.41-.46.24-.84-.21-.47-.4-.5a1.93,1.93,0,0,1-.54-.27c-.08-.05-.29-.15-.14-.38a2.41,2.41,0,0,1,.29-.44c.07,0,0,.14.26-.09a2.19,2.19,0,0,0,.44-.46l.2-.18.17-.26s.1-.15.18-.12.26-.11.26-.11l.22-.26h.15s-.07-.35-.3-.27a2.31,2.31,0,0,1-.74,0c-.2,0-.19-.1-.32,0a3.08,3.08,0,0,1-.27.25,1.5,1.5,0,0,1-.33.25c-.16.11-.23.13-.32.12a.4.4,0,0,1-.32-.1c-.12-.12-.17-.15-.24-.12s-.08,0-.18,0-.25-.11-.2-.19.13-.18.1-.26-.09-.15-.06-.21,0-.17.08-.23.13-.09.11-.21a1.25,1.25,0,0,1,.11-.58c.06-.08.14-.38.22-.4s.13-.25.3-.35l.3-.22s.06-.08.17-.19l.21-.29.1-.07.34-.2a.62.62,0,0,0,.28-.23,2.4,2.4,0,0,0,.24-.41s.14-.3.25-.35.15-.06.22,0h.25a.88.88,0,0,0,.23-.1s0,0,.11,0a.44.44,0,0,0,.13.06l.25-.11a.17.17,0,0,1,.16-.07c.09,0,.11,0,.17,0a1.57,1.57,0,0,1,.26.1s.08,0,.13,0a1,1,0,0,1,.12.15.81.81,0,0,1,.12.14.78.78,0,0,1,.12.22c0,.08.05.17.12.16s.17-.06.21,0a.55.55,0,0,0,.18.08s.13,0,.13-.05a.74.74,0,0,0-.05-.19s0-.07,0-.11a1.46,1.46,0,0,0,.09-.18s0-.1.06-.07.22.08.27.16a.7.7,0,0,0,.21.19l.17.11.22.15c.07,0,.19.07.18.14a.34.34,0,0,1,0,.12s0,.17,0,.17-.09,0,0,.11.12.17.16.17l.17-.06h.12s.19.17.1.23-.16.05-.13.15.05.09,0,.15a1.8,1.8,0,0,1-.25.29.73.73,0,0,0-.18.14,1.05,1.05,0,0,0-.15.24c0,.07-.1.17-.12.24s0,0,0,.19,0,.12,0,.17,0,.16,0,.19,0,.06,0,.11-.11.08-.08.17,0,.1,0,.13.07.15.17.11a.5.5,0,0,0,.2-.13c.07-.05,0-.08.15-.11s.17,0,.28-.14a1.64,1.64,0,0,0,.21-.24,2.68,2.68,0,0,0,.22-.32s.08-.28.12-.37a2.6,2.6,0,0,1,.23-.44c.06-.07.2-.28.22-.31s.14-.26.18-.31a1.74,1.74,0,0,1,.1-.16s.58-.28.66-.33a.55.55,0,0,1,.28-.07,1.49,1.49,0,0,0,.44-.09c.1,0,.2-.13.29-.11l.34,0a3.82,3.82,0,0,0,.79-.16.65.65,0,0,1,.33,0,.31.31,0,0,0,.24-.07,1.48,1.48,0,0,0,.21-.28c.09-.14.08-.26.22-.32a2.3,2.3,0,0,0,.34-.28c.05,0,.06-.12.1-.1s.08.05,0,.15-.11.09-.12.18,0,.15.05.13a1.43,1.43,0,0,1,.2-.14l.17-.08s.07,0,.16-.1l.24-.3a.37.37,0,0,1,.14,0,.71.71,0,0,0,.39,0l.42-.13c.12-.05.13-.09.26-.06a.51.51,0,0,0,.36,0c.13-.06.16-.15.24-.14a1,1,0,0,1,.32.15.66.66,0,0,0,.24.09.63.63,0,0,0,.27-.17c0-.07,0-.06.08-.15a.63.63,0,0,1,.3-.16c.09,0,.55-.14.69-.14l.45.06c.16,0,.16,0,.29,0s.37,0,.47,0,.22,0,.31,0,.2-.07.21.08,0,.17,0,.21-.37.08-.41.14a1.54,1.54,0,0,0-.13.14s-.08.05,0,.11a1.51,1.51,0,0,0,.71,0c.13,0,.14-.17.32-.06a1.24,1.24,0,0,0,.47.16l.3.07c.15,0,.26,0,.31,0a.52.52,0,0,0,.27,0,1.1,1.1,0,0,1,.21-.09.43.43,0,0,0,.16-.07s.16-.13.17-.17.11-.11,0-.1-.06,0-.2,0a1.18,1.18,0,0,1-.29.05,1.61,1.61,0,0,1-.31,0l-.22,0c-.15,0-.17-.08-.31-.11s-.19,0-.17-.07a.43.43,0,0,0,0-.23.68.68,0,0,1,0-.17c0-.07,0-.14,0-.21l.18-.17c.14-.12.14-.17.2-.17l.16,0a.82.82,0,0,1,.19-.06c.07,0,.12,0,.15-.07s.08-.17,0-.23,0-.17-.2-.23-.1-.12-.32-.12a2.06,2.06,0,0,1-.39,0c-.15,0-.47-.08-.56-.08h-.29c-.15,0-.25,0-.36,0s-.28.12-.28,0,0-.18.1-.16a.78.78,0,0,0,.35,0,2.83,2.83,0,0,1,.37-.06l.4,0h.32a1.51,1.51,0,0,0,.37,0c.15,0,.09-.07.28-.06a.7.7,0,0,1,.36.1,1.07,1.07,0,0,0,.24.12c.07,0,0-.08.19.06l.44.36a1.74,1.74,0,0,1,.51.2c.13.1.08.12.3.21a1.65,1.65,0,0,0,.37.08,1,1,0,0,0,.36,0h.82a.41.41,0,0,1,.3.05l.26.1c.12,0,.24.05.29,0s.14-.26.2-.24.21-.05.17-.15a1.47,1.47,0,0,0-.13-.3c-.05,0-.08-.2-.08-.2s.12-.18.08-.22a1.11,1.11,0,0,0-.18-.24A3,3,0,0,1,274,272a.73.73,0,0,1-.11-.23,2.78,2.78,0,0,1,.15-.41c.07-.1.22-.15.18-.31s-.1-.17-.06-.28,0-.36.05-.43a.32.32,0,0,0,0-.29c0-.15.12-.18-.06-.23s-.12-.15-.34-.08a2.75,2.75,0,0,1-.39.13,2.13,2.13,0,0,1-.63.09c-.15,0-.2.06-.27-.1s-.18-.37-.11-.48a2.17,2.17,0,0,1,.28-.3s0-.16,0-.16-.06-.25-.18-.28-.25.11-.26-.15.07-.23,0-.35-.12-.2-.24-.27-.2-.16-.29-.18,0,.07-.16,0-.08-.14-.2-.15-.2,0-.29,0,0,0-.15-.06.05-.06-.11-.08a.94.94,0,0,0-.49.27s0,.06-.1.14a.89.89,0,0,1-.31.17c-.05,0,0-.17-.17,0a1.14,1.14,0,0,1-.31.13.27.27,0,0,0-.15.11.28.28,0,0,0,0,.24c0,.07.1,0,0,.16s0,.09-.15.2a3,3,0,0,1-.26.21c-.11.07-.18.14-.29.14a1.38,1.38,0,0,1-.37-.15,2.14,2.14,0,0,1-.38.11c-.14,0-.27,0-.31,0s0-.25-.15,0,0,.31-.22.19a2.14,2.14,0,0,1-.47-.37c-.11-.12-.33-.35-.32-.39s-.07-.15,0-.22-.07-.18,0-.32.09-.2,0-.37-.09-.32-.16-.5a2.22,2.22,0,0,1-.12-.38.23.23,0,0,0-.09-.24c-.11-.08-.25,0-.16-.13s.1-.35.32-.39.26-.12.46-.16.25-.14.44-.17.32-.12.45-.09.09-.07.4,0a2.77,2.77,0,0,0,.66.1H269a1.35,1.35,0,0,0,.33,0c.18,0,.23-.13.29-.1s.21,0,.19.08a.21.21,0,0,1-.13.13c-.06,0-.14,0-.21,0a1.2,1.2,0,0,0-.23.12s0,.05,0,.19l.06.13a.23.23,0,0,0,.2.07c.11,0,.15-.07.25-.06s.15,0,.25,0,.11.05.12.12.06.07.08.11a.58.58,0,0,0,.14.12l.12,0s.12,0,.16,0h.18a1.42,1.42,0,0,1-.1-.26c0-.05,0,0,0-.1a.4.4,0,0,0-.07-.16s-.12-.12,0-.11a1.57,1.57,0,0,1,.48.25,2.14,2.14,0,0,0,.27.16c.16.09.23,0,.28.16s.06.1,0,.15-.08,0,0,.09,0,0,.07.08l.25.13.49.29.33.1c.06,0,.23.09.25.16a1.18,1.18,0,0,1,0,.19.57.57,0,0,0,0,.23,2,2,0,0,0,.13.29,2.3,2.3,0,0,0,.22.27s.14.07.16.14a1.14,1.14,0,0,0,.1.19,1.64,1.64,0,0,0,.21.23h.21l.24-.09a.45.45,0,0,0,0-.14,1.49,1.49,0,0,0-.14-.24s0-.16,0-.18,0-.11.08,0,.1.08.11.13.13.15.15.2a1.58,1.58,0,0,0,.16.22l.05.08a2.62,2.62,0,0,0,.46.1.76.76,0,0,0,.36,0c.18,0,.25-.05.34,0a2.92,2.92,0,0,0,.31.14,1.1,1.1,0,0,0,.39.05c.09,0,.09-.09.23-.08s.19,0,.37,0a1.43,1.43,0,0,0,.33,0c.07,0,.17,0,.23-.09a3,3,0,0,0,.15-.28.27.27,0,0,1,.26-.27,3.75,3.75,0,0,0,.38,0c.05,0,.08,0,.09-.09s.07-.08,0-.15-.14-.12-.14-.19-.07-.11,0-.17.15-.11.18-.1a.24.24,0,0,0,.17,0l.14-.08.09-.13a.63.63,0,0,0-.17-.18c-.08,0-.1,0-.17-.11a1.4,1.4,0,0,1-.16-.24s.05-.07-.09-.13a.65.65,0,0,0-.28-.06s0,0-.24-.09-.21-.18-.4-.25l-.38-.14c-.14-.05-.08-.13-.22-.08s-.13.11-.2.07l-.16-.12s0-.08-.15-.14a1.18,1.18,0,0,0-.28-.09.35.35,0,0,1-.17,0,4.81,4.81,0,0,1-.55-.43l-.25-.24s-.26-.17-.16-.17.15,0,.15-.05,0-.08-.11-.15-.08-.09-.26-.15a2.42,2.42,0,0,1-.36-.17c-.15-.06-.1-.07-.22-.09a1.4,1.4,0,0,1-.33-.25,1,1,0,0,0-.27,0c-.11,0,0,0-.19,0a1.13,1.13,0,0,1-.3,0c-.13,0-.2,0-.19-.05a.86.86,0,0,0,.05-.15s0,0-.13-.09a2.14,2.14,0,0,1-.31-.11l-.16-.07c-.06,0-.33-.2-.3-.24s.05-.19.19-.14a.3.3,0,0,0,.27,0c.06,0,.11-.12.15-.12s.08-.1.08-.1,0-.14-.08-.15a.6.6,0,0,0-.2,0s.05,0-.19,0l-.31-.08a.77.77,0,0,1-.27-.12l-.1-.13-.47-.05c-.23,0-.08.1-.41-.11s-.31-.2-.44-.29l-.28-.19-.21-.14-.25-.17c-.14-.09-.08-.1-.18-.2s-.12-.14-.23-.14-.08-.09-.29-.07-.13,0-.34,0-.14.15-.33.11l-.29-.06c-.09,0-.07,0-.16-.11s-.09-.1-.23-.1-.17,0-.29,0-.18,0-.3.05-.31-.08-.4-.07h-.16l-1.42.34c-.14,0-.08-.1-.26,0a.51.51,0,0,1-.45,0c-.15,0-.15-.08-.29,0a3.78,3.78,0,0,1-1,.22c-.22,0-.4-.08-.56,0s-.12,0-.32.07a1.09,1.09,0,0,1-.52,0s-.34,0-.08-.15c.06,0,.06-.1,0-.22A43,43,0,0,0,257,263a.52.52,0,0,1,.22.15c.09.16.35,0,.25.31s.11.1,0,.45-.14.36-.37.39-.43.06-.43.06a.8.8,0,0,0-.26.22c-.1.15,0,.08.06.12s.11,0,.11,0,0,.09-.07.15-.07,0-.2.09-.15,0-.23.09l-.2.24-.2.25-.18.15c0,.06-.16,0-.19,0a.27.27,0,0,0-.14.06.35.35,0,0,0-.09.11c0,.07-.11.14-.11.2s0,.12,0,.16-.14,0-.06.12.06.17.12.15a.48.48,0,0,0,.13-.09s0-.12.11-.11.19-.06.18.05a.32.32,0,0,1-.06.17.87.87,0,0,0-.08.1c0,.05,0,.12-.14.14s0,0-.1,0a.38.38,0,0,1-.29-.12s0-.15-.09-.13l-.25.06s-.86.7-1,.82-.1.2-.39.32a1,1,0,0,0-.41.24c-.17.13-.39.26-.46.32a4,4,0,0,0-.71.48c-.09.13-1,1.38-1.15,1.6s-.41.6-.35.66.16,0,.12.12l-.05.2c0,.05-.49.76-.64,1s-.34.35-.39.47a.44.44,0,0,0,0,.26s0,.23-.14.31-.1.05-.18.15,0,.14-.11.15,0-.14-.14,0-.14.21-.14.27,0,.05,0,.16a.9.9,0,0,1-.08.23c-.06.11-.12.19-.18.28a.45.45,0,0,0-.05.23.6.6,0,0,0,.06.2s.05.09.09.07,0,0,.12-.14,0-.2.13-.3l.19-.16a.94.94,0,0,0,.28-.38,2.79,2.79,0,0,0,.16-.37,2.09,2.09,0,0,0,.15-.3,1.1,1.1,0,0,1,.15-.24c0-.07.07-.25.14-.32l.23-.19c.06-.05.12-.13.2-.19s.11-.15.14-.12a.51.51,0,0,1,0,.28,1.34,1.34,0,0,1-.12.24,1.13,1.13,0,0,0-.14.15,5.34,5.34,0,0,0-.29.6c0,.09-.14.11-.17.26s.05.19,0,.27a1,1,0,0,1-.09.25c-.07.1-.32.58-.38.7a.92.92,0,0,0-.14.35c0,.12.08.11,0,.21s-.13.13-.13.22.07.2.06.23a.92.92,0,0,1-.12.37c-.1.15-.16.17-.24.3s-.07.08-.15.21a4.2,4.2,0,0,1-.44.57,1.45,1.45,0,0,0-.25.38,1.32,1.32,0,0,1,.05.45,1.09,1.09,0,0,0-.07.3.46.46,0,0,0,0,.26s0,.06.06.14a.71.71,0,0,0,.08.2,6.82,6.82,0,0,0,.16.68c0,.11.13.17.12.28a.47.47,0,0,0,.09.25,1.25,1.25,0,0,0,.15.27s.06.28.18.16l.12-.12s.11,0,.16,0,0,0,.15,0,.23,0,.22,0,0,.18,0,.22a.9.9,0,0,0,0,.23,1.54,1.54,0,0,1,0,.19,1.92,1.92,0,0,1,0,.53c0,.12-.08.19-.06.25s.09.14.1.2.26.12.26.26a.5.5,0,0,0,.09.25c0,.05,0,0,.07.1a.24.24,0,0,0,.1.1l.16.11c.05,0,.15.19.12.21s-.08.23-.15.35a.66.66,0,0,0-.1.26c0,.08,0,.17,0,.23a.44.44,0,0,0,0,.18s-.15.29-.22.39a1.12,1.12,0,0,0-.07.37l.09.11s.06-.05.06,0a2.22,2.22,0,0,1,0,.39.52.52,0,0,0,0,.26c0,.09.09.15.08.19a.8.8,0,0,0,.08.33s.11.06.11.12a.34.34,0,0,1,0,.1c0,.05.14.17.12.21a1.36,1.36,0,0,0,0,.18s.09.1.08.14,0,.07.05.09.13.05.14,0a.56.56,0,0,1,0-.21s.11-.11.13-.14,0-.09,0-.11.12-.08.15-.07h.11a.85.85,0,0,0,.19-.06c.07,0,.1-.08.11-.05s0,.2,0,.24.05,0,0,.12a.43.43,0,0,1-.1.26,1.44,1.44,0,0,1-.09.21.74.74,0,0,0,0,.31,1.18,1.18,0,0,1,0,.25.57.57,0,0,1,0,.24,1.37,1.37,0,0,0-.11.23s-.49,1.12-.7,1.13-.29.14-.4.29a.57.57,0,0,1-.33.17s-.58.3-.64.35l-.12.11c-.06.06-.21,0-.28.07s-.07,0-.12.09a5.22,5.22,0,0,0-.5.49c-.15.21-.36.5-.42.6s-.08.13,0,.19.06.14,0,.18-.09.11-.06.16.06,0,0,.11a.2.2,0,0,1-.13.12,1.62,1.62,0,0,1-.18,0c-.06,0,0,0-.06,0l-.27.14-.14.08a1.1,1.1,0,0,0-.14.18.75.75,0,0,0-.08.14.82.82,0,0,1,0,.38c-.06.1-.1.09-.14.22a.54.54,0,0,0,0,.23,2.62,2.62,0,0,1,.06.43c0,.08,0,.14-.07.23s0,.24,0,.28,0,.16,0,.23a.89.89,0,0,0-.09.22s-.24,1.4-.31,1.59-.12.18-.07.39l0,.21s-.08.29-.1.39,0,.06,0,.17a.77.77,0,0,1,0,.18l-.08.13c0,.06,0,.13-.05.15a2.59,2.59,0,0,0-.07.79c0,.25.15.45.14.5s.29.53.25.61,0,.12,0,.21v.08s.06.33.07.45a.42.42,0,0,0,0,.25,1,1,0,0,0,.15.22.21.21,0,0,1,0,.16.32.32,0,0,0,0,.18.36.36,0,0,1,.08.16,1.35,1.35,0,0,1-.14.48c-.05,0,0,0-.09.11s0,.14-.09.22a1.05,1.05,0,0,0-.18.25c0,.08,0,.18,0,.25s-.06.12-.11.2-.11.23-.16.31a.8.8,0,0,0-.13.21,3.3,3.3,0,0,1-.17.45,3.94,3.94,0,0,0-.33.54,4.58,4.58,0,0,1-.23.75c-.05.08-.09.09-.17.22l-.16.23a4.75,4.75,0,0,1-.4.77c-.1.08-.16.13-.14.21s.06,0,0,.09,0,.15-.1.2.13-.07-.06.06a.64.64,0,0,0-.26.24.93.93,0,0,0,0,.2,2.7,2.7,0,0,1-.22.61,1.38,1.38,0,0,0-.16.37.35.35,0,0,1,0,.22c-.08.12-.21.28-.25.34l-.13.2-.42.61c-.06.09-.14-.08-.22,0s-.15.14-.17.24.08.23.06.3a.65.65,0,0,1-.09.17s-.27.92-.37,1.09-.1.16-.22.35-.12.19-.14.25a1.45,1.45,0,0,1-.11.56c-.12.2-.06.23-.1.34s0,.15-.08.21a.74.74,0,0,1-.12.11s0-.13-.07,0-.08.08-.12.19-.07.17,0,.24l.08.07s.13,0,0,.16-.1,0-.19.14-.13.09-.19.22l-.13.26c0,.05,0,.89,0,1s-.07.12,0,.31a1.31,1.31,0,0,0,.12.3c0,.11.21.18.2.27a.29.29,0,0,0,0,.16s.18,0,.14.14a.11.11,0,0,1-.16.05s0-.08-.07,0,0,.11,0,.21.23.34.23.48.07.19.1.28a.56.56,0,0,0,.1.22l.17.23s.2.39.35.44a2.54,2.54,0,0,1,.36.2s.07.21.15.17.17-.07.24.07.09.25.15.2.15-.05.13-.13,0-.17-.06-.23a2.3,2.3,0,0,1-.12-.34l-.13-.28c-.07-.14-.21-.07-.15-.36a3.67,3.67,0,0,0,.09-.42c0-.19-.16-.34-.12-.57a1.61,1.61,0,0,0,0-.41l.15.05a1.32,1.32,0,0,0,.31-.29.3.3,0,0,1,.18,0c.11,0,.27.13.28-.05a2,2,0,0,0,0-.32c0-.36.14-.28,0-.36a1.09,1.09,0,0,1-.26-.18s-.17-.2-.1-.34l.13-.27h.27s0,.11.11.1,0-.05.08,0,.17.14.26.11.22-.09.26-.21,0-.35.07-.43a.6.6,0,0,0,.14-.31c.05-.25,0-.42,0-.48s.07-.27.15-.21a.48.48,0,0,1,.13.22l.16.16c.06,0,0,.13.09.18s-.09.1.09.05l.18-.06s.25-.16.25-.26a.63.63,0,0,1,0-.23c0-.13,0-.22,0-.26a.15.15,0,0,1,.23,0,.88.88,0,0,0,.25.26c.13.08.17.06.27.18s.08.2.19.2a.68.68,0,0,1,.31.06.21.21,0,0,0,.23,0c.07,0,.08-.09.14-.09a.5.5,0,0,0,.26-.1c.09-.09.29-.12.26-.34a1.79,1.79,0,0,1,0-.35,3,3,0,0,1,0-.59,1.9,1.9,0,0,0,0-.36s.16-.33.18-.21,0,.32,0,.43.06.13.11.27a1.26,1.26,0,0,1,.06.38c0,.13,0,.22.11.26s.26,0,.38,0,.15-.06.27,0,.48-.06.56-.1a.43.43,0,0,0,.29-.19,2.41,2.41,0,0,1,.19-.25,3.27,3.27,0,0,0,.4-.23c.17-.12.18-.11.25-.21s.08-.23.15-.23.09-.07.16,0a.72.72,0,0,1,.14.25s0,.12.11.15.16,0,.27-.17,0-.25.22-.3.34-.1.4-.11a.31.31,0,0,0,.22-.14c.07-.11.25-.38.35-.56a3.75,3.75,0,0,1,.31-.52,3.15,3.15,0,0,1,.41-.23c.12-.07.11-.19.23-.21s.1-.15.29,0,.25,0,.51,0a2.05,2.05,0,0,1,.54.2c.18.08.15,0,.28,0a.93.93,0,0,1,.43.18,1.08,1.08,0,0,0,.19.17c.09.06.25,0,.37,0a.62.62,0,0,1,.31-.07.21.21,0,0,0,.18,0c.06,0,.28-.36.32-.4a3.44,3.44,0,0,1,.35-.16,2.27,2.27,0,0,0,.35-.19c.06,0,.06,0,.16-.12l.25-.36s.19-.29.28-.32a.73.73,0,0,0,.32-.26c.13-.17.51-.66.61-.84a1.13,1.13,0,0,0,.18-.34c.06-.16,0-.24.13-.34a1.56,1.56,0,0,1,.24-.26.43.43,0,0,1,.26-.07c.06,0,.14-.06.24-.1s.17-.15.25-.13a.34.34,0,0,0,.21,0,1.77,1.77,0,0,1,.23-.16c.09-.05.23-.19.29-.22a.44.44,0,0,1,.21-.07c.07,0,.09,0,.27-.06s.44-.18.53-.19.29-.16.29-.16a.41.41,0,0,0,.32-.1c.14-.14.15-.06.31-.33S261.89,306,262,305.79Z"></path><path class="cls-86" d="M315.52,294.13h-.06c-.11,0-.11.07-.11.07a1.9,1.9,0,0,0-.32.07c-.1,0,0,0-.15-.15s-.12.05-.12.05,0,.13,0,.27-.06.13-.06.13-.14-.09-.16-.16,0-.09,0-.18-.09-.07-.18-.1,0,0-.11-.08a1.12,1.12,0,0,0-.22-.11c-.09-.05,0,.09,0,.09l0,.22.21.34c.12.19,0,.21,0,.21s0,.22,0,.25-.11,0-.19-.08a.7.7,0,0,1-.21-.19.19.19,0,0,1-.05-.21,3.12,3.12,0,0,0,0-.63,2.33,2.33,0,0,1-.16-.66,2.56,2.56,0,0,0,0-.4.26.26,0,0,0-.16-.26,1.57,1.57,0,0,0-.23-.1s-.05.3-.07.38a2.16,2.16,0,0,1,0,.32s-.07,0-.13-.08-.08-.17-.12-.19a3.19,3.19,0,0,1-.28-.32c-.06-.07,0-.1-.05-.17s0-.09,0-.18,0-.15,0-.26-.17-.11-.26-.12-.06.12-.1.15a1.82,1.82,0,0,0,0,.38l-.56-.43a1.87,1.87,0,0,0-.3-.17c-.08-.05,0-.16,0-.21s-.16-.17-.16-.17-.22-.08-.26-.15a1.68,1.68,0,0,0-.24-.19A3.53,3.53,0,0,0,310,291c-.12,0,0,0-.05,0l-.12-.09a.18.18,0,0,1,0-.21c0-.07,0,0,0-.23s-.24-.07-.31-.09-.07.15-.1.19a1,1,0,0,0,0,.22,3.72,3.72,0,0,1-.41-.18l-.19-.12c-.06,0-.08,0-.16-.07s-.1,0-.17,0a.46.46,0,0,1-.17,0l-.07.15c0,.07-.09,0-.14,0s-.2-.13-.2-.13l0-.07a.35.35,0,0,1-.08-.12c0-.05-.14-.13-.2-.17s-.07.07-.07.07a1.06,1.06,0,0,1,.09.4c0,.21-.16,0-.23,0a1.16,1.16,0,0,1-.22-.31c0-.08-.09-.18-.12-.27s-.07-.19-.09-.29a1.4,1.4,0,0,1,0-.28,1.56,1.56,0,0,1,.08-.43c.05-.13-.07-.08-.07-.08l-.13-.18a5.36,5.36,0,0,1-.24-.48c0-.08.09-.09.09-.09l.21.22a1.12,1.12,0,0,0,.27.34c.24.25.15.22.18.29s.17.18.24.26a3,3,0,0,0,.45.45c.23.19.06,0,.17.06s.19.09.26.06a.23.23,0,0,0,.14-.1c.05-.05-.05-.1-.09-.18a.32.32,0,0,1,0-.13s-.13-.2-.16-.27a.22.22,0,0,0-.14-.1l-.24-.51c0-.08-.1-.12-.16-.22s-.09-.09-.09-.09a1.17,1.17,0,0,1-.24-.31,1,1,0,0,0-.22-.32l-.73-.79s-.18-.14-.25-.23a.84.84,0,0,1-.18-.24c0-.1,0-.06.16-.16s0-.07-.11-.12-.48-.5-.48-.5l0,0-.16-.07-.29-.18-.17-.12c-.07,0-.06-.2-.21-.27s-.14,0-.17,0-.52-.3-.78-.47-.21-.12-.26-.15a4,4,0,0,0-.41-.26c-.24-.15-.08,0-.12,0a2.22,2.22,0,0,1-.43-.06.92.92,0,0,0-.18-.15c-.11-.07-.09,0-.21,0l.08.16.05.08a.39.39,0,0,1-.2,0c-.08,0-.16,0-.32,0s-.16.05-.28,0-.09.05-.3.14-.23.15-.36.16-.55,0-.55,0a1.09,1.09,0,0,1-.3,0c-.12,0-.23-.1-.35-.16a2.42,2.42,0,0,0-.4-.09,2.68,2.68,0,0,1-.45-.11,1.48,1.48,0,0,0-.38-.06c-.16,0-.15.1-.38.25s-.09.21-.12.26.08.35.08.35a.53.53,0,0,1-.05.29l-.13.19s0,.16,0,.16l0,.3.6.47c.46.36.43,0,.43,0h.1l.21,0a2.35,2.35,0,0,1,.36.1c.1.05.13.22.13.22a4.4,4.4,0,0,1,.09.45.39.39,0,0,1,0,.18,2.27,2.27,0,0,1,.13.23c0,.08,0,.17-.05.32s0,.24-.06.33,0,0-.09,0-.11,0-.23,0,0,0-.09,0-.1,0-.17.09,0,0-.06.07-.06.3-.06.3a.42.42,0,0,0,.28,0c.15-.05,0,0,0-.05s.11,0,.23-.11,0,0,.05,0a.21.21,0,0,1,.11.18c0,.06.09.1.15.14a.19.19,0,0,0,.21,0c.11,0,.1,0,.17,0s.21.11.3.08.07,0,.12,0,.33.16.42.13,0-.09,0-.14a1,1,0,0,1,.05-.28.79.79,0,0,1,.4-.34c.13,0,0,0,.1,0a.67.67,0,0,1,.25.08s.12,0,.14-.08a1.41,1.41,0,0,0,.09-.27l-.05-.09-.1-.26c-.09-.26-.1-.07-.17-.12a.58.58,0,0,1-.16-.3c0-.1.16-.23.3-.39s.19-.1.28-.15.09.05.24,0a1,1,0,0,0,.25-.06c.11,0,.16.11.28.15s.13,0,.22,0,.12-.07.18-.16.14-.1.23-.18,0,0,.27.09a.78.78,0,0,1,.34.22c.09.05,0,.07,0,.07l.17.26a1.13,1.13,0,0,1,.07.26h-.11c-.12,0,0,0-.1.06s0,0-.1,0a2.74,2.74,0,0,1-.35,0,1.25,1.25,0,0,1-.24,0,1.55,1.55,0,0,0-.22,0c-.07,0-.08.07-.13.11a.62.62,0,0,0-.08.18,1.78,1.78,0,0,1,0,.33c0,.14-.11.16-.16.25s.05.07.14.24a1.13,1.13,0,0,1,.13.36c0,.13.08.17.23.27a.45.45,0,0,0,.24.11,1.44,1.44,0,0,1,.33.15,2.35,2.35,0,0,1,.37.24.63.63,0,0,0,.28.14c.1,0,.13.12.19.16s0,.18,0,.18l.19.24c.16.17-.05.08-.05.08a2.86,2.86,0,0,0-.34-.1c-.19,0,0,0-.06,0a.91.91,0,0,1-.16-.11c-.05,0-.08-.09-.16-.18s-.07,0-.11,0a5,5,0,0,0-.38-.33l-.11-.08a1.12,1.12,0,0,0-.18-.08c-.08,0-.13.13-.13.13a.9.9,0,0,0-.07.23c0,.1,0,0,.09.15s0,.11,0,.11.07.31,0,.35a.62.62,0,0,1-.21.06.43.43,0,0,1-.21-.05.12.12,0,0,1,0-.1s-.1-.16-.09-.2-.05-.11,0-.25-.1-.13-.15-.17-.36.2-.36.2l-.24.25c-.06.07.07.16.11.21s-.08.33-.11.38-.1-.05-.23-.16a.24.24,0,0,0-.22-.07s-.17.06-.21,0l-.16-.13a.22.22,0,0,1-.09-.22c0-.1-.12-.21-.16-.27s-.16,0-.23-.06a.56.56,0,0,0-.41,0c-.14.06-.59-.17-.62-.21l-.08-.09a1,1,0,0,1-.12-.33c0-.08-.07-.11-.11-.18s-.09,0-.15,0-.17.07-.23.06a1,1,0,0,1-.29-.16c-.13-.09-.08-.09-.18-.21s-.13-.05-.17-.08a.41.41,0,0,1-.18-.26c0-.14,0-.16,0-.22s0-.13,0-.17a1,1,0,0,0,.09-.18,1.17,1.17,0,0,1,.07.15c0,.08,0,.14.09.19s.09,0,.15,0,0-.16.06-.19-.05-.24-.05-.24l0-.12H299c.12,0,.08-.11.08-.11s0-.22,0-.29a.26.26,0,0,0,.05-.2c0-.08-.21-.14-.21-.14s-.13.05-.19,0-.18,0-.18,0l-.25,0s-.15.17-.22.27,0,.5,0,.54a1.11,1.11,0,0,1-.14.33c-.12.19-.06,0-.11-.06s-.31,0-.42-.14a1.12,1.12,0,0,0-.28-.24c-.1-.06-.25.1-.29.13a2,2,0,0,0-.12.29.74.74,0,0,1-.25.06.5.5,0,0,1-.24-.12l-.12-.06a2.56,2.56,0,0,1-.53,0c-.13,0-.31,0-.45-.07s-.18.07-.32.11-.13,0-.29,0a.63.63,0,0,0-.32,0,1,1,0,0,1-.43-.16s-.06-.06-.08-.16a1,1,0,0,0,0-.12c0-.13-.05-.06-.15-.07l-.19.25c0,.05-.11.07-.24.05s0,0-.05,0a.74.74,0,0,1-.21-.22c-.06-.12-.12-.1-.21-.18s-.07,0-.11-.15-.22-.15-.3-.17-.17.2-.17.2.05.12.12.33,0,.2,0,.2a1.82,1.82,0,0,0,.27.25c.13.09.12.14.17.17s.09.27.09.27a2.41,2.41,0,0,0,.07.42l.1.31-.19.29-.35.35s-.28.29-.28.29-.18.1-.25,0-.23-.21-.35-.29a1.7,1.7,0,0,1-.26-.18c-.11-.09-.25-.16-.39-.27l-.43-.34c-.12-.13-.14-.1-.21-.2s-.05-.12-.08-.21a.8.8,0,0,0-.22-.26c-.06,0-.13,0-.25,0s-.23,0-.33,0-.1,0-.2,0-.15.12-.22.19,0,.19,0,.19l.05.16a1.19,1.19,0,0,1-.13.36,3.12,3.12,0,0,1-.18.27,1.24,1.24,0,0,1-.39.34c-.2.08-.15.06-.24.07s-.12.1-.17.14a1,1,0,0,0-.1.14s0,.25,0,.36,0,.13-.06.17a2.19,2.19,0,0,1-.19.28c-.12.15,0,.18.08.25a.85.85,0,0,0,.22.18l.26.17c.08.06.11.2.14.24s0,.16,0,.21a.33.33,0,0,1-.05.15c0,.07.15.1.15.1a2.61,2.61,0,0,0,.35.2.6.6,0,0,0,.3,0c.09,0,.16,0,.29,0a.2.2,0,0,1,.18.12,5.38,5.38,0,0,0,.47.33,1,1,0,0,0,.31.16h.3c.14,0,.15,0,.22,0a1.88,1.88,0,0,0,.3-.09,2.33,2.33,0,0,0,.29-.09c.12,0,.14-.11.18-.16s0-.12,0-.24,0,0,.14-.16a1,1,0,0,1,.29-.26,1,1,0,0,1,.25-.07c.17,0,.15,0,.27,0a.39.39,0,0,0,.25-.08c.07-.06.3,0,.37,0s.18.1.31.09,0,0,.06-.06a.33.33,0,0,0,.1-.15l.08-.2c0-.08.08-.09.15-.12l.22,0,.15.1c.15.1.14.11.14.11l.26.33c.17.22.23.16.23.16s.11.05.16,0a1.1,1.1,0,0,0,.22-.1c.12-.06.16.11.26.12a.73.73,0,0,0,.36,0c.1,0,.2.11.3.18s.11.23.17.33a3.82,3.82,0,0,1,.19.45,1.88,1.88,0,0,1,0,.44.87.87,0,0,0,.09.4c0,.06.09.31.11.38s.12.4.12.4l.45.67c.13.19.06.18.1.26a2,2,0,0,1,.14.43,1.66,1.66,0,0,1,0,.44.56.56,0,0,1-.19.21l-.17,0a.53.53,0,0,1-.28,0l-.22-.13c-.1-.07-.06,0-.12-.12a.69.69,0,0,0-.21-.21c-.12-.08-.18.06-.18.06l-.14.29s.07.23.11.28.09.14.2.29-.09.15-.11.19.27.23.44.19.07-.06.07-.06.12-.17.2-.26,0,0,.11,0,.12.05.19.08a.55.55,0,0,0,.17,0s.23-.21.28-.21.09,0,.14-.07L298,297c0-.07,0-.15,0-.24a.34.34,0,0,1,.08-.25c.07-.11.07.05.11.09a1.86,1.86,0,0,0,.17.24.23.23,0,0,0,.2.08h.12c.11,0,0-.17,0-.26s-.28-.08-.4-.59a1,1,0,0,0-.41-.67l-.11-.14c-.12-.15,0-.38,0-.67s0,0-.07-.27a2.65,2.65,0,0,1-.15-.63.86.86,0,0,1,.08-.59c.06-.2.24,0,.24,0l.11.15a3,3,0,0,0,.31.38c.13.12.15.1.15.1l.12.19s.07.43.08.69.16.28.26.45.26.25.37.4a1.85,1.85,0,0,1,.16.78c0,.13-.14.19-.22.31s0,.57,0,.68a3.92,3.92,0,0,1-.07.41,4.78,4.78,0,0,0,.13.66,1.56,1.56,0,0,1,0,.6c-.05.18-.13.2-.26.4s.06.32.29.41,0,0,.21-.22,0,0,.18,0,.12-.18.17-.25.15,0,.21-.21a1.23,1.23,0,0,1-.09-.38c0-.24.22-.39.36-.5s0,0,.32.06,0,0,.09,0,.25.2.32.25a1.81,1.81,0,0,1,.18.48l-.13.41.08.4-.2.3c-.06.1.06.18.1.28a1,1,0,0,1,0,.49c0,.11.19.41.26.57a1,1,0,0,0,.37.35.94.94,0,0,0,.38.11c.16,0,.1.28.1.28l.18.48a1.52,1.52,0,0,0,.5.26c.29.09,0,0,.23,0s.27.07.41.17-.14.22-.14.22a4.93,4.93,0,0,0,0,.69c0,.19-.18.27-.36.43a2.91,2.91,0,0,0-.45.56c-.11.17-.38.52-.5.54a.73.73,0,0,1-.43-.1,1.19,1.19,0,0,1-.33-.26c-.13-.12-.1-.11-.13-.33s-.15-.1-.23-.13a2.75,2.75,0,0,0-.41,0c-.11,0-.48-.36-.55-.51a9.85,9.85,0,0,1-.65-.83c-.16-.25-.21-.18-.34-.3a.6.6,0,0,1-.23-.33,2.13,2.13,0,0,1-.19-.63c0-.25-.33-.29-.51-.41a.88.88,0,0,0-.58-.14c-.25,0-.15.22-.15.22a1.5,1.5,0,0,1-.06.42.45.45,0,0,1-.24.2c-.14.05-.27-.08-.42,0s-.35-.06-.35-.06l-.13-.55a6.89,6.89,0,0,1-.59-.86c-.12-.26-.09-.24-.09-.24a.79.79,0,0,1,0-.38.55.55,0,0,0,0-.25l-.44-.61c-.15-.21-.31-.28-.44-.52s0,0,0-.09-.27-.54-.27-.54a.8.8,0,0,1,.19-.5c.18-.17,0,0,.13,0s.15-.22.19-.29,0-.25,0-.37.07-.16.14-.26,0-.31-.05-.46-.3-.13-.49-.22a.56.56,0,0,1-.26-.31l-.48-.33-.23,0c-.23,0-.21-.06-.32-.11a.66.66,0,0,1-.31-.27c-.09-.14,0,0,0-.23s0,0-.23-.13-.29.06-.29.06l-.49-.33c-.25-.17-.34-.12-.39-.05a10.13,10.13,0,0,1-1.51-.41s-.38-.11-.52-.17-.29-.16-.5-.26a.29.29,0,0,1-.15-.42c.08-.17-.17-.26-.32-.36s-.19,0-.29.06-.1.14-.35.36,0,0-.2.08-.76-.19-1.09-.12a.63.63,0,0,0-.46.26c-.1.1-.19.29-.52.67a1.53,1.53,0,0,1-1,.38,1.35,1.35,0,0,1-.53,0c-.34-.09-.28,0-.41,0s-.22.11-.44.17a1.48,1.48,0,0,1-.46.11,4.89,4.89,0,0,0-.65.17c-.26.08-.4.49-.8.71a2.5,2.5,0,0,1-1,.23s-.43.49-.66.55-.08.34-.13.52a2,2,0,0,1-.19.55c-.1.14-.27.24-.4.44s.06.39-.2.72a6.06,6.06,0,0,1-1,.9c-.22.17-.23.23-.35.3a.59.59,0,0,0-.18.16,2,2,0,0,1-.18.49.52.52,0,0,1-.2.18,2.43,2.43,0,0,1-.55.41c-.33.17.2.49.26.78s.23.65.31,1.06a1,1,0,0,1-.1.79,5,5,0,0,0-.13,1.69c.07.26.18.51.24.8s.15.46.11.53a2.37,2.37,0,0,0,.48,1c.21.25.34.23.46.32s.33,0,.69,0,.35.27.57.42l.59.39c.22.15.18.37.32.47s.17.12.44.08a3,3,0,0,0,.67-.08c.34-.09.27.18.51.19s.66.34,1,.42.67.38.65.58a3.07,3.07,0,0,0,.07.69,1.59,1.59,0,0,0,.3.3c.12.08,0,.53,0,.68s.27.18.37.18a3.65,3.65,0,0,1,.47.1c.16,0,.16.71.16.71l-.12.56a3,3,0,0,1-.6.63c-.35.26-.51.4-.64.42s-.13.09-.48.25-.17.88-.17.88a3.66,3.66,0,0,0,0,.77c0,.48.06.71.06.92a8.48,8.48,0,0,1-.34,1.13,2.29,2.29,0,0,1-.17.63c-.1.15-.22.39-.45.73a1.24,1.24,0,0,0-.2.72l-.34.45c-.33.45-.32.38-.47.5s-.45.19-.74.36a3.06,3.06,0,0,0-.71.58c-.24.24-.9.75-1,.81s-.4.37-.4.37a3.73,3.73,0,0,0-.13,1.05c0,.71-.21.53-.34.73s0,.33-.08.63-.13.3-.24.47a5.7,5.7,0,0,1-.58.65,7,7,0,0,0-.58.82c-.07.09-.28.41-.46.68s0,.44.07.69a.83.83,0,0,1-.13.62,5,5,0,0,0-.2.62,5.93,5.93,0,0,1-.72.54c-.41.29-.11.42-.11.42l-.14.69a2.22,2.22,0,0,0,.58.25c.17,0,.4.09.61.1s.26.24.53.27.25.1.45.13.36.24.47.25.43.14.74.17a3.35,3.35,0,0,0,.95,0c.37-.07.36-.15.77-.34s.28-.06,1-.22a1.68,1.68,0,0,0,.9-.39c.4-.23.15-.11.59-.35s.18-.16.42-.46.6.05.75,0a5.07,5.07,0,0,0,.72.11c.17,0,.17-.19.32-.32s.28-.08.44-.22a4.57,4.57,0,0,0,.43-.93,1.06,1.06,0,0,0,.1-.17,1.15,1.15,0,0,1,.3-.37c.18-.17.2,0,.29-.1s.76-.07.84-.16.19,0,.27,0,.11,0,.6-.13.19.06.28.06a3.81,3.81,0,0,0,.59.17c.39.07,1.12-.59,1.12-.59s.43-.56.61-.81.66-.64.71-.73a1.57,1.57,0,0,1,.18-.31c.1-.14.06-.13.09-.28s0-.13,0-.3.13-.22.27-.35a6.82,6.82,0,0,0,.65-.92.54.54,0,0,0,.05-.29,2.24,2.24,0,0,0,0-.37c0-.15.2-.22.46-.4s.18-.08.33-.17.14,0,.32,0a6.1,6.1,0,0,0,.67-.41c.33-.18,0,0,.14-.05s.11,0,.37-.05a9.49,9.49,0,0,0,1.52-.79l.15-.16c.14-.15.3-.06.44-.14a.8.8,0,0,1,.38-.1c.13,0,1.3-.09,1.3-.09a2.12,2.12,0,0,0,.15-.2l.19-.28c.11-.16.12-.08.47-.18s.22-.11.54-.37,1.53-1.39,1.53-1.39.1-.14.18-.23a2.24,2.24,0,0,1,.31-.3,3.76,3.76,0,0,0,.28-.32.91.91,0,0,0,.11-.16,1.21,1.21,0,0,0,.1-.2c0-.09-.18-.08-.18-.08a.43.43,0,0,1-.17,0c-.09,0-.12.1-.25.14s-.13,0-.26-.09a1.35,1.35,0,0,1-.24-.18c-.09-.07-.12,0-.3.11s-.16-.15-.22-.23a.3.3,0,0,0-.28-.06,1.62,1.62,0,0,1-.4,0,.24.24,0,0,1-.17-.21,2.34,2.34,0,0,1-.13-.55.59.59,0,0,1,.1-.39c.1-.15.13-.22.21-.36a4.28,4.28,0,0,0,0-1.07,2.51,2.51,0,0,1,0-.39c0-.17,0-.13-.07-.37a1.19,1.19,0,0,1,0-.46c0-.24,0-.43,0-.49s.05-.28.13-.5a4.69,4.69,0,0,1,.22-.46c.09-.24,0-.23,0-.34s-.07-.15-.05-.34a.61.61,0,0,1,.17-.36c.08-.12.41-1.2.41-1.2s0-.38,0-.59a.66.66,0,0,1,0-.3c0-.09.06-.13.21-.72a3.37,3.37,0,0,0,.09-1,2.27,2.27,0,0,1,.13-.66,1.47,1.47,0,0,0,.09-.42c0-.16,0-.35,0-.45a.62.62,0,0,0-.05-.28.33.33,0,0,1,.09-.29c.07-.1.13-.06.17,0s0,.11,0,.23a.9.9,0,0,0,.1.35c0,.1,0,.1,0,.21s.1,0,.13,0a.93.93,0,0,0,.17-.22c.07-.1.14,0,.14,0l.08.06c.09.06,0,0-.07.11a.31.31,0,0,0-.06.19,1.48,1.48,0,0,1-.06.24,1.06,1.06,0,0,0,0,.28,4.55,4.55,0,0,1,0,.63c0,.26,0,.29,0,.43a6.8,6.8,0,0,1-.07.78s0,.22,0,.34,0,.17,0,.25a2.6,2.6,0,0,0,0,.37,2.8,2.8,0,0,1,0,.61c0,.25-.1.26-.34.59s0,.27,0,.37-.15,1.87-.18,1.94a3.32,3.32,0,0,0,0,.48c0,.12-.05.36-.07.45a5,5,0,0,1-.3.69c-.17.3-.05.25-.17.46s-.09.11-.25.29.1.35.1.55.1.21.16.28.25,0,.35,0,.16.07.34.1,0,0,.06,0,.17-.07.23-.11.24.2.36.22.47,0,.65,0a1.92,1.92,0,0,0,.68-.16.89.89,0,0,0,.22-.09c.07,0,.13-.09.27-.16a1.21,1.21,0,0,0,.28-.16c.09-.08.45.28.61.32s0,0,.2-.19.15-.07.21-.09a2.42,2.42,0,0,0,.54-.13c.37-.13.1-.13.15-.2a1.6,1.6,0,0,1,.52-.46.66.66,0,0,0,.36-.27c.06-.08.15-.22.23-.32s0-.18.1-.33,0-.18,0-.26-.08-.15-.07-.23-.12-.39-.12-.52a.51.51,0,0,0-.05-.25c0-.12,0-.08,0-.2a.7.7,0,0,1,.17-.38.35.35,0,0,0,0-.31l-.38.12a2.29,2.29,0,0,1-.31.35c-.11.08-.19-.14-.3-.21a.89.89,0,0,1-.27-.43c-.07-.19,0-.14,0-.29s0-.08.07-.27,0,0,.07-.26-.12,0-.15-.07-.13.2-.23.2,0-.18.12-.49,0-.24,0-.38.09-.34.15-.59,0-.4,0-.55,0-.21,0-.46.23-.26.37-.38.14,0,.23,0,.1.3.1.3a5.56,5.56,0,0,1,.08.6c0,.16,0,.26,0,.34s.1.64.07.85.22.52.33.68.22.15.33.17.14.13.16.22a1.05,1.05,0,0,1-.1.45c-.07.13,0,.17.28.62a4.21,4.21,0,0,0,.72.83,4.16,4.16,0,0,0,.56.47c.16.07.16,0,.26.08s0,.23,0,.23l-.09.3s0,.39.07.66,0,.17,0,.27.08.25.05.3l-.13.14s-.05.1-.12.23l-.13.25c-.06.12.06.36.13.52s.08,0,.15,0,.08,0,.18-.08.08.16.09.31-.12.19-.3.39a3.13,3.13,0,0,0-.33.86s-.21.41-.28.51a1.34,1.34,0,0,0-.1.52.83.83,0,0,1-.16.44c-.07.11,0,.33-.21.58s-.36.57-.42.65-.3.9-.39,1a5.88,5.88,0,0,0-.3.7,1.28,1.28,0,0,1-.25.38.38.38,0,0,0,0,.17s-.16.39,0,.47.13,0,.17-.06l.24-.34.12-.13a2,2,0,0,1,.37-.23c.27-.14,0,0,.12-.08s.07-.07.15-.13a3.4,3.4,0,0,0,.28-.24,11.07,11.07,0,0,0,.62-1.34,5.87,5.87,0,0,1,.38-.74c.14-.21.13-.09.29-.13s.13-.14.2-.25a2.43,2.43,0,0,1,.39-.33,1.62,1.62,0,0,1,.31-.21,4.47,4.47,0,0,0,.41-.46l.43-.44c.19-.21.18-.16.27-.21s.07,0,.31.08,0,0,.06-.08.06-.08.19-.18.13,0,.13,0-.1.24-.14.37a1.76,1.76,0,0,1-.2.33,3.83,3.83,0,0,0-.15.43c-.07.12,0,.38-.11.55s-.09.29-.15.47a3.79,3.79,0,0,1-.4.6l-.08.3c-.05.18.08.19.08.19a.57.57,0,0,1,.07.22c0,.11-.06.11-.17.27a2.14,2.14,0,0,1-.2.28c-.05.05-.13.19-.37.53s-.15.19-.25.29l-.19.2a.31.31,0,0,0-.07.24c0,.05.11.1.16.13s.16,0,.23-.07.07.08.11.18,0,.1,0,.2a2.12,2.12,0,0,1-.16.35c-.1.2,0,.15,0,.32s.07.21.07.21a6,6,0,0,0-.21.58c0,.12,0,.15,0,.16A43,43,0,0,0,315.52,294.13Zm-13.39,5.46c-.06,0-.22,0-.22,0a.71.71,0,0,0-.07-.21l0-.05-.2-.16v-.23a.12.12,0,0,1,.13,0c.06.05.14,0,.19.13l.06.13.12.18.06.16S302.2,299.57,302.13,299.59Zm4,2.15c0,.12,0,0-.14.21s-.11.06-.2.08a.27.27,0,0,1-.18,0,4.22,4.22,0,0,1-.48-.37c-.11-.12-.12-.08-.23-.16a.57.57,0,0,1-.23-.32.58.58,0,0,1-.08-.38c0-.2-.07-.07-.2-.23s-.24-.21-.28-.33-.25-.22-.37-.29a1,1,0,0,0-.28-.15c-.2-.09-.29.07-.46.12s-.17-.06-.32-.19a1.77,1.77,0,0,1-.37-.48c-.07-.14-.16-.25-.21-.36a1.37,1.37,0,0,1-.13-.47c0-.26,0-.15,0-.33s.17-.24.23-.34.16-.11.4-.21a2.42,2.42,0,0,1,.3-.13c.15,0,.18-.12.28-.21a.78.78,0,0,0,.22-.26c.08-.11.21-.09.55-.1s.13.2.13.2.13.33.15.41.16.18.24.23,0,.15,0,.2a.79.79,0,0,1-.25.17c-.06,0,0,.27,0,.36s.11.05.36.17.14.1.19.14.25.16.38.11,0,0,0-.18c0,0,0-.13,0-.2s0-.11,0-.17a1,1,0,0,1,.12-.21c0-.08.11-.09.17-.14s.23.11.38.16a2.25,2.25,0,0,0,.29.07,1.38,1.38,0,0,1,.23.16.19.19,0,0,1,0,.37c-.09.11-.23,0-.29,0s-.08.11-.08.11a.38.38,0,0,1-.24.19c-.16,0-.26.23-.26.23l.08.22a1.78,1.78,0,0,1,.23.35c.15.26.06.23.06.23a3.61,3.61,0,0,1,.22.66c0,.12.16.37.23.87S306.21,301.62,306.17,301.74Zm2.13,5a1.74,1.74,0,0,1-.58-.24,4,4,0,0,1-.41-.51c-.05-.13-.29-.24-.26-.46s0-.45.06-.55a2.2,2.2,0,0,1,0-.52c.07-.24.1-.1.07-.24a2.06,2.06,0,0,0-.08-.27l-.07-.25c0-.05-.15-.1,0-.05a.52.52,0,0,1,.29.24l.13.09s.13.13.19.07.23-.2.19-.25a2.48,2.48,0,0,1-.12-.41,3,3,0,0,1,0-.46c0-.13-.07,0,.05-.28s0-.52,0-.58a4.19,4.19,0,0,0,0-.53l-.05-.39a1.58,1.58,0,0,1,0-.37c0-.05.09-.23.17-.22a.37.37,0,0,0,.28-.1,1.79,1.79,0,0,0,.18-.26.29.29,0,0,1,.09-.13.47.47,0,0,1,.28-.07c.09,0,0,0,.09,0s.2.12.29.17.34,0,.34,0,.14-.09.18.13.17.39.14.49a.64.64,0,0,0,0,.31.65.65,0,0,0,.09.18s.06.21.08.32a2.79,2.79,0,0,1,.09.53c0,.13,0,.26,0,.38a.69.69,0,0,1-.12.23.24.24,0,0,1-.14,0c-.11,0,0-.07-.11,0s-.2.13-.25.1l-.15-.1-.23-.23s.15-.28-.05-.2-.3.09-.32.19a4.47,4.47,0,0,0,0,.59.88.88,0,0,1,0,.22c0,.09,0-.12,0,.09a1.29,1.29,0,0,1-.12.39c-.07.1-.21.17-.05.28l.17.11s.13-.17.2,0,.22.32.17.4.13.3.06.4a.21.21,0,0,1-.28.07c-.11-.05-.15-.17-.23-.13s-.33.21-.26.29a1.37,1.37,0,0,0,.2.23s.24.07.17.24a.62.62,0,0,1-.16.27.7.7,0,0,0-.16.39,2,2,0,0,1-.11.36S308.48,306.77,308.3,306.76Z"></path><path class="cls-8" d="M297.37,321.65a7.95,7.95,0,1,1,11-2.17A8,8,0,0,1,297.37,321.65Zm8.32-12.39a7,7,0,1,0,1.9,9.68A7,7,0,0,0,305.69,309.26Z"></path><path class="cls-8" d="M305.79,317.73a4.81,4.81,0,1,1-1.31-6.67A4.8,4.8,0,0,1,305.79,317.73Z"></path><path class="cls-8" d="M252.47,329.54a8,8,0,1,1,11-2.17A8,8,0,0,1,252.47,329.54Zm8.32-12.4a7,7,0,1,0,1.91,9.69A7,7,0,0,0,260.79,317.14Z"></path><path class="cls-8" d="M260.9,325.62a4.81,4.81,0,1,1-1.32-6.68A4.81,4.81,0,0,1,260.9,325.62Z"></path><path class="cls-8" d="M251.61,287.22a8,8,0,1,1,11-2.17A8,8,0,0,1,251.61,287.22Zm8.32-12.4a7,7,0,1,0,1.91,9.68A7,7,0,0,0,259.93,274.82Z"></path><path class="cls-8" d="M260,283.3a4.82,4.82,0,1,1-1.32-6.68A4.82,4.82,0,0,1,260,283.3Z"></path><polygon class="cls-8" points="256.14 281.36 255.72 281.04 256.36 280.19 256.79 280.51 256.14 281.36"></polygon><path class="cls-87" d="M299.36,313.88l-.85-.64.65-.84.84.63ZM296.82,312l-.85-.64.64-.85.85.64Zm-2.54-1.92-.85-.64.64-.84.85.64Zm-2.54-1.91-.85-.64.64-.84.84.63Zm-2.55-1.91-.84-.64.64-.85.84.64Zm-2.54-1.91-.85-.64.64-.85.85.64Zm-2.54-1.92-.85-.64.64-.85.85.64Zm-2.54-1.91-.85-.64.64-.85.85.64ZM279,298.58l-.84-.64.64-.85.84.64Zm-2.54-1.92-.85-.64.64-.84.85.64Zm-2.54-1.91-.85-.64.64-.85.85.64Zm-2.54-1.91-.85-.64.64-.85.85.64Zm-2.55-1.92-.84-.64.64-.84.84.64ZM266.31,289l-.85-.64.64-.85.85.64Zm-2.54-1.91-.85-.64.64-.85.85.64Zm-2.54-1.92-.85-.63.64-.85.85.63Zm-2.54-1.91-.85-.64.64-.85.84.64Z"></path><polygon class="cls-8" points="301.37 315.67 301.31 315.35 301.06 315.16 301.24 314.92 301.19 314.62 301.5 314.56 301.69 314.31 303.1 315.36 301.37 315.67"></polygon><path class="cls-87" d="M259.66,323l-.19-1,1.07-.19.19,1.05Zm3.21-.56-.19-1,1.07-.19.19,1Zm3.21-.56-.19-1.05,1.07-.19.18,1.05Zm3.2-.57-.18-1,1.07-.19.18,1Zm3.21-.56-.18-1.05,1.07-.18.18,1Zm3.21-.57-.18-1,1.07-.19.18,1.05Zm3.21-.56-.18-1,1.07-.19.18,1Zm3.21-.56-.19-1.05,1.07-.18.19,1Zm3.21-.57-.19-1,1.07-.19.19,1.05Zm3.21-.56-.19-1,1.07-.19.19,1Zm3.2-.56-.18-1.05,1.07-.18.18,1Zm3.21-.57-.18-1,1.07-.19.18,1Zm3.21-.56-.18-1.05,1.07-.18.18,1Z"></path><rect class="cls-8" x="256.9" y="322.36" width="0.53" height="1.06" transform="matrix(0.98, -0.17, 0.17, 0.98, -52, 49.38)"></rect><path class="cls-88" d="M309.25,279.09A43.16,43.16,0,0,1,231,311.76a43.16,43.16,0,1,0,78.22-32.67Z"></path><path class="cls-89" d="M300.6,271.8c.22,1.09-5.53,3.16-12.84,4.6s-13.42,1.73-13.64.64,5.54-3.16,12.85-4.61S300.38,270.7,300.6,271.8Z"></path><path class="cls-90" d="M278.66,277.34c9.71-9.85,14.48-17.57,16.81-23.09a19.76,19.76,0,1,0-37.3-9.25h0s-3.36,12.33,18.06,32.41Zm-1.22-24.42A7.72,7.72,0,1,1,285,245,7.72,7.72,0,0,1,277.44,252.92Z"></path><path class="cls-87" d="M274.93,225.49a19.74,19.74,0,0,0-19.22,19.57h0s-2.25,11.53,20.53,32.35c9.7-9.86,14.48-17.58,16.8-23.1a19.75,19.75,0,0,0-18.07-28.82Zm.73,28.09a8.34,8.34,0,1,1,8.12-8.55A8.34,8.34,0,0,1,275.66,253.58Z"></path><polygon class="cls-91" points="408.43 216.53 402.34 220.61 402.34 169.66 408.43 165.58 408.43 216.53"></polygon><polygon class="cls-92" points="375.93 146.31 369.84 150.39 402.34 169.66 408.43 165.58 375.93 146.31"></polygon><polygon class="cls-93" points="369.84 201.35 402.34 220.61 402.34 169.66 369.84 150.39 369.84 201.35"></polygon><path class="cls-8" d="M397.38,172.71c0,2-.71,2.73-2,1.95s-2-2.32-2-4.35.71-2.71,2-1.93A4.77,4.77,0,0,1,397.38,172.71ZM394.43,171c0,1.46.3,2.25.95,2.64s.94-.05.94-1.51-.3-2.24-.94-2.63S394.43,169.5,394.43,171Z"></path><path class="cls-8" d="M400,174.88v-1.36l1,.58v1.36l.64.38V177l-.64-.38V178l-1-.58V176l-2.18-1.32v-1l1.49-2.91,1,.6-1.41,2.82Z"></path><polygon class="cls-94" points="396.13 224.29 390.04 228.37 390.04 193.33 396.13 189.24 396.13 224.29"></polygon><polygon class="cls-95" points="363.63 169.98 357.54 174.06 390.04 193.33 396.13 189.24 363.63 169.98"></polygon><polygon class="cls-96" points="357.54 209.1 390.04 228.37 390.04 193.33 357.54 174.06 357.54 209.1"></polygon><path class="cls-8" d="M385.09,196.38c0,2-.72,2.73-2,2s-2-2.32-2-4.35.71-2.71,2-1.93A4.76,4.76,0,0,1,385.09,196.38Zm-2.95-1.76c0,1.46.29,2.25.94,2.64s.94-.06.94-1.51-.29-2.24-.94-2.63S382.14,193.16,382.14,194.62Z"></path><path class="cls-8" d="M387.58,197.35a3.13,3.13,0,0,1,1.18,2.4c0,1.18-.67,1.6-1.72,1a5.5,5.5,0,0,1-1.67-1.72l.42-.86a3.46,3.46,0,0,0,1.17,1.42c.5.3.79.14.79-.4a1.51,1.51,0,0,0-.8-1.32l-.7-.42v-.78l1.08-.86-1.73-1v-1.13l2.95,1.77v.83l-1.2,1Z"></path><polygon class="cls-97" points="383.95 232.45 377.86 236.53 377.86 215.17 383.95 211.09 383.95 232.45"></polygon><polygon class="cls-98" points="351.45 191.83 345.35 195.91 377.86 215.17 383.95 211.09 351.45 191.83"></polygon><polygon class="cls-99" points="345.35 217.26 377.86 236.53 377.86 215.17 345.35 195.91 345.35 217.26"></polygon><path class="cls-8" d="M372.9,218.23c0,2-.71,2.72-2,2a4.79,4.79,0,0,1-2-4.35c0-2,.71-2.71,2-1.93S372.9,216.21,372.9,218.23ZM370,216.46c0,1.46.3,2.26.95,2.65s.94-.06.94-1.52-.3-2.24-.94-2.62S370,215,370,216.46Z"></path><path class="cls-8" d="M376.7,219a1.92,1.92,0,0,1-.86,1.54l-1,.83,2,1.22v1.16l-3.39-2v-1l1.66-1.37a1.14,1.14,0,0,0,.48-.84,1.15,1.15,0,0,0-.6-1,1.24,1.24,0,0,0-1.26,0l-.4-1.28a1.91,1.91,0,0,1,1.81.16A3.11,3.11,0,0,1,376.7,219Z"></path><polygon class="cls-100" points="371.76 240.61 365.67 244.69 365.67 230.09 371.76 226.01 371.76 240.61"></polygon><polygon class="cls-101" points="339.26 206.75 333.17 210.83 365.67 230.09 371.76 226.01 339.26 206.75"></polygon><polygon class="cls-102" points="333.17 225.43 365.67 244.69 365.67 230.09 333.17 210.83 333.17 225.43"></polygon><path class="cls-8" d="M360.72,233.15c0,2-.72,2.72-2,1.95s-2-2.32-2-4.35.71-2.71,2-1.93A4.77,4.77,0,0,1,360.72,233.15Zm-3-1.76c0,1.46.29,2.25.94,2.64s.94-.05.94-1.51-.29-2.24-.94-2.63S357.77,229.93,357.77,231.39Z"></path><path class="cls-8" d="M361.93,237v-5l-.87-.52v-1.18l1.91,1.14v6.2Z"></path><path class="cls-103" d="M362.9,73.26a2.69,2.69,0,0,1,2.78.23l32.86,19.22a8.56,8.56,0,0,1,3.88,6.7v27.94a2.61,2.61,0,0,1-1.32,2.59h0L396,132.53l-37.45-21.67-.74-35Z"></path><path class="cls-104" d="M365.68,73.49l32.86,19.22a8.14,8.14,0,0,1,3,3.41h0l-5.33,2.24L357.85,75.83l5-2.57A2.69,2.69,0,0,1,365.68,73.49Z"></path><path class="cls-105" d="M360.55,76.11l32.86,19.22a8.56,8.56,0,0,1,3.88,6.7V130c0,2.46-1.75,3.48-3.88,2.26l-24-13.93-4.14,3.26-.87-6.12-3.86-2.2a8.54,8.54,0,0,1-3.89-6.69V78.35C356.67,75.89,358.42,74.88,360.55,76.11Z"></path><polygon class="cls-8" points="362.9 86.25 390.57 102.32 390.57 104.56 362.9 88.49 362.9 86.25"></polygon><polygon class="cls-8" points="362.9 93.33 390.57 109.39 390.57 111.63 362.9 95.56 362.9 93.33"></polygon><polygon class="cls-8" points="379.06 110.36 390.57 117.19 390.57 119.42 379.06 112.59 379.06 110.36"></polygon></g></g></g></svg>