<svg xmlns="http://www.w3.org/2000/svg" viewBox="0 0 2444.27 1552.05"><defs><style>.cls-1{fill:#ebf3fa;}.cls-2{opacity:0.5;}.cls-3,.cls-5{fill:#759be0;}.cls-4{fill:#aec3ff;}.cls-5{opacity:0.7;}.cls-6{fill:#94b0ed;}.cls-7{fill:#d2e0ff;}.cls-8{fill:#163560;}.cls-9{fill:#f78248;}.cls-10{fill:#1f447f;}.cls-11{fill:#1c3154;}.cls-12{fill:#dd6c3a;}.cls-13{fill:#233862;}.cls-14{fill:#2a4e96;}.cls-15{fill:#fff;}.cls-16{fill:#6980e2;}.cls-17{fill:#ffb27d;}.cls-18{fill:#e8945b;}.cls-19{fill:#d5dffc;}.cls-20{fill:#8c9df4;}.cls-21{fill:#c0d4ff;}.cls-22{fill:#f99746;}.cls-23{fill:#152949;}.cls-24{fill:#ed975d;}.cls-25{fill:#707fe5;}.cls-26{fill:#fca56b;}.cls-27{fill:#2b478b;}.cls-28{fill:#ef873a;}.cls-29{fill:#9fb1ff;}.cls-30{fill:#182d4c;}.cls-31{fill:#2e3552;}</style></defs><title>Asset 1</title><g id="Layer_2" data-name="Layer 2"><g id="_Layer_" data-name="&lt;Layer&gt;"><path class="cls-1" d="M175.24,1549.26S-129.22,1263.4,64.48,927.08,518.32,759.9,505.73,368.45,1104-56.63,1298.47,56.88s193.27,250.2,594.69,205,478.1,331.81,373.67,524c-148.17,272.64,411.23,227.68,58.74,763.45Z"></path><g class="cls-2"><path class="cls-3" d="M1334.38,813.22l-58,690s-6.08,41.83,25,41.9c51.15.12,254.61,0,254.61,0s-38.5-8.71-38-28.3c.55-23.09,67.83-710.13,67.83-710.13Z"></path><path class="cls-4" d="M1572.5,1532.6c-10.07,0-204.39.64-254.21,0-21.71-.27-25.51-19.3-25.69-31.62a62.29,62.29,0,0,1,.65-10.27l1.51-17.94,3.85-45.71,3.4-40.38,4.36-51.89,3.68-43.8,41.23-490.29,251.41-6.53s-28.34,287.52-48.38,496.82c-2.24,23.31-4.36,45.68-6.33,66.55-.64,6.66-1.25,13.18-1.85,19.52-1.86,19.8-3.56,38-5,54-.78,8.46-1.5,16.33-2.14,23.53-2.56,28.22-4.06,46.25-4.08,49.67a29,29,0,0,0,.49,5.59C1539.49,1531.88,1568.72,1532.6,1572.5,1532.6Z"></path><polygon class="cls-4" points="723.83 437.75 865.18 1005.53 884.53 1083.29 950.37 1347.75 2173.48 1347.75 1930.82 437.75 723.83 437.75"></polygon><polygon class="cls-3" points="723.83 437.75 704.24 444.28 924.33 1367.5 950.37 1347.75 723.83 437.75"></polygon><polygon class="cls-3" points="924.33 1367.5 2139.91 1367.5 2173.47 1347.75 950.37 1347.75 924.33 1367.5"></polygon><rect class="cls-4" x="1351.2" y="1532.88" width="263.19" height="12.51" transform="translate(2965.6 3078.26) rotate(180)"></rect><polygon class="cls-5" points="1547.49 1367.5 1546.13 1377.06 1298.61 1427.07 1302.01 1386.68 1303.63 1367.5 1547.49 1367.5"></polygon><path class="cls-6" d="M1572.5,1532.6c-10.07,0-204.39.64-254.21,0-21.71-.27-25.51-19.3-25.69-31.62L1539,1454.63c-2.56,28.22-4.06,46.25-4.08,49.67a29,29,0,0,0,.49,5.59C1539.49,1531.88,1568.72,1532.6,1572.5,1532.6Z"></path><polygon class="cls-6" points="1487.66 1163.53 950.37 1347.75 884.53 1083.29 1487.66 1163.53"></polygon><polygon class="cls-7" points="723.83 437.75 1930.82 437.75 2125.18 1169.1 905.97 1169.1 723.83 437.75"></polygon><polygon class="cls-6" points="2125.85 1169.1 2115.74 1169.1 2033 853.39 1926.64 447.55 738.84 447.55 918.77 1169.1 905.93 1169.23 723.83 437.75 1935 436.7 1936.06 440.74 2042.38 848.77 2125.85 1169.1"></polygon><polygon class="cls-4" points="2127.68 1176.14 2117.93 1177.45 2033 853.39 2042.38 848.77 2127.68 1176.14"></polygon></g><path class="cls-8" d="M425.52,882.49c-2-6,27.44,7.9,62.54-3.86,30.25-10.14,3-29.89,10.68-54.94,5.49-17.83,3.75-65.75-43-67.67,0,0-11.24-6.8-27.48-1.41C391.33,766.87,314.53,891.24,425.52,882.49Z"></path><path class="cls-9" d="M476.75,987.68a122.92,122.92,0,0,0,12.5,18.9c9.71,12.17,60.69-16.71,56.3-18.9s-30-76-36.11-85.26-26.88-14.09-26.88-14.09Z"></path><path class="cls-10" d="M304.74,1485.37s-14.07,12.84-11.33,22,15.45,15.21,17.16,26.36,8.58,17.23,14.76,17.23h29.44s4.55-7.84-6.43-10.21-15.12-15.47-14.43-27.63-1-28.38-1-28.38l-23.34-5.41Z"></path><path class="cls-11" d="M423.82,1490.82s-5.07,54.4,1.11,57.44l79.05-.17s0-9.12-12.7-11.15-35-9.46-38.77-26S423.82,1490.82,423.82,1490.82Z"></path><path class="cls-9" d="M363,951a314.36,314.36,0,0,0,0,36.54c.78,13.21,14.15,30.9,16,35.28,4.76,11,10.12,12.76,10.12,12.76l41.51,10.17,14.59,3.57,46-13.74s21-58.5,12.54-91.44-21.27-55.8-21.27-55.8-31.28-7-86.45-3.12Z"></path><path class="cls-12" d="M359.06,988c.78,13.21,18.1,30.44,20,34.82,4.76,11,10.12,12.76,10.12,12.76l41.51,10.17,7.49-21.47s-60.64-15.93-50.89-72.06Z"></path><path class="cls-13" d="M488.36,1044.45s22.79,70.94,24.25,95.09-43.56,343.08-45.37,354.21c-1.71,10.49-14.73,17.18-14.73,17.18s-6,3.53-14.55,1.12c-11.86-3.35-15.61-7.36-15.61-7.36s-17.74-227.47-6.76-308.72a1286.63,1286.63,0,0,0,11.11-151.52Z"></path><path class="cls-14" d="M391.81,1042.34s-34.77,46.64-38,78.17-5.08,142.28-12,173-32.27,89.89-32.27,185.76c0,0,2.64,5.5,10.78,8.42a86,86,0,0,0,9.48,2.62,14.91,14.91,0,0,0,16.67-7.91c17.15-34.53,71.78-145.9,74.58-169,2-16.36,19.23-124.64,56.86-188.17,9-15.25-5.55-75.92-5.55-75.92Z"></path><path class="cls-13" d="M492,1033.5s-9.15,7.24-27.32,7.6c-21.71.44-75.51-5.53-75.51-5.53a44.46,44.46,0,0,0-2.29,13.73s65.7,16.57,103.77,2.42C490.65,1051.72,495.56,1042.48,492,1033.5Z"></path><path class="cls-15" d="M460,1048.6c0-6.18,4.44-11.21,9.91-11.21s9.9,5,9.9,11.21-4.44,11.21-9.9,11.21S460,1054.78,460,1048.6Zm3.28,0c0,4.37,3,7.93,6.63,7.93s6.62-3.56,6.62-7.93-3-7.93-6.62-7.93S463.26,1044.23,463.26,1048.6Z"></path><polygon class="cls-16" points="422.42 1080.2 521.17 1081.13 569.76 966.94 471.01 966.01 422.42 1080.2"></polygon><path class="cls-17" d="M435.34,1028.6l7.23-8.89s4.9-4.37,8.46-5.11,11.06-5.08,11.78-3.85-5.76,9.92-5.76,9.92l-.33,0c7.45,5.61,26.28.66,28.6,2.95,2.81,2.77-3.88,8.76-7.47,12.13s-13.85,9-21.86,6.48c-5.85-1.82-15.06-3.67-15.06-3.67Z"></path><path class="cls-17" d="M562.33,987s-6.2-7-10.15-3.66,1,20,4.79,18.33S564.49,989.09,562.33,987Z"></path><path class="cls-9" d="M396.11,885.21s-28.27,3.12-48.55,40c-16,29.07-43.35,82.65-33,97.78,4.53,6.65,48,30.29,131.72,16.78,0,0-1.32-10.58-8.08-15.48,0,0-70.49-22.63-70.37-27.14.23-8.51,9.53-15.87,48.9-55.26C427.41,931.17,396.11,885.21,396.11,885.21Z"></path><path class="cls-17" d="M417.87,886.71c-1-1.31.27-5.46,1.83-13.19,1.4-7,3.79-17.84,3.74-30l2.08.35,35,5.89s-.8,9.37-.82,18.19v.22c-.05,7.67,2.06,19.25-.52,20.76C445.94,896.68,421.6,891.72,417.87,886.71Z"></path><path class="cls-18" d="M460.56,849.73s-.7,13.21-.72,22c-19.61-.47-30.07-19.5-34.32-27.92Z"></path><path class="cls-17" d="M462.67,865.48s-45.93-6.54-41.41-35.08,1.62-48.6,31.14-45.63,33.47,14.76,34.28,24.65S474.74,866.45,462.67,865.48Z"></path><path class="cls-8" d="M473.37,787.39s-17.87,31.48-37.91,33.36-27.56-4.6-27.56-4.6a55.23,55.23,0,0,0,23-29.36S466.45,770,473.37,787.39Z"></path><path class="cls-8" d="M469.83,789.62s8.75,5,11.5,12.35a46.73,46.73,0,0,1,2,27.18s13.08-21.25,4.51-35.81C478.76,777.89,469.83,789.62,469.83,789.62Z"></path><path class="cls-19" d="M67.89,1201.05l25-2.81a5.56,5.56,0,0,1,5.24,2.51c1.44,2.24,3,4.43,4.64,6.59a94.38,94.38,0,0,0,9.88,11,5.49,5.49,0,0,1,1.36,6l-9.57,24.43a5.39,5.39,0,0,0,2.65,6.84l21.5,10.64a5.34,5.34,0,0,0,6.84-1.89l13-20.37a5.35,5.35,0,0,1,6-2.32,97.07,97.07,0,0,0,30.44,3,5.51,5.51,0,0,1,5.53,3.83l4.4,14a5.59,5.59,0,0,0,6.35,3.77l23.34-4.72a5.11,5.11,0,0,0,1.35-.45,5.37,5.37,0,0,0,3-5.47l-2.08-18.64-.52-4.54a95.41,95.41,0,0,0,11.32-7.48,97,97,0,0,0,13.29-12.3,5.36,5.36,0,0,1,6-1.44l19.67,7.73a5.54,5.54,0,0,0,7-2.71l8.15-16.43,2.32-4.72a5.62,5.62,0,0,0-2-7.24l-17-10.87a5.34,5.34,0,0,1-2.4-5.83,96,96,0,0,0,2.59-20.43,16.76,16.76,0,0,0,.06-1.73,2.79,2.79,0,0,1,0-.58,5.47,5.47,0,0,1,3.86-4.69l22.76-7.2a4.38,4.38,0,0,0,.74-.29,5.58,5.58,0,0,0,3-6l-4.67-23.28a5.55,5.55,0,0,0-6-4.41l-26,2.95a5.38,5.38,0,0,1-5.38-2.82,97.25,97.25,0,0,0-8.15-12.47q-2.44-3.19-5.11-6.12a5.67,5.67,0,0,1-1.07-5.85l9.19-23.48a5.39,5.39,0,0,0-2.62-6.8l-21.28-10.5a5.64,5.64,0,0,0-7.26,2l-10.29,16.11a5.54,5.54,0,0,1-6.43,2.28,96.69,96.69,0,0,0-29.36-5.27,5.51,5.51,0,0,1-5.18-3.87l-6.48-20.51a5.7,5.7,0,0,0-6.51-3.85l-23.19,4.65a5.43,5.43,0,0,0-4.34,6l.11,1.09,2.42,21.65a5.57,5.57,0,0,1-3,5.59l0,0a96,96,0,0,0-14.4,9.14c-2.45,1.88-4.76,3.87-7,5.93a5.43,5.43,0,0,1-5.73,1.12l-20-7.84a5.65,5.65,0,0,0-7.12,2.73l-10.46,21.19a6,6,0,0,0-.54,1.86,5.62,5.62,0,0,0,2.51,5.26l13.61,8.65a5.59,5.59,0,0,1,2.54,4.89,5.42,5.42,0,0,1-.28,1.52,96.46,96.46,0,0,0-4.9,37.81,5.41,5.41,0,0,1-2.91,5.2,5.66,5.66,0,0,1-.87.36l-18.43,5.82a5.51,5.51,0,0,0-3.74,6.32l.1.54,4.54,22.7A5.62,5.62,0,0,0,67.89,1201.05Zm159.62-70.85a64.31,64.31,0,0,1,3.39,11.53c1.52,7.84-.06,20.21-3.61,27.38-.37.77-.76,1.52-1.16,2.27-24.41,45.32-88.4,36.31-98.94-14.83-1.37-6.68-.51-16.42,1.88-23.88A33,33,0,0,1,131,1128a59.6,59.6,0,0,1,11.9-16.39C169.16,1086.33,213.07,1094.6,227.51,1130.2Z"></path><path class="cls-19" d="M633,310l21-2.37a4.7,4.7,0,0,1,4.41,2.11c1.21,1.89,2.52,3.74,3.91,5.55a78.79,78.79,0,0,0,8.31,9.28,4.63,4.63,0,0,1,1.14,5.09l-8,20.56A4.55,4.55,0,0,0,666,356l18.1,9a4.49,4.49,0,0,0,5.75-1.6l10.94-17.14a4.51,4.51,0,0,1,5-1.95,81.7,81.7,0,0,0,25.62,2.55,4.65,4.65,0,0,1,4.65,3.23l3.71,11.8a4.7,4.7,0,0,0,5.34,3.17l19.65-4a4.3,4.3,0,0,0,1.13-.38,4.52,4.52,0,0,0,2.52-4.6l-1.75-15.69-.44-3.82a79.66,79.66,0,0,0,9.53-6.3,81.28,81.28,0,0,0,11.18-10.35,4.5,4.5,0,0,1,5-1.21l16.56,6.5a4.66,4.66,0,0,0,5.89-2.28l6.85-13.83,2-4a4.73,4.73,0,0,0-1.68-6.09l-14.32-9.16a4.49,4.49,0,0,1-2-4.9,80.62,80.62,0,0,0,2.18-17.2,11.76,11.76,0,0,0,0-1.45,2.63,2.63,0,0,1,0-.49,4.6,4.6,0,0,1,3.25-3.95l19.15-6.06a3.09,3.09,0,0,0,.62-.25,4.68,4.68,0,0,0,2.53-5.07l-3.93-19.6a4.67,4.67,0,0,0-5.09-3.71l-21.9,2.48a4.5,4.5,0,0,1-4.52-2.38,83.45,83.45,0,0,0-6.86-10.49q-2.07-2.68-4.3-5.15a4.73,4.73,0,0,1-.9-4.92L793.24,187a4.53,4.53,0,0,0-2.21-5.72l-17.91-8.84a4.75,4.75,0,0,0-6.11,1.7l-8.66,13.56a4.66,4.66,0,0,1-5.42,1.92,81.2,81.2,0,0,0-24.7-4.44,4.62,4.62,0,0,1-4.36-3.25l-5.45-17.26a4.79,4.79,0,0,0-5.48-3.24l-19.53,3.91a4.56,4.56,0,0,0-3.65,5l.09.91,2,18.23a4.67,4.67,0,0,1-2.53,4.7h0a81.53,81.53,0,0,0-12.12,7.7c-2.06,1.59-4,3.25-5.9,5a4.6,4.6,0,0,1-4.83.95l-16.81-6.61a4.74,4.74,0,0,0-6,2.31l-8.81,17.83a4.83,4.83,0,0,0-.45,1.57,4.71,4.71,0,0,0,2.11,4.42L648,234.59a4.75,4.75,0,0,1,2.14,4.11,5.33,5.33,0,0,1-.24,1.29,81.22,81.22,0,0,0-4.12,31.82,4.56,4.56,0,0,1-2.46,4.38,4,4,0,0,1-.73.3l-15.51,4.9a4.64,4.64,0,0,0-3.15,5.32l.09.46,3.82,19.1A4.72,4.72,0,0,0,633,310Zm134.35-59.64a54.54,54.54,0,0,1,2.85,9.7c1.28,6.6-.05,17-3,23.06-.31.64-.64,1.28-1,1.91-20.55,38.14-74.41,30.55-83.28-12.48-1.15-5.63-.43-13.83,1.58-20.11a28.85,28.85,0,0,1,1.61-4,50,50,0,0,1,10-13.79C718.25,213.45,755.21,220.41,767.36,250.37Z"></path><path class="cls-20" d="M1919.16,542.4V1218c0,24.69-18.93,44.71-42.27,44.71H681.65c-23.35,0-42.27-20-42.27-44.71V542.4c0-24.69,18.92-44.72,42.27-44.72H1876.89C1900.23,497.68,1919.16,517.71,1919.16,542.4Z"></path><path class="cls-16" d="M1919.16,540v31H639.38V540a42.27,42.27,0,0,1,42.27-42.27H1876.89A42.28,42.28,0,0,1,1919.16,540Z"></path><path class="cls-21" d="M1142.11,907.84c20,25.58-3.94,64.95,9.84,94.22,2.64,5.6,6.58,10.57,8.78,16.35,3.63,9.55,2.13,20.23,4.38,30.19s11.28,20.19,21.28,17.53c8.67-2.31,12.15-12.72,11.91-21.54s-2.73-17.86-.15-26.32c3.13-10.27,13.66-17.38,24.51-18.35s21.71,3.48,30.07,10.36c9.17,7.55,19.21,18.9,30.45,14.9,10.78-3.84,11.66-19.15,6.38-29.16s-14.47-17.86-18.38-28.45c-4.93-13.32-.4-28.49,7.6-40.29s19.15-21.1,29.2-31.26c3.44-3.47,6.93-7.4,7.52-12.22s-3.26-10.37-8.15-9.73c-3.29.44-5.58,3.29-8.12,5.4-11,9.12-29.23,3.78-37.58-7.74s-9.06-26.76-7.63-40.84c17.19,4,32.77-19.68,49.37-13.72,10.4,3.74,13.26,16.48,16,27,4.92,18.77,14.29,36.43,16.74,55.67,4.65,36.67-15.91,76.95,2.43,109.2,6.87,12.1,18.43,21,30.66,27.89,29.15,16.44,66.3,22.84,96.45,8.23,34.78-16.84,67.76-56.29,68-58.66,3.42-29.47-1-47.37,4.31-56.5,20-34.37,79.68-9,108.44-7.26,79.4,4.75,74.83-46.52,74.57-70.24-.63-57.32-11.75-67.81-69.53-75-30.26-3.75-61.44,2.36-91.21-4.13-26.07-5.68-49-20.57-73.91-30-45.78-17.37-98.77-15.41-143.11,5.27-9.57,4.47-19,9.83-29.4,11.55s-22.57-1.18-28.16-10c-6.63-10.53-1.54-24.43,5.6-34.64s16.47-19.67,18.85-31.83c3.29-16.9-8.93-34.14-25-40.92s-34.73-4.85-51.27.76c-30.21,10.24-55.09,31.62-77.49,54-26.55,26.56-52,57.79-55.68,94.85-1.46,14.59.56,29.68-4.55,43.74-3.81,10.52-13.19,18.42-9.53,30.11C1093.69,888.69,1128.61,890.55,1142.11,907.84Z"></path><path class="cls-21" d="M1607.62,727.35l15.74,12.27c3.61,2.82,7.35,5.69,11.3,6.42,8.33,1.52,16-8.53,15.54-20.44s-8.85-23.11-17.11-22.75c-5.1.22-10.26,4.09-15,.71-10-7-16.81-41.2-25.58-18.12C1585.94,702.57,1597.06,719.41,1607.62,727.35Z"></path><path class="cls-21" d="M988.43,775.55l33,21c6.1,3.87,13.08,10.1,10.54,16.79-3.18,8.34-15.51,5.79-24.48,7-12.31,1.64-21.57,15-18.63,26.85,2.18,8.81,9.41,19.15,2.82,25.49-6,5.74-16.47.35-24.13,3.58-4.54,1.91-7.4,6.61-11.95,8.5-3.89,1.63-8.55,1-12.24,3-4.58,2.52-6.19,8.26-10,11.8-11.6,10.74-32.44-4.83-46,3.38-10.35,6.25-8.62,22.48-.54,31.4s20.06,13.19,30.33,19.58,19.74,17.24,17.51,29c-2.31,12.15-16.55,22.74-11.45,34,1.57,3.48,4.73,6,7.22,8.88,6.43,7.54,8.18,18.44,5.21,27.84s-10.3,17.2-19.24,21.62c-5.68,2.81-11.94,4.34-17.63,7.13-15.41,7.58-24.65,23.26-32.82,38.19-10.15,18.54-20.16,37.65-23.54,58.45-1.12,6.89-2.19,15-8.38,18.39-7.27,4-16.59-1.88-20.11-9.3s-3.39-16-5.38-23.9c-3.75-15-14.84-27.34-18.73-42.27-9.3-35.71,24.81-71.18,18.32-107.49-1.36-7.57-4.46-14.78-5.65-22.38a46.48,46.48,0,0,1,15.07-41.35c12.45-11,31.67-16.55,36.66-32.23,5.5-17.3-10.51-35.14-7.71-53.06.9-5.74,3.69-11.07,4.5-16.82.94-6.61-.82-13.29-2.72-19.7-5.35-18-11.83-38.18-2.85-54.75,5.42-10,15.63-16.64,26-21.61,24.14-11.56,51.07-16,77.75-13.88,11.17.9,21.54-2.24,23.05,10.2C973.84,762.31,975.85,767.56,988.43,775.55Z"></path><path class="cls-21" d="M1066.29,682.7c5.9-4.13,13-6.27,19.31-9.76s12.24-9.11,12.79-16.22c.44-5.54-2.57-10.93-6.76-14.68s-9.43-6.09-14.66-8.21a258.25,258.25,0,0,0-31.54-10.44c-5.93-1.55-12.3-2.87-18.11-.94-5.16,1.72-9.13,5.76-12.72,9.79-5,5.6-9.8,11.66-11.85,18.82-2.94,10.26.19,21.25,4.43,31.06,3.5,8.09,25.17,51.13,36.31,46.32,4.37-1.89,6-20.53,7.74-25C1054.43,695.37,1059,687.81,1066.29,682.7Z"></path><path class="cls-21" d="M1699.47,1078.3c9.19-6.43,20.22-9.75,30-15.19s19-14.16,19.89-25.22c.68-8.63-4-17-10.51-22.83s-14.68-9.48-22.82-12.77A399.82,399.82,0,0,0,1667,986c-9.23-2.4-19.13-4.46-28.18-1.45-8,2.67-14.19,9-19.78,15.23-7.75,8.71-15.23,18.13-18.43,29.27-4.58,16,.29,33.05,6.89,48.32,5.44,12.58,39.15,79.53,56.49,72,6.79-2.94,9.28-31.93,12-38.87C1681,1098,1688.1,1086.25,1699.47,1078.3Z"></path><path class="cls-1" d="M689.46,538.3a8.4,8.4,0,1,1,8.4,8.4A8.4,8.4,0,0,1,689.46,538.3Z"></path><circle class="cls-1" cx="743.02" cy="538.3" r="8.4"></circle><circle class="cls-1" cx="788.17" cy="538.3" r="8.4"></circle><path class="cls-9" d="M1071.39,748.76c0,28.94,48.74,75.21,48.74,75.21s48.74-46.27,48.74-75.21-21.82-52.41-48.74-52.41S1071.39,719.82,1071.39,748.76Zm20-3.07a28.72,28.72,0,1,1,28.72,28.72A28.77,28.77,0,0,1,1091.41,745.69Z"></path><path class="cls-1" d="M1091.41,745.69a28.72,28.72,0,1,1,28.72,28.72A28.72,28.72,0,0,1,1091.41,745.69Z"></path><path class="cls-9" d="M826.51,1019.79c0,20.62,34.73,53.58,34.73,53.58s34.73-33,34.73-53.58-15.55-37.35-34.73-37.35S826.51,999.16,826.51,1019.79Zm14.26-2.19a20.47,20.47,0,1,1,20.47,20.46A20.5,20.5,0,0,1,840.77,1017.6Z"></path><path class="cls-1" d="M840.77,1017.6a20.47,20.47,0,1,1,20.47,20.46A20.47,20.47,0,0,1,840.77,1017.6Z"></path><rect class="cls-19" x="538.71" y="638.48" width="279.82" height="286.83" rx="31.22"></rect><path class="cls-14" d="M763.12,772.57a84.43,84.43,0,1,1-69-83.07c-10.55,38.44-24.55,89.34-25.48,92.52,1.74-2.74,53.12-25.78,88.22-41.31A84,84,0,0,1,763.12,772.57Z"></path><path class="cls-9" d="M761.6,731.5c-31,13.65-82.33,36.54-84,39.13.89-3,15.09-54.64,24.6-89.23A92.81,92.81,0,0,1,761.6,731.5Z"></path><rect class="cls-19" x="890.46" y="203.18" width="363.19" height="335.12" rx="38.44"></rect><path class="cls-20" d="M1212.05,482.9H931V393.47h281Zm-277.58-3.45H1208.6V396.92H934.47Z"></path><rect class="cls-20" x="951.38" y="417.51" width="108.7" height="7.09"></rect><rect class="cls-20" x="1071.54" y="417.51" width="77.13" height="7.09"></rect><rect class="cls-20" x="951.38" y="437.75" width="59.99" height="7.09"></rect><rect class="cls-20" x="1021.52" y="437.75" width="77.13" height="7.09"></rect><rect class="cls-20" x="1106.64" y="437.75" width="77.13" height="7.09"></rect><rect class="cls-14" x="932.75" y="325.43" width="29.31" height="40.75"></rect><rect class="cls-14" x="982.95" y="298.42" width="29.31" height="67.76"></rect><rect class="cls-9" x="1033.16" y="276.28" width="29.31" height="89.89"></rect><rect class="cls-14" x="1083.36" y="294.24" width="29.31" height="71.93"></rect><rect class="cls-14" x="1133.57" y="255.96" width="29.31" height="110.21"></rect><rect class="cls-9" x="1183.78" y="236.3" width="29.31" height="129.88"></rect><rect class="cls-14" x="1751.2" y="686.67" width="445.99" height="263.28" rx="37.76"></rect><path class="cls-21" d="M1953.21,903.44h-164.9V851h164.9Zm-162.87-2h160.85V853H1790.34Z"></path><rect class="cls-21" x="1800.26" y="865.06" width="63.79" height="4.16"></rect><rect class="cls-21" x="1870.76" y="865.06" width="45.26" height="4.16"></rect><rect class="cls-21" x="1800.26" y="876.94" width="35.2" height="4.16"></rect><rect class="cls-21" x="1841.42" y="876.94" width="45.26" height="4.16"></rect><rect class="cls-21" x="1891.36" y="876.94" width="45.26" height="4.16"></rect><path class="cls-21" d="M2149.85,903.44H1984.94V851h164.91Zm-162.88-2h160.85V853H1987Z"></path><rect class="cls-21" x="1996.89" y="865.06" width="63.79" height="4.16"></rect><rect class="cls-21" x="2067.4" y="865.06" width="45.26" height="4.16"></rect><rect class="cls-21" x="1996.89" y="876.94" width="35.2" height="4.16"></rect><rect class="cls-21" x="2038.05" y="876.94" width="45.26" height="4.16"></rect><rect class="cls-21" x="2088" y="876.94" width="45.26" height="4.16"></rect><path class="cls-21" d="M2160.09,830.15H1788.31V800h371.78Zm-368.25-3.53h364.72V803.53H1791.84Z"></path><rect class="cls-21" x="1790.08" y="801.77" width="288.58" height="26.62"></rect><path class="cls-21" d="M2160.09,770.21H1788.31V740.06h371.78Zm-368.25-3.53h364.72V743.59H1791.84Z"></path><rect class="cls-22" x="1788.31" y="740.06" width="193.32" height="30.15"></rect><path class="cls-17" d="M1617.81,634.72a6,6,0,0,0-1.06,6.4,0,0,0,0,0,0,0c1.55,4.27,6.65,9,12.58,13.79.75.62,1.43,1.17,2,1.69l.46.4.35.32c5.52,5.09,3.44,6.26,13.37,16.6,11.33,11.78,19.12,12,21.34,10.92,1.88-.92-1.94-7.16-6.16-14.19-.2-.33-.4-.68-.61-1-.57-.93-1.13-1.88-1.68-2.82-5-8.45-3.68-12.42-2.51-25,.95-10.22,15.9-57.1,15.9-57.1l-21.7-3.74s-6.53,37.33-13.73,43.08c-3.85,3.07-8.16,3.11-11.86,5.38l-.77.48A28.72,28.72,0,0,0,1617.81,634.72Z"></path><path class="cls-13" d="M1617.81,634.72a6,6,0,0,0-1.06,6.4,0,0,0,0,0,0,0c1.89,4.26,6.87,9,12.6,13.75.75.62,1.41,1.19,2,1.73l.46.4.35.32c5.52,5.09,3.44,6.26,13.37,16.6,11.33,11.78,19.12,12,21.34,10.92,1.88-.92-1.94-7.16-6.16-14.19a48.14,48.14,0,0,1-20.18-14.87c-6.57-8.38-11-19.07-15.5-25.63l-1.28-.24A28.72,28.72,0,0,0,1617.81,634.72Z"></path><path class="cls-17" d="M1792.78,621.16c1.34,6.7,10.89,5.58,21.55,3s8.14.49,23.32-1.19,19.78-7.34,20.24-9.6c.41-2-7.09-2.71-15.13-3.64l-3-.36c-9.08-1.14-15.73-7-24-11.82-7.81-4.56-19.48-23.13-19.48-23.13l-20.81,1.65s10.92,16.59,15.15,23.8c2.48,4.25,2.35,9.86,2,14.19A26.54,26.54,0,0,0,1792.78,621.16Z"></path><path class="cls-13" d="M1814.33,624.14c10.67-2.61,8.14.49,23.32-1.19s19.78-7.34,20.24-9.6c.41-2-7.09-2.71-15.13-3.64l-.08.16a42.85,42.85,0,0,1-21.74,6.76c-10.3.25-21.21-2.7-28.32-2.59a26.54,26.54,0,0,0,.16,7.12C1794.12,627.86,1803.67,626.74,1814.33,624.14Z"></path><path class="cls-12" d="M1713,488l-19.47,52.37-25.41,68.38a41.1,41.1,0,0,1-13.5-1.23c-6.07-1.76-13-6.36-13-6.36s7.06-73.42,20.22-115.57c3.37-10.81,7.15-19.57,11.32-24.49C1693.51,437,1713,488,1713,488Z"></path><path class="cls-9" d="M1693.21,404.87c-11.08-3.58-40-.06-71.34,5.62a21.29,21.29,0,0,1-22-9.92h0L1521,394.41s-26,57.74-11.78,94.53c2.1,5.41,6.7,8.78,13.79,8.9h0s47.68.06,62.93.06c39.24,0,83-27,88.72-28.1,9.27-1.86,13,16.69,22.26,36.17s87.19,86.26,87.19,86.26,12,.12,16.92-1.73c5.32-2,7.26-4.59,7.26-4.59S1722,414.14,1693.21,404.87Z"></path><path class="cls-23" d="M1591.53,168.86a28.06,28.06,0,0,0-15.07-3.92,42.19,42.19,0,0,1-7.28-.44c-30.12-4.42-48.25,39.33-49.31,52.54-1.95,24.27-14.79,28-32.86,43.17-36.23,30.47-25.61,65.88-5.8,79,11.89,7.9,32.84,0,32.84,0,.3.21,57.3-31.86,85.4-47.33C1641.57,285.92,1608.45,178.94,1591.53,168.86Z"></path><path class="cls-17" d="M1575.9,278.74c.12.08-13.83,4.84-23.15.71-8.78-3.88-15.43-18.31-15.3-18.32,4-.19,8.38-3.68,11.75-26.57l1.7.61,28.58,10.28s-2.07,9.17-3.41,17.9C1574.94,270.68,1574.34,277.7,1575.9,278.74Z"></path><path class="cls-24" d="M1579.48,245.45s-1.14,5-2.81,14.19c-16.41-3-23.46-15.6-25.77-24.47Z"></path><path class="cls-17" d="M1583.73,254.55s-39.09-5.25-35.45-29.55,1-41.34,26.17-39,28.56,12.32,29.32,20.72S1594,255.29,1583.73,254.55Z"></path><path class="cls-23" d="M1602.34,193.39s-25,21.57-42,23.31-23.47-3.72-23.47-3.72a66.33,66.33,0,0,0,16.07-21.78,12,12,0,0,1,9.87-7.06C1574.92,183.09,1598,182.61,1602.34,193.39Z"></path><path class="cls-23" d="M1586.7,191.46s8.37,8.1,11,14.1c2.54,5.8,3.31,19.66,1.28,25.16,0,0,13-25.36,5.66-37.69C1596.82,180,1586.7,191.46,1586.7,191.46Z"></path><path class="cls-20" d="M1608.82,336.33c-1.18,79.15-.32,62.61-9,70.12-2.09,1.81-7.95,2.89-15.67,3.4-24.27,1.61-66.93-2.39-68.55-6.88-5.6-15.51-1.65-20.34-6.32-44.1-.49-2.52-1.09-5.26-1.8-8.24-3.89-16.31-7.68-21.87,6.13-48.08,12.53-23.75,25.55-43,26.72-42.33,33.05,19.63,35.72,3.13,35.72,3.13S1609.4,297.73,1608.82,336.33Z"></path><path class="cls-9" d="M1693.53,540.41l-25.41,68.38a41.1,41.1,0,0,1-13.5-1.23c-6.07-1.76-13-6.36-13-6.36s7.06-73.42,20.22-115.57Z"></path><path class="cls-20" d="M1576.07,263.35s34,5.77,38,20.41,17.14,103.53,17.14,103.53-9.59,9.36-17.57,1.37-25.14-83.16-25.14-83.16Z"></path><path class="cls-25" d="M1584.17,409.85c-24.27,1.61-66.93-2.39-68.55-6.88-5.6-15.51-1.65-20.34-6.32-44.1l11.7-33s-1.93,36.71,8.89,46.36,44.32,18.64,49.58,26.71A29.55,29.55,0,0,1,1584.17,409.85Z"></path><path class="cls-17" d="M1556.36,394.41s23.94-5.33,27.81-3.21,13.3,9.87,14.49,12.56-8.61-2.05-11.79-2.9c-2.06-.55-7.48,1.33-10.17,2.23-11.3,3.76-18.22,1.83-18.22,1.83Z"></path><path class="cls-20" d="M1540.33,260.21s-32.15,2-43.28,17.5c-15.67,21.85-46.74,115-28.93,127.39,20.06,14,91.29,3.66,91.29,3.66s2.37-11.08-.93-16.44-56.89-14-59.37-16.49S1530,327.59,1530,320.17,1540.33,260.21,1540.33,260.21Z"></path><path class="cls-17" d="M1585.33,397.87s5,6.47,6.66,7.24a4.94,4.94,0,0,0,2.71.58l-3.38-6.09Z"></path><path class="cls-17" d="M1584.17,391.2l14.58,7.09a2.6,2.6,0,0,1-2.41.93c-1.8-.08-6.33-1.74-6.33-1.74Z"></path><polygon class="cls-23" points="1708.72 407.85 1556.36 407.85 1556.36 411.22 1707.36 411.22 1708.72 407.85"></polygon><polygon class="cls-23" points="1591.99 411.22 1707.36 411.22 1742.07 324.91 1626.87 324.91 1591.99 411.22"></polygon><path class="cls-1" d="M1678.24,368.06c.87-3-.89-5.49-3.92-5.49a7.88,7.88,0,0,0-7.07,5.49c-.87,3,.89,5.49,3.92,5.49A7.86,7.86,0,0,0,1678.24,368.06Z"></path><path class="cls-9" d="M1286.24,695c0,42.87,72.19,111.39,72.19,111.39s72.19-68.52,72.19-111.39-32.32-77.64-72.19-77.64S1286.24,652.12,1286.24,695Zm29.65-4.56A42.54,42.54,0,1,1,1358.43,733,42.62,42.62,0,0,1,1315.89,690.43Z"></path><path class="cls-1" d="M1315.89,690.43A42.54,42.54,0,1,1,1358.43,733,42.55,42.55,0,0,1,1315.89,690.43Z"></path><path class="cls-17" d="M1385.12,817.5s-2.22-19.3-6.9-26.68-22.36-12.13-23.48-11c-3.46,3.35,10.23,15.21,10.77,19.58s-7,1.35-3.36,9.87c3,7.2,13,16.53,13,16.53Z"></path><path class="cls-12" d="M1376.59,815.35c6.45-5.06,7.82-5,7.82-5s59.66,51.68,65.47,56.28,95.41,30.59,95.41,30.59l14.23,72.83s-121.24-58.55-135.72-70.51c-23.94-19.74-54.15-75-54.15-75A22.94,22.94,0,0,1,1376.59,815.35Z"></path><path class="cls-8" d="M1547.21,1515.37s-1,24.89-5.81,31l-66.5.38c.47-2.57.75-8.5,9.94-10.11a44.61,44.61,0,0,0,32.3-25.49C1524.55,1495,1547.21,1515.37,1547.21,1515.37Z"></path><path class="cls-8" d="M1677.71,1511.78s4.64,33.07-1.66,33.65c-.84.08-26.8.5-38,.68-13.22.22-34.94-.24-34.94-.24a3.46,3.46,0,0,1-3.13-5.2c1.52-2.58,4.44-5.34,10-6.41,11.58-2.23,30.88-10.74,37.64-26.21C1654.69,1491.77,1677.71,1511.78,1677.71,1511.78Z"></path><path class="cls-13" d="M1512.63,1172.88s18.49,64.7,71.49,177.06,55.29,166.5,55.29,166.5a46.55,46.55,0,0,0,18.66,1.71,50.2,50.2,0,0,0,19.64-6.37s-3.43-133.74-28.47-190.44-30.13-211.86-30.13-211.86Z"></path><path class="cls-14" d="M1483,1117.21s-1.48,100.18,15.86,223.2,9.23,180.22,9.23,180.22,4.59,3.35,18.73,3.29c16.54-.07,25-6.9,25-6.9s24.81-123.06,17.69-184.63,34-211.28,34-211.28Z"></path><path class="cls-17" d="M1564.87,882.75l-19.58,14.51-28.3-6c.39-2.58,2.26-13.28,4-23l.3-1.7c1.46-8.24,2.71-15.32,2.71-15.32l26.44-13.18,9.85-4.91c0,.17-.76,9.15-.87,10.46C1557.54,867,1564.87,882.75,1564.87,882.75Z"></path><path class="cls-9" d="M1621,1129.58c-6.4,29.28-143.43,16.43-141.64-1.45.07-.59.43-8.87.92-20,1-24.12,2.62-61.81,2.83-64.76,0,0,0-.1,0-.15,2.47-24.89,4.84-49.24,5-65.14a226.27,226.27,0,0,1,4.56-40.69c2.34-11.81,5.2-22.54,7.68-30.9a34.2,34.2,0,0,1,20-21.94,29,29,0,0,1,3.32-1.16c16.12-4.68,38.44-10.47,44.49-8.7,16.37,4.82,28.55,33.66,37.16,70.41C1621.42,1013.88,1625.14,1110.5,1621,1129.58Z"></path><path class="cls-26" d="M1557.4,844.09c-5.8,11.11-27.43,20.71-36.45,24.24l.3-1.7c1.46-8.24,2.71-15.32,2.71-15.32l26.44-13.18C1556.24,838,1559.8,839.52,1557.4,844.09Z"></path><path class="cls-17" d="M1511.12,849.76s47.69,14.88,56.49-15,20.89-48-9.18-58.78-39.38-1.12-44.74,8.12S1498.94,845.12,1511.12,849.76Z"></path><path class="cls-8" d="M1515.57,781.27s3,34.72,10.22,33.21,13.69-2.62,12.64,7.84-11,22.56,11.12,24.41,53.94-55.22,47.87-66C1579.87,749.52,1490.21,743.23,1515.57,781.27Z"></path><path class="cls-12" d="M1480.23,1108.11c1-24.12,2.62-61.81,2.83-64.76,0,0,0-.1,0-.15l81-48.4S1567.16,1107.79,1480.23,1108.11Z"></path><path class="cls-17" d="M1415.88,1006.83s-16.45-11.13-19.57-12.1-13.35-2-13.83-1.22-1.87,3.28-.09,4.11,4,.55,3.35,1.13-7.4-2.62-9,.81-2.91,15.18,5,18.74,27.37.35,28.77.76C1422.46,1022.52,1415.88,1006.83,1415.88,1006.83Z"></path><path class="cls-9" d="M1415.73,1003.82s80.3,13.65,87.41,10.19c11.36-5.53-4.41-87-4.41-87s-.67-18.47,20.89-22.82c18.75-3.79,36.83,10.25,36.83,10.25s16.44,14.72,14.34,31c-4.66,36.18-11.9,109.76-36.1,121-31.21,14.55-121.52-40.34-121.52-40.34s-3-3.69-2.58-10.52C1411,1009.62,1415.73,1003.82,1415.73,1003.82Z"></path><path class="cls-17" d="M1361.77,808.26s-5.14-10.22-6-12.13,1.18-1.51,3.16-.44,4.67,7,7.73,6.28C1369.12,801.41,1361.77,808.26,1361.77,808.26Z"></path><path class="cls-27" d="M682.77,1509.75a34.05,34.05,0,0,0,.26,4.31,35.38,35.38,0,0,0,35.12,31.07H1215.8a35.39,35.39,0,0,0,0-70.77H718.15A35.38,35.38,0,0,0,682.77,1509.75Z"></path><path class="cls-27" d="M720.72,1468H891.35a5.45,5.45,0,0,0,5.43-5.44h0a5.45,5.45,0,0,0-5.43-5.43H720.72a5.45,5.45,0,0,0-5.43,5.43h0A5.46,5.46,0,0,0,720.72,1468Z"></path><rect class="cls-13" x="730.15" y="1467.96" width="18.49" height="6.41" transform="translate(1478.79 2942.32) rotate(180)"></rect><path class="cls-13" d="M687.06,1526.68a35.48,35.48,0,0,0,31.09,18.45H823.56v-18.45Z"></path><path class="cls-22" d="M1317.06,1499.38v20.73a25.4,25.4,0,0,1-.87,6.57,25,25,0,0,1-24.14,18.45H773.66a25,25,0,0,1-25-25v-20.73a25,25,0,0,1,25-25h518.39A25,25,0,0,1,1317.06,1499.38Z"></path><path class="cls-28" d="M1316.19,1526.68a25,25,0,0,1-24.14,18.45H773.66a25,25,0,0,1-24.14-18.45Z"></path><path class="cls-20" d="M1265.57,1509.88c0,11,4,20.81,10.3,27.32l.42.43a25.11,25.11,0,0,0,17.76,7.75c10.49,0,36.5-15.83,52.62-26.34,8-5.25,13.61-9.16,13.61-9.16s-5.58-3.93-13.61-9.17c-16.12-10.52-42.13-26.35-52.62-26.35a23.52,23.52,0,0,0-8.71,1.68,28.55,28.55,0,0,0-12,9.47,39,39,0,0,0-7.21,17.32,1.81,1.81,0,0,0,0,.23A44.65,44.65,0,0,0,1265.57,1509.88Z"></path><path class="cls-16" d="M1265.57,1509.88c0,11,4,20.81,10.3,27.32l79.78-27.45-89.55-6.69A44.65,44.65,0,0,0,1265.57,1509.88Z"></path><path class="cls-29" d="M1273.34,1485.51l79.59,21.74L1285.34,1476A28.55,28.55,0,0,0,1273.34,1485.51Z"></path><path class="cls-30" d="M1341.48,1509.88c0,4.22,2.16,7.82,5.19,9.16,8-5.25,13.61-9.16,13.61-9.16s-5.58-3.93-13.61-9.17C1343.64,1502,1341.48,1505.64,1341.48,1509.88Z"></path><rect class="cls-31" x="82.59" y="1545.38" width="2312.99" height="6.66" rx="2.73"></rect></g></g></svg>