<svg xmlns="http://www.w3.org/2000/svg" viewBox="0 0 470.79 383.65"><defs><style>.cls-1{fill:#efeeff;}.cls-2{fill:#d7d7ff;}.cls-3{fill:#ecbf4c;}.cls-4{fill:#e58f31;}.cls-5{fill:#e08675;}.cls-19,.cls-6{fill:#fff;}.cls-16,.cls-7{fill:#c3b7fc;}.cls-8{fill:#dd6e5c;}.cls-9{fill:#ea9a8f;}.cls-10{fill:#f2c96d;}.cls-11{fill:#f5dda0;}.cls-12,.cls-14{fill:#a797fb;}.cls-12{opacity:0.47;}.cls-13{fill:#dfdbfc;}.cls-15{fill:#514e92;}.cls-16{opacity:0.45;}.cls-17{fill:none;}.cls-18{fill:#8690f1;}.cls-19{opacity:0.29;}.cls-20,.cls-21{fill:#5f5ea5;}.cls-21{opacity:0.22;}.cls-22{fill:#f0c9a1;}.cls-23{fill:#e9b588;}.cls-24{fill:#363271;}</style></defs><title>Asset 2</title><g id="Layer_2" data-name="Layer 2"><g id="OBJECTS"><path class="cls-1" d="M113.82,358.68C77.27,364.39,44.69,341,24.7,312.33,1.51,279-6.29,239.87,5.32,200.75,13,174.8,26,150.76,35,125.21c11.5-32.86,17.46-66.85,42.38-92.82C99.37,9.46,132.45-1.7,163.87.21c23.11,1.4,45.43,9.25,65.26,21,20.61,12.24,36.2,29.65,58.82,38.63C323,73.8,364.24,64.06,399.11,78.52c24.59,10.2,43.32,31.7,54.39,55.91s15.15,51,16.68,77.62c1.5,26.12.6,52.71-6.88,77.78s-22.05,48.66-43.68,63.37C393.9,370.68,361,374.06,330,371.35c-28.51-2.48-56.66-9-84.9-13.52-29.11-4.66-58.35-12.62-87.85-5.89-10.41,2.37-20.4,6.42-30.91,8.26s-22.09,1.2-30.74-5"></path><ellipse class="cls-2" cx="235.4" cy="354.52" rx="226.15" ry="29.13"></ellipse><path class="cls-3" d="M117.51,314.37a21,21,0,0,1-6.53,8,23.39,23.39,0,0,1-3.6,2.22c-9.77,4.9-23.29,3.84-33.07-.94a31.7,31.7,0,0,1-4.82-2.89l0,0a35.44,35.44,0,0,1-13.94-23.7c0-.24-.06-.47-.09-.71-.14-1.23-.24-2.48-.41-3.71a15.43,15.43,0,0,0-1.13-4.34c-3-6.68-11.39-8.44-17.65-12.22a26.21,26.21,0,0,1-3.94-2.94,27.26,27.26,0,0,1-3-3.24A26.5,26.5,0,0,1,23.77,257c-.55-4.25-.09-8.72.07-13.08.05-1.29.07-2.58,0-3.85a20.61,20.61,0,0,0-2.44-9.84c-1.82-3.15-4.72-5.53-6.88-8.46a20,20,0,0,1-3-6.1A22.65,22.65,0,0,1,13,199a20.36,20.36,0,0,1,2.49-3.75l.36-.41c1.92-2.15,4.44-4,7.31-4.24,3.75-.36,6.74,1.75,9.67,4.31,1.08.94,2.15,1.94,3.25,2.9a22.8,22.8,0,0,0,5.63,3.87c4.5,2,9.81,1.22,14.55,2.23a14.31,14.31,0,0,1,3.53,1.21l.39.21c7.11,4,7.71,13.67,10.39,21.36a12.23,12.23,0,0,0,3.23,5.39,5.45,5.45,0,0,0,.46.38A10.1,10.1,0,0,0,77.66,234c2.25.64,4.74.79,7,1.26a23.41,23.41,0,0,1,18,19c.62,4.25.06,8.68.06,13a25.8,25.8,0,0,0,.72,6.53,15.42,15.42,0,0,0,.84,2.42c2.1,4.75,6.51,8,9.72,12.09a26.29,26.29,0,0,1,1.85,2.7,27.32,27.32,0,0,1,1.95,4A25,25,0,0,1,117.51,314.37Z"></path><path class="cls-4" d="M105.12,315.72a8.42,8.42,0,0,1-1.1,1.39,30.73,30.73,0,0,0,7,5.28,23.39,23.39,0,0,1-3.6,2.22,34.78,34.78,0,0,1-6.94-5.8c-.71.14-1.44.25-2.15.39l-24,4.47a31.7,31.7,0,0,1-4.82-2.89l13-2.43,15.25-2.85A37.75,37.75,0,0,1,92,302.15c-.63-2.68-1.1-5.39-1.7-8.07-2.86.44-5.78.67-8.67.92-8.72.78-17.47,1.12-26.22,1.34-.14-1.23-.24-2.48-.41-3.71,3.35-.08,6.71-.17,10.06-.3,5.82-.24,11.65-.56,17.46-1.12,1.56-.15,3.12-.32,4.68-.5l2.13-.25h0a40.77,40.77,0,0,0-14.78-21,68.4,68.4,0,0,0-7.52-4.56A20.59,20.59,0,0,1,63.58,266c-1.39.41-2.79.8-4.19,1.18-8.94,2.41-18,4.23-27.1,5.91a27.26,27.26,0,0,1-3-3.24c4.41-.8,8.8-1.63,13.19-2.53,5.68-1.17,11.35-2.47,16.95-4q1.7-.47,3.39-1a33.62,33.62,0,0,1-4-2.87c-4.45-3.78-7-9.11-8.71-14.58-.69-2.16-1.27-4.37-1.84-6.58Q36,240.9,23.84,243.9c.05-1.29.07-2.58,0-3.85q11.67-2.87,23.46-5.3a63.36,63.36,0,0,0-2-6.3,27.43,27.43,0,0,0-3.83-7,22.8,22.8,0,0,0-6.32-5.37c-1.07-.63-2.18-1.22-3.29-1.78-1.42.91-3.51,1.09-5,1.46L20,217.4l-7.1,1.74a19.61,19.61,0,0,1-1.41-3.49L18.36,214l5.95-1.46,2.61-.64a40,40,0,0,1-6.86-4.1A24.26,24.26,0,0,1,13,199a20.36,20.36,0,0,1,2.49-3.75s0,0,0,.05c1.89,5.82,6.34,9.72,11.59,12.5q1.53.81,3.09,1.56c.06-.27.11-.54.16-.82l.57-3q.55-3,1.09-5.93c.28-1.58.56-3.16.83-4.74,1.08.94,2.15,1.94,3.25,2.9L35.49,201c-.39,2.2-.8,4.38-1.21,6.57-.21,1.13-.43,2.26-.65,3.39l0,.12a36.18,36.18,0,0,1,8.13,5.24c4.11,3.7,6.34,8.45,8,13.52q3.65-12.85,6.53-25.91a14.31,14.31,0,0,1,3.53,1.21q-3.5,15.89-8.15,31.49a89.09,89.09,0,0,0,3.12,10.33,27.59,27.59,0,0,0,3.87,7,24.68,24.68,0,0,0,6.62,5.59l.91.55c.77-2.51,1.47-5,2.21-7.57q3-10.05,5.89-20.09A10.1,10.1,0,0,0,77.66,234q-.8,2.68-1.57,5.37Q73.5,248.2,70.92,257c-.45,1.54-.88,3.08-1.35,4.61a3.38,3.38,0,0,1-.11.34c1.25.68,2.5,1.37,3.73,2.1a44.65,44.65,0,0,1,7.34,5.48A44.18,44.18,0,0,1,91,284.09c.47,1.05.87,2.11,1.23,3.17l.24-.46,2-3.82q4.13-7.87,8.35-15.7a25.8,25.8,0,0,0,.72,6.53Q99.73,280.91,96,288a38.22,38.22,0,0,1-2.1,4l-.27.36c.92,3.86,1.58,7.79,2.68,11.64a30.34,30.34,0,0,0,5.24,10.32l.1-.11c.8-1,1.44-2.2,2.13-3.28q2.1-3.3,4.17-6.62,4.07-6.59,8-13.27a27.32,27.32,0,0,1,1.95,4q-4.08,6.93-8.34,13.73C108.09,311.11,106.64,313.44,105.12,315.72Z"></path><path class="cls-5" d="M144.15,233.59c5.61,5.08,8.9,12.91,6.48,20-1.9,5.57-7.07,10.62-5.6,16.32.68,2.67,2.47,4.6,4.43,6.45.91.86,1.86,1.7,2.74,2.59a13.76,13.76,0,0,1,3.55,5.17c5,14.27-10.68,27.06-24.72,33.22-1.58.69-3.13,1.3-4.63,1.82q-2,.67-3.81,1.14a32.51,32.51,0,0,1-3.34.68c-18.43,2.73-36.33-11.29-34-30.63,0-.32.08-.64.13-1,.15-.94.34-1.88.56-2.82,1.13-4.81,2.91-9.57,2.13-14.41s-3.74-8.5-7.29-11.85c-1.79-1.7-3.72-3.29-5.58-4.84l-.47-.4c-5.37-4.55-10.75-10.37-10.29-17.35.35-5.33,4.06-9.73,7-14.23l.1-.15A26.39,26.39,0,0,0,73.3,220c3.28-7.3.47-12.43-6.4-18a33.56,33.56,0,0,1-7.75-8.25,17,17,0,0,1-2.65-8.2,13.13,13.13,0,0,1,.18-2.65,11,11,0,0,1,.25-1.14c1.76-6.57,8.37-10.87,9.4-17.69A20,20,0,0,0,65.5,156c-.44-1.69-1-3.36-1.37-5C63,146.44,62.7,142.07,67,138a13.51,13.51,0,0,1,4.41-2.82,15.25,15.25,0,0,1,4.16-1,15.81,15.81,0,0,1,4.18.1c5.13.8,9.83,4,13.41,8a31.17,31.17,0,0,1,2.38,3,30.15,30.15,0,0,1,2.2,3.76c3.08,6.3,4.19,14.11,9.66,18.39l.37.28a15.12,15.12,0,0,0,2.85,1.61c2.77,1.24,5.85,1.89,8.65,3.1,9.1,3.9,15.55,14.62,13.37,24.52a46.5,46.5,0,0,1-3.44,9c-.48,1.06-1,2.12-1.36,3.2a24.71,24.71,0,0,0-1.17,4,12.76,12.76,0,0,0,.94,8.69c2.52,4.61,8.15,6.29,12.69,8.93.32.18.63.37.94.57A23.81,23.81,0,0,1,144.15,233.59Z"></path><path class="cls-6" d="M118.29,263.1a16.93,16.93,0,0,1-2,2,29.11,29.11,0,0,1,2.56,4.08c3.6,7.06,1.47,14.46.35,21.83a35.62,35.62,0,0,0-.28,8.5c.27-.22.54-.44.78-.62,1.39-1,2.77-2,4.15-3q4.14-3,8.25-6.12,8.78-6.62,17.37-13.46c.91.86,1.86,1.7,2.74,2.59l-4,3.18q-8.42,6.63-17,13-4.29,3.19-8.62,6.33a34.36,34.36,0,0,1-3.09,2.23,37.92,37.92,0,0,0,6.92,15.45q-2,.67-3.81,1.14A41.5,41.5,0,0,1,117,309.2a38.92,38.92,0,0,1-1.21-4.75,8.23,8.23,0,0,1-2.18-.64c-3.26-1.41-6.44-3.05-9.65-4.58l-9.81-4.66-8.92-4.25c0-.32.08-.64.13-1,.15-.94.34-1.88.56-2.82l11.74,5.58,9.41,4.47,4.71,2.24c1.11.53,2.27,1.24,3.45,1.67a46.91,46.91,0,0,1,.67-12.59c.65-3.57,1.48-7.19,1.24-10.84a18.11,18.11,0,0,0-3.65-9.43c-.17-.23-.34-.47-.52-.7a9.19,9.19,0,0,1-3.94-.08c-7.62-1.61-15.19-3.54-22.78-5.31l-5.49-1.27c-1.79-1.7-3.72-3.29-5.58-4.84l-.47-.4,14.3,3.34L100.3,261c1.84.43,3.69.85,5.53,1.29,1.37.32,2.79.76,4.2,1-3.45-4-7.09-7.87-8.92-12.94s-1.69-10.65-1.07-16a15.7,15.7,0,0,1-2.6-.82q-2.53-.91-5.07-1.86-10.53-3.92-20.86-8.32A26.39,26.39,0,0,0,73.3,220l2.64,1.11q9.59,4,19.34,7.61c1.65.61,3.31,1.35,5,1.81l.23.06s0,0,0-.06c.91-6.5,2.14-13.33.29-19.78-1.76-6.14-5.6-11.31-9.41-16.35a212.06,212.06,0,0,1-34.91-8.84,13.13,13.13,0,0,1,.18-2.65,11,11,0,0,1,.25-1.14,207.91,207.91,0,0,0,31.23,8.28c-4-5.59-7.41-11.45-8.67-18.36a59.74,59.74,0,0,1-.79-7.89A9.83,9.83,0,0,1,77,162.9Q71.34,159.24,65.5,156c-.44-1.69-1-3.36-1.37-5,1.57.85,3.14,1.73,4.69,2.62q4.88,2.82,9.62,5.87l.12.08a75,75,0,0,0-.89-11.2c-.86-4.76-2.75-9.8-6.31-13.16a15.25,15.25,0,0,1,4.16-1c3.75,4.51,5.54,10.53,6.22,16.28.26,2.17.37,4.37.44,6.57.94-1.28,1.89-2.55,2.84-3.83q4-5.46,8.09-10.91a31.17,31.17,0,0,1,2.38,3l-2,2.71-7.65,10.31a42.49,42.49,0,0,1-3.48,4.61,47.14,47.14,0,0,0,1.5,11.22c1.59,5.62,4.76,10.42,8.2,15.08q7.5-11,15.3-21.78l.37.28a15.12,15.12,0,0,0,2.85,1.61q-8.23,11.4-16.17,23c4.74,6.28,9.41,12.59,10.71,20.62.78,4.83.28,9.72-.39,14.55l6.72-5.94,17.71-15.67c-.48,1.06-1,2.12-1.36,3.2a24.71,24.71,0,0,0-1.17,4l-15.93,14.1L106.45,231c-.8.7-1.62,1.59-2.53,2.29-.82,6.28-1.22,13,2,18.69,2.16,3.82,5.22,7,8,10.3a11,11,0,0,0,.91-.9c1.2-1.33,2.3-2.75,3.44-4.13q3.51-4.2,7.1-8.36,7.71-8.93,15.77-17.55a23.81,23.81,0,0,1,3,2.28q-1.77,1.88-3.51,3.78-7.69,8.38-15.08,17C123.11,257.29,120.74,260.23,118.29,263.1Z"></path><rect class="cls-6" x="50.39" y="261.18" width="121.72" height="87.02"></rect><rect class="cls-7" x="50.39" y="247.92" width="121.72" height="13.27"></rect><path class="cls-3" d="M157.57,254.55a3.32,3.32,0,1,1-3.32-3.32A3.32,3.32,0,0,1,157.57,254.55Z"></path><path class="cls-8" d="M167.78,254.55a3.32,3.32,0,1,1-3.32-3.32A3.32,3.32,0,0,1,167.78,254.55Z"></path><rect class="cls-5" x="58.82" y="272.41" width="47.46" height="49"></rect><polygon class="cls-9" points="106.28 321.41 58.82 321.41 58.82 272.41 106.28 321.41"></polygon><rect class="cls-3" x="116.23" y="314.52" width="47.46" height="28.56"></rect><polygon class="cls-10" points="163.7 343.07 116.23 343.07 116.23 314.52 163.7 343.07"></polygon><rect class="cls-11" x="116.23" y="272.67" width="48.23" height="5.36"></rect><rect class="cls-11" x="116.23" y="285.43" width="48.23" height="5.36"></rect><rect class="cls-11" x="116.23" y="298.19" width="48.23" height="5.36"></rect><rect class="cls-6" x="322.6" y="218.06" width="121.72" height="129.89"></rect><rect class="cls-7" x="322.6" y="204.79" width="121.72" height="13.27"></rect><circle class="cls-3" cx="426.46" cy="211.42" r="3.32"></circle><path class="cls-8" d="M440,211.42a3.32,3.32,0,1,1-3.32-3.31A3.31,3.31,0,0,1,440,211.42Z"></path><rect class="cls-5" x="328.72" y="226.48" width="51.29" height="45.93"></rect><polygon class="cls-9" points="380.01 272.41 328.72 272.41 328.72 226.48 380.01 272.41"></polygon><rect class="cls-3" x="329.49" y="284.41" width="32.41" height="27.05"></rect><rect class="cls-7" x="369.55" y="284.41" width="68.64" height="27.05"></rect><polygon class="cls-12" points="438.19 311.46 369.55 311.46 369.55 284.41 438.19 311.46"></polygon><rect class="cls-13" x="387.92" y="226.74" width="50.27" height="6.12"></rect><rect class="cls-13" x="387.92" y="239.75" width="50.27" height="6.12"></rect><rect class="cls-13" x="387.92" y="252.76" width="50.27" height="6.12"></rect><rect class="cls-13" x="387.92" y="265.78" width="50.27" height="6.12"></rect><rect class="cls-13" x="387.92" y="318.86" width="50.27" height="6.12"></rect><rect class="cls-13" x="365.47" y="332.38" width="72.73" height="5.87"></rect><path class="cls-8" d="M439.6,149.39v28.73a8,8,0,0,1-8,8H383.87a8,8,0,0,1-8-8V149.39a8,8,0,0,1,4.67-7.3,8.18,8.18,0,0,1,3.33-.71h47.72A8,8,0,0,1,439.6,149.39Z"></path><polygon class="cls-6" points="285.78 341.21 199.73 341.21 204.43 311.96 210.22 275.81 275.29 275.81 281.09 311.96 285.78 341.21"></polygon><polygon class="cls-12" points="281.09 311.96 204.43 311.96 210.22 275.81 275.29 275.81 281.09 311.96"></polygon><rect class="cls-14" x="121.85" y="131.25" width="241.81" height="172.1" rx="13.95"></rect><rect class="cls-15" x="133.9" y="142.43" width="217.71" height="135.1"></rect><path class="cls-7" d="M363.66,268.93V289.4a14,14,0,0,1-14,14H135.81a14,14,0,0,1-14-14V268.93Z"></path><rect class="cls-7" x="192.7" y="337.2" width="98.1" height="11.47" rx="5.69"></rect><rect class="cls-6" x="165.95" y="121.13" width="150.88" height="147.8"></rect><rect class="cls-15" x="165.95" y="104.86" width="150.88" height="16.35"></rect><circle class="cls-3" cx="294" cy="113.04" r="4.32"></circle><circle class="cls-8" cx="306.35" cy="113.04" r="4.32"></circle><circle class="cls-8" cx="185.39" cy="146.74" r="10.49" transform="translate(10.76 306.15) rotate(-80.75)"></circle><circle class="cls-8" cx="185.39" cy="176.98" r="10.49"></circle><rect class="cls-13" x="207.61" y="134.4" width="54.3" height="6.17"></rect><rect class="cls-13" x="207.61" y="160.32" width="42.58" height="6.17"></rect><rect class="cls-13" x="207.61" y="173.59" width="42.58" height="6.17"></rect><rect class="cls-13" x="207.61" y="147.36" width="75.29" height="6.17"></rect><rect class="cls-13" x="181.69" y="235.3" width="25.3" height="25.3"></rect><polygon class="cls-16" points="206.99 260.6 181.69 260.6 181.69 235.3 206.99 260.6"></polygon><rect class="cls-13" x="213.78" y="235.3" width="25.3" height="25.3"></rect><polygon class="cls-16" points="239.08 260.6 213.78 260.6 213.78 235.3 239.08 260.6"></polygon><rect class="cls-13" x="245.87" y="235.3" width="25.3" height="25.3"></rect><polygon class="cls-16" points="271.17 260.6 245.87 260.6 245.87 235.3 271.17 260.6"></polygon><rect class="cls-13" x="277.96" y="235.3" width="25.3" height="25.3"></rect><polygon class="cls-16" points="303.26 260.6 277.96 260.6 277.96 235.3 303.26 260.6"></polygon><rect class="cls-6" x="130.95" y="189.95" width="223.17" height="39.79" rx="9.4"></rect><path class="cls-3" d="M354.13,199.35v21a9.43,9.43,0,0,1-9.4,9.4H306.34V190h38.39A9.43,9.43,0,0,1,354.13,199.35Z"></path><path class="cls-6" d="M344.18,221.59l-8.07-8.23-1.36-1.4a9.93,9.93,0,1,0-3,2.94h0l1.37,1.39,8.07,8.24a1.83,1.83,0,0,0,2.58,0l.39-.38A1.82,1.82,0,0,0,344.18,221.59ZM320.86,212a7.85,7.85,0,1,1,11.08.11,7.82,7.82,0,0,1-11.08-.11Z"></path><path class="cls-3" d="M344.73,231.38H140.35a11.06,11.06,0,0,1-11-11v-21a11.06,11.06,0,0,1,11-11H344.73a11.06,11.06,0,0,1,11,11v21A11.06,11.06,0,0,1,344.73,231.38ZM140.35,191.6a7.76,7.76,0,0,0-7.75,7.75v21a7.76,7.76,0,0,0,7.75,7.75H344.73a7.76,7.76,0,0,0,7.75-7.75v-21a7.76,7.76,0,0,0-7.75-7.75Z"></path><path class="cls-17" d="M354.13,199.35v21a9.43,9.43,0,0,1-9.4,9.4H306.34V190h38.39A9.43,9.43,0,0,1,354.13,199.35Z"></path><path class="cls-17" d="M344.18,221.59l-8.07-8.23-1.36-1.4a9.93,9.93,0,1,0-3,2.94h0l1.37,1.39,8.07,8.24a1.83,1.83,0,0,0,2.58,0l.39-.38A1.82,1.82,0,0,0,344.18,221.59ZM320.86,212a7.85,7.85,0,1,1,11.08.11,7.82,7.82,0,0,1-11.08-.11Z"></path><path class="cls-18" d="M422.16,338c0,.08-.05.17-.08.24a13.43,13.43,0,0,1-3.91,5.36,40.31,40.31,0,0,1-16.07,8.76,50.75,50.75,0,0,1-5.25,1.24c-.78.14-1.56.26-2.34.37s-1.61.2-2.42.27l-.54,0c-.71.06-1.42.1-2.13.13h0c-.68,0-1.36,0-2,0h-.3c-.73,0-1.47,0-2.21-.05s-1.44-.07-2.15-.13q-1.79-.15-3.54-.42A45.79,45.79,0,0,1,368,350.68c-6.45-2.78-11.94-8.88-11.63-15.75,0-.29,0-.57.08-.85a10.7,10.7,0,0,1,.51-2.24,8.67,8.67,0,0,1,2.84-4.08,6.67,6.67,0,0,1,7.76-.35c-2.62-3.63-5.34-7.51-5.61-11.93a9.73,9.73,0,0,1,1.72-6,8.26,8.26,0,0,1,1.45-1.61,6.41,6.41,0,0,1,4.37-1.64c3.34.09,6,2.7,8.2,5.12a46.59,46.59,0,0,1,.81-14.23c.35-1.64.92-3.44,2.42-4.27a3.6,3.6,0,0,1,.57-.26,3.72,3.72,0,0,1,2-.06,8.13,8.13,0,0,1,4.19,3,18.75,18.75,0,0,1,3.93,11.85,43.43,43.43,0,0,1,6.75-15.5,7.09,7.09,0,0,1,2.76-2.65,4.24,4.24,0,0,1,2.7-.19,5.65,5.65,0,0,1,1.91.85,6.11,6.11,0,0,1,1.14,1,11.68,11.68,0,0,1,2.3,5.77,40.35,40.35,0,0,1-.85,17.72,13.94,13.94,0,0,1,4.49-4.16,5.21,5.21,0,0,1,5.2.23,3.57,3.57,0,0,1,.53.5,3.77,3.77,0,0,1,.73,1.31,8.09,8.09,0,0,1,.28,3,26.17,26.17,0,0,1-7.86,17.23c2.76-1.29,6.2-2.42,8.69-.68a5.07,5.07,0,0,1,2,3.76A6.6,6.6,0,0,1,422.16,338Z"></path><path class="cls-13" d="M382.7,354.25q-1.79-.15-3.54-.42-5.69-5.06-11.43-10t-11.33-9.72a10.7,10.7,0,0,1,.51-2.24l3.81,3.25q9.67,8.25,19.2,16.69Z"></path><path class="cls-13" d="M387.06,354.43c-.73,0-1.47,0-2.21-.05-.34-.85-.69-1.7-1-2.55q-4.87-11.73-10.39-23.19-4.67-9.7-9.8-19.17a8.26,8.26,0,0,1,1.45-1.61c1.77,3.27,3.51,6.55,5.2,9.87q5.85,11.43,11.05,23.17Q384.31,347.62,387.06,354.43Z"></path><path class="cls-13" d="M389.4,354.39c-.68,0-1.36,0-2,0l-3.18-33.18q-1.37-14.34-2.74-28.67a3.72,3.72,0,0,1,2-.06q.67,7,1.34,14L388,340.1Q388.72,347.24,389.4,354.39Z"></path><path class="cls-13" d="M405.72,289.84q-1.71,8-3.45,16.08Q398.79,322,395.2,338.1q-1.81,8.08-3.65,16.16c-.71.06-1.42.1-2.13.13.22-.93.43-1.87.64-2.8q3.66-16.06,7.18-32.16,3.35-15.21,6.57-30.44A5.65,5.65,0,0,1,405.72,289.84Z"></path><path class="cls-13" d="M419.26,312.22c-1.44,2.25-2.87,4.52-4.28,6.79q-8.1,13-15.64,26.35c-1.6,2.84-3.25,5.69-4.83,8.59-.8.1-1.61.2-2.42.27,4.39-8.32,9.18-16.46,14-24.53Q411.9,320,418,310.41a3.57,3.57,0,0,1,.53.5A3.77,3.77,0,0,1,419.26,312.22Z"></path><path class="cls-13" d="M422.16,338c0,.08-.05.17-.08.24l-.77.54q-9.62,6.76-19.21,13.58a50.75,50.75,0,0,1-5.25,1.24q6.69-4.77,13.41-9.51,6.06-4.29,12.14-8.55A6.6,6.6,0,0,1,422.16,338Z"></path><path class="cls-5" d="M439.11,180.86a8,8,0,0,1-7.52,5.26H383.87a8,8,0,0,1-8-8V149.39a8,8,0,0,1,4.67-7.3Z"></path><path class="cls-6" d="M396.9,151.91V175.6a2.25,2.25,0,0,0,3.31,2l21.68-11.64a2.24,2.24,0,0,0,0-3.94l-21.68-12A2.25,2.25,0,0,0,396.9,151.91Z"></path><path class="cls-3" d="M143.85,112.3v24.62a12.27,12.27,0,0,1-12.25,12.26H107a12.3,12.3,0,0,1-12.26-12.26V112.3A12.29,12.29,0,0,1,107,100.05H131.6A12.28,12.28,0,0,1,143.85,112.3Z"></path><path class="cls-19" d="M141.51,144.12a12.28,12.28,0,0,1-9.91,5.06H107a12.3,12.3,0,0,1-12.26-12.26V112.3a12.23,12.23,0,0,1,5.06-9.9Z"></path><rect class="cls-6" x="102.47" y="115" width="24.03" height="19.22" rx="4.16"></rect><path class="cls-6" d="M128.8,120.7a.67.67,0,0,0-.43.67v6.48a.66.66,0,0,0,.43.67l6.67,1.83c.33.09.65-.24.65-.68V119.55c0-.43-.32-.76-.65-.67Z"></path><path class="cls-20" d="M308.53,334.15l-7.34-4.84a324.94,324.94,0,0,1,20.77-28l6.77,5.6A318.17,318.17,0,0,0,308.53,334.15Z"></path><path class="cls-5" d="M319.49,363.36c-1.88,1.12-4.4,2.68-6.77,2.45-3.49-.36-3.74-3.71-2.35-6.1,1.71-2.94,4.49-4.51,7.81-5.51q2.81-.85,5.69-1.54a2.45,2.45,0,0,1,1.34-.05,1.79,1.79,0,0,1,.73.57c1.19,1.39,2.72,4.68,1.14,6.23-.77.76-2.32,1.15-3.31,1.63Q321.58,362.12,319.49,363.36Z"></path><path class="cls-20" d="M368.56,353.08c-6.88,2-13.87,3.82-20.86,5.35-3.81.84-7.65,1.5-11.37,2.14-4.36.76-8.5,1.13-12.57,2.09-.46-1.05-.86-1.71-.93-1.91a30,30,0,0,1-1.42-5.36,11.8,11.8,0,0,1-.34-4.38c4.38-1,8.78-2.46,13.05-3.2,3.74-.65,7.28-1.26,10.82-2,6.67-1.46,13.35-3.17,19.93-5.11a6.47,6.47,0,1,1,3.69,12.41Z"></path><path class="cls-5" d="M352,363.36c1.89,1.12,4.41,2.68,6.77,2.45,3.49-.36,3.75-3.71,2.36-6.1-1.71-2.94-4.49-4.51-7.81-5.51q-2.82-.85-5.7-1.54a2.45,2.45,0,0,0-1.34-.05,1.86,1.86,0,0,0-.73.57c-1.18,1.39-2.71,4.68-1.14,6.23.77.76,2.32,1.15,3.31,1.63C349.22,361.76,350.64,362.53,352,363.36Z"></path><path class="cls-20" d="M303,353.08c6.88,2,13.87,3.82,20.86,5.35,3.82.84,7.66,1.5,11.37,2.14,4.36.76,8.5,1.13,12.57,2.09.46-1.05.87-1.71.94-1.91a29.18,29.18,0,0,0,1.41-5.36,11.78,11.78,0,0,0,.35-4.38c-4.39-1-8.79-2.46-13.06-3.2-3.74-.65-7.28-1.26-10.81-2-6.68-1.46-13.36-3.17-19.93-5.11a6.63,6.63,0,0,0-1.85-.27A6.47,6.47,0,0,0,303,353.08Z"></path><path class="cls-18" d="M358,346.85c-9.79,3.39-41.05,2.87-41.4-.74-.2-2.07,2.05-30.46,2.63-37.29.19-2.22.42-4.56,1.56-6.35a9.7,9.7,0,0,1,4.1-3.3l.43-.21a30.91,30.91,0,0,1,26.2-.18,6.85,6.85,0,0,1,2.89,2.11,9.72,9.72,0,0,1,1.29,4.55,370.37,370.37,0,0,1,2.28,38.86C358,345.14,358,346,358,346.85Z"></path><path class="cls-21" d="M358,346.85c-9.79,3.39-41.05,2.87-41.4-.74-.2-2.07,2.05-30.46,2.63-37.29.19-2.22.42-4.56,1.56-6.35a9.7,9.7,0,0,1,4.1-3.3l.43-.21A61.21,61.21,0,0,0,329,321.62a33,33,0,0,0,5.16,9.53c4.85,5.92,12.27,9,19.45,11.67,1.41.52,2.85,1,4.3,1.48C358,345.14,358,346,358,346.85Z"></path><path class="cls-20" d="M321.06,338.41h0a4.41,4.41,0,0,1,4-4.47,51,51,0,0,0,16.25-4.54,6.92,6.92,0,0,0,1.59-.93,7.46,7.46,0,0,0,.88-2.33,142.53,142.53,0,0,0,4.06-22.66,4.41,4.41,0,0,1,4.67-4h0a4.4,4.4,0,0,1,4.08,4.81,150.82,150.82,0,0,1-4.31,24.07,13.49,13.49,0,0,1-2.88,6,13.12,13.12,0,0,1-4.34,3,59.42,59.42,0,0,1-19.13,5.33A4.39,4.39,0,0,1,321.06,338.41Z"></path><path class="cls-22" d="M342.33,284.82v13.66a4.87,4.87,0,1,1-9.73,0V284.82Z"></path><path class="cls-23" d="M342.33,288.09v10.05c-2.09-.37-4.79-.86-5.18-1a24.42,24.42,0,0,1-4.55-1.86,18.92,18.92,0,0,1-2.59-1.65c-3.06-2.33.08-3.58,2.59-4.59h0a22.41,22.41,0,0,1,8.32-1.63,2.06,2.06,0,0,1,.82.11A1.34,1.34,0,0,1,342.33,288.09Z"></path><path class="cls-24" d="M349.71,264.78a9.93,9.93,0,0,1,2.32,4.45,23.64,23.64,0,0,1,.27,12.89,16.89,16.89,0,0,1-7.66,10.16c-.82.46-1.88.83-2.63.28a2.71,2.71,0,0,1-.81-1.4,72.35,72.35,0,0,1-3.4-20.07,12.67,12.67,0,0,1,.74-5.48C340.51,261.21,346.69,261.82,349.71,264.78Z"></path><path class="cls-22" d="M321,282.67c1.56,8.62,7.39,14.78,14.56,13.49s11.72-9.33,10.16-18S337.13,263.65,330,265,319.48,274.05,321,282.67Z"></path><path class="cls-22" d="M342.72,280.26c-.15,2.6,1.42,4.8,3.5,4.91s3.88-1.89,4-4.49-1.42-4.8-3.5-4.91S342.86,277.66,342.72,280.26Z"></path><path class="cls-24" d="M342,278.6a5.7,5.7,0,0,0,.53,2.21,1.54,1.54,0,0,0,1.92.76,2.14,2.14,0,0,0,.84-1.11,19,19,0,0,0,1.05-11.56,3.68,3.68,0,0,0-1.42-2.49,3.77,3.77,0,0,0-1.27-.4,4.67,4.67,0,0,0-2.49.1,3.8,3.8,0,0,0-2.05,3.28C338.79,272.91,341.56,275.14,342,278.6Z"></path><path class="cls-24" d="M318.49,266c-2.78,2.71-4.71,6.59-4.15,10.43a4.5,4.5,0,0,0,1.92,3.39,4.37,4.37,0,0,0,2.16.5c4.17.05,7.75-2.76,10.94-5.44.16,1.62,2.28,2.11,3.9,2a24.26,24.26,0,0,0,11.53-3.72c1.84-1.16,3.63-2.76,4-4.9.52-3.13-2.22-5.88-5.06-7.28C335.35,256.85,325,259.68,318.49,266Z"></path><path class="cls-7" d="M347.56,344.73H315.61a2.68,2.68,0,0,1-1.89-.75h0c-1.42-1.42-.26-3.65,1.89-3.65h31.95a2.7,2.7,0,0,1,1.89.75h0C350.87,342.5,349.72,344.73,347.56,344.73Z"></path><path class="cls-6" d="M328.5,344.73H293.34a1.7,1.7,0,0,1-1.69-1.46l-3.89-26.09a1.72,1.72,0,0,1,1.69-2h35.17a1.72,1.72,0,0,1,1.69,1.46l3.89,26.1A1.72,1.72,0,0,1,328.5,344.73Z"></path><path class="cls-7" d="M310.06,330.44a3.93,3.93,0,1,1-3.92-3.92A3.93,3.93,0,0,1,310.06,330.44Z"></path><path class="cls-5" d="M314.49,330.44a3.93,3.93,0,1,1-3.93-3.92A3.93,3.93,0,0,1,314.49,330.44Z"></path></g></g></svg>