<svg xmlns="http://www.w3.org/2000/svg" xmlns:xlink="http://www.w3.org/1999/xlink" viewBox="0 0 603.74 415.9"><defs><style>.cls-1,.cls-13,.cls-22,.cls-24,.cls-25,.cls-28,.cls-32,.cls-33,.cls-36,.cls-6,.cls-8{fill:none;}.cls-2{isolation:isolate;}.cls-12,.cls-3{fill:#ffdee1;}.cls-15,.cls-17,.cls-4{fill:#ff796d;}.cls-19,.cls-4{opacity:0.55;}.cls-10,.cls-14,.cls-5{fill:#fff;}.cls-5,.cls-6{stroke:#ff796d;stroke-width:2px;}.cls-13,.cls-14,.cls-22,.cls-24,.cls-25,.cls-32,.cls-33,.cls-5,.cls-6,.cls-8{stroke-miterlimit:10;}.cls-7{fill:#ffeef0;}.cls-8{stroke:#277ef1;}.cls-13,.cls-14,.cls-8{stroke-width:1.5px;}.cls-9{fill:#277ef1;}.cls-11,.cls-34{fill:#e0ebfc;}.cls-11{opacity:0.75;}.cls-12{opacity:0.65;mix-blend-mode:multiply;}.cls-13,.cls-14{stroke:#ff928d;}.cls-15{opacity:0.35;}.cls-16{fill:#b5dae5;}.cls-18{fill:#ffbea1;}.cls-20{fill:#ef9d7d;}.cls-21{fill:#24b3c6;}.cls-22{stroke:#1b5889;}.cls-23,.cls-35{fill:#19202d;}.cls-24,.cls-36{stroke:#fff;}.cls-24,.cls-25,.cls-28,.cls-33{stroke-width:0.75px;}.cls-25{stroke:#050d75;}.cls-26{fill:#ffd273;}.cls-27{fill:#68d7ec;}.cls-28{stroke:#19202d;}.cls-28,.cls-36{stroke-linejoin:round;}.cls-29{clip-path:url(#clip-path);}.cls-30{fill:url(#linear-gradient);}.cls-31{fill:url(#linear-gradient-2);}.cls-32{stroke:#9ce8f2;stroke-width:0.5px;}.cls-33{stroke:#ef977f;}.cls-35{mix-blend-mode:screen;}.cls-36{stroke-linecap:round;stroke-width:3.5px;}</style><clipPath id="clip-path"><circle class="cls-1" cx="425.64" cy="173.25" r="37.78" transform="translate(79.51 475.53) rotate(-63.28)"></circle></clipPath><linearGradient id="linear-gradient" x1="420.88" y1="215.52" x2="420.88" y2="122.16" gradientUnits="userSpaceOnUse"><stop offset="0" stop-color="#fff" stop-opacity="0.2"></stop><stop offset="0.27" stop-color="#fff" stop-opacity="0.21"></stop><stop offset="0.4" stop-color="#fff" stop-opacity="0.24"></stop><stop offset="0.5" stop-color="#fff" stop-opacity="0.29"></stop><stop offset="0.59" stop-color="#fff" stop-opacity="0.36"></stop><stop offset="0.66" stop-color="#fff" stop-opacity="0.46"></stop><stop offset="0.73" stop-color="#fff" stop-opacity="0.57"></stop><stop offset="0.79" stop-color="#fff" stop-opacity="0.7"></stop></linearGradient><linearGradient id="linear-gradient-2" x1="448.54" y1="215.52" x2="448.54" y2="122.16" xlink:href="#linear-gradient"></linearGradient></defs><title>Asset 1</title><g class="cls-2"><g id="Layer_2" data-name="Layer 2"><g id="OBJECTS"><path class="cls-3" d="M363.6,315.58h-110s4.56,70.08-17.22,70.08H380.82C359,385.66,363.6,315.58,363.6,315.58Z"></path><path class="cls-4" d="M252.33,357.71l110.92-22.47c-.21-11.12.35-19.66.35-19.66h-110S255.05,338.18,252.33,357.71Z"></path><rect class="cls-3" x="87.82" y="46.98" width="441.53" height="289.73" rx="18.42"></rect><rect class="cls-5" x="100.22" y="57.25" width="416.74" height="269.2" rx="14.75"></rect><line class="cls-6" x1="100.22" y1="91.2" x2="516.96" y2="91.2"></line><path class="cls-7" d="M466.91,80.62H179.81a7.12,7.12,0,0,1-7.13-7.12h0a7.13,7.13,0,0,1,7.13-7.12h287.1A7.12,7.12,0,0,1,474,73.5h0A7.12,7.12,0,0,1,466.91,80.62Z"></path><path class="cls-8" d="M120.67,73.85a3.8,3.8,0,1,1-3.8-3.8A3.8,3.8,0,0,1,120.67,73.85Z"></path><path class="cls-8" d="M138.41,73.85a3.8,3.8,0,1,1-3.8-3.8A3.8,3.8,0,0,1,138.41,73.85Z"></path><path class="cls-8" d="M156.14,73.85a3.8,3.8,0,1,1-3.8-3.8A3.8,3.8,0,0,1,156.14,73.85Z"></path><path class="cls-8" d="M424.9,188.74H192.28a16,16,0,0,1-16-16h0a16,16,0,0,1,16-15.95H424.9a16,16,0,0,1,16,15.95h0A16,16,0,0,1,424.9,188.74Z"></path><path class="cls-9" d="M424.9,156.83H398.12v31.91H424.9a16,16,0,0,0,16-16h0A16,16,0,0,0,424.9,156.83Z"></path><path class="cls-10" d="M429.56,180.48l-5.28-5.28a8.34,8.34,0,1,0-2.82,2.39l5.5,5.5a1.84,1.84,0,0,0,2.6-2.61Zm-6-10.24a6,6,0,1,1-5.95-6A6,6,0,0,1,423.59,170.24Z"></path><path class="cls-11" d="M259.24,179.65H192.67a6.86,6.86,0,0,1-6.87-6.87h0a6.86,6.86,0,0,1,6.87-6.86h66.57a6.87,6.87,0,0,1,6.87,6.86h0A6.87,6.87,0,0,1,259.24,179.65Z"></path><rect class="cls-3" x="216.71" y="383.66" width="183.76" height="10.23"></rect><rect class="cls-11" x="224.64" y="208.61" width="60.4" height="15.35" rx="7.67"></rect><line class="cls-8" x1="232.9" y1="218.2" x2="276.78" y2="218.2"></line><rect class="cls-11" x="297.21" y="208.61" width="95.32" height="15.35" rx="7.67"></rect><line class="cls-8" x1="313.94" y1="218.2" x2="375.81" y2="218.2"></line><line class="cls-8" x1="435.33" y1="104.06" x2="452.19" y2="104.06"></line><line class="cls-8" x1="460.35" y1="104.06" x2="477.21" y2="104.06"></line><rect class="cls-11" x="483.28" y="99.49" width="2.27" height="2.27"></rect><rect class="cls-11" x="486.45" y="99.49" width="2.27" height="2.27"></rect><rect class="cls-11" x="489.61" y="99.49" width="2.27" height="2.27"></rect><rect class="cls-11" x="483.28" y="102.92" width="2.27" height="2.27"></rect><rect class="cls-11" x="486.45" y="102.92" width="2.27" height="2.27"></rect><rect class="cls-11" x="489.61" y="102.92" width="2.27" height="2.27"></rect><rect class="cls-11" x="483.28" y="106.36" width="2.27" height="2.27"></rect><rect class="cls-11" x="486.45" y="106.36" width="2.27" height="2.27"></rect><rect class="cls-11" x="489.61" y="106.36" width="2.27" height="2.27"></rect><circle class="cls-11" cx="501.25" cy="104.06" r="5.75"></circle><path class="cls-12" d="M203.28,117.27H87.82v43.49H203.28a4.67,4.67,0,0,0,4.65-4.7V122A4.68,4.68,0,0,0,203.28,117.27Z"></path><circle class="cls-9" cx="505.45" cy="66.38" r="1.5"></circle><circle class="cls-9" cx="505.45" cy="73.5" r="1.5"></circle><circle class="cls-9" cx="505.45" cy="80.62" r="1.5"></circle><line class="cls-13" x1="375.81" y1="384.21" x2="281.78" y2="384.21"></line><line class="cls-13" x1="271.23" y1="384.21" x2="240.53" y2="384.21"></line><rect class="cls-12" x="291" y="243.43" width="211.93" height="66.13" rx="7.15"></rect><rect class="cls-14" x="282.1" y="237.49" width="211.93" height="66.13" rx="7.15"></rect><path class="cls-7" d="M480,267.72h-124a3.81,3.81,0,0,1-3.82-3.81h0a3.81,3.81,0,0,1,3.82-3.81H480a3.81,3.81,0,0,1,3.81,3.81h0A3.81,3.81,0,0,1,480,267.72Z"></path><path class="cls-7" d="M480,281h-124a3.81,3.81,0,0,1-3.82-3.81h0a3.81,3.81,0,0,1,3.82-3.81H480a3.81,3.81,0,0,1,3.81,3.81h0A3.81,3.81,0,0,1,480,281Z"></path><path class="cls-7" d="M480,254.43h-124a3.81,3.81,0,0,1-3.82-3.81h0a3.81,3.81,0,0,1,3.82-3.81H480a3.81,3.81,0,0,1,3.81,3.81h0A3.81,3.81,0,0,1,480,254.43Z"></path><rect class="cls-7" x="352.12" y="286.68" width="35.08" height="7.63" rx="3.81"></rect><rect class="cls-15" x="290.1" y="246.81" width="47.5" height="47.5" rx="5.37"></rect><polygon class="cls-10" points="308.56 256.31 295.45 281.57 321.67 281.57 308.56 256.31"></polygon><polygon class="cls-10" points="322.56 264.61 319.41 270.69 325.05 281.57 331.36 281.57 322.56 264.61"></polygon><path class="cls-10" d="M329.57,259.88a2.74,2.74,0,1,1-2.74-2.73A2.74,2.74,0,0,1,329.57,259.88Z"></path><rect class="cls-12" x="337.85" y="49.1" width="154.76" height="63.51" rx="6.86"></rect><rect class="cls-14" x="327.31" y="42.4" width="154.76" height="63.51" rx="6.86"></rect><path class="cls-7" d="M467.58,71.43H397.22a3.66,3.66,0,0,1-3.66-3.66h0a3.66,3.66,0,0,1,3.66-3.67h70.36a3.66,3.66,0,0,1,3.66,3.67h0A3.66,3.66,0,0,1,467.58,71.43Z"></path><path class="cls-7" d="M467.58,84.19H397.22a3.66,3.66,0,0,1-3.66-3.66h0a3.66,3.66,0,0,1,3.66-3.66h70.36a3.66,3.66,0,0,1,3.66,3.66h0A3.66,3.66,0,0,1,467.58,84.19Z"></path><path class="cls-7" d="M467.58,58.67H397.22A3.66,3.66,0,0,1,393.56,55h0a3.66,3.66,0,0,1,3.66-3.66h70.36A3.66,3.66,0,0,1,471.24,55h0A3.66,3.66,0,0,1,467.58,58.67Z"></path><path class="cls-7" d="M423.59,97H397.22a3.66,3.66,0,0,1-3.66-3.67h0a3.66,3.66,0,0,1,3.66-3.66h26.37a3.66,3.66,0,0,1,3.66,3.66h0A3.66,3.66,0,0,1,423.59,97Z"></path><path class="cls-7" d="M381.22,72.82a22,22,0,0,0-.91-5,21.36,21.36,0,0,0-2-4.65l-4.18,2a17,17,0,0,0-2.9-3.52l2.75-3.72A21.82,21.82,0,0,0,365,53.15l-1.56,4.36a16.8,16.8,0,0,0-4.54-.45l-.69-4.57a22,22,0,0,0-5,.91,21.57,21.57,0,0,0-4.65,2l2,4.18a16.69,16.69,0,0,0-3.51,2.9l-3.73-2.75a21.94,21.94,0,0,0-4.75,8.91l4.36,1.56a16.79,16.79,0,0,0-.44,4.54l-4.57.69a21.48,21.48,0,0,0,.9,5,22.08,22.08,0,0,0,2,4.65l4.18-2a16.69,16.69,0,0,0,2.9,3.51l-2.74,3.73a21.93,21.93,0,0,0,8.91,4.75l1.56-4.36a16.72,16.72,0,0,0,4.53.44l.7,4.57a21.39,21.39,0,0,0,5-.9,21.85,21.85,0,0,0,4.65-2l-2-4.18a17,17,0,0,0,3.52-2.9l3.72,2.74a21.69,21.69,0,0,0,4.75-8.91l-4.36-1.56a17.13,17.13,0,0,0,.45-4.53ZM362.61,84.15a10.45,10.45,0,1,1,6.95-13.05A10.46,10.46,0,0,1,362.61,84.15Z"></path><rect class="cls-14" x="59.83" y="107.48" width="145.71" height="43.16" rx="4.66"></rect><path class="cls-7" d="M196.37,127.21H108a2.48,2.48,0,0,1-2.49-2.49h0a2.49,2.49,0,0,1,2.49-2.49h88.35a2.5,2.5,0,0,1,2.49,2.49h0A2.49,2.49,0,0,1,196.37,127.21Z"></path><path class="cls-7" d="M196.37,135.89H108a2.49,2.49,0,0,1-2.49-2.49h0a2.48,2.48,0,0,1,2.49-2.49h88.35a2.49,2.49,0,0,1,2.49,2.49h0A2.5,2.5,0,0,1,196.37,135.89Z"></path><path class="cls-7" d="M196.37,118.54H108a2.49,2.49,0,0,1-2.49-2.49h0a2.49,2.49,0,0,1,2.49-2.49h88.35a2.5,2.5,0,0,1,2.49,2.49h0A2.5,2.5,0,0,1,196.37,118.54Z"></path><path class="cls-7" d="M166.47,144.56H108a2.48,2.48,0,0,1-2.49-2.49h0a2.49,2.49,0,0,1,2.49-2.49h58.45a2.49,2.49,0,0,1,2.49,2.49h0A2.48,2.48,0,0,1,166.47,144.56Z"></path><rect class="cls-4" x="69.83" y="115.21" width="27.7" height="27.7" rx="3.13"></rect><path class="cls-10" d="M79,122.17V136a1.42,1.42,0,0,0,2.26,1.14l9.44-6.89a1.43,1.43,0,0,0,0-2.3L81.29,121A1.42,1.42,0,0,0,79,122.17Z"></path><path class="cls-16" d="M76.09,348.15c-4.17-19.81-7.48-40.1-4.77-60.29a120.53,120.53,0,0,1,21.57-53.77q1.58-2.21,3.25-4.35a111.13,111.13,0,0,1,15.28-16.13c4.19-3.59,11.31-.06,9.29,4.59A248.54,248.54,0,0,0,101.38,345"></path><path class="cls-16" d="M84.86,330.05c-.18-18.58,7.86-36.89,20.91-50.18A84.39,84.39,0,0,1,140.14,259c4.42-1.42,8,3.66,4.85,7a253.42,253.42,0,0,0-23.48,28.56c-9.78,14.11-17.67,29.69-21.63,46.37"></path><path class="cls-16" d="M66.42,348.9C59.84,300.58,47.28,266.36,24.21,229a4.45,4.45,0,0,1,5.73-6.44,73.06,73.06,0,0,1,23.84,20.63c9.42,12.32,27,34.56,32.41,87.61"></path><path class="cls-16" d="M44.86,336c0-11.14-10.2-43.88-38-58.62-4.24-2.26-2.41-8.83,2.36-8.57,15.51.84,28.24,7.76,38.37,17.55C61.93,300.16,71,322.53,73.24,343"></path><path class="cls-10" d="M143.09,263.06a93.67,93.67,0,0,0-50.28,78.52c0,.21.31.21.33,0a95,95,0,0,1,50.08-78.3c.14-.08,0-.29-.13-.22Z"></path><path class="cls-10" d="M110.05,223.89c-16.4,23.44-26.61,51.05-28.35,79.68a139.34,139.34,0,0,0,.67,24.25c0,.13.22.13.21,0C79.05,291,89.34,254.39,110.23,224c.07-.1-.1-.2-.18-.1Z"></path><path class="cls-10" d="M36.24,232.54c23.77,25.68,33.46,60,39.24,93.66,0,.12.2.07.19-.06-5.19-33.6-15.52-68.4-39.32-93.71-.07-.07-.17,0-.11.11Z"></path><path class="cls-10" d="M13.31,274.72c27.34,10.72,44.57,37.81,49,66,0,.11.21.08.2,0C59.24,312.41,40.26,285,13.34,274.6c-.07,0-.11.09,0,.12Z"></path><path class="cls-17" d="M31.05,326V337.1c0,44.21,21.52,56.79,21.52,56.79H100s21.52-12.58,21.52-56.79V326Z"></path><path class="cls-18" d="M522.44,217.51s-12.49,14.91-6.77,18.22,11.36,2.78,13.4.9c2.21-2,8.25-7.09,7.08-10.84C534.49,220.52,527.71,215.25,522.44,217.51Z"></path><polyline class="cls-18" points="522.9 236.33 522.29 246.87 535.09 244.01 531.05 231.49"></polyline><g class="cls-19"><path class="cls-17" d="M532.09,235.53a7.57,7.57,0,0,1-3.52-1.46c-.41-.31-.78-1-.36-1.26.22-.15.52-.07.78-.06a2.79,2.79,0,0,0,2.06-1.26,6.11,6.11,0,0,0,1.5-2.46,2.14,2.14,0,0,0-1-2.46,2.39,2.39,0,0,0-2.48.79,1.21,1.21,0,0,1-.62.44c-.42.07-.77-.4-.76-.83a3.15,3.15,0,0,1,.4-1.2,5.13,5.13,0,0,0,.26-3.39c-.16-.58-.37-1.32.11-1.68a1.3,1.3,0,0,1,1.14,0,19.82,19.82,0,0,1,4.1,1.7,7.41,7.41,0,0,1,3.52,7.3c-.47,2.66-3,4.54-5.1,5.87"></path></g><path class="cls-17" d="M537.05,230.22a8.22,8.22,0,0,0-3.6-5.56q-3.94-2.41-8.09-4.45c-1.26-.61-2.62-1.28-3.23-2.54a5.59,5.59,0,0,1-.45-2.3,10.23,10.23,0,0,1,.43-3.86,4.36,4.36,0,0,1,2.61-2.74c1.8-.57,3.7.46,5.15,1.65a19.92,19.92,0,0,1,6.93,11.77,3.18,3.18,0,0,1,3.45,1.31c.71,1.11,1.17,5.66-3.2,6.72"></path><path class="cls-20" d="M492.62,264.67l-31.14-8.58s-6.25-10.44-7.69-10.2,2.3,5.22.39,5.54c-1.07.17-4.57.06-5.25-.48s-2.49-5.15-3-5.07c-.79.14-.09,6.43,1.32,7.84a45.74,45.74,0,0,0,8.6,5.77c3.44,1.72,36.95,25.37,43.42,24.29"></path><polyline class="cls-10" points="480.13 260.96 476.03 260.1 474.63 272.56 485.84 276.75"></polyline><path class="cls-21" d="M544.08,252.6s-3.64-11.38-15.39-9.53-33.19,20.52-33.19,20.52l-16.17-2.76-1.52,21s13.08,7.39,21.27,7.39c16.83,0,40.11-30.56,40.11-30.56"></path><path class="cls-22" d="M520.69,278.27c11.38-8.46,14.13-16.17,18.5-16.17"></path><path class="cls-23" d="M554.59,340.93s12.4-2.21,16.66-2.89c8.29-1.34,16.84-1.44,13.49-4.79C580.38,328.88,560,319.4,560,319.4l-10.5,8.37Z"></path><path class="cls-18" d="M493.51,379.46l4.83,20.33c-6.3,9.19-7.77-.39-7.77-.39l-11.71-21.87"></path><path class="cls-23" d="M499.43,403.58l-1.09-3.79c-5.32,3.27-7.77-.39-7.77-.39l-10.38,3.1c-3,1.05-3.43,4.39-1.33,4.39h18.07A2.6,2.6,0,0,0,499.43,403.58Z"></path><path class="cls-18" d="M565.82,383.9h20.71c7,5.5-2.07,7.26-2.07,7.26L564,396.66"></path><path class="cls-23" d="M590.4,384l-3.87-.09a5.65,5.65,0,0,1-2.07,7.26s1.83,6.69,1.83,7.43-1.9,2.4-1.11,3.5,5.15.52,5.73-1c1.58-4,2.58-14.79,2.58-14.79C593.49,384.71,592.18,384.18,590.4,384Z"></path><path class="cls-9" d="M527.66,314.69s-32.28,64.3-22.14,79c5.79,8.42,15.87,9.45,29.57,9.45h36.45l5.1-19.4-45.51-2.26s33-30.64,34.74-43.89c2.27-17-6-31.74-6-31.74"></path><path class="cls-9" d="M512.64,314.19s-2.12,3.59-4.28,3.59H474.64c-13,0-22.77,7.5-18.33,27.84s14.27,47.53,14.27,47.53h27l-9.87-41.91h36.51c15,0,23.4-11.92,16.37-33.46"></path><path class="cls-24" d="M552.23,329.2a37.57,37.57,0,0,1-3.38,19.2c-4.14,9-17.27,24.74-22.92,32.83a2.23,2.23,0,0,0,1.73,3.5l48.1,2.38"></path><path class="cls-24" d="M494.24,393.15,482.4,349a1.77,1.77,0,0,1,1.71-2.23h29.4"></path><line class="cls-25" x1="511.83" y1="351.24" x2="520.86" y2="329.2"></line><path class="cls-26" d="M518.56,262.25s-3.89,36.93-6.59,53c6.24,11.33,51.67,10.29,53.66,8.31s-7.39-48.58-15.06-59.77S518.56,249.22,518.56,262.25Z"></path><path class="cls-27" d="M532.47,243.2s19.92-1.11,28.77,32.57c9,34.25,23.5,57.48,23.5,57.48s-5.5-1.92-15-.88c-15.83,1.72-35.51,10-35.51,10a234.56,234.56,0,0,1-12.52-34.89c-9.58-35.85-3.19-57.35-3.19-57.35Z"></path><path class="cls-28" d="M525.69,314.52s3.91-23.09,2.81-24.09-6.21-.65-6.21-1.51,7.54-2.26,6.21-3.48-8.24-30.36-4.34-35.14"></path><g class="cls-29"><path class="cls-30" d="M435.79,122.16s-52.89,92.71-53.19,93.36H406l53.19-93.36Z"></path><path class="cls-31" d="M471.44,122.16s-52.89,92.71-53.18,93.36h7.39l53.18-93.36Z"></path></g><rect class="cls-17" x="439.58" y="211.59" width="8.21" height="33.46" transform="translate(-49.04 149.55) rotate(-18.15)"></rect><path class="cls-23" d="M412.66,133.66a41.66,41.66,0,1,0,52.57,26.61A41.65,41.65,0,0,0,412.66,133.66Zm24.1,73.54a35.73,35.73,0,1,1,22.83-45.08A35.72,35.72,0,0,1,436.76,207.2Z"></path><path class="cls-23" d="M459,275h0a6.09,6.09,0,0,1-7.69-3.89L437,227.56l11.59-3.8,14.27,43.5A6.09,6.09,0,0,1,459,275Z"></path><path class="cls-32" d="M533.14,273.83c3.73,3,5.39,7.82,6.82,12.39,5.09,16.2,9.53,32.47,18.29,48.24"></path><path class="cls-18" d="M489,272.11l-29.14-12.58s-6.25-10.45-7.69-10.2,2.3,5.21.39,5.53c-1.07.18-4.57.07-5.25-.48s-2.49-5.14-3-5.06c-.79.14-.09,6.43,1.32,7.84a45.74,45.74,0,0,0,8.6,5.77c3.44,1.72,34.95,29.37,41.42,28.29"></path><polyline class="cls-10" points="484.62 269.26 475.76 265.79 470.84 278.77 482.94 287.21"></polyline><path class="cls-27" d="M540.6,246.87s-3.68-5.49-15.37-3.27c-6.74,1.28-33.15,28.16-33.15,28.16L479,267l-7.12,22.53s16.09,10.13,24.28,10.13c16.83,0,40.12-30.57,40.12-30.57"></path><path class="cls-28" d="M517.8,288.73c11.38-8.46,14.13-16.17,18.5-16.17"></path><polygon class="cls-23" points="533.67 317.79 546.52 318.99 546.52 321.02 534.97 320.99 533.67 317.79"></polygon><path class="cls-18" d="M520.47,221.81s-6.83,3-6.83,4.11,3.62,2.47,3.62,2.47"></path><path class="cls-23" d="M522.93,223.14a.59.59,0,0,0-.6-.26c-.54.14-.88,1.17-.79,1.64s.46.65.78.49a.86.86,0,0,0,.31-.32,1.94,1.94,0,0,0,.45-1.09A.84.84,0,0,0,522.93,223.14Z"></path><path class="cls-23" d="M522.24,220.34a8.63,8.63,0,0,1,2.09,1.46,5.28,5.28,0,0,1,.81,1,3.65,3.65,0,0,0,.61.93.23.23,0,0,0,.39-.16c.05-.82-.8-1.72-1.36-2.23a4.57,4.57,0,0,0-2.44-1.26c-.14,0-.25.17-.1.25Z"></path><path class="cls-33" d="M514.45,230.9a8,8,0,0,0,5.45.4"></path><path class="cls-34" d="M496.3,181.93a15.51,15.51,0,0,1,15.51-15.51h49.38a15.51,15.51,0,0,1,0,31H511.81a15.54,15.54,0,0,1-4.34-.62l-5.84,4,1.69-5.92A15.48,15.48,0,0,1,496.3,181.93Z"></path><path class="cls-10" d="M538.92,183.45a2.52,2.52,0,1,0,2.51-2.52A2.51,2.51,0,0,0,538.92,183.45Z"></path><path class="cls-10" d="M528.12,183.45a2.52,2.52,0,1,0,2.51-2.52A2.51,2.51,0,0,0,528.12,183.45Z"></path><path class="cls-10" d="M549.72,183.45a2.52,2.52,0,1,0,2.52-2.52A2.51,2.51,0,0,0,549.72,183.45Z"></path><path class="cls-10" d="M560.52,183.45a2.52,2.52,0,1,0,2.52-2.52A2.51,2.51,0,0,0,560.52,183.45Z"></path><path class="cls-10" d="M517.32,183.45a2.52,2.52,0,1,0,2.51-2.52A2.51,2.51,0,0,0,517.32,183.45Z"></path><path class="cls-10" d="M506.52,183.45a2.52,2.52,0,1,0,2.51-2.52A2.51,2.51,0,0,0,506.52,183.45Z"></path><path class="cls-18" d="M185.12,221.81h14s5.51-3.51,8-3.71c3.43-.27,9.9,0,9.55,1.29s-10,3.05-9.73,4.19,5.27.54,5.27,1.5c0,2-13.39,2.11-13.39,2.11l-19.89,2.48"></path><path class="cls-26" d="M123.14,169.13s20.65,4.68,28.22,17.42l18,30.26,28.46,5v6.41s-26,6.69-33.73,6.69c-14.25,0-31.95-36.91-31.95-36.91"></path><line class="cls-25" x1="195.17" y1="228.88" x2="195.17" y2="221.34"></line><path class="cls-23" d="M151.41,397.73a9.14,9.14,0,0,0-2,5.9,17.86,17.86,0,0,0,.51,4.38H151l.25-2.16a18.08,18.08,0,0,1,6.25,2.14c1.55.88,9,.3,10.13-.39a1.52,1.52,0,0,0,.33-2.44c-.47-.47-8.78-3.46-8.78-3.46"></path><path class="cls-18" d="M137.34,312.76c-10.48,32.09,14.07,85,14.07,85l4.84,1.87s3.59-55.59,3.59-82.1c0-22.36,3.51-58.35-19.5-69.06"></path><path class="cls-18" d="M155.71,397.73a28,28,0,0,0,7.24,5.36c1.36.68-.39,1.77-1.84,1.9-4.54.4-10.61-5.91-10.61-5.91l1.51-3"></path><path class="cls-23" d="M93.19,404c-3.29,3.29-8.1,11.27-5,11.9s11.22-7.15,11.22-7.15l0,.66,1.2,0s1-4.27-.8-6.1"></path><path class="cls-18" d="M89.66,291.18s.93,27.91.41,32.88S93.19,403,93.19,404c-.2,1.44-4.1,6.93-2.14,6.93s9-6.4,8.68-7.6c.41-1.06,12.58-42.12,15.2-58.1,3.06-18.62-.69-30.66-.69-30.66l10.25-60.23"></path><path class="cls-9" d="M140.69,241.32s14.95,5.49,18.69,29.18c3,18.72,1.76,48,1.76,48s-5.88,6.73-28,10.5C103.21,334.08,90,326.86,90,326.86s-5.48-37.28-1.55-61.07c4-24.33,23.37-32.71,23.37-32.71"></path><path class="cls-25" d="M93.72,328.29s-10.85-70.18,11-87.77"></path><path class="cls-26" d="M143.1,186.55s-.21,3.43,1,5.49c2.23,3.94,5.17,6.92,5.17,15.63,0,5.37-4.69,10.62-4.69,12.29s-3.66,20.56-3.66,20.56H122.34c-15.51,0-20.68-5.61-20.68-5.61L89.89,192.28l26.12-22,8.56-.9Z"></path><line class="cls-25" x1="133.22" y1="188.3" x2="140.78" y2="188.3"></line><path class="cls-25" d="M143.1,186.55s-.21,3.43,1,5.49c2.23,3.94,5.17,8.59,5.17,15.63,0,5.37-4.69,10.62-4.69,12.29s-3.84,21.36-3.84,21.36"></path><path class="cls-23" d="M150.78,209.24,143.68,241H189l7.21-32.22a.93.93,0,0,0-.79-1.25h-42.7A2.07,2.07,0,0,0,150.78,209.24Z"></path><path class="cls-23" d="M156.16,241H121l.19-1.77a2.33,2.33,0,0,1,2.26-2.05h33.09Z"></path><path class="cls-35" d="M173.71,224.28c-.48,2.08-2.32,3.77-4.11,3.77s-2.87-1.69-2.39-3.77a4.7,4.7,0,0,1,4.11-3.76C173.11,220.52,174.18,222.2,173.71,224.28Z"></path><path class="cls-18" d="M108.49,245.25h36.44a107.21,107.21,0,0,0,11,.56c4.85-.09,7.75-4,7.75-4.79,0-.67-2.83,0-6.83,0-2.46,0-4.2.36-4.39-.18-.46-1.28,4.2-2.08,3.29-3-.35-.35-2.42-.28-3.83,0a27.42,27.42,0,0,0-7.15,2.87l-30.4-7.05"></path><path class="cls-26" d="M118.76,169.13S90,172,84.68,193.09c-5.85,23.46,9,50,16.66,52.16,3.18.89,39.44.91,39.44.91l1.65-6.26-30.59-6.82-3.34-40.8"></path><line class="cls-25" x1="139.21" y1="239.18" x2="138.23" y2="246.16"></line><polyline class="cls-25" points="142.43 239.9 111.84 233.08 108.5 192.28"></polyline><path class="cls-23" d="M115.15,141.69a14.62,14.62,0,0,0-7.68,5.21c-2,2.65-3.22,5.9-4.83,8.87a38.41,38.41,0,0,1-2.92,4.35c-.77,1-2.54,2.18-2.13,3.66s2.7,2.22,4,2.38c1.72.21,3.48,0,5.19.23a21.55,21.55,0,0,1,4.26,1.36,21.49,21.49,0,0,0,9.69,1.65c2-.22,3.76-1.27,5.72-1.73s4.31-.07,6.39-.1a3.31,3.31,0,0,0,2.25-.6,3,3,0,0,0,.74-2,13.91,13.91,0,0,0-1.93-8.41c-1.42-2.36-3.52-4.25-4.94-6.61-1.62-2.68-2.71-5.38-5.3-7.35C121.39,140.91,117.8,141,115.15,141.69Z"></path><path class="cls-18" d="M125.88,163.56l-.83,7.4a3.7,3.7,0,0,1-3.14,2.82c-5.78.43-5.9-3.5-5.9-3.5l4.42-9.31"></path><path class="cls-18" d="M120.83,163s8.56,3.87,12.74-.55c2.38-2.53-3.7-15.16-6.35-16.94s-7.84.13-8.94,3.11-4,10.84,2.55,14.38"></path><path class="cls-23" d="M131,152.76a.64.64,0,1,1-.64-.64A.64.64,0,0,1,131,152.76Z"></path><path class="cls-23" d="M123.94,155.34a.64.64,0,0,0,.64.64.64.64,0,0,0,.64-.64.64.64,0,1,0-1.28,0Z"></path><path class="cls-23" d="M125.5,152.69a2.64,2.64,0,0,0-3.71,1.85c0,.13.17.16.22.06a2.9,2.9,0,0,1,3.37-1.65c.16,0,.27-.19.12-.26Z"></path><path class="cls-23" d="M131.28,150.47c-1.08-1.1-3.71-.25-3.3,1.47a.11.11,0,0,0,.2,0,3.25,3.25,0,0,1,1-1.32,2.07,2.07,0,0,1,2,0,.13.13,0,0,0,.15-.2Z"></path><path class="cls-33" d="M128.06,153.59s2.48,2.64,2.21,3.25c-.43,1-1.91,1-1.91,1"></path><path class="cls-10" d="M128.55,160.07l3.29-1.13s.59,1.93-.49,2.32A2.09,2.09,0,0,1,128.55,160.07Z"></path><path class="cls-33" d="M125.77,164.54a10.16,10.16,0,0,1-5-1.48"></path><path class="cls-23" d="M118,159.4c3.59-2.58,5-7.73,5.69-12.1,2.47.62,4.92,1.34,7.34,2.14.24-1.2,0-5.75-5.63-7.53-2.81-.87-5.88.46-7.79,2.69a13.56,13.56,0,0,0-2.77,12.07"></path><path class="cls-18" d="M118.87,159.11c-2-2-3.38-.81-3.7,0a2.94,2.94,0,0,0,.41,2.49,3.73,3.73,0,0,0,2.51,2,2,2,0,0,0,2.3-1.77"></path><path class="cls-10" d="M117.41,167.33s1.72,5.28,4.5,6.45a27.23,27.23,0,0,0-3.88,4.51c-3.54-3.54-3.66-8.82-3.66-8.82Z"></path><path class="cls-10" d="M125.26,169.13s-1.28,3.77-3.35,4.65a48.34,48.34,0,0,1,3.48,4s1.6-1.35,1.15-5.29A11.24,11.24,0,0,0,125.26,169.13Z"></path><path class="cls-34" d="M80,152.87a15.51,15.51,0,0,0-15.51-15.51H37.68a15.51,15.51,0,1,0,0,31H64.53a15.47,15.47,0,0,0,4.33-.63l5.84,4L73,165.84A15.48,15.48,0,0,0,80,152.87Z"></path><path class="cls-10" d="M37.42,154.38a2.52,2.52,0,1,1-2.52-2.52A2.52,2.52,0,0,1,37.42,154.38Z"></path><path class="cls-10" d="M48.22,154.38a2.52,2.52,0,1,1-2.52-2.52A2.52,2.52,0,0,1,48.22,154.38Z"></path><path class="cls-10" d="M59,154.38a2.52,2.52,0,1,1-2.52-2.52A2.52,2.52,0,0,1,59,154.38Z"></path><path class="cls-10" d="M69.82,154.38a2.52,2.52,0,1,1-2.52-2.52A2.52,2.52,0,0,1,69.82,154.38Z"></path><path class="cls-7" d="M71.18,220.43a5.08,5.08,0,1,1-5.08-5.08A5.08,5.08,0,0,1,71.18,220.43Z"></path><path class="cls-7" d="M603.53,123.28a6.63,6.63,0,1,1-6.63-6.63A6.63,6.63,0,0,1,603.53,123.28Z"></path><path class="cls-7" d="M261.4,5.08A5.08,5.08,0,1,1,256.32,0,5.08,5.08,0,0,1,261.4,5.08Z"></path><circle class="cls-6" cx="62.08" cy="217.33" r="3.17"></circle><path class="cls-6" d="M229.64,18.41a3.18,3.18,0,1,1-3.17-3.18A3.17,3.17,0,0,1,229.64,18.41Z"></path><circle class="cls-6" cx="43.39" cy="105.19" r="3.17"></circle><path class="cls-6" d="M553.93,140.58a3.18,3.18,0,1,1-3.18-3.17A3.18,3.18,0,0,1,553.93,140.58Z"></path><circle class="cls-6" cx="570.41" cy="250.62" r="3.17"></circle><circle class="cls-7" cx="48.21" cy="57.25" r="19.08"></circle><path class="cls-10" d="M58,64.9l-5.25-5.25A8.25,8.25,0,1,0,46.14,63a8.16,8.16,0,0,0,3.8-.94l5.46,5.47a1.85,1.85,0,0,0,2.59,0,1.82,1.82,0,0,0,.54-1.3A1.78,1.78,0,0,0,58,64.9ZM52.05,54.72a5.92,5.92,0,1,1-5.91-5.92A5.92,5.92,0,0,1,52.05,54.72Z"></path><path class="cls-6" d="M459.66,17.37l-2,7.93c-.17.67.66,1.29,1.41,1.05L466.65,24a.77.77,0,0,0,.33-1.33L461.4,17.1C460.84,16.54,459.82,16.7,459.66,17.37Z"></path><path class="cls-6" d="M189.86,358.5l-7.93,2a1,1,0,0,0-.27,1.74l5.6,5.58a.76.76,0,0,0,1.32-.33l2.33-7.55C191.14,359.16,190.53,358.33,189.86,358.5Z"></path><path class="cls-6" d="M1.07,201.68l3.47,7.4c.29.63,1.32.58,1.76-.07l4.39-6.58a.76.76,0,0,0-.58-1.23l-7.86-.82C1.47,200.29.78,201.06,1.07,201.68Z"></path><path class="cls-6" d="M595.36,219.73l7-4.2c.6-.35.45-1.37-.25-1.74l-7-3.71a.77.77,0,0,0-1.17.7l0,7.91C593.94,219.48,594.77,220.09,595.36,219.73Z"></path><circle class="cls-7" cx="219.48" cy="260.94" r="21.56"></circle><rect class="cls-10" x="205.92" y="253.81" width="19.6" height="15.23" rx="1.88"></rect><path class="cls-10" d="M233.3,267.59l-5.68-2.7V258l5.68-2.7a.55.55,0,0,1,.79.5v11.32A.55.55,0,0,1,233.3,267.59Z"></path><circle class="cls-7" cx="575.1" cy="90.63" r="21.56" transform="translate(355.93 630) rotate(-76.84)"></circle><polyline class="cls-36" points="563.15 89.69 572.09 99.49 587.04 82.12"></polyline></g></g></g></svg>