<svg xmlns="http://www.w3.org/2000/svg" viewBox="0 0 1845.87 1316.93"><defs><style>.cls-1{fill:#eaeff8;}.cls-1,.cls-10,.cls-11,.cls-12,.cls-13,.cls-15,.cls-17,.cls-18,.cls-19,.cls-20,.cls-21,.cls-22,.cls-23,.cls-24,.cls-26,.cls-27,.cls-3,.cls-4,.cls-5,.cls-6,.cls-7,.cls-8,.cls-9{fill-rule:evenodd;}.cls-2,.cls-4{fill:#d2dfee;}.cls-3{fill:#fff;}.cls-5{fill:#c5def8;}.cls-6{fill:#fefefe;}.cls-7{fill:#61a0e0;}.cls-8{fill:#a4d0fc;}.cls-9{fill:#eff9fc;}.cls-10{fill:#bbdbfa;}.cls-11{fill:#dfedfa;}.cls-12,.cls-14{fill:#fc9774;}.cls-13,.cls-16{fill:#f57a44;}.cls-15{fill:#f06a30;}.cls-17{fill:#3b5bb3;}.cls-18{fill:#4567c6;}.cls-19{fill:#284191;}.cls-20{fill:#ffb27d;}.cls-21,.cls-25{fill:#f08261;}.cls-22{fill:#4f8ecc;}.cls-23{fill:#125aa3;}.cls-24{fill:#f7a46c;}.cls-26{fill:#87bef5;}.cls-27{fill:#71afed;}</style></defs><title>Asset 1</title><g id="Layer_2" data-name="Layer 2"><g id="Layer_1-2" data-name="Layer 1"><path class="cls-1" d="M922.94,1236.08c214.68,0,412.24,3.21,569,8.6,383.68-219.31,250.82-646.79,113-888.58-191.72-336.52-644.77-457.48-832.17-189C518.5,531.57,273.12,404.39,140.63,681.17s68.72,542.13,213.28,563.51c156.78-5.39,354.34-8.6,569-8.6ZM586.75,302.86c-98.2,74.76-260.64,132.67-314.58,53.21-40.3-59.37,9.34-170.75,106.56-255.21S606.06-34.61,677,27.53C761.2,101.27,662.38,245.3,586.75,302.86Z"></path><ellipse class="cls-2" cx="922.93" cy="1276.51" rx="922.94" ry="40.42"></ellipse><path class="cls-3" d="M1220.57,120.3c230.5,51.35,377.18,263.34,391.56,365.68,5.9,42-5-56.28-122.62-145.77-105.09-80-186.91-94.79-311.92-104.46-88.36-6.83-180.88-17.68-174.31-70.38,5.2-41.62,68.47-78.22,217.29-45.07ZM617.82,34.56c39.68,2.39,63.84,35,65.5,72.54.71,16-11.85-25.81-55.84-31.62-27.29-3.61-31.39,4.43-41.17-6.83S585.82,32.64,617.82,34.56Z"></path><path class="cls-4" d="M328.41,1142.94c-10.53-13.16-25.33-24.06-29.69-40.35-5.12-19.23,6.17-39.47,3.37-59.18-3.51-24.8-27.4-40.87-40.37-62.31-12.7-21-6.74-28.05-7.9-52.55-1.75-36.92-32-83.53-72.37-71-41,12.7-34.28,50.78-27.07,79.43,5.14,20.41,1.78,23.34-3.21,43.78-6,24.69-25.47,48.56-17.34,72.64,5,14.88,19.63,24.94,24.9,39.74,6,16.77-1.26,35-4,52.57-5.88,37,2.55,67.83,29.46,98.41a104.71,104.71,0,0,0,9,7.67c37.69-2.12,80.1-4.09,126.59-5.85l.34-.37C344.72,1218.66,352.06,1172.54,328.41,1142.94Z"></path><path class="cls-3" d="M200.05,890.87a3.24,3.24,0,1,0-6.05,2.31,232.37,232.37,0,0,1,8.2,26.25c-.93-.84-1.89-1.67-2.88-2.45a74.82,74.82,0,0,0-15-9.26,3.23,3.23,0,1,0-2.76,5.85A68.44,68.44,0,0,1,195.28,922a55.56,55.56,0,0,1,9.86,10.2c4.14,19.76,6.84,41,9.28,63.4a114.87,114.87,0,0,0-12-15.69,84.21,84.21,0,0,0-24.55-18.73A3.23,3.23,0,1,0,175,967a77.66,77.66,0,0,1,22.66,17.33,121.42,121.42,0,0,1,18.45,27.27l.64,6.08c1.37,13.35,2.79,27,4.45,41,0,.13,0,.26.05.4,1.75,14.6,3.79,29.53,6.36,44.7A186.46,186.46,0,0,0,205,1075.16a137.07,137.07,0,0,0-38.86-28.42,3.23,3.23,0,1,0-2.8,5.83,131.08,131.08,0,0,1,37,27.1Q217.24,1097,231,1122.09a529.43,529.43,0,0,0,15.79,61.28h0l0,.08h0q5,15.24,11.19,30.61a186.85,186.85,0,0,0-80.59-40.72,3.24,3.24,0,0,0-1.47,6.32,182.17,182.17,0,0,1,47.72,18.24,186.47,186.47,0,0,1,40.59,30.73q4.3,9.57,9.2,19.15l7.13-.3A432.48,432.48,0,0,1,253,1181.75a124.77,124.77,0,0,1,5.61-47.35q7.56-24,24.62-48.07a3.23,3.23,0,0,0-5.27-3.75q-17.65,24.9-25.51,49.87a135.56,135.56,0,0,0-5.75,28.37c-9.71-35.06-15.09-69.34-19-102.06q5.7-20.79,12.73-35.19t15.19-22.09a3.23,3.23,0,1,0-4.44-4.69q-9.08,8.57-16.58,24a179.2,179.2,0,0,0-8.76,21.82c-.95-8.64-1.83-17.16-2.69-25.54l-.68-6.53a2.21,2.21,0,0,0,0-.35C217.84,965.69,213.2,925.23,200.05,890.87Z"></path><path class="cls-5" d="M220,1160.32c-11.23-6.06-24.77-9.26-32.63-19.32-9.27-11.88-7.4-29.32-15.19-42.22-9.79-16.24-31.2-20.35-46.58-31.44-15.06-10.86-13-17.54-21.07-34.27-12.16-25.2-47.06-48.7-71.46-28-24.77,21-8.83,45.54,4.68,63.36,9.62,12.69,8.15,15.73,10.73,31.45,3.12,19-3.35,41.36,9.44,55.73,7.91,8.88,21.07,11.55,29.13,20.3,9.14,9.91,9.48,24.73,12.75,37.81,4.33,17.36,11.9,31.31,23.87,42.6,32.28-2.44,70.24-4.72,113.07-6.81a63.52,63.52,0,0,0,7.87-15.22C253.84,1208.22,245.28,1173.92,220,1160.32Z"></path><path class="cls-3" d="M55.94,1022.75a2.45,2.45,0,0,0-3.52,3.41A177,177,0,0,1,65.91,1042c-.9-.31-1.81-.59-2.73-.85a57,57,0,0,0-13.17-2,2.45,2.45,0,0,0-.19,4.9,51.87,51.87,0,0,1,12,1.83,42.26,42.26,0,0,1,9.9,4.18c8.73,12.54,16.91,26.53,25.24,41.41a86.93,86.93,0,0,0-13-7.36,63.8,63.8,0,0,0-22.65-5.78,2.45,2.45,0,0,0-.29,4.89A58.56,58.56,0,0,1,82,1088.57a91.36,91.36,0,0,1,20.94,13.53l2.23,4c4.92,8.89,10,18,15.27,27.26a2.2,2.2,0,0,0,.15.26c5.55,9.66,11.39,19.45,17.68,29.26A141.65,141.65,0,0,0,114,1149.65a103.84,103.84,0,0,0-35.49-8.28,2.45,2.45,0,1,0-.22,4.9,98.73,98.73,0,0,1,33.81,7.9,146.67,146.67,0,0,1,33.87,20.5,401.94,401.94,0,0,0,29.16,38v0l0,0h0c5.31,6.1,10.91,12.11,16.86,18a141.51,141.51,0,0,0-68.2-4.49,2.46,2.46,0,0,0,.84,4.84,137.46,137.46,0,0,1,38.65-1.43,141.15,141.15,0,0,1,37.38,9.38q6.38,5.9,13.27,11.59l7.3-.37A327.24,327.24,0,0,1,179,1209.68,94.38,94.38,0,0,1,168.92,1175q-1.86-19,2.9-40.79a2.45,2.45,0,1,0-4.78-1q-4.92,22.56-3,42.29a103.26,103.26,0,0,0,4.4,21.47c-17.16-21.55-31.06-43.84-43.5-65.46a154.33,154.33,0,0,1-1.56-28.29q.63-12.06,4-19.88a2.45,2.45,0,1,0-4.49-1.95q-3.78,8.65-4.46,21.59a137.76,137.76,0,0,0,.37,17.8q-4.83-8.61-9.44-17l-2.4-4.35c0-.08-.09-.16-.14-.24C90.5,1069.6,75.29,1042.8,55.94,1022.75Z"></path><path class="cls-4" d="M1476.71,1130.46c11.49-14.38,27.65-26.27,32.39-44,5.6-21-6.73-43.06-3.67-64.57,3.83-27.07,29.9-44.62,44.06-68,13.86-22.91,7.35-30.61,8.62-57.35,1.9-40.3,35-91.15,79-77.51,44.69,13.86,37.4,55.42,29.53,86.69-5.61,22.27-2,25.46,3.5,47.76,6.57,27,27.79,53,18.92,79.27-5.48,16.24-21.42,27.22-27.18,43.37-6.53,18.3,1.38,38.17,4.42,57.35,6.42,40.42-2.79,74-32.15,107.41a116.38,116.38,0,0,1-11.13,9.34c-40.61-2.07-85.93-4-135.21-5.63-.68-.69-1.35-1.41-2-2.13C1458.92,1213.08,1450.9,1162.75,1476.71,1130.46Z"></path><path class="cls-3" d="M1616.78,855.37a3.53,3.53,0,1,1,6.6,2.52,257.22,257.22,0,0,0-8.93,28.64c1-.91,2-1.8,3.13-2.66a81.83,81.83,0,0,1,16.33-10.11,3.53,3.53,0,1,1,3,6.39,74.66,74.66,0,0,0-14.93,9.21,61.21,61.21,0,0,0-10.76,11.14c-4.51,21.56-7.47,44.74-10.12,69.18a123.5,123.5,0,0,1,13.1-17.11,91.46,91.46,0,0,1,26.8-20.44,3.52,3.52,0,1,1,3.12,6.31,84.83,84.83,0,0,0-24.73,18.92,132.39,132.39,0,0,0-20.13,29.75l-.68,6.63c-1.51,14.57-3.06,29.52-4.88,44.77a2.12,2.12,0,0,1-.06.44c-1.9,16-4.12,32.23-6.93,48.79a203.38,203.38,0,0,1,24.64-31.26,149.69,149.69,0,0,1,42.41-31,3.53,3.53,0,0,1,3.06,6.37,142.16,142.16,0,0,0-40.4,29.56q-18.42,19-33.37,46.3a579,579,0,0,1-17.24,66.87h0l0,.09h0c-3.61,11.08-7.65,22.22-12.2,33.39a203.85,203.85,0,0,1,87.94-44.42,3.53,3.53,0,0,1,1.6,6.88,198.6,198.6,0,0,0-52.07,19.92,202.93,202.93,0,0,0-44.29,33.53q-5,11.15-10.79,22.33l-7.79-.31A472.82,472.82,0,0,0,1559,1172.8a135.83,135.83,0,0,0-6.13-51.67q-8.22-26.19-26.86-52.46a3.54,3.54,0,1,1,5.76-4.1q19.26,27.18,27.82,54.44a147.16,147.16,0,0,1,6.29,31c10.59-38.26,16.48-75.67,20.76-111.38q-6.21-22.68-13.89-38.41t-16.58-24.09A3.53,3.53,0,1,1,1561,971q9.9,9.38,18.09,26.14a196.16,196.16,0,0,1,9.56,23.82c1-9.43,2-18.73,2.94-27.88l.73-7.11c0-.13,0-.27,0-.39C1597.38,937,1602.44,892.87,1616.78,855.37Z"></path><path class="cls-5" d="M1595,1149.41c12.27-6.61,27-10.1,35.62-21.08,10.11-13,8.08-32,16.58-46.07,10.69-17.72,34-22.22,50.83-34.32,16.44-11.85,14.2-19.13,23-37.39,13.26-27.49,51.35-53.14,78-30.59,27,22.9,9.63,49.69-5.11,69.13-10.51,13.85-8.9,17.17-11.72,34.32-3.4,20.72,3.67,45.14-10.3,60.82-8.63,9.69-23,12.6-31.79,22.15-10,10.82-10.33,27-13.91,41.27-4.8,19.21-13.22,34.6-26.62,47-35.25-2.4-76.16-4.62-121.87-6.64a69.42,69.42,0,0,1-9.53-17.93C1558.09,1201.69,1567.42,1164.26,1595,1149.41Z"></path><path class="cls-3" d="M1774,999.29a2.67,2.67,0,0,1,3.85,3.71,192.78,192.78,0,0,0-14.71,17.3c1-.33,2-.65,3-.93a61.44,61.44,0,0,1,14.37-2.19,2.67,2.67,0,1,1,.21,5.34,56.65,56.65,0,0,0-13.13,2,46.52,46.52,0,0,0-10.8,4.57c-9.53,13.69-18.46,29-27.55,45.19a95.45,95.45,0,0,1,14.2-8,69.43,69.43,0,0,1,24.71-6.3,2.67,2.67,0,1,1,.32,5.33,64.43,64.43,0,0,0-22.83,5.85,100.12,100.12,0,0,0-22.85,14.76l-2.44,4.41c-5.36,9.71-10.86,19.66-16.65,29.75a1.75,1.75,0,0,1-.18.29c-6,10.54-12.42,21.23-19.27,31.93a153.47,153.47,0,0,1,26.42-14.47,113.41,113.41,0,0,1,38.72-9,2.68,2.68,0,1,1,.25,5.35,107.7,107.7,0,0,0-36.9,8.63q-18.45,7.74-37,22.36a438.46,438.46,0,0,1-31.82,41.47h0l0,.06h0q-8.7,10-18.4,19.65a154.15,154.15,0,0,1,74.42-4.9,2.67,2.67,0,0,1-.92,5.27,150.51,150.51,0,0,0-42.18-1.55,154,154,0,0,0-40.79,10.24q-7.56,7-15.8,13.74l-8.06-.38a356.25,356.25,0,0,0,47.53-45.39,103.07,103.07,0,0,0,11-37.81q2-20.68-3.17-44.51a2.67,2.67,0,1,1,5.21-1.14q5.39,24.63,3.27,46.15a112.3,112.3,0,0,1-4.8,23.44c18.72-23.52,33.9-47.84,47.46-71.44a167.73,167.73,0,0,0,1.71-30.87q-.69-13.15-4.41-21.69a2.67,2.67,0,0,1,4.9-2.14q4.11,9.46,4.85,23.57a147,147,0,0,1-.39,19.42c3.51-6.26,6.93-12.45,10.31-18.54l2.62-4.75a1.34,1.34,0,0,1,.14-.26C1736.33,1050.42,1752.94,1021.16,1774,999.29Z"></path><path class="cls-3" d="M855.92,268c-3.3,45.35-10,51.6-53.21,55.09,43.22,3.49,49.91,9.74,53.21,55.09,3.31-45.35,10-51.6,53.22-55.09-43.23-3.49-49.91-9.74-53.22-55.09Zm175.7,119.58c-1.76,24.2-5.32,27.54-28.4,29.4,23.08,1.87,26.64,5.21,28.4,29.41,1.77-24.2,5.34-27.54,28.42-29.41-23.08-1.86-26.65-5.2-28.42-29.4ZM954.68,201.32c-1.79,24.51-5.4,27.89-28.77,29.78,23.37,1.9,27,5.28,28.77,29.79,1.79-24.51,5.4-27.89,28.78-29.79C960.08,229.21,956.47,225.83,954.68,201.32Z"></path><path class="cls-3" d="M792.21,1011.34c2.67,36.73,8.09,41.79,43.11,44.62-35,2.83-40.44,7.9-43.11,44.63-2.68-36.73-8.09-41.8-43.11-44.63,35-2.83,40.43-7.89,43.11-44.62Zm-142.34,96.87c1.42,19.61,4.31,22.31,23,23.82-18.7,1.52-21.59,4.22-23,23.83-1.43-19.61-4.33-22.31-23-23.83,18.7-1.51,21.6-4.21,23-23.82ZM712.2,957.29c1.45,19.86,4.38,22.6,23.31,24.13-18.93,1.53-21.86,4.27-23.31,24.13-1.44-19.86-4.38-22.6-23.31-24.13C707.82,979.89,710.76,977.15,712.2,957.29Z"></path><path class="cls-3" d="M1351.63,920.8c-2.06,28.12-6.21,32-33,34.17,26.8,2.16,31,6,33,34.17,2-28.13,6.19-32,33-34.17-26.81-2.17-31-6.05-33-34.17Zm109,74.17c-1.08,15-3.3,17.08-17.61,18.24,14.31,1.16,16.53,3.23,17.61,18.24,1.1-15,3.31-17.08,17.63-18.24-14.32-1.16-16.53-3.23-17.63-18.24Zm-47.73-115.55c-1.1,15.2-3.35,17.3-17.84,18.48,14.49,1.17,16.74,3.26,17.84,18.47,1.12-15.21,3.36-17.3,17.86-18.47C1416.23,896.72,1414,894.62,1412.87,879.42Z"></path><polygon class="cls-6" points="626.85 1118.3 1201.89 1125.24 1198.13 1245.8 588.28 1244.64 626.85 1118.3"></polygon><path class="cls-7" d="M1515.51,1285l-1236.08,1.83a53.38,53.38,0,0,1-53.47-53.3h0l1342.86-2A53.4,53.4,0,0,1,1515.51,1285Z"></path><path class="cls-8" d="M1367.18,991.14,426,992.7a116.8,116.8,0,0,0-11.87.64,91.22,91.22,0,0,0-10.55,1.72,46.45,46.45,0,0,0-8.12,2.53,11.42,11.42,0,0,0-4.56,3.13L225.64,1233c-1.39,2-1.62,3.85-.83,5.57s2.61,3.26,5.29,4.57a39.54,39.54,0,0,0,10.52,3.11,87.12,87.12,0,0,0,14.8,1.12h.08l1283.85-2.19a88.92,88.92,0,0,0,14.82-1.17,39.81,39.81,0,0,0,10.53-3.14c2.68-1.32,4.48-2.88,5.27-4.6a5.32,5.32,0,0,0-.87-5.55l-166.77-231.7a11.11,11.11,0,0,0-4.57-3.1,45.87,45.87,0,0,0-8.14-2.53,93.73,93.73,0,0,0-10.56-1.67,114,114,0,0,0-11.88-.61Zm-723,248a38.52,38.52,0,0,1-5.93-.44,21.35,21.35,0,0,1-4.61-1.2,7.37,7.37,0,0,1-2.83-1.77,2.27,2.27,0,0,1-.61-2.18l29.62-105.39a3.26,3.26,0,0,1,1.54-1.72,14.34,14.34,0,0,1,3.31-1.38,31.23,31.23,0,0,1,4.6-1,42.29,42.29,0,0,1,5.4-.34l444.76-.76h.07a42.11,42.11,0,0,1,5.4.33,30.79,30.79,0,0,1,4.58.93,13.44,13.44,0,0,1,3.3,1.37,3.33,3.33,0,0,1,1.55,1.71l30.34,105.28a2.26,2.26,0,0,1-.6,2.18,7.33,7.33,0,0,1-2.82,1.78,21.09,21.09,0,0,1-4.59,1.22,38.69,38.69,0,0,1-6,.44Z"></path><path class="cls-8" d="M1370.26,992.5l-938,1.4a34,34,0,0,1-34-33.89l-.94-632.65a33.94,33.94,0,0,1,33.89-34l938-1.4a34,34,0,0,1,34,33.89l.94,632.65A33.93,33.93,0,0,1,1370.26,992.5Z"></path><path class="cls-9" d="M1338.48,955.44l-874.55,1.3a31,31,0,0,1-31-30.91l-.84-564.4a31,31,0,0,1,30.92-31l874.54-1.3a31,31,0,0,1,31,30.91l.83,564.39A31,31,0,0,1,1338.48,955.44Z"></path><path class="cls-6" d="M1094.38,1129.56h-.06l-394.41.66a36.61,36.61,0,0,0-4.79.31,26.12,26.12,0,0,0-4.08.84,12.26,12.26,0,0,0-2.94,1.23,2.84,2.84,0,0,0-1.36,1.51l-26.26,93.47a2,2,0,0,0,.53,1.93,6.91,6.91,0,0,0,2.51,1.58,19.87,19.87,0,0,0,4.09,1.05,32.73,32.73,0,0,0,5.25.39l449.2-.77a33,33,0,0,0,5.28-.4,18.24,18.24,0,0,0,4.07-1.08,6.72,6.72,0,0,0,2.5-1.57,2,2,0,0,0,.53-1.93l-26.9-93.38a2.94,2.94,0,0,0-1.37-1.5,12.35,12.35,0,0,0-2.93-1.23,28.78,28.78,0,0,0-4.08-.82,36.22,36.22,0,0,0-4.78-.29Z"></path><path class="cls-3" d="M1245.63,1004.82l-52.68.08c-.63,0-1.21.05-1.73.11a6.75,6.75,0,0,0-1.33.27,2.17,2.17,0,0,0-.81.4.43.43,0,0,0-.16.49l2.82,6.84a1.09,1.09,0,0,0,.57.48,5.85,5.85,0,0,0,1.17.41,12.23,12.23,0,0,0,1.57.26,15.43,15.43,0,0,0,1.83.1l53.35-.09a13.07,13.07,0,0,0,1.74-.1,7.69,7.69,0,0,0,1.34-.27,2,2,0,0,0,.78-.4.38.38,0,0,0,.1-.5l-3.4-6.85a1.33,1.33,0,0,0-.6-.47,5.46,5.46,0,0,0-1.17-.4,12.84,12.84,0,0,0-1.57-.26,17.68,17.68,0,0,0-1.82-.1Zm-679.52,1.49L510.4,1006l-4.63.77-4.34,7.34,3.81,1.27,53.45-.1,5.22-1.28c3-6.51,4-7.16,2.2-7.73Zm849.09,96.38-56.41.09a12.11,12.11,0,0,0-1.55.1,5.7,5.7,0,0,0-1.15.28,1.48,1.48,0,0,0-.65.41.42.42,0,0,0,0,.5l4.45,7.78a1.58,1.58,0,0,0,.62.51,4.54,4.54,0,0,0,1.14.42,9.8,9.8,0,0,0,1.48.27,13.21,13.21,0,0,0,1.69.11l57.13-.1a14.09,14.09,0,0,0,1.55-.1,5.06,5.06,0,0,0,1.15-.29,1.3,1.3,0,0,0,.63-.41.45.45,0,0,0,0-.52l-5.07-7.78a1.75,1.75,0,0,0-.64-.5,6,6,0,0,0-1.14-.4c-.45-.11-.95-.2-1.49-.28a15.08,15.08,0,0,0-1.68-.09Zm-78-10-55.71.09a12,12,0,0,0-1.54.1,5.81,5.81,0,0,0-1.16.28,1.76,1.76,0,0,0-.68.39.42.42,0,0,0-.1.49l3.67,7.61a1.29,1.29,0,0,0,.55.49,5.74,5.74,0,0,0,1.08.4,10.51,10.51,0,0,0,1.44.28,14.82,14.82,0,0,0,1.53.09,11.9,11.9,0,0,0-1.43.11,5.12,5.12,0,0,0-1.18.28,1.58,1.58,0,0,0-.68.4.43.43,0,0,0-.09.5l3.72,7.8a1.34,1.34,0,0,0,.58.5,4.29,4.29,0,0,0,1.1.42,8.32,8.32,0,0,0,1.45.27,11.43,11.43,0,0,0,1.67.11l57.14-.09a12,12,0,0,0,1.56-.11,5.7,5.7,0,0,0,1.17-.29,1.61,1.61,0,0,0,.67-.42.41.41,0,0,0,0-.51l-4.33-7.78a1.5,1.5,0,0,0-.6-.51,5.55,5.55,0,0,0-1.12-.4,9.75,9.75,0,0,0-1.46-.27,15.11,15.11,0,0,0-1.52-.1,10.22,10.22,0,0,0,1.41-.11,5.74,5.74,0,0,0,1.15-.27,1.59,1.59,0,0,0,.66-.41.41.41,0,0,0,0-.5l-4.27-7.6a1.27,1.27,0,0,0-.6-.48,4.92,4.92,0,0,0-1.08-.4,13.43,13.43,0,0,0-1.45-.27,14.31,14.31,0,0,0-1.63-.09Zm-50.79,10.22,56.41-.09h0l-56.41.09Zm56.41-.09-56.41.09,56.41-.09Zm.14,0Zm-73.45.12h0a12.55,12.55,0,0,1,1.66.1,10.14,10.14,0,0,1,1.43.27,4.37,4.37,0,0,1,1.09.41,1.33,1.33,0,0,1,.56.5l3.64,7.78a.46.46,0,0,1-.09.51,1.55,1.55,0,0,1-.7.42,5.41,5.41,0,0,1-1.2.29,10.86,10.86,0,0,1-1.58.1l-57.14.1a12.5,12.5,0,0,1-1.65-.1,9.33,9.33,0,0,1-1.45-.28,4.6,4.6,0,0,1-1-.41,1.11,1.11,0,0,1-.52-.51l-3-7.8a.48.48,0,0,1,.13-.5,2,2,0,0,1,.73-.41,6.2,6.2,0,0,1,1.19-.27,12.5,12.5,0,0,1,1.58-.11l56.41-.09Zm82.62-98.28-25.09,0a10.94,10.94,0,0,0-1.36.09,4.84,4.84,0,0,0-1,.2,1.39,1.39,0,0,0-.59.32.29.29,0,0,0-.06.39l4.41,7.35a1.36,1.36,0,0,0,.54.39,5.94,5.94,0,0,0,1,.32c.39.09.84.16,1.31.22s1,.07,1.49.07l25.43,0a10.83,10.83,0,0,0,1.36-.08,5.29,5.29,0,0,0,1-.21,1.5,1.5,0,0,0,.59-.32.32.32,0,0,0,0-.4l-4.74-7.36a1.86,1.86,0,0,0-.55-.38,6.5,6.5,0,0,0-1-.31,11.3,11.3,0,0,0-1.29-.2,14.06,14.06,0,0,0-1.48-.08Zm-720.76,1.19-52.69.09a15,15,0,0,0-1.81.1,10.63,10.63,0,0,0-1.57.27,5.48,5.48,0,0,0-1.15.39,1.3,1.3,0,0,0-.57.49l-3.06,6.85a.42.42,0,0,0,.13.5,2.27,2.27,0,0,0,.8.4,6.86,6.86,0,0,0,1.34.27,15.32,15.32,0,0,0,1.75.1l53.36-.09a17.88,17.88,0,0,0,1.83-.1,12.36,12.36,0,0,0,1.57-.28,4.73,4.73,0,0,0,1.15-.42,1.07,1.07,0,0,0,.55-.48l2.46-6.86a.44.44,0,0,0-.18-.48,2.38,2.38,0,0,0-.83-.39,8,8,0,0,0-1.34-.26,15.27,15.27,0,0,0-1.74-.1Zm682.55-1.13-52.68.09a14.77,14.77,0,0,0-1.72.1,7.07,7.07,0,0,0-1.3.26,1.93,1.93,0,0,0-.78.41.38.38,0,0,0-.11.47l3.51,6.85a1.43,1.43,0,0,0,.6.5,5.93,5.93,0,0,0,1.19.39,12.88,12.88,0,0,0,1.6.28,18.28,18.28,0,0,0,1.85.1l53.34-.1a13,13,0,0,0,1.73-.1,7.12,7.12,0,0,0,1.31-.27,1.83,1.83,0,0,0,.76-.41.38.38,0,0,0,.07-.49l-4.1-6.85a1.42,1.42,0,0,0-.65-.48,6.15,6.15,0,0,0-1.19-.39,13.14,13.14,0,0,0-1.61-.27,17.74,17.74,0,0,0-1.82-.09ZM485.94,1017l-48.47.09a18.48,18.48,0,0,0-1.86.1,12.3,12.3,0,0,0-1.65.28,6.78,6.78,0,0,0-1.25.41,1.77,1.77,0,0,0-.68.51l-8.58,13.48a.39.39,0,0,0,0,.51,1.74,1.74,0,0,0,.74.43,7.87,7.87,0,0,0,1.31.29c.52,0,1.12.09,1.77.09l49.55-.08c.66,0,1.3-.05,1.91-.11a12.56,12.56,0,0,0,1.67-.29,6.46,6.46,0,0,0,1.25-.43,1.52,1.52,0,0,0,.67-.53l7.5-13.46a.38.38,0,0,0-.08-.5,1.88,1.88,0,0,0-.77-.41,7.17,7.17,0,0,0-1.32-.28,15,15,0,0,0-1.74-.1Zm547.57,76.91-343.65.58a14.49,14.49,0,0,0-2,.13,9.76,9.76,0,0,0-1.71.34,5.31,5.31,0,0,0-1.22.49,1.11,1.11,0,0,0-.56.62L680,1112.67a.64.64,0,0,0,.24.64,3,3,0,0,0,1,.52,8.92,8.92,0,0,0,1.58.35,17.35,17.35,0,0,0,2,.12l352.13-.58a14.13,14.13,0,0,0,2-.14,8,8,0,0,0,1.61-.36,3.34,3.34,0,0,0,1-.52.73.73,0,0,0,.31-.65l-3-16.54a1,1,0,0,0-.51-.62,5.56,5.56,0,0,0-1.2-.5,10.55,10.55,0,0,0-1.69-.33,18.29,18.29,0,0,0-2-.12Zm160.46-.28-53.67.1a14.49,14.49,0,0,0-2,.13,7.45,7.45,0,0,0-1.53.34,2.4,2.4,0,0,0-.94.5.56.56,0,0,0-.21.61l4.95,16.56a1.3,1.3,0,0,0,.61.64,5.23,5.23,0,0,0,1.28.51,11.69,11.69,0,0,0,1.78.35,15.53,15.53,0,0,0,2.09.13l55-.1a15.25,15.25,0,0,0,2-.12,8.31,8.31,0,0,0,1.52-.36,2.37,2.37,0,0,0,.92-.53.56.56,0,0,0,.17-.63l-6.31-16.55a1.34,1.34,0,0,0-.63-.62,6.57,6.57,0,0,0-1.29-.5,14.23,14.23,0,0,0-1.74-.33,16.79,16.79,0,0,0-2-.13Zm-72.8.14-69.7.12a16.93,16.93,0,0,0-2,.11,10.21,10.21,0,0,0-1.56.34,3.31,3.31,0,0,0-1,.51.65.65,0,0,0-.29.61l3.15,16.55a1.1,1.1,0,0,0,.54.64,4.63,4.63,0,0,0,1.23.52,11.91,11.91,0,0,0,1.73.36,16.47,16.47,0,0,0,2,.12l71.43-.12a13.67,13.67,0,0,0,2-.13,8,8,0,0,0,1.56-.36,2.66,2.66,0,0,0,1-.53.61.61,0,0,0,.23-.63l-4.81-16.55a1.17,1.17,0,0,0-.57-.61,5.27,5.27,0,0,0-1.24-.51,15.68,15.68,0,0,0-1.72-.32,16.18,16.18,0,0,0-2-.12Zm-448.82.74-69.72.13a16.58,16.58,0,0,0-2,.12,12.94,12.94,0,0,0-1.75.34,5.4,5.4,0,0,0-1.28.51,1.28,1.28,0,0,0-.63.61l-6.13,16.57a.58.58,0,0,0,.17.64,2.32,2.32,0,0,0,.92.52,7.66,7.66,0,0,0,1.54.35,14.88,14.88,0,0,0,2,.13l71.44-.12a15.12,15.12,0,0,0,2.08-.14,12.89,12.89,0,0,0,1.77-.35,5.27,5.27,0,0,0,1.25-.53,1.27,1.27,0,0,0,.59-.65l4.48-16.56a.6.6,0,0,0-.23-.61,2.68,2.68,0,0,0-1-.5,8.81,8.81,0,0,0-1.53-.33,13.25,13.25,0,0,0-2-.13Zm-87.5.15-53.46.09a16.83,16.83,0,0,0-2,.13,12.54,12.54,0,0,0-1.8.34,5.9,5.9,0,0,0-1.33.5,1.57,1.57,0,0,0-.69.61l-7.61,16.58a.59.59,0,0,0,.12.65,2.42,2.42,0,0,0,.89.52,8.11,8.11,0,0,0,1.51.34,15.2,15.2,0,0,0,2,.12l54.79-.08a19.87,19.87,0,0,0,2.09-.13,13.14,13.14,0,0,0,1.79-.36,5.56,5.56,0,0,0,1.32-.53,1.41,1.41,0,0,0,.65-.63l6.3-16.57a.6.6,0,0,0-.17-.63,2.54,2.54,0,0,0-.91-.49,6.45,6.45,0,0,0-1.49-.34,14.31,14.31,0,0,0-1.94-.12Zm-71.27.12h0a14.18,14.18,0,0,1,1.93.13,6.89,6.89,0,0,1,1.46.33,2.14,2.14,0,0,1,.86.5.52.52,0,0,1,.11.61L510.18,1113a1.75,1.75,0,0,1-.71.65,5.86,5.86,0,0,1-1.36.52,12.82,12.82,0,0,1-1.84.35,15.6,15.6,0,0,1-2.09.14l-54.83.09a14.68,14.68,0,0,1-2-.13,7.34,7.34,0,0,1-1.46-.34,2,2,0,0,1-.84-.53.54.54,0,0,1-.05-.64l9.07-16.57a1.76,1.76,0,0,1,.74-.62,6,6,0,0,1,1.37-.49,12.49,12.49,0,0,1,1.8-.35,19.51,19.51,0,0,1,2.06-.12l53.51-.1Zm-71.57.12-53.47.1a17.62,17.62,0,0,0-2.08.12,13.14,13.14,0,0,0-1.84.34,8.12,8.12,0,0,0-1.43.5,2.08,2.08,0,0,0-.8.62l-10.55,16.57a.54.54,0,0,0,0,.65,1.94,1.94,0,0,0,.8.52,7.07,7.07,0,0,0,1.45.34,13,13,0,0,0,2,.13l54.78-.08a16.18,16.18,0,0,0,2.12-.14,15,15,0,0,0,1.86-.36,7.26,7.26,0,0,0,1.41-.52,1.77,1.77,0,0,0,.77-.65l9.28-16.58a.5.5,0,0,0-.07-.61,1.89,1.89,0,0,0-.82-.49,7.4,7.4,0,0,0-1.45-.34,14,14,0,0,0-1.92-.12Zm96.64-21.15-136.89.23a18.56,18.56,0,0,0-2,.12,16.06,16.06,0,0,0-1.79.32,8.47,8.47,0,0,0-1.36.48,1.88,1.88,0,0,0-.76.58l-10,15.72a.48.48,0,0,0,0,.6,1.82,1.82,0,0,0,.77.49,5.75,5.75,0,0,0,1.41.33,13.65,13.65,0,0,0,1.91.12l140.17-.22a16.66,16.66,0,0,0,2-.13,13,13,0,0,0,1.77-.34,7.07,7.07,0,0,0,1.31-.5,1.59,1.59,0,0,0,.68-.61l7.05-15.7a.5.5,0,0,0-.13-.58,2.09,2.09,0,0,0-.85-.47,7.52,7.52,0,0,0-1.44-.33,15.36,15.36,0,0,0-1.88-.11Zm-24.75-19.87-99.55.16a17.86,17.86,0,0,0-2,.11,15.39,15.39,0,0,0-1.73.31,8.21,8.21,0,0,0-1.33.45,1.88,1.88,0,0,0-.73.56l-9.5,14.91a.48.48,0,0,0,0,.58,1.71,1.71,0,0,0,.76.47,6,6,0,0,0,1.37.3,11.7,11.7,0,0,0,1.86.12l101.89-.16a16.09,16.09,0,0,0,2-.13,11.37,11.37,0,0,0,1.73-.32,6.54,6.54,0,0,0,1.29-.47,1.61,1.61,0,0,0,.68-.57l7.35-14.91a.46.46,0,0,0-.11-.55,2.08,2.08,0,0,0-.81-.46,8.8,8.8,0,0,0-1.39-.29,14.52,14.52,0,0,0-1.83-.11Zm97.33,19.75-52.28.09a15.84,15.84,0,0,0-2,.12,14.33,14.33,0,0,0-1.72.32,6.06,6.06,0,0,0-1.27.48,1.56,1.56,0,0,0-.65.57L546.46,1091a.52.52,0,0,0,.15.6,2.14,2.14,0,0,0,.86.5,8.55,8.55,0,0,0,1.46.34,12.52,12.52,0,0,0,1.91.11h.06l53.53-.07a16.49,16.49,0,0,0,2-.13,14.14,14.14,0,0,0,1.74-.34,6,6,0,0,0,1.27-.51,1.26,1.26,0,0,0,.61-.6l5.63-15.71a.57.57,0,0,0-.2-.58,2.56,2.56,0,0,0-.91-.47,8,8,0,0,0-1.47-.31,13.81,13.81,0,0,0-1.9-.12Zm69.8-.11-52.31.08c-.69,0-1.36,0-2,.12a10.77,10.77,0,0,0-1.69.33,5.87,5.87,0,0,0-1.23.47,1.23,1.23,0,0,0-.59.59l-5.43,15.69a.52.52,0,0,0,.18.61,2.51,2.51,0,0,0,.92.49,6.84,6.84,0,0,0,1.5.33,14.22,14.22,0,0,0,1.94.13l53.57-.09a18,18,0,0,0,2-.13,10.55,10.55,0,0,0,1.71-.34,4.4,4.4,0,0,0,1.22-.5,1.06,1.06,0,0,0,.56-.6l4.19-15.7a.56.56,0,0,0-.23-.58,2.74,2.74,0,0,0-.94-.47,8.3,8.3,0,0,0-1.5-.32,13.9,13.9,0,0,0-1.9-.11Zm69.76-.12-52.28.1a17.72,17.72,0,0,0-2,.11,11.81,11.81,0,0,0-1.67.32,4.67,4.67,0,0,0-1.19.47,1.08,1.08,0,0,0-.53.59l-4.06,15.7a.56.56,0,0,0,.25.6,2.73,2.73,0,0,0,1,.49,7.39,7.39,0,0,0,1.54.33,14.88,14.88,0,0,0,2,.13l53.53-.1a16,16,0,0,0,2-.12,10,10,0,0,0,1.67-.34,3.84,3.84,0,0,0,1.18-.5,1,1,0,0,0,.51-.6l2.78-15.69a.61.61,0,0,0-.28-.58,3,3,0,0,0-1-.47,9.56,9.56,0,0,0-1.51-.33,16.43,16.43,0,0,0-1.92-.11Zm69.75-.12-52.27.09a14.9,14.9,0,0,0-1.95.12,9.73,9.73,0,0,0-1.64.32,4.59,4.59,0,0,0-1.14.48,1,1,0,0,0-.49.58l-2.63,15.7a.62.62,0,0,0,.3.6,2.9,2.9,0,0,0,1,.5,9.21,9.21,0,0,0,1.56.33,14.84,14.84,0,0,0,2,.12l53.57-.09a15.43,15.43,0,0,0,2-.13,11.18,11.18,0,0,0,1.65-.33,4.59,4.59,0,0,0,1.14-.5.89.89,0,0,0,.46-.61l1.38-15.69a.7.7,0,0,0-.35-.58,3.2,3.2,0,0,0-1-.48,9.49,9.49,0,0,0-1.56-.32,16.78,16.78,0,0,0-1.94-.11Zm69.8-.11-52.28.08a13.39,13.39,0,0,0-1.95.13,9.16,9.16,0,0,0-1.61.32,3.88,3.88,0,0,0-1.11.48.76.76,0,0,0-.41.58l-1.27,15.69a.67.67,0,0,0,.36.59,3.42,3.42,0,0,0,1,.51,11.57,11.57,0,0,0,1.61.34,17.5,17.5,0,0,0,2,.11l53.53-.09a15.38,15.38,0,0,0,2-.12,10.18,10.18,0,0,0,1.62-.34,4.3,4.3,0,0,0,1.09-.5.84.84,0,0,0,.4-.62l0-15.68a.79.79,0,0,0-.39-.59,4.1,4.1,0,0,0-1.06-.47,10,10,0,0,0-1.58-.31,14.66,14.66,0,0,0-1.93-.11Zm69.75-.12-52.27.09a16.52,16.52,0,0,0-1.94.11,12.4,12.4,0,0,0-1.58.33,3.52,3.52,0,0,0-1.06.47.73.73,0,0,0-.38.58l.18,15.7a.78.78,0,0,0,.4.6,3.71,3.71,0,0,0,1.09.5,10.25,10.25,0,0,0,1.62.33,15.47,15.47,0,0,0,2,.13l53.52-.09a17.71,17.71,0,0,0,2-.13,10,10,0,0,0,1.59-.34,3.55,3.55,0,0,0,1-.5.76.76,0,0,0,.35-.61l-1.44-15.69a.86.86,0,0,0-.45-.58,3.89,3.89,0,0,0-1.11-.47,9.53,9.53,0,0,0-1.62-.31,15.13,15.13,0,0,0-1.95-.12Zm69.78-.11-52.26.09a16.52,16.52,0,0,0-1.94.11,9.49,9.49,0,0,0-1.56.32,3.42,3.42,0,0,0-1,.48.64.64,0,0,0-.33.58l1.57,15.68a1,1,0,0,0,.46.62,4.4,4.4,0,0,0,1.16.48,8.85,8.85,0,0,0,1.66.33,15.75,15.75,0,0,0,2,.13l53.53-.1a17,17,0,0,0,2-.11,12.3,12.3,0,0,0,1.56-.34,3.21,3.21,0,0,0,1-.5.61.61,0,0,0,.28-.6l-2.83-15.69a.93.93,0,0,0-.48-.58,4.47,4.47,0,0,0-1.15-.48,11.42,11.42,0,0,0-1.64-.31,15.23,15.23,0,0,0-2-.11Zm69.75-.12-52.27.1a14.15,14.15,0,0,0-1.91.11,7.75,7.75,0,0,0-1.52.32,3,3,0,0,0-1,.47.6.6,0,0,0-.28.58l3,15.69a1,1,0,0,0,.51.61,4.93,4.93,0,0,0,1.18.49,13.16,13.16,0,0,0,1.68.33,18.05,18.05,0,0,0,2,.11l53.52-.08a14.76,14.76,0,0,0,2-.13,9.6,9.6,0,0,0,1.53-.33,2.72,2.72,0,0,0,1-.5.58.58,0,0,0,.24-.6l-4.23-15.69a1.11,1.11,0,0,0-.55-.58,4.76,4.76,0,0,0-1.2-.47,13.25,13.25,0,0,0-1.68-.32,15.5,15.5,0,0,0-2-.11Zm69.85-.11h-.08l-52.26.08a14.07,14.07,0,0,0-1.91.12,7.68,7.68,0,0,0-1.5.32,2.7,2.7,0,0,0-1,.48.58.58,0,0,0-.23.58l4.39,15.69a1.18,1.18,0,0,0,.57.6,5.41,5.41,0,0,0,1.23.49,12.4,12.4,0,0,0,1.73.33,16.31,16.31,0,0,0,2,.11l53.52-.08a14.11,14.11,0,0,0,1.94-.13,7.54,7.54,0,0,0,1.51-.34,2.15,2.15,0,0,0,.9-.49.54.54,0,0,0,.19-.61l-5.64-15.68a1.23,1.23,0,0,0-.6-.57,5.24,5.24,0,0,0-1.21-.48,13.17,13.17,0,0,0-1.67-.31,17.36,17.36,0,0,0-2-.11Zm69.66-.13-52.26.09a13.76,13.76,0,0,0-1.89.12,8.7,8.7,0,0,0-1.46.32,2.71,2.71,0,0,0-.89.48.54.54,0,0,0-.18.59l5.8,15.68a1.28,1.28,0,0,0,.62.6,5.82,5.82,0,0,0,1.27.49,12.49,12.49,0,0,0,1.74.34,16.31,16.31,0,0,0,2,.11l53.52-.09a12.78,12.78,0,0,0,1.94-.13,6.85,6.85,0,0,0,1.47-.33,2.1,2.1,0,0,0,.88-.5.5.5,0,0,0,.13-.61l-7-15.67a1.38,1.38,0,0,0-.66-.58,7.07,7.07,0,0,0-1.28-.48,15.09,15.09,0,0,0-1.74-.32,18.28,18.28,0,0,0-2-.11Zm155.53-.25-138,.23a15.65,15.65,0,0,0-1.89.11,7.52,7.52,0,0,0-1.44.33,2,2,0,0,0-.86.47.49.49,0,0,0-.14.58l7.2,15.68a1.47,1.47,0,0,0,.68.6,6.09,6.09,0,0,0,1.33.5,15.27,15.27,0,0,0,1.78.34,16.87,16.87,0,0,0,2,.12l141.32-.25a13.55,13.55,0,0,0,1.91-.12,7.61,7.61,0,0,0,1.42-.34,1.74,1.74,0,0,0,.78-.49.5.5,0,0,0,0-.61l-10.16-15.68a2,2,0,0,0-.78-.57,7.31,7.31,0,0,0-1.38-.48,12.74,12.74,0,0,0-1.8-.3,16.37,16.37,0,0,0-2-.12ZM580.8,1053.8h0a14.79,14.79,0,0,1,1.84.1,8.53,8.53,0,0,1,1.42.3,2.38,2.38,0,0,1,.85.45.48.48,0,0,1,.15.56l-6,14.9a1.3,1.3,0,0,1-.62.58,6.09,6.09,0,0,1-1.25.47,11.19,11.19,0,0,1-1.7.32,18.09,18.09,0,0,1-2,.11l-52.13.09a13.65,13.65,0,0,1-1.89-.11,6.2,6.2,0,0,1-1.43-.32,1.93,1.93,0,0,1-.84-.46.48.48,0,0,1-.12-.58l7.23-14.9a1.52,1.52,0,0,1,.66-.56,7.08,7.08,0,0,1,1.27-.45,12.93,12.93,0,0,1,1.7-.31,17.36,17.36,0,0,1,2-.11l50.94-.08Zm68-.12-50.94.09a15,15,0,0,0-1.93.11,13.34,13.34,0,0,0-1.66.31,5,5,0,0,0-1.22.46,1.25,1.25,0,0,0-.6.55l-5.9,14.89a.53.53,0,0,0,.16.58,2.26,2.26,0,0,0,.87.46,7.75,7.75,0,0,0,1.46.33,13.5,13.5,0,0,0,1.88.11l52.14-.08a17.61,17.61,0,0,0,2-.13,11.85,11.85,0,0,0,1.69-.32,5.1,5.1,0,0,0,1.22-.47,1.19,1.19,0,0,0,.58-.58l4.71-14.89a.52.52,0,0,0-.21-.55,2.56,2.56,0,0,0-.91-.45,7.22,7.22,0,0,0-1.45-.3,13.32,13.32,0,0,0-1.86-.12Zm68-.11-50.94.09a17,17,0,0,0-1.93.11,11.48,11.48,0,0,0-1.64.3,6.09,6.09,0,0,0-1.19.45,1.11,1.11,0,0,0-.55.55L656,1070a.54.54,0,0,0,.22.57,2.6,2.6,0,0,0,.92.48,8.43,8.43,0,0,0,1.49.31,13.92,13.92,0,0,0,1.9.12l52.14-.09a15.4,15.4,0,0,0,2-.12,11.18,11.18,0,0,0,1.65-.33,4.42,4.42,0,0,0,1.16-.47,1,1,0,0,0,.52-.58l3.38-14.89a.55.55,0,0,0-.25-.55,2.93,2.93,0,0,0-.94-.46,10.33,10.33,0,0,0-1.46-.3,15.53,15.53,0,0,0-1.87-.1Zm68-.11-50.94.09a16.38,16.38,0,0,0-1.91.11,12.23,12.23,0,0,0-1.61.3,5.19,5.19,0,0,0-1.13.45,1,1,0,0,0-.5.55l-3.24,14.9a.6.6,0,0,0,.26.58,2.86,2.86,0,0,0,1,.47,7.89,7.89,0,0,0,1.51.3,12.53,12.53,0,0,0,1.91.12l52.12-.08a17.19,17.19,0,0,0,2-.12,12.07,12.07,0,0,0,1.63-.32,4.59,4.59,0,0,0,1.14-.48.88.88,0,0,0,.47-.57l2.05-14.9a.6.6,0,0,0-.31-.55,3.57,3.57,0,0,0-1-.44,8.75,8.75,0,0,0-1.5-.31,18.1,18.1,0,0,0-1.88-.1Zm68-.12-50.94.1a14.55,14.55,0,0,0-1.91.11,10.49,10.49,0,0,0-1.59.3,4.13,4.13,0,0,0-1.1.46.86.86,0,0,0-.47.55l-1.9,14.89a.67.67,0,0,0,.32.57,3.29,3.29,0,0,0,1,.47,10.5,10.5,0,0,0,1.55.32,19,19,0,0,0,1.93.11l52.12-.09a16.42,16.42,0,0,0,1.94-.12,8.91,8.91,0,0,0,1.59-.32,4,4,0,0,0,1.09-.46c.26-.19.41-.38.41-.58l.72-14.89a.69.69,0,0,0-.36-.56,3.89,3.89,0,0,0-1-.45,10.3,10.3,0,0,0-1.52-.29,13.82,13.82,0,0,0-1.88-.12Zm68-.11-50.94.08a18.34,18.34,0,0,0-1.89.11,10.86,10.86,0,0,0-1.55.31,3.78,3.78,0,0,0-1.06.46.77.77,0,0,0-.4.55l-.57,14.9a.73.73,0,0,0,.37.57,3.39,3.39,0,0,0,1,.46,9.49,9.49,0,0,0,1.56.32,14.56,14.56,0,0,0,1.93.11l52.12-.09a16.65,16.65,0,0,0,1.94-.11,9.4,9.4,0,0,0,1.57-.32,3.79,3.79,0,0,0,1.06-.47.69.69,0,0,0,.37-.58l-.62-14.88c0-.21-.15-.38-.41-.56a4.15,4.15,0,0,0-1.06-.45,9.91,9.91,0,0,0-1.57-.31,14.11,14.11,0,0,0-1.89-.1Zm68-.11-50.93.08a18.34,18.34,0,0,0-1.89.11,10.71,10.71,0,0,0-1.54.31,4.18,4.18,0,0,0-1,.46.7.7,0,0,0-.35.56l.76,14.88a.79.79,0,0,0,.43.56,4.32,4.32,0,0,0,1.09.49,11.76,11.76,0,0,0,1.6.3,14.86,14.86,0,0,0,1.94.12l52.13-.09a15.87,15.87,0,0,0,1.91-.11,11.51,11.51,0,0,0,1.55-.33,3.39,3.39,0,0,0,1-.47.68.68,0,0,0,.32-.58l-2-14.88a.85.85,0,0,0-.45-.55,4,4,0,0,0-1.1-.45,10.14,10.14,0,0,0-1.57-.31,16.34,16.34,0,0,0-1.91-.1Zm68-.12-50.93.09a13.82,13.82,0,0,0-1.88.12,8.69,8.69,0,0,0-1.49.3,3,3,0,0,0-1,.46c-.22.17-.34.34-.31.54l2.1,14.89c0,.21.19.39.46.57a4.5,4.5,0,0,0,1.13.48,10.48,10.48,0,0,0,1.61.31,17.41,17.41,0,0,0,2,.11l52.13-.08a12.61,12.61,0,0,0,1.9-.13,7.08,7.08,0,0,0,1.52-.32,2.82,2.82,0,0,0,1-.47.58.58,0,0,0,.26-.57l-3.27-14.89a1,1,0,0,0-.51-.55,4.75,4.75,0,0,0-1.15-.45,10.69,10.69,0,0,0-1.62-.3,16.51,16.51,0,0,0-1.91-.11Zm68-.11-50.93.09a15.43,15.43,0,0,0-1.87.11,8.56,8.56,0,0,0-1.48.3,3,3,0,0,0-1,.45.57.57,0,0,0-.26.56l3.43,14.89a1,1,0,0,0,.53.57,4.52,4.52,0,0,0,1.17.46,11.39,11.39,0,0,0,1.66.32,17.41,17.41,0,0,0,2,.11l52.14-.07a15.45,15.45,0,0,0,1.89-.13,10.09,10.09,0,0,0,1.47-.31,2.6,2.6,0,0,0,.92-.48.53.53,0,0,0,.21-.58L1130,1054.3a1.07,1.07,0,0,0-.55-.55,4.94,4.94,0,0,0-1.18-.45,11.33,11.33,0,0,0-1.63-.3,16.56,16.56,0,0,0-1.92-.11Zm68-.11-50.93.09a14.85,14.85,0,0,0-1.85.11,7.63,7.63,0,0,0-1.44.31,2.3,2.3,0,0,0-.89.44.54.54,0,0,0-.21.56l4.76,14.88a1.08,1.08,0,0,0,.57.57,4.85,4.85,0,0,0,1.21.47,11.88,11.88,0,0,0,1.67.31,13.93,13.93,0,0,0,2,.11l52.12-.08a15.31,15.31,0,0,0,1.89-.13,7,7,0,0,0,1.46-.31,2.43,2.43,0,0,0,.89-.46.52.52,0,0,0,.17-.59l-5.94-14.88a1.27,1.27,0,0,0-.62-.55,5.65,5.65,0,0,0-1.22-.44,11.94,11.94,0,0,0-1.67-.3,17.18,17.18,0,0,0-1.94-.11Zm189.2-.33-102.92.18a14.52,14.52,0,0,0-1.83.11,8.89,8.89,0,0,0-1.41.31,2.27,2.27,0,0,0-.82.45.48.48,0,0,0-.11.56l7.44,14.87a1.54,1.54,0,0,0,.69.59,7.22,7.22,0,0,0,1.31.47,14.9,14.9,0,0,0,1.74.3,16.16,16.16,0,0,0,2,.12l105.33-.18a13.11,13.11,0,0,0,1.86-.12,6.83,6.83,0,0,0,1.39-.32,1.59,1.59,0,0,0,.75-.47.45.45,0,0,0,0-.57l-9.62-14.87a1.75,1.75,0,0,0-.74-.56,7.88,7.88,0,0,0-1.35-.45,13.35,13.35,0,0,0-1.74-.3,15.84,15.84,0,0,0-2-.12Zm-121.14.22h-.07l-50.92.07a14.87,14.87,0,0,0-1.85.12,8.67,8.67,0,0,0-1.43.3,2.35,2.35,0,0,0-.86.46.49.49,0,0,0-.16.56l6.09,14.88a1.34,1.34,0,0,0,.62.57,5.76,5.76,0,0,0,1.27.47,14.43,14.43,0,0,0,1.72.31,15.66,15.66,0,0,0,2,.11l52.12-.08a15,15,0,0,0,1.87-.12,8.08,8.08,0,0,0,1.43-.32,2.18,2.18,0,0,0,.83-.47.48.48,0,0,0,.11-.57l-7.28-14.89a1.44,1.44,0,0,0-.64-.55,6.87,6.87,0,0,0-1.25-.44,11.53,11.53,0,0,0-1.66-.3,14.81,14.81,0,0,0-1.92-.11ZM507.4,1035l-81.3.13c-.66,0-1.31.05-1.91.12a14.07,14.07,0,0,0-1.69.29,6.77,6.77,0,0,0-1.28.44,1.72,1.72,0,0,0-.72.52l-9,14.16a.42.42,0,0,0,0,.54,1.79,1.79,0,0,0,.75.46,7.16,7.16,0,0,0,1.34.29,12.39,12.39,0,0,0,1.81.12l83.17-.15a17.18,17.18,0,0,0,1.94-.11,14.33,14.33,0,0,0,1.69-.3,7.08,7.08,0,0,0,1.27-.45,1.36,1.36,0,0,0,.65-.55l7.29-14.16a.4.4,0,0,0-.09-.53,1.86,1.86,0,0,0-.79-.42,6.08,6.08,0,0,0-1.35-.29,13.75,13.75,0,0,0-1.79-.11Zm67.52-.12-49.68.09a16.42,16.42,0,0,0-1.89.11,13.6,13.6,0,0,0-1.65.3,5.64,5.64,0,0,0-1.23.43,1.33,1.33,0,0,0-.63.53l-7.17,14.15a.47.47,0,0,0,.12.55,2.13,2.13,0,0,0,.82.45,7,7,0,0,0,1.39.29,12.58,12.58,0,0,0,1.83.12l50.8-.1a16.81,16.81,0,0,0,1.93-.1,14,14,0,0,0,1.67-.3,6.41,6.41,0,0,0,1.22-.46,1.28,1.28,0,0,0,.61-.54l6-14.16a.45.45,0,0,0-.15-.53,2.33,2.33,0,0,0-.84-.43,7.39,7.39,0,0,0-1.39-.28,12.34,12.34,0,0,0-1.8-.12Zm66.32-.1-49.71.09a14.19,14.19,0,0,0-1.88.11,11.56,11.56,0,0,0-1.62.28,6.35,6.35,0,0,0-1.19.43,1.21,1.21,0,0,0-.59.54l-5.87,14.15a.5.5,0,0,0,.15.55,2.45,2.45,0,0,0,.85.45,7.56,7.56,0,0,0,1.41.29,14.64,14.64,0,0,0,1.83.11l50.85-.08a14.77,14.77,0,0,0,1.92-.12,13.07,13.07,0,0,0,1.64-.3,5.19,5.19,0,0,0,1.18-.46,1.2,1.2,0,0,0,.57-.54l4.72-14.15a.48.48,0,0,0-.19-.54,2.74,2.74,0,0,0-.86-.42,8.55,8.55,0,0,0-1.4-.29,16.73,16.73,0,0,0-1.81-.1Zm66.28-.11-49.66.08a13.93,13.93,0,0,0-1.88.12,11,11,0,0,0-1.6.28,5.7,5.7,0,0,0-1.15.43,1.09,1.09,0,0,0-.54.52l-4.63,14.17a.51.51,0,0,0,.21.54,2.51,2.51,0,0,0,.9.45,7.87,7.87,0,0,0,1.44.3,13.24,13.24,0,0,0,1.85.11l50.8-.09a16.38,16.38,0,0,0,1.91-.11,10.54,10.54,0,0,0,1.61-.3,4.59,4.59,0,0,0,1.15-.45,1,1,0,0,0,.51-.55L712,1036c0-.19,0-.36-.25-.52a2.39,2.39,0,0,0-.92-.43,7.75,7.75,0,0,0-1.44-.29,16.77,16.77,0,0,0-1.82-.1Zm66.32-.11-49.71.09a18.16,18.16,0,0,0-1.86.1,12,12,0,0,0-1.57.29,4.59,4.59,0,0,0-1.11.43c-.27.17-.45.34-.49.53l-3.34,14.16a.56.56,0,0,0,.25.54,2.87,2.87,0,0,0,.93.45,8.18,8.18,0,0,0,1.46.29,15,15,0,0,0,1.86.12l50.84-.09a18.79,18.79,0,0,0,1.9-.12,10.59,10.59,0,0,0,1.58-.3,4.3,4.3,0,0,0,1.1-.45.92.92,0,0,0,.47-.55l2.2-14.15a.55.55,0,0,0-.29-.52,2.58,2.58,0,0,0-.94-.42,9.43,9.43,0,0,0-1.45-.3,17.11,17.11,0,0,0-1.83-.1Zm66.28-.1-49.67.08a15.34,15.34,0,0,0-1.85.11,8.93,8.93,0,0,0-1.55.29,4.39,4.39,0,0,0-1.07.43.84.84,0,0,0-.45.52l-2.1,14.16a.6.6,0,0,0,.31.55,3,3,0,0,0,1,.43,7.89,7.89,0,0,0,1.51.3,15.43,15.43,0,0,0,1.87.11l50.8-.08a12.47,12.47,0,0,0,1.89-.13,9.76,9.76,0,0,0,1.55-.29,4,4,0,0,0,1.07-.45.81.81,0,0,0,.42-.54l1-14.16c0-.18-.1-.36-.34-.52a3.24,3.24,0,0,0-1-.43,9.35,9.35,0,0,0-1.5-.28,17.31,17.31,0,0,0-1.84-.1Zm66.38-.11h-.06l-49.7.07a13.27,13.27,0,0,0-1.85.12,9.63,9.63,0,0,0-1.52.28,3.73,3.73,0,0,0-1,.44.76.76,0,0,0-.41.52l-.8,14.15a.65.65,0,0,0,.35.54,2.92,2.92,0,0,0,1,.45,9.29,9.29,0,0,0,1.52.3,15.73,15.73,0,0,0,1.88.11l50.83-.09a15.9,15.9,0,0,0,1.89-.11,9.08,9.08,0,0,0,1.52-.3,3.33,3.33,0,0,0,1-.45.66.66,0,0,0,.36-.54l-.32-14.16a.69.69,0,0,0-.38-.51,3.36,3.36,0,0,0-1-.43,9.16,9.16,0,0,0-1.49-.29,14.79,14.79,0,0,0-1.82-.1Zm66.21-.12-49.66.09a15.25,15.25,0,0,0-1.84.1,10.1,10.1,0,0,0-1.49.29,3.63,3.63,0,0,0-1,.44.64.64,0,0,0-.35.53l.43,14.15c0,.19.14.37.4.54a3.84,3.84,0,0,0,1.06.44,9.7,9.7,0,0,0,1.55.3,16.2,16.2,0,0,0,1.9.11l50.79-.08a15.65,15.65,0,0,0,1.88-.12,9.68,9.68,0,0,0,1.49-.31,3,3,0,0,0,1-.45.61.61,0,0,0,.31-.55l-1.59-14.13a.79.79,0,0,0-.43-.54,4.65,4.65,0,0,0-1.06-.42,11.8,11.8,0,0,0-1.52-.29,17.85,17.85,0,0,0-1.86-.1Zm66.32-.11-49.7.08a14.67,14.67,0,0,0-1.83.12,7.64,7.64,0,0,0-1.47.29,3,3,0,0,0-.95.42c-.23.16-.34.34-.31.52l1.73,14.16a.84.84,0,0,0,.44.54,4,4,0,0,0,1.08.44,10,10,0,0,0,1.58.31,15.9,15.9,0,0,0,1.89.11l50.83-.09a13.57,13.57,0,0,0,1.87-.12,8.43,8.43,0,0,0,1.47-.3,2.84,2.84,0,0,0,.94-.45.61.61,0,0,0,.28-.55l-2.87-14.14a.88.88,0,0,0-.48-.53,4.53,4.53,0,0,0-1.1-.42,10.71,10.71,0,0,0-1.55-.29,18.28,18.28,0,0,0-1.85-.1Zm66.27-.11-49.67.09a14.68,14.68,0,0,0-1.82.1,8.81,8.81,0,0,0-1.44.3,2.8,2.8,0,0,0-.93.42c-.21.17-.3.34-.25.53l3,14.14a.94.94,0,0,0,.5.54,4.43,4.43,0,0,0,1.14.45,11,11,0,0,0,1.61.3,16.51,16.51,0,0,0,1.91.11l50.79-.08a14.9,14.9,0,0,0,1.86-.11,8.12,8.12,0,0,0,1.45-.31,2.74,2.74,0,0,0,.91-.45.52.52,0,0,0,.21-.55l-4.13-14.14a1,1,0,0,0-.51-.52,4.78,4.78,0,0,0-1.14-.43,12.21,12.21,0,0,0-1.58-.28,15.68,15.68,0,0,0-1.87-.11Zm66.3-.1-49.69.08a14.19,14.19,0,0,0-1.81.11,8.91,8.91,0,0,0-1.42.28,2.63,2.63,0,0,0-.89.44.55.55,0,0,0-.21.52l4.27,14.15a1.11,1.11,0,0,0,.54.54,5.23,5.23,0,0,0,1.16.44,11.87,11.87,0,0,0,1.63.3c.6.06,1.25.11,1.91.11l50.8-.09a14.9,14.9,0,0,0,1.86-.11,7.51,7.51,0,0,0,1.43-.31,2.19,2.19,0,0,0,.87-.45.48.48,0,0,0,.18-.54l-5.4-14.14a1.13,1.13,0,0,0-.57-.52,5.47,5.47,0,0,0-1.18-.43,13.06,13.06,0,0,0-1.61-.28,18.52,18.52,0,0,0-1.87-.1Zm66.33-.11h-.06l-49.66.07a14.31,14.31,0,0,0-1.81.11,8.42,8.42,0,0,0-1.39.29,2.35,2.35,0,0,0-.86.44.47.47,0,0,0-.18.52l5.54,14.14a1.17,1.17,0,0,0,.59.54,5.14,5.14,0,0,0,1.22.45,11.79,11.79,0,0,0,1.66.3,17,17,0,0,0,1.94.11l50.79-.09a14.24,14.24,0,0,0,1.82-.11,8,8,0,0,0,1.4-.31,2.06,2.06,0,0,0,.82-.44.45.45,0,0,0,.13-.55l-6.66-14.14a1.27,1.27,0,0,0-.6-.52,5.37,5.37,0,0,0-1.2-.42,13.15,13.15,0,0,0-1.62-.29,15.88,15.88,0,0,0-1.87-.1Zm131.82-.23-49.65.08a13.59,13.59,0,0,0-1.78.11,6.65,6.65,0,0,0-1.35.3,1.86,1.86,0,0,0-.78.43.4.4,0,0,0-.08.52l8,14.13a1.55,1.55,0,0,0,.69.54,6.73,6.73,0,0,0,1.3.45,12.89,12.89,0,0,0,1.73.3,15.13,15.13,0,0,0,2,.12l50.79-.09a14,14,0,0,0,1.81-.12,6.28,6.28,0,0,0,1.33-.3,1.64,1.64,0,0,0,.75-.46.43.43,0,0,0,0-.54l-9.17-14.13a1.75,1.75,0,0,0-.71-.53,6.74,6.74,0,0,0-1.29-.42,12.72,12.72,0,0,0-1.68-.29c-.61-.06-1.26-.1-1.92-.1Zm-65.61.11h0c.65,0,1.29,0,1.9.1a12.22,12.22,0,0,1,1.67.3,5.39,5.39,0,0,1,1.27.42,1.37,1.37,0,0,1,.66.52l7.92,14.13a.43.43,0,0,1-.08.55,1.92,1.92,0,0,1-.77.45,7.64,7.64,0,0,1-1.39.31,16.37,16.37,0,0,1-1.83.11l-50.79.08c-.67,0-1.33,0-1.94-.1a14.15,14.15,0,0,1-1.68-.3,5.83,5.83,0,0,1-1.24-.45,1.27,1.27,0,0,1-.64-.54l-6.8-14.13a.47.47,0,0,1,.13-.54,2.17,2.17,0,0,1,.8-.43,8.85,8.85,0,0,1,1.36-.29,15.92,15.92,0,0,1,1.79-.11l49.66-.08Zm-753.49-16.75h0a13.34,13.34,0,0,1,1.75.11,7.56,7.56,0,0,1,1.33.27,2,2,0,0,1,.8.41.4.4,0,0,1,.13.49l-6.31,13.48a1.4,1.4,0,0,1-.62.52,5.58,5.58,0,0,1-1.21.43,13,13,0,0,1-1.63.29,16.16,16.16,0,0,1-1.89.11l-49.54.08a13.6,13.6,0,0,1-1.78-.1,7.41,7.41,0,0,1-1.36-.29,1.93,1.93,0,0,1-.78-.42.42.42,0,0,1-.09-.52l7.38-13.47a1.5,1.5,0,0,1,.65-.51,6,6,0,0,1,1.22-.41,13.32,13.32,0,0,1,1.62-.27,16,16,0,0,1,1.86-.11l48.47-.09Zm64.68-.1-48.47.08a15.42,15.42,0,0,0-1.84.11,12.48,12.48,0,0,0-1.59.27,5.39,5.39,0,0,0-1.17.42,1.14,1.14,0,0,0-.6.49l-6.18,13.48a.45.45,0,0,0,.13.52,2.2,2.2,0,0,0,.79.42,7.88,7.88,0,0,0,1.35.29,13.75,13.75,0,0,0,1.77.1h.06l49.55-.08a14.26,14.26,0,0,0,1.88-.12,11.16,11.16,0,0,0,1.61-.28,5.37,5.37,0,0,0,1.19-.43,1.17,1.17,0,0,0,.57-.52l5.11-13.47a.44.44,0,0,0-.18-.5,2.41,2.41,0,0,0-.85-.4,7.15,7.15,0,0,0-1.37-.28,15.64,15.64,0,0,0-1.76-.1Zm64.71-.1-48.47.07c-.63,0-1.26.05-1.84.11a14.42,14.42,0,0,0-1.57.28,5.07,5.07,0,0,0-1.15.4,1.06,1.06,0,0,0-.55.51l-5,13.47a.46.46,0,0,0,.18.52,2.51,2.51,0,0,0,.87.42,7.28,7.28,0,0,0,1.4.29,16.53,16.53,0,0,0,1.8.09l49.55-.08a15.7,15.7,0,0,0,1.86-.1,11.82,11.82,0,0,0,1.58-.29,5.41,5.41,0,0,0,1.14-.42,1.06,1.06,0,0,0,.51-.53l3.9-13.47c.06-.18,0-.34-.21-.5a2.83,2.83,0,0,0-.87-.41,8.73,8.73,0,0,0-1.38-.26,13.86,13.86,0,0,0-1.77-.1Zm64.67-.11-48.46.09a17.57,17.57,0,0,0-1.83.1,10.43,10.43,0,0,0-1.54.27,5.84,5.84,0,0,0-1.1.41.92.92,0,0,0-.5.5l-3.77,13.47a.49.49,0,0,0,.23.52,2.45,2.45,0,0,0,.89.43,8.43,8.43,0,0,0,1.41.27,12.66,12.66,0,0,0,1.81.11l49.54-.08a15.64,15.64,0,0,0,1.86-.11,11.65,11.65,0,0,0,1.57-.29,4.94,4.94,0,0,0,1.1-.43.87.87,0,0,0,.48-.52l2.7-13.47a.51.51,0,0,0-.27-.49,2.89,2.89,0,0,0-.91-.4,8.23,8.23,0,0,0-1.43-.28,16,16,0,0,0-1.78-.1Zm64.71-.11-48.46.07a17.28,17.28,0,0,0-1.82.11,11.09,11.09,0,0,0-1.53.28,5,5,0,0,0-1.08.41.91.91,0,0,0-.46.51l-2.56,13.47c0,.18.06.35.27.51a2.86,2.86,0,0,0,.94.43,10.69,10.69,0,0,0,1.45.28,14.68,14.68,0,0,0,1.82.1l49.54-.08a15.34,15.34,0,0,0,1.85-.11,11.09,11.09,0,0,0,1.53-.28,4.14,4.14,0,0,0,1.06-.43.8.8,0,0,0,.42-.52l1.5-13.47c0-.18-.1-.34-.32-.5a3.15,3.15,0,0,0-.93-.41,8.29,8.29,0,0,0-1.43-.27,14.19,14.19,0,0,0-1.79-.1Zm64.67-.1-48.46.08a14.85,14.85,0,0,0-1.81.1,10.73,10.73,0,0,0-1.49.28,4,4,0,0,0-1,.41c-.26.15-.41.32-.42.5l-1.36,13.46a.59.59,0,0,0,.31.51,3.15,3.15,0,0,0,1,.43,8.49,8.49,0,0,0,1.47.29,14.76,14.76,0,0,0,1.83.11l49.54-.09a15.3,15.3,0,0,0,1.84-.11,10.41,10.41,0,0,0,1.51-.29,3.35,3.35,0,0,0,1-.43c.24-.16.39-.33.39-.52l.28-13.46c0-.18-.12-.34-.35-.5a3.49,3.49,0,0,0-1-.4,9.88,9.88,0,0,0-1.47-.28,16.8,16.8,0,0,0-1.8-.09Zm64.71-.11-48.46.08a14.74,14.74,0,0,0-1.81.1,12,12,0,0,0-1.48.27,3.53,3.53,0,0,0-1,.42c-.23.15-.37.31-.37.5l-.16,13.46a.69.69,0,0,0,.36.52,3.26,3.26,0,0,0,1,.42,8.82,8.82,0,0,0,1.49.28,14.71,14.71,0,0,0,1.82.11h.06l49.54-.08a14.71,14.71,0,0,0,1.82-.11,8.43,8.43,0,0,0,1.48-.29,3.36,3.36,0,0,0,1-.43c.23-.16.35-.34.33-.52l-.91-13.46a.66.66,0,0,0-.4-.49,3.69,3.69,0,0,0-1-.42,10.31,10.31,0,0,0-1.47-.26,14.74,14.74,0,0,0-1.81-.1Zm64.66-.11-48.46.09a16.55,16.55,0,0,0-1.78.09,11,11,0,0,0-1.45.28,3.58,3.58,0,0,0-.95.41.6.6,0,0,0-.33.5l1,13.46a.81.81,0,0,0,.41.52,3.55,3.55,0,0,0,1,.42,9.57,9.57,0,0,0,1.52.29,15.32,15.32,0,0,0,1.84.09l49.54-.08a15.08,15.08,0,0,0,1.83-.1,9.65,9.65,0,0,0,1.46-.29,2.94,2.94,0,0,0,1-.42.55.55,0,0,0,.29-.52l-2.12-13.47a.82.82,0,0,0-.43-.5,4.46,4.46,0,0,0-1.07-.4,11.3,11.3,0,0,0-1.52-.27,14.91,14.91,0,0,0-1.82-.1Zm64.71-.1-48.47.08a14.24,14.24,0,0,0-1.78.1,10.78,10.78,0,0,0-1.43.27,3.15,3.15,0,0,0-.93.41c-.21.16-.32.33-.29.5l2.27,13.47c0,.18.17.36.45.52a5.54,5.54,0,0,0,1.08.42,12.27,12.27,0,0,0,1.56.27,13.74,13.74,0,0,0,1.86.12l49.53-.09a14.37,14.37,0,0,0,1.82-.12,8,8,0,0,0,1.43-.28,2.8,2.8,0,0,0,.9-.42.5.5,0,0,0,.24-.52l-3.33-13.46c0-.19-.21-.35-.48-.5a5.46,5.46,0,0,0-1.09-.41,11.38,11.38,0,0,0-1.52-.26,15,15,0,0,0-1.82-.1Zm64.65-.12-48.46.09a13.7,13.7,0,0,0-1.76.1,8,8,0,0,0-1.4.28,2.58,2.58,0,0,0-.88.41.49.49,0,0,0-.23.5l3.46,13.46a1,1,0,0,0,.49.52,4.64,4.64,0,0,0,1.13.42,11.87,11.87,0,0,0,1.56.28,15.88,15.88,0,0,0,1.87.1l49.52-.08a14.35,14.35,0,0,0,1.82-.11,7.56,7.56,0,0,0,1.41-.29,2.2,2.2,0,0,0,.87-.42.47.47,0,0,0,.21-.52l-4.53-13.46a1.15,1.15,0,0,0-.54-.5,5.15,5.15,0,0,0-1.14-.4,12.18,12.18,0,0,0-1.56-.28,17.92,17.92,0,0,0-1.84-.1Zm64.7-.11-48.46.08c-.63,0-1.23.05-1.77.11a8.22,8.22,0,0,0-1.37.28,2.46,2.46,0,0,0-.86.41.43.43,0,0,0-.19.5l4.66,13.45a1.07,1.07,0,0,0,.55.52,4.76,4.76,0,0,0,1.17.42,12.47,12.47,0,0,0,1.6.29,14.23,14.23,0,0,0,1.88.1l49.53-.08a13.75,13.75,0,0,0,1.79-.11,8.28,8.28,0,0,0,1.38-.29,2.19,2.19,0,0,0,.83-.42.44.44,0,0,0,.14-.52l-5.73-13.46a1.25,1.25,0,0,0-.57-.5,7,7,0,0,0-1.16-.4,12.53,12.53,0,0,0-1.58-.28,18.08,18.08,0,0,0-1.84-.1Zm160.7-.26-81.32.14a15.18,15.18,0,0,0-1.75.1,7.36,7.36,0,0,0-1.32.28,1.88,1.88,0,0,0-.77.41.38.38,0,0,0-.1.5l7,13.45a1.45,1.45,0,0,0,.64.51,5.87,5.87,0,0,0,1.23.42,14,14,0,0,0,1.65.3c.6,0,1.24.09,1.89.09l83.14-.14a15.23,15.23,0,0,0,1.76-.1,6.8,6.8,0,0,0,1.31-.29,1.63,1.63,0,0,0,.73-.43.38.38,0,0,0,0-.52l-8.72-13.44a1.87,1.87,0,0,0-.68-.5,7.47,7.47,0,0,0-1.26-.41c-.49-.11-1-.2-1.64-.28s-1.23-.08-1.86-.08Zm-96,.17h0a15.71,15.71,0,0,1,1.85.09,13.66,13.66,0,0,1,1.62.27,5.22,5.22,0,0,1,1.2.41,1.4,1.4,0,0,1,.63.49l6.93,13.45a.4.4,0,0,1-.1.52,2,2,0,0,1-.8.43,6.92,6.92,0,0,1-1.36.3,15.92,15.92,0,0,1-1.79.1l-49.53.09a18.82,18.82,0,0,1-1.88-.11,12,12,0,0,1-1.63-.28,5.78,5.78,0,0,1-1.19-.43,1.19,1.19,0,0,1-.59-.52l-5.87-13.45a.43.43,0,0,1,.15-.51,2.42,2.42,0,0,1,.81-.4,8.55,8.55,0,0,1,1.35-.28,15.4,15.4,0,0,1,1.74-.09l48.46-.08Zm-767.39-9.7-52.67.09a15.64,15.64,0,0,0-1.83.11,12.1,12.1,0,0,0-1.63.26,7.82,7.82,0,0,0-1.24.41,1.41,1.41,0,0,0-.67.48l-4.37,6.85a.37.37,0,0,0,0,.49,1.7,1.7,0,0,0,.71.41,7.36,7.36,0,0,0,1.26.27,14.86,14.86,0,0,0,1.71.09h.06l53.39-.09a18.34,18.34,0,0,0,1.85-.09,15.94,15.94,0,0,0,1.62-.28,7.28,7.28,0,0,0,1.2-.4,1.53,1.53,0,0,0,.64-.5l3.78-6.86a.38.38,0,0,0-.09-.48,1.9,1.9,0,0,0-.75-.4,5.9,5.9,0,0,0-1.29-.25,11.31,11.31,0,0,0-1.72-.11Zm204.81-.34-52.69.09a13.14,13.14,0,0,0-1.81.11,10.34,10.34,0,0,0-1.53.26,4.74,4.74,0,0,0-1.12.41,1,1,0,0,0-.52.48l-2.44,6.84a.45.45,0,0,0,.19.5,2.4,2.4,0,0,0,.85.41,8.3,8.3,0,0,0,1.37.27,15.92,15.92,0,0,0,1.76.1l53.36-.09c.64,0,1.25,0,1.82-.1a12.64,12.64,0,0,0,1.54-.28,4.82,4.82,0,0,0,1.1-.41.89.89,0,0,0,.48-.49l1.84-6.85c.05-.17,0-.33-.22-.49a2.54,2.54,0,0,0-.87-.39,7.37,7.37,0,0,0-1.37-.27,11.74,11.74,0,0,0-1.74-.1Zm68.23-.1-52.66.08a16.79,16.79,0,0,0-1.79.1,12.94,12.94,0,0,0-1.51.27,5,5,0,0,0-1.08.4.9.9,0,0,0-.48.49l-1.78,6.84a.49.49,0,0,0,.24.5,2.87,2.87,0,0,0,.89.4,7.8,7.8,0,0,0,1.4.26,13.82,13.82,0,0,0,1.78.11l53.34-.09a17,17,0,0,0,1.81-.1,12.09,12.09,0,0,0,1.51-.28,4,4,0,0,0,1-.4c.26-.16.42-.32.45-.5l1.19-6.85c0-.18-.07-.34-.28-.49a3.44,3.44,0,0,0-.91-.4,10.38,10.38,0,0,0-1.41-.25,16,16,0,0,0-1.76-.09Zm68.27-.12-52.66.09a14.41,14.41,0,0,0-1.79.1,9.14,9.14,0,0,0-1.48.27,4.47,4.47,0,0,0-1,.39c-.25.16-.4.31-.43.48l-1.13,6.86a.55.55,0,0,0,.29.49,3.34,3.34,0,0,0,.92.41,9.46,9.46,0,0,0,1.43.26,14.24,14.24,0,0,0,1.78.1l53.36-.08a14.34,14.34,0,0,0,1.79-.11,12.32,12.32,0,0,0,1.49-.26,4.09,4.09,0,0,0,1-.42c.24-.15.39-.32.4-.49l.53-6.86c0-.17-.1-.34-.32-.48a3.27,3.27,0,0,0-1-.39,9.46,9.46,0,0,0-1.43-.26,15.92,15.92,0,0,0-1.76-.1Zm68.26-.1-52.66.08a14.36,14.36,0,0,0-1.78.1,12.11,12.11,0,0,0-1.46.26,4,4,0,0,0-1,.4.67.67,0,0,0-.39.48l-.47,6.86c0,.17.11.33.33.49a3.45,3.45,0,0,0,1,.4,9.92,9.92,0,0,0,1.45.27,16.64,16.64,0,0,0,1.79.1l53.36-.09c.63,0,1.24,0,1.79-.09a11.59,11.59,0,0,0,1.45-.29,3.44,3.44,0,0,0,1-.41.61.61,0,0,0,.36-.49l-.13-6.85c0-.17-.14-.33-.37-.48a3.51,3.51,0,0,0-1-.39,10.16,10.16,0,0,0-1.46-.26,12.39,12.39,0,0,0-1.77-.09Zm68.26-.12-52.66.08a14.08,14.08,0,0,0-1.77.1,11.46,11.46,0,0,0-1.45.27,3.45,3.45,0,0,0-1,.4c-.22.15-.35.31-.35.49l.22,6.84a.68.68,0,0,0,.38.49,3.6,3.6,0,0,0,1,.41,11.66,11.66,0,0,0,1.48.27,16.49,16.49,0,0,0,1.79.1l53.38-.09a16.16,16.16,0,0,0,1.78-.1,10.24,10.24,0,0,0,1.43-.29,3.22,3.22,0,0,0,.94-.4.56.56,0,0,0,.3-.49l-.78-6.85c0-.17-.17-.33-.42-.48a3.89,3.89,0,0,0-1-.39,9.49,9.49,0,0,0-1.49-.27,16.68,16.68,0,0,0-1.78-.09Zm68.26-.12-52.66.09a15.78,15.78,0,0,0-1.76.1,8,8,0,0,0-1.42.27,3,3,0,0,0-.93.4c-.21.15-.33.31-.31.47l.88,6.86c0,.18.17.34.42.49a4.52,4.52,0,0,0,1,.4,9.63,9.63,0,0,0,1.5.27,14.57,14.57,0,0,0,1.8.1l53.39-.09a13.5,13.5,0,0,0,1.76-.11,7.69,7.69,0,0,0,1.41-.27,2.56,2.56,0,0,0,.89-.4c.21-.15.3-.32.26-.49l-1.47-6.86c0-.17-.19-.33-.46-.47a3.91,3.91,0,0,0-1-.4,11.06,11.06,0,0,0-1.5-.26,16.75,16.75,0,0,0-1.78-.1Zm68.25-.11-52.66.09a15.41,15.41,0,0,0-1.74.1,8.8,8.8,0,0,0-1.4.26,3.07,3.07,0,0,0-.9.4.49.49,0,0,0-.25.48l1.54,6.85c0,.18.19.34.47.51a4.71,4.71,0,0,0,1.06.38,11.21,11.21,0,0,0,1.52.28,17.33,17.33,0,0,0,1.81.1l53.35-.09a15.83,15.83,0,0,0,1.77-.1,9.42,9.42,0,0,0,1.39-.28,2.62,2.62,0,0,0,.87-.41.43.43,0,0,0,.21-.48l-2.13-6.85a1,1,0,0,0-.5-.5,5.24,5.24,0,0,0-1.09-.38,9,9,0,0,0-1.53-.26,14.52,14.52,0,0,0-1.79-.1Zm68.25-.12-52.68.09c-.63,0-1.21,0-1.74.09a11.11,11.11,0,0,0-1.36.28,2.5,2.5,0,0,0-.85.4.47.47,0,0,0-.2.49l2.19,6.83a1,1,0,0,0,.51.5,4.66,4.66,0,0,0,1.12.4,10.43,10.43,0,0,0,1.54.27,15.31,15.31,0,0,0,1.83.1l53.34-.09a15.64,15.64,0,0,0,1.76-.1,7.88,7.88,0,0,0,1.36-.28,2.46,2.46,0,0,0,.83-.4.43.43,0,0,0,.17-.49l-2.79-6.85a1,1,0,0,0-.55-.48,5.49,5.49,0,0,0-1.12-.4,12.18,12.18,0,0,0-1.55-.26,17.48,17.48,0,0,0-1.81-.1Z"></path><path class="cls-10" d="M1368.55,362.36l0,16L431,379.78l0-16c0-18.74,12.89-34,35-34l867.45-1.29C1356.77,328.43,1368.52,340.14,1368.55,362.36Z"></path><path class="cls-3" d="M1258.11,353.57a9.45,9.45,0,1,1-9.48-9.45,9.46,9.46,0,0,1,9.48,9.45Zm67.89-.11a9.46,9.46,0,1,1-9.47-9.44,9.45,9.45,0,0,1,9.47,9.44Zm-34,.06a9.46,9.46,0,1,1-9.47-9.45A9.44,9.44,0,0,1,1292.05,353.52Z"></path><path class="cls-11" d="M480.21,710h724.17c8.49,0,15.43,6.19,15.43,13.76V783c0,7.57-6.94,13.77-15.43,13.77H480.21c-8.48,0-15.43-6.2-15.43-13.77V723.75C464.78,716.18,471.73,710,480.21,710Z"></path><path class="cls-3" d="M564.72,693.75h0c61.6,0,112,50.4,112,112V933.58c0,61.6-50.39,112-112,112h0c-61.59,0-112-50.39-112-112V805.73C452.73,744.15,503.13,693.75,564.72,693.75Z"></path><path class="cls-11" d="M480.21,590.43h724.17c8.49,0,15.43,6.19,15.43,13.75v59.25c0,7.57-6.94,13.76-15.43,13.76H480.21c-8.48,0-15.43-6.19-15.43-13.76V604.18C464.78,596.62,471.73,590.43,480.21,590.43Z"></path><path class="cls-11" d="M1184.56,557.48H1070.92l2.24,27.85a4.07,4.07,0,0,1-7.07,3.06L1038,557.48H673.91a22.74,22.74,0,0,1-22.73-22.72V446.17a22.72,22.72,0,0,1,22.72-22.72h510.65a22.71,22.71,0,0,1,22.71,22.72v88.59A22.72,22.72,0,0,1,1184.56,557.48Z"></path><path class="cls-12" d="M620.21,568.84c-.34-1.26-.71-2.52-1.13-3.75a39.84,39.84,0,0,0-24.88-25c-3.51-1.19-5.29-2.24-8.86-3.23-1.23-.34-2.45-.69-3.65-1-6.38-1.3-10.4-5-12-10.92l0-.37-.24-.55c-.85-3.92-6.17-42.47,7.4-42.47h536v-7.91h-536c-21.68,0-18.68,43.67-14.65,53.55l.07.18c2.54,7,8.7,13.07,17.27,15.83,1.23.36,2.47.69,3.7,1,3.47,1,5.15,2,8.46,3.1a32.22,32.22,0,0,1,20.11,20.18c.36,1.07.69,2.17,1,3.27a31.78,31.78,0,0,1-6.9,28.68c-5.73,6.69-12.06,11.83-21.3,14.47l-.23.07c-21.64,7.73-22.77,27.25-23,43.4-.11,7.54-.08,21,0,32.92H569c0-11.91-.06-25.33,0-32.81.3-20.82,4.11-31.34,17.83-36.29,10.6-3.05,18.2-9,24.88-16.8A39.45,39.45,0,0,0,620.21,568.84Z"></path><path class="cls-11" d="M853,829.56h351.4c8.49,0,15.43,6.19,15.43,13.75v59.25c0,7.56-7,13.76-15.43,13.76H853c-8.48,0-15.43-6.19-15.43-13.76V843.31C837.55,835.75,844.49,829.56,853,829.56Z"></path><path class="cls-13" d="M493.3,1019.56C492.24,912.77,478.25,835,457.06,775.3q-1.49,5.21-2.47,10.59c-.07.42-.15.82-.22,1.24-.17,1-.34,2-.48,3-.11.8-.21,1.61-.3,2.42,0,.33-.09.66-.13,1-.09.8-.17,1.61-.24,2.42-.06.61-.1,1.25-.15,1.88s-.09,1.09-.12,1.64l-.09,1.62c-.07,1.68-.12,3.37-.12,5.06v119.3C452.74,960.22,468.52,998.92,493.3,1019.56Z"></path><path class="cls-13" d="M677.6,801.08l-.09-1.6c-.07-1.2-.17-2.4-.27-3.6-.07-.67-.12-1.34-.19-2-.13-1.16-.29-2.33-.45-3.48l0-.31c-.14-1-.29-1.89-.45-2.83-.08-.49-.17-1-.26-1.48q-1-5.24-2.39-10.27l0-.11,0-.07c-21.2,59.66-35.19,137.46-36.25,244.25,24.78-20.64,40.56-59.34,40.56-94.11V806.15C677.72,804.46,677.67,802.77,677.6,801.08Z"></path><path class="cls-12" d="M553.66,740.54v51.52a11.57,11.57,0,0,0,23.14,0V740.54a11.57,11.57,0,0,0-23.14,0Z"></path><path class="cls-13" d="M548.84,795.4V737.21c0-7,6.32-12.74,13.21-14.15V693.75c-.93,0-1.88,0-2.81.07l-1.78.13-.3,0c-1.28.09-2.56.19-3.82.32-.67.07-1.33.16-2,.24l-.51.07c-1.11.14-2.21.29-3.31.47-.65.09-1.31.22-2,.33l-.75.14c-1,.17-2,.38-3,.59-.62.13-1.25.26-1.87.41l-1,.22c-.92.22-1.83.46-2.75.7l-1.77.49-1.16.32c-.83.25-1.65.53-2.48.79l-1.69.54c-.39.13-.77.25-1.15.39-1,.34-1.93.71-2.88,1.08l-1.38.52-.56.22c-1,.43-2.08.88-3.11,1.34-.6.26-1.2.51-1.78.78-1.11.52-2.21,1-3.29,1.59-.54.28-1.08.54-1.61.82-1.12.59-2.23,1.19-3.33,1.81l-1.33.77c-1.16.68-2.31,1.37-3.45,2.09-.28.17-.56.36-.84.55a111.9,111.9,0,0,0-15.66,12.15h0q-1.69,1.95-3.32,4v15c0,46.19,34,83.82,76.62,85.61V809.54C555.16,808.13,548.84,802.34,548.84,795.4Z"></path><path class="cls-12" d="M670.24,765.83a111.28,111.28,0,0,0-10.75-21.05l0-.08c-.86-1.3-1.73-2.58-2.64-3.84l-.16-.22q-1.33-1.89-2.76-3.69l-.15-.19c-.88-1.12-1.78-2.22-2.69-3.3l-.29.34v8.87c0,49.28-36.06,89.39-82.1,91.33a52,52,0,0,1-6.84,0c-46-1.94-82.1-42-82.1-91.33V733.8l-.28-.34q-1.38,1.62-2.7,3.3l-.15.18q-1.43,1.81-2.77,3.7l-.15.21q-1.37,1.9-2.64,3.85l0,.06a113.38,113.38,0,0,0-10.78,21.07c-.07.21-.15.4-.23.6l2.47,7C484.31,834.93,498,915,499,1019.5l0,4.54a112.45,112.45,0,0,0,132.34,0l0-4.54c1-104.51,14.71-184.57,36.57-246.1l2.48-7C670.41,766.23,670.33,766,670.24,765.83Z"></path><path class="cls-13" d="M641.71,723.73A112.71,112.71,0,0,0,626,711.56c-.28-.18-.55-.37-.84-.54-1.13-.72-2.29-1.41-3.45-2.09-.44-.26-.88-.52-1.33-.77-1.1-.62-2.21-1.23-3.34-1.81-.52-.28-1.06-.54-1.59-.81-1.09-.55-2.18-1.08-3.3-1.6-.58-.27-1.17-.52-1.76-.78-1-.46-2.07-.91-3.13-1.34l-.56-.22c-.45-.18-.91-.34-1.36-.51-1-.37-1.92-.74-2.9-1.09l-1.14-.39-1.7-.54c-.82-.26-1.65-.54-2.48-.79L596,698l-1.77-.49c-.92-.24-1.83-.48-2.76-.7l-1-.22c-.62-.15-1.25-.28-1.88-.41-1-.21-2-.42-3-.59l-.75-.14c-.65-.11-1.31-.24-2-.33-1.09-.18-2.2-.33-3.3-.47l-.51-.07c-.67-.08-1.33-.17-2-.24-1.26-.13-2.54-.23-3.82-.32l-.3,0-1.78-.13c-.93,0-1.88,0-2.81-.07v29.31c6.9,1.41,13.21,7.2,13.21,14.15V795.4c0,6.94-6.31,12.73-13.21,14.14v18.74C611,826.49,645,788.86,645,742.67V727.72C644,726.36,642.84,725,641.71,723.73Z"></path><path class="cls-12" d="M726.32,435.31h51.33a8.79,8.79,0,0,1,8.77,8.77v91.39a8.8,8.8,0,0,1-8.77,8.76H726.32a8.79,8.79,0,0,1-8.76-8.76V444.08A8.79,8.79,0,0,1,726.32,435.31Z"></path><path class="cls-14" d="M816.55,435.31h51.33a8.76,8.76,0,0,1,8.76,8.76v91.39a8.77,8.77,0,0,1-8.77,8.77H816.55a8.77,8.77,0,0,1-8.77-8.77V444.08A8.77,8.77,0,0,1,816.55,435.31Z"></path><path class="cls-12" d="M906.77,435.31H958.1a8.79,8.79,0,0,1,8.76,8.77v91.39a8.79,8.79,0,0,1-8.76,8.76H906.77a8.78,8.78,0,0,1-8.76-8.76V444.08A8.78,8.78,0,0,1,906.77,435.31Z"></path><path class="cls-12" d="M997,435.31h51.32a8.79,8.79,0,0,1,8.77,8.77v91.39a8.79,8.79,0,0,1-8.77,8.76H997a8.78,8.78,0,0,1-8.76-8.76V444.08A8.78,8.78,0,0,1,997,435.31Z"></path><rect class="cls-14" x="1078.45" y="435.31" width="68.87" height="108.92" rx="8.77"></rect><path class="cls-3" d="M758.21,487.41c6.51-2.42,10.19-7.52,10.19-13.67,0-7.86-5.95-14.52-17.31-14.52-6.35,0-12.38,2-15.43,4.07l2.42,8.32a20.91,20.91,0,0,1,10.35-3.22c5.48,0,8.22,3.06,8.22,7.24,0,5.74-5.95,8.34-10.58,8.34h-3.76v8.15h4c6.34,0,12.14,3.14,12.14,9.79,0,4.86-3.52,9.25-10.66,9.25A24.08,24.08,0,0,1,736.28,508l-2.59,8.77c3,2,8.62,3.6,14.89,3.6,13.79,0,21.7-8,21.7-17.86,0-8.07-5.48-13.4-12.07-14.88Z"></path><path class="cls-3" d="M830.58,459.69,827,489.38a54.24,54.24,0,0,1,6.66-.4c10,0,15.27,4,15.27,11.13,0,6.82-5.55,10.66-11.59,10.66a25.51,25.51,0,0,1-11.2-2.75l-2.27,8.77a31.88,31.88,0,0,0,14.1,3.06c13.94,0,22.64-9.32,22.64-20.68,0-12.77-9.71-18.56-20.06-18.56a22.65,22.65,0,0,0-3.29.23l1.57-11.6h20.13v-9.55Z"></path><polygon class="cls-3" points="913.98 469.71 939.05 469.71 939.05 469.87 916.57 519.38 928.47 519.38 950.87 467.36 950.87 460.15 913.98 460.15 913.98 469.71"></polygon><path class="cls-3" d="M1030.73,493.25c-1.73,9-7.37,16.14-17.16,17.16a30.65,30.65,0,0,1-5.72.23v9.1c23.81,1.09,34.46-15.44,34.46-36,0-14.24-6.65-25.05-19.58-25.05-12.07,0-19.73,9.94-19.73,21s7.19,18.06,16.37,18.06a14.24,14.24,0,0,0,11.12-4.63l.24.08Zm-8.39-26.32c5.56,0,8.23,6.28,8.23,14.23,0,2.28-.16,3.46-.63,4.32a8.57,8.57,0,0,1-7.45,4.48c-4.69,0-8-4.24-8-11.24C1014.51,472,1017.64,466.93,1022.34,466.93Z"></path><path class="cls-3" d="M1121,493.25c-1.73,9-7.37,16.14-17.16,17.16a30.62,30.62,0,0,1-5.72.23v9.1c23.82,1.09,34.47-15.44,34.47-36,0-14.24-6.66-25.05-19.58-25.05-12.07,0-19.75,9.94-19.75,21s7.21,18.06,16.38,18.06a14.24,14.24,0,0,0,11.12-4.63l.24.08Zm-8.39-26.32c5.57,0,8.23,6.28,8.23,14.23,0,2.28-.16,3.46-.63,4.32a8.58,8.58,0,0,1-7.44,4.48c-4.69,0-8-4.24-8-11.24C1104.73,472,1107.86,466.93,1112.56,466.93Z"></path><path class="cls-15" d="M1300.19,956.9h135.37a8.82,8.82,0,0,1,8.8,8.79h0a8.82,8.82,0,0,1-8.8,8.8H1300.19a8.82,8.82,0,0,1-8.79-8.8h0A8.82,8.82,0,0,1,1300.19,956.9Z"></path><path class="cls-13" d="M1427.48,1123.49a35.61,35.61,0,0,0-25.23-10.49h-68.74a35.82,35.82,0,0,0-35.73,35.73v7.21H1295v8.92h20.27v-8.92h-2.75v-7.21a21,21,0,0,1,21-21h68.74a21,21,0,0,1,21,21v7.21h-2.76v8.92h20.28v-8.92H1438v-7.21A35.64,35.64,0,0,0,1427.48,1123.49Z"></path><rect class="cls-16" x="1360.49" y="974.48" width="14.77" height="138.51"></rect><path class="cls-17" d="M1179.44,1144.23q36.45-132.23,26.08-185.76a213.72,213.72,0,0,0,41.61,1.86c-2.12-9.54-4.25-19.1-6.41-28.78.25-13.14,21-28.65,44.82-35.64-34.64,2.65-118.06-7.13-128.73,33.29-2.66,34.58,4.53,74-1.59,215.29A111.33,111.33,0,0,0,1179.44,1144.23Z"></path><path class="cls-18" d="M1402.9,953.47c28.51-10.23,32.39-38.63,19.85-81.54q-15.46,12.65-78.14,10.6l1,3.72a2.75,2.75,0,0,1,.09.5h46.54c-.14,7.1.14,14.46-10.36,14.91-33.32-5-154.74-22.23-156.79,29.89,15.08,67.39,28.49,129.17,46.77,214.55q9.24,5.18,25.28-.8,12.86-124.18-7-180.63C1325.32,964.8,1362.93,960,1402.9,953.47Z"></path><path class="cls-17" d="M1402.9,953.47c28.51-10.23,32.39-38.63,19.85-81.54a30.66,30.66,0,0,1-8.71,4.71c10.38,44.1-.91,68.25-34.42,70.58q-58.63,8.68-97.22,8.36,17,110.25,5.84,192.28a56,56,0,0,0,8.87-2.56q12.86-124.18-7-180.63C1325.32,964.8,1362.93,960,1402.9,953.47Z"></path><path class="cls-19" d="M1316,651.39q43.61,15.81,56,3.06,12.55-2.93,16.36-22.25c8.66-19.64,1.26-51-10.91-35.47-10.07-25.76-50.47-10.81-73.26-25.11-13.83,9-8.57,31.38,1.37,38.92C1305.12,636.24,1306.53,650,1316,651.39Z"></path><path class="cls-19" d="M1384,599.54q-4.71-3.63-3-7.94,7.24-4.07,13.77-.26Q1390.73,591.57,1384,599.54Z"></path><path class="cls-19" d="M1378,592.78q3.36,3.75,6.16,1.65a14.66,14.66,0,0,0-2-12.44Q1382.56,585.61,1378,592.78Z"></path><path class="cls-19" d="M1362.59,603.55q8.22-3.25,12.44,2.16c-.23,8.21-4.49,24.74-11,28.35C1362.87,633.26,1363.13,615.88,1362.59,603.55Z"></path><path class="cls-19" d="M1360.54,595.6q13.89,6.75,9.17,12.17a76.62,76.62,0,0,1-40.15-4.53Q1341.11,604.34,1360.54,595.6Z"></path><path class="cls-19" d="M1306.18,609.47c10.48-10.6,30.26-11.87,57.53-1.91,17.24-4.28,21.12-12.25,13.84-25.23-10.3-18.31-32.58-3.83-59.87-21.07C1318.71,574.65,1278.09,586.14,1306.18,609.47Z"></path><path class="cls-20" d="M1371.74,618.47c-7.24-1.54-6.55,13.31-6,20.67C1366.8,653.63,1383.13,620.89,1371.74,618.47Z"></path><path class="cls-19" d="M1312.15,600.84c23.56-3.06,41.35-1.44,48.95,9.86a199.61,199.61,0,0,1-6.22,26.9,6.94,6.94,0,0,0,6.09,4.1q5-9.81,8.41-11.71,16.84,7.54-6.32,23.27c-.91,3.62-1.78,6.6-2.61,9,13.88-3.11,25.5-15.53,27.14-20.9,16.2-31.94-1.86-45.42-11.54-50.33-4.26-31.63-50.18-3.68-73.19-18.92C1293.72,584.71,1305,600.55,1312.15,600.84Z"></path><path class="cls-19" d="M1315.51,593q-5.33,4.11-3.43,9,8.18,4.58,15.56.29Q1323.16,602.06,1315.51,593Z"></path><path class="cls-20" d="M1378.83,682.33c-4.09.31-8-4.78-9.16-6.29a55.46,55.46,0,0,1-8.21-16.37q1.27-3.79,2.65-9.59,23.58-16.8,6.45-24.86-3.45,2-8.57,12.51c-2.72-.12-4.79-1.58-6.19-4.39a226.58,226.58,0,0,0,6.33-28.74c-7.74-12.08-25.85-13.79-49.84-10.54q-1.66,10.05-2.73,21.29c-3,2.89-11.68,51.17,17.79,53.12.13,2.4-.07,5.17-.11,6.86,0,1.52-.09,4.51-1.61,5l-2.54.67C1323.34,716.57,1340.72,723.42,1378.83,682.33Z"></path><path class="cls-19" d="M1312.29,594.06c24-3.26,42.1-1.54,49.84,10.54a226.58,226.58,0,0,1-6.33,28.74c1.4,2.81,3.47,4.27,6.19,4.39q5.12-10.49,8.57-12.51,17.13,8.06-6.45,24.86-1.38,5.79-2.65,9.59c14.13-3.33,26-16.6,27.63-22.34,16.49-34.12-1.9-48.53-11.74-53.78-4.34-33.79-51.27-4.57-63.62-25.2C1287.9,573.82,1305,593.76,1312.29,594.06Z"></path><path class="cls-21" d="M1343.1,665q-5.74,3-15.75,3.47a54.66,54.66,0,0,1-.11,6.8A24.67,24.67,0,0,0,1343.1,665Z"></path><path class="cls-7" d="M1291.46,686.36q19.63-6,35.27-7.25,2.82,45.27,45-.63c27.08,2.38,32.39,2.75,47.41,7.86,32.53,32.61,35.52,70.24,52.52,113.24-18.82.88-27.27,3.26-40.06,8q-4.12-15.46-6.91-24.89.8,85.07.6,116.55c-25.42,6.94-14.13,10.73-47,4-38.61-7.89-62.79-1-78.85-8.34-.29-50.41-9.26-89.11-9.76-118.51q-11.19,13.8-20.72,21.41c-15.26-18.35-25.6-25.75-34.26-36.58C1253.86,728.27,1281.3,697.55,1291.46,686.36Z"></path><path class="cls-20" d="M1166,741.59q49.05,21.39,68.68,35.35l5.82-9c5.41,5.69,11.58,11.26,19.11,19.36a104.81,104.81,0,0,1-23.14,19.26q-34.08-3.82-75.34-54.18-12.84-2.69-18.89-9.75-.32-6.5,6.23-13-17.1-11.7-13.62-16.74Q1161.68,730.21,1166,741.59Z"></path><path class="cls-22" d="M1415.74,841.69c3.33.53,6.49,1,9.46,1.4.15,25,4.28,42.46,4.21,54.91-2.94,1.38-11.17,4.27-14.4,4.67,0-1.6.5-5.32.51-6.9q.32-28.69.22-54.08Zm-152.19-50.1q13.76-12,26.18-39-1.41,9.41-1.12,25.18Q1278,790.63,1269,797.86c-1.87-2.24-3.66-4.32-5.4-6.27Zm149.6-48.77q6,20.45,11.57,39.92.15,16.44.27,30.88c-2.67-.27-5.79-.45-9.51-.54Q1414.91,773.17,1413.15,742.82Z"></path><path class="cls-20" d="M1465.36,800c3,12.61,4.2,24.15,1.77,39.45-7.39,11.27-37.24,5-114.07-8.51-2.76,2.64-8.46,5.27-17.11,4.09-8-2.1-8.42-4.3-17.44-13.22q-3.29-10.42,1.35-15.91c10.15,6.27,15.49,9.6,26.92,10q-4.56-12.33-1.37-15.92,5.85,4.93,7.62,14.81c60.59-2.77,76.56-2.39,84.62,2-.87-4-1.65-7.5-2.33-10.53A102.81,102.81,0,0,1,1465.36,800Z"></path><path class="cls-19" d="M1315.82,583.86q-7.52,5.79-4.84,12.66,11.52,6.48,21.93.41Q1326.58,596.57,1315.82,583.86Z"></path><path class="cls-19" d="M1354.23,593.59q8.68-3.83,13.42,1.82.15,13.23-10.15,19.44Q1360.22,609.14,1354.23,593.59Z"></path><path class="cls-22" d="M1323.11,679.45c1.47,16.6,8,24.68,16.92,24.55,8.17-.11,20.89-9.33,35-25.24l-4.48-1.6c-13.22,14.89-23.75,22.21-30.57,22.31-6.1.09-11.91-6.93-13.13-20.72Z"></path><path class="cls-22" d="M1337.31,702.56c-4.59.93-7.71,4.74-6.94,8.53s5.12,6.1,9.72,5.16,7.7-4.75,6.94-8.53S1341.91,701.63,1337.31,702.56Z"></path><path class="cls-7" d="M1337.91,717.68c-3.18.19-5.63,2.47-5.47,5.09s2.87,4.57,6,4.38,5.63-2.48,5.47-5.1S1341.09,717.48,1337.91,717.68Z"></path><path class="cls-19" d="M1123.91,1175.3c26.45-.42,46.21-.74,55.34-3.63,9.86-3.11,7.82-9.12,2.16-18.73-24.93,11.46-18.28-2.36-29.94-.6q-12.3,9.89-36.39,13.26C1108.28,1170.61,1111,1175.08,1123.91,1175.3Z"></path><path class="cls-18" d="M1204.83,901.66h-1.06c-19.91.17-40.42,5-47,27.54-2.66,34.58,4.53,74-1.59,215.29a104.18,104.18,0,0,0,14.13.48c12.56-49.12,42.43-169.64,8.78-221.57A131.07,131.07,0,0,1,1204.83,901.66Z"></path><path class="cls-20" d="M1157.77,1144.72a24.47,24.47,0,0,1-3.46,7.51c7.64.71,4.69,10.53,25.3,1.52a32.13,32.13,0,0,1-1.48-9.38A112.62,112.62,0,0,1,1157.77,1144.72Z"></path><path class="cls-19" d="M1271.89,1190.77c14-5.79,16.14-15.22,23.87-18.83s8.66-10.09,1.07-17.12c-5.62,4.49-12.58,10-16.28,7.08-2.46-2-10.82-1.82-12.48,1-7.27,16.92-17.39,11.56-19.39,19.26C1248.45,1192.42,1263.06,1194.41,1271.89,1190.77Z"></path><path class="cls-20" d="M1274.29,1147.24a43.2,43.2,0,0,1-1.85,13.54c3-.48,6.63-.06,8.11,1.12,3.42,2.71,9.65-1.83,15-6.08a37,37,0,0,1-1.76-9.38Q1282,1150.12,1274.29,1147.24Z"></path><path class="cls-8" d="M1160.07,791.13h150a7.49,7.49,0,0,1,6.79,5.38l26.69,101.64c.78,3-1,5.37-4,5.37h-150a7.5,7.5,0,0,1-6.8-5.37L1156.1,796.51C1155.32,793.55,1157.11,791.13,1160.07,791.13Z"></path><path class="cls-22" d="M1338.21,863.07l-18.12-69a7.51,7.51,0,0,0-6.79-5.37h-150c-3,0-8.22,3.81-7.34,6.74a3.93,3.93,0,0,1,4.14-4.3h150a7.49,7.49,0,0,1,6.79,5.38l26.69,101.64a4.19,4.19,0,0,1-1.07,4.33c2.48-1.59,4.83-4.67,4.28-6.78Z"></path><path class="cls-22" d="M1339.61,903.52h-150a6.2,6.2,0,0,1-1.65-.23c3,7.73,11.09,6.59,14.26,6.57h177.87c9.64-.41,9.4-7.17,9.52-13.69h-42.74c.15,2.07-2,4.83-4.35,6.31A4.17,4.17,0,0,1,1339.61,903.52Z"></path><path class="cls-22" d="M1318.62,832.93c-16.1,8.13-35.12,10.63-54.68,11.64a14.28,14.28,0,0,1,.5,2.15c1.31,8.24-4.5,15.26-12.89,15.26a17,17,0,0,1-16.32-14,14.25,14.25,0,0,1-.18-2.49c-20.31.54-39.93,1.65-56.16,8L1190.05,896h145.11Z"></path><path class="cls-22" d="M1248.3,837.59a11.85,11.85,0,0,1,11.28,9.74,8.12,8.12,0,0,1-8.2,9.74,11.86,11.86,0,0,1-11.28-9.74A8.11,8.11,0,0,1,1248.3,837.59Z"></path><path class="cls-10" d="M1340.53,616.09a3.39,3.39,0,1,1-3.23,3.54A3.38,3.38,0,0,1,1340.53,616.09Z"></path><path class="cls-23" d="M1340.84,622.87a3.39,3.39,0,0,0-.31-6.78,3.31,3.31,0,0,0-2,.81l.25,0a1.1,1.1,0,1,1,.1,2.2,1.12,1.12,0,0,1-1.15-1v-.13a3.41,3.41,0,0,0,3.16,5Z"></path><path class="cls-23" d="M1336.94,613.63l-.21.18a5.8,5.8,0,0,1,.65-.94,1.51,1.51,0,0,0-.4.34,2.29,2.29,0,0,0-.33.55,2.77,2.77,0,0,1,.12-.6,1.51,1.51,0,0,0-.24.65,2.42,2.42,0,0,1,.36-1.27,2,2,0,0,0-.6,1.14,1.58,1.58,0,0,1,0-.54,1,1,0,0,0-.14.57l-.17-.26c0,.16.07.2.09.33a2.53,2.53,0,0,1-.79-1.64,2,2,0,0,0,.27.68,3.69,3.69,0,0,1,0-1.06c.08.24,0,.57.1.83a2.38,2.38,0,0,0,.25.74,3.5,3.5,0,0,1,0-1.61l0,.15a4.31,4.31,0,0,0,0,.88c.09-.51.08-1,.52-1.34a3.07,3.07,0,0,0-.3.57c.25-.23.35-.65.73-.68a4.2,4.2,0,0,0-.52.57c-.15.21-.38.56-.3.84a2,2,0,0,1,1.5-1.52c-.18.09-.74.45-.8.67v0c0,.26,0-.22,0,.06a1.58,1.58,0,0,0-.37.43,1.4,1.4,0,0,0-.15.33.76.76,0,0,0-.06.2.27.27,0,0,0,0,.09v.07a2.44,2.44,0,0,1,.89-1.28,3.53,3.53,0,0,1,1.25-.56h0l-.29.13a2.63,2.63,0,0,0-1.7,1.59s0,0,.07-.06l0,0a3.94,3.94,0,0,1,.56-.73,3.48,3.48,0,0,1,.78-.55,4.13,4.13,0,0,1,1.88-.41,7.87,7.87,0,0,0-1.29.28,2.61,2.61,0,0,0-1.13.64c.16,0,.32-.13.46-.17a9.21,9.21,0,0,1,3.42-.77,7.7,7.7,0,0,0-1.85.52l.36,0-.3.13-.29.13a3.9,3.9,0,0,0-1.55,1.2c.13-.11.31-.23.46-.34a4.58,4.58,0,0,1,.48-.33,9.39,9.39,0,0,1,1-.57,9.62,9.62,0,0,1,2.25-.69,1,1,0,0,0-.32.18,27.38,27.38,0,0,1,3.38-.43c-.34.1-.93.11-1.34.21l-.37.12c.22,0,.93-.13,1.21-.16a16.57,16.57,0,0,1,3.82-.23,7,7,0,0,1,2.83.59,6.54,6.54,0,0,1,1.68,1.11,3.85,3.85,0,0,1,.4.43,7.54,7.54,0,0,0-2-1.36,12.9,12.9,0,0,1,3.16,2.68c-.24-.18-.57-.53-.84-.76s-.6-.5-.92-.73a8.57,8.57,0,0,0-2.22-1.25,9.4,9.4,0,0,0,.84.55,32,32,0,0,1,4.47,3.47c.16.15.48.53.6.63-.15-.08-.73-.59-.92-.74a11.25,11.25,0,0,0-3.27-2,27.65,27.65,0,0,1,3.32,2.09l-2-1.14a9.41,9.41,0,0,0-2.27-1,18.8,18.8,0,0,1,4.24,2.27c-.31-.13-.75-.42-1.08-.59l-1.19-.56a13.37,13.37,0,0,0-2.58-.83,14.24,14.24,0,0,0-3.49-.23c-.34,0-.8.07-1.11.05a3.62,3.62,0,0,1,1-.13,13.76,13.76,0,0,1,2,0,10.45,10.45,0,0,0,1.05.08,13.5,13.5,0,0,0-2.13-.33h.1l.08,0a6.21,6.21,0,0,0-1.67.12c-.48.08-1.45.39-1.5.4.12-.08.23-.13.33-.21l-1.16.2,1.44-.44a7.27,7.27,0,0,0-.95.2c-.35.07-1.05.2-1.37.3a5.47,5.47,0,0,1-1.45.16,6.56,6.56,0,0,1,.81-.24l.79-.22c.14-.06.26-.07.39-.13a11.75,11.75,0,0,1,1.13-.41,8.07,8.07,0,0,1,3.35-.45,7.13,7.13,0,0,0-3.48.35l-1.58.54c-.14,0-.24.1-.39.15a10.62,10.62,0,0,1-1.17.36l0-.08h0v0a2.2,2.2,0,0,1-.74.22c.39-.33,1.34-.56,1.69-1a4.46,4.46,0,0,0-1,.52l-.33.15a4.07,4.07,0,0,1,1.22-1l.46-.25a2.3,2.3,0,0,0-1.14.58,7,7,0,0,0-.83.8s0,0,0,.05,0,0-.08,0l.39-.58c-.08.11-.58.57-.61.73a3.33,3.33,0,0,1,.43-.79l-.22.15a5.88,5.88,0,0,1,1.79-1.3,3.64,3.64,0,0,0-1.87,1.16c-.18.23-.31.51-.48.69l.19-.46,0,0-.27.28a3.2,3.2,0,0,1,.92-1.24.92.92,0,0,0-.43.24,2.23,2.23,0,0,0-.33.35,4.15,4.15,0,0,0-.55.92,1.4,1.4,0,0,1,.16-.57c-.12,0,0,0-.12,0a1.24,1.24,0,0,0-.38.47l.08-.35-.27.34a6.23,6.23,0,0,1,.28-.77,1.31,1.31,0,0,0-.42.61.83.83,0,0,1,.08-.42l-.29.27c-.08.09-.15.21-.22.29a2.52,2.52,0,0,1,.38-.69c-.3.17-.42.45-.66.74a2.88,2.88,0,0,1,.59-1.08c-.32,0-.57.88-.74,1l0-.36s0,0-.06.05l-.22.36.05-.47a1.54,1.54,0,0,0-.26.46,3.14,3.14,0,0,1,.1-.61c-.07,0,0,0-.1.06s-.21.32-.34.45l.16-.36-.07,0Z"></path><path class="cls-10" d="M1317.23,614a3.4,3.4,0,1,0,3.54,3.24A3.4,3.4,0,0,0,1317.23,614Z"></path><path class="cls-23" d="M1317.53,620.75a3.4,3.4,0,1,1,1.81-6.17l-.26,0a1.11,1.11,0,0,0-1,1.16,1.13,1.13,0,0,0,1.15,1,1.11,1.11,0,0,0,1-1.15v-.13a3.24,3.24,0,0,1,.55,1.71A3.39,3.39,0,0,1,1317.53,620.75Z"></path><path class="cls-23" d="M1323.66,613.27l.18.2a6.66,6.66,0,0,0-.5-1,1.19,1.19,0,0,1,.32.37,3.18,3.18,0,0,1,.26.59,3.82,3.82,0,0,0-.06-.61,1.69,1.69,0,0,1,.16.67,2.75,2.75,0,0,0-.21-1.3,2.22,2.22,0,0,1,.43,1.2,1.49,1.49,0,0,0,.09-.54,1.21,1.21,0,0,1,.08.59l.17-.25c0,.16-.08.2-.1.33a2.62,2.62,0,0,0,.84-1.55,2.24,2.24,0,0,1-.3.66,4,4,0,0,0,.14-1c-.1.22-.08.55-.16.8a2.26,2.26,0,0,1-.3.72,3.74,3.74,0,0,0,.17-1.61l0,.15a3.62,3.62,0,0,1-.09.87c0-.51,0-1-.34-1.39a3.53,3.53,0,0,1,.21.6c-.2-.24-.25-.68-.59-.75.13.21.27.35.42.62a1.3,1.3,0,0,1,.19.88,2,2,0,0,0-1.21-1.68,2,2,0,0,1,.66.75v0c0,.25,0-.22,0,.06a1.81,1.81,0,0,1,.3.47,1.91,1.91,0,0,1,.1.34.69.69,0,0,1,0,.2v.16a2.41,2.41,0,0,0-.68-1.36,3.1,3.1,0,0,0-1.07-.7s0,0,0,0l.26.15a2.59,2.59,0,0,1,1.37,1.77l-.05-.07,0-.06a3.73,3.73,0,0,0-.44-.78,3,3,0,0,0-.65-.64,3.67,3.67,0,0,0-1.64-.61,6.57,6.57,0,0,1,1.14.42,2.28,2.28,0,0,1,.94.77,3.14,3.14,0,0,1-.39-.24,7.72,7.72,0,0,0-3-1.12,6.47,6.47,0,0,1,1.62.72l-.32-.1c.08,0,.16.12.25.17s.17.09.25.16a3.7,3.7,0,0,1,1.27,1.36,4.6,4.6,0,0,0-.38-.39,3.48,3.48,0,0,0-.39-.38,6.74,6.74,0,0,0-.87-.67,8.46,8.46,0,0,0-1.94-.93.69.69,0,0,1,.28.21,23.62,23.62,0,0,0-3-.8c.32.15.84.22,1.19.36l.32.16a9.29,9.29,0,0,1-1.07-.3,13.75,13.75,0,0,0-3.39-.63,5.72,5.72,0,0,0-2.57.28,6,6,0,0,0-1.6.93,4.91,4.91,0,0,0-.4.38,7.42,7.42,0,0,1,2-1.14,11.62,11.62,0,0,0-3,2.33c.22-.14.55-.47.81-.66s.59-.43.88-.63a7.45,7.45,0,0,1,2.11-1c-.16.13-.6.34-.8.46a27.22,27.22,0,0,0-4.3,3c-.15.13-.47.47-.59.55a9.61,9.61,0,0,0,.89-.64,9.6,9.6,0,0,1,3.08-1.59,23.76,23.76,0,0,0-3.13,1.72l1.84-.92a7.65,7.65,0,0,1,2.12-.7,16.15,16.15,0,0,0-4,1.8c.29-.1.71-.33,1-.47s.73-.29,1.11-.42a10.76,10.76,0,0,1,2.37-.56,11.75,11.75,0,0,1,3.14.15c.29.05.7.15,1,.17a3.35,3.35,0,0,0-.86-.24,14,14,0,0,0-1.82-.26c-.25,0-.75,0-1,0a11.08,11.08,0,0,1,1.94-.11l-.08,0c-.06,0,0,0-.07,0a5.72,5.72,0,0,1,1.48.3c.42.14,1.26.55,1.3.56a1.68,1.68,0,0,1-.28-.24l1,.32-1.25-.59a8.22,8.22,0,0,1,.83.3c.3.11.91.31,1.19.45a4.37,4.37,0,0,0,1.27.31,5.16,5.16,0,0,0-.7-.32l-.68-.31a2.69,2.69,0,0,1-.34-.17c-.31-.2-.64-.36-1-.53a6.86,6.86,0,0,0-2.94-.8c.83-.25,2.49.42,3.07.72l1.35.72a2.16,2.16,0,0,1,.34.17,10.42,10.42,0,0,0,1,.49v-.1h0v0a2.07,2.07,0,0,0,.64.29c-.31-.37-1.14-.69-1.41-1.16a4.56,4.56,0,0,1,.87.61,2.22,2.22,0,0,0,.27.19,4,4,0,0,0-1-1.16l-.4-.29a2.1,2.1,0,0,1,1,.69,6.68,6.68,0,0,1,.67.89s0,0,0,.06,0,0,.07,0l-.29-.62a6.86,6.86,0,0,1,.47.79,2.86,2.86,0,0,0-.32-.83l.2.18a5.32,5.32,0,0,0-1.5-1.49,3.47,3.47,0,0,1,1.59,1.36,7.13,7.13,0,0,0,.35.73l-.13-.48,0,0,.21.31a3.26,3.26,0,0,0-.7-1.32.76.76,0,0,1,.35.27,3.83,3.83,0,0,1,.27.39,4.63,4.63,0,0,1,.41,1,1.77,1.77,0,0,0-.09-.57c.1,0,0,0,.1.06a1.88,1.88,0,0,1,.31.51l0-.36.21.37a6.66,6.66,0,0,0-.18-.79,1.32,1.32,0,0,1,.31.65.77.77,0,0,0,0-.42l.24.29c.06.1.12.22.17.32a2.6,2.6,0,0,0-.29-.74,2.7,2.7,0,0,1,.53.82,3,3,0,0,0-.43-1.15c.29.08.44.94.57,1.12v-.36s0,0,.05.06l.16.37V613a1.61,1.61,0,0,1,.2.48,4.36,4.36,0,0,0,0-.61c.06,0,0,0,.08.08s.16.34.27.48l-.11-.38.07,0Z"></path><path class="cls-14" d="M1326.56,639.15a.59.59,0,0,1-.36-.11,3.69,3.69,0,0,0-.94-.16c-1.48-.14-4.23-.41-4.38-3.8-.05-1.29,4.9-13.89,6.19-15a.6.6,0,0,1,.83.07.58.58,0,0,1-.07.82c-1,.89-5.75,12.87-5.78,14.08.1,2.19,1.5,2.5,3.33,2.68a3,3,0,0,1,1.52.38.59.59,0,0,1,.13.82A.63.63,0,0,1,1326.56,639.15Z"></path><path class="cls-12" d="M1316.24,646.27c7.11,3.17,4.79,3.52,13.45,3,3-.19,7,.27,3.25,1.43-7.47,2.32-16.19.55-17.07-4.18Z"></path><path class="cls-3" d="M1091.76,606.63a32.61,32.61,0,1,1-32.61,32.6A32.6,32.6,0,0,1,1091.76,606.63Z"></path><path class="cls-7" d="M1092.9,603.21A35.25,35.25,0,0,1,1126.68,637H1133a1.46,1.46,0,0,1,1.45,1.45h0a1.46,1.46,0,0,1-1.45,1.44h-6.34a35.23,35.23,0,0,1-33.78,33.78V680a1.46,1.46,0,0,1-1.45,1.45h0A1.46,1.46,0,0,1,1090,680v-6.34a35.25,35.25,0,0,1-33.78-33.78h-6.34a1.45,1.45,0,0,1-1.44-1.44h0a1.46,1.46,0,0,1,1.44-1.45h6.34A35.27,35.27,0,0,1,1090,603.21v-6.34a1.46,1.46,0,0,1,1.45-1.45h0a1.46,1.46,0,0,1,1.45,1.45v6.34Zm0,12.35A23,23,0,0,1,1114.33,637h8.7a31.63,31.63,0,0,0-30.13-30.14v8.71Zm21.43,24.32a23,23,0,0,1-21.43,21.44V670A31.63,31.63,0,0,0,1123,639.88ZM1090,661.32a22.93,22.93,0,0,1-21.42-21.44h-8.71A31.63,31.63,0,0,0,1090,670v-8.7ZM1068.58,637A22.91,22.91,0,0,1,1090,615.56v-8.71A31.63,31.63,0,0,0,1059.87,637Zm36.5-12.19a19.19,19.19,0,0,0-12.18-5.58V631a7.6,7.6,0,0,1,6,6h11.78a19.27,19.27,0,0,0-5.6-12.19ZM1090,619.22A19.23,19.23,0,0,0,1072.23,637H1084a7.63,7.63,0,0,1,6-6V619.22Zm-17.77,20.66A19.25,19.25,0,0,0,1090,657.66V645.89a7.61,7.61,0,0,1-6-6Zm20.67,17.78a19.29,19.29,0,0,0,17.78-17.78H1098.9a7.59,7.59,0,0,1-6,6Z"></path><polygon class="cls-13" points="1037.66 773.55 987.74 859.8 951.52 838.83 1001.45 752.58 967.56 732.96 1028.73 687.25 1089.9 641.54 1080.73 717.36 1071.56 793.17 1037.66 773.55"></polygon><path class="cls-19" d="M390,528.29c4.52-17.59-10.36-51.63-33.05-45.49l-6.41,1.74c-5.46,1.47-11.39-11.08-26.22-3.37C302.4,492.57,294.16,518.35,290.7,596c-1.67,37.55-28.45,59.23-33.59,72.86-17,95.38,211.12,89.69,140.83-36.18C384.16,608,382.52,553.83,390,528.29Z"></path><path class="cls-24" d="M358.57,634.58,354.3,612.3a37.25,37.25,0,0,1,20.64,15.51c8,12.48,21.47,54.6,23.77,55.86s27.69-37.86,32.14-44.07c5.48-7.59,7.53-16.38,11-23s15.55-8.92,20.15-8-6.3,20.28-6.3,20.28-27.53,47.76-36.71,74-37.84,38.67-42.42,35S358.57,634.58,358.57,634.58Z"></path><path class="cls-22" d="M363.55,701.56l35.06-20s-15.92-67.17-44.31-69.3Z"></path><path class="cls-20" d="M442.13,620.27s1.14-5.09,4.23-6.09,8.48-.13,8.81,0,6.3-3.07,6.3-3.07l-4.91,9.16s-9.62,11.3-12.82,7.09S442.13,620.27,442.13,620.27Z"></path><path class="cls-24" d="M463.18,611.48s3.48,17.7,2.6,21.4-3.1,1.7-3.5,1c-1.72-3.33-2.9-14.69-2.9-14.69Z"></path><path class="cls-24" d="M455.71,626.16s1.66,11,3.36,12.25c1.1.88,2.52.38,3-1.82s-2.23-15.76-2.23-15.76Z"></path><path class="cls-22" d="M445.59,657.31l-5.75-2.83,24.47-50.21a6.42,6.42,0,0,1,2.95,8.59Z"></path><path class="cls-20" d="M217.07,1214.43s-3,30.19-10.62,35.71-17.84,26-12.74,37.16c1.59,3.46,4.77,5.47,8.4,6.59,10.74,3.34,22.18-2.25,26.75-12.55a63.62,63.62,0,0,0,5.25-23c1.14-24.48,8.79-37,8.79-37Z"></path><path class="cls-20" d="M334.56,1226.78s2.41,30.46.45,40.37c-1,5.27-6.87,16.2-4.2,21.22s5.74,6.21,5.74,6.21l69.34,1.13c3.79.07,1.3-2.38-1.76-4.57-5-3.71-9-6.1-24.93-13.82-1-.5-4.82-2.88-6.19-3.7a50.69,50.69,0,0,1-9.92-8.72c-5-5.59-5.41-32.4-5.41-32.4Z"></path><path class="cls-17" d="M388.77,821.78s8.74,49.45,3,81.85-33.26,333.08-33.26,333.08l-30.58,1.76s-6.42-125.62-5.27-143.06,10.22-46.71,10.22-46.71l-3-101.38,38.59-133.21Z"></path><path class="cls-18" d="M298.87,811.35s-24.07,36.16-29.81,66.1,4.21,122-6.83,161.21c-6,21.22-28.59,54-32,81.48s-16.93,99.3-16.93,99.3l30.57,6,71-179.47,55.74-162.33,14.28-83.55Z"></path><path class="cls-7" d="M318.37,605.52s-16.52,2.69-28.81,14.75c-26.38,25.8,15.5,125.36,17.78,142.87,1.27,9.58-26.17,51.79-37.46,92.29-9.28,33.3-2.7,67-2.7,67s33-21.86,68.13-35.45c25.87-10,54.42-11.48,63.52-17.48,0,0-7.55-187.94-9.84-200.44s-28-51-32.54-55.92S318.37,605.52,318.37,605.52Z"></path><path class="cls-22" d="M283.81,818a276.14,276.14,0,0,0-13.93,37.4c-9.28,33.3-2.7,67-2.7,67s9.36-6.19,23.41-14Q281.1,868.16,283.81,818Z"></path><path class="cls-20" d="M288.55,632a11.08,11.08,0,0,1,14.94-6.59c8.14,3.57,19.38,10.23,24.88,21.66,9.17,19.14,41.28,84.86,51.23,87.38s50.46-68.24,50.46-68.24-1.14-12.5,2.29-19.58,13.76-14.51,15.28-12.06-5.73,8.79-5.73,10,3.07,2,7.26-.44,6.49-7.54,6.49-7.54,6.9,12.5-.36,23.74S445,676.2,445,676.2s-47,104.39-64.23,105.58C364.72,783,272.45,680.66,288.55,632Z"></path><path class="cls-20" d="M329,563l-.46,2.57c-1.42,7.66-6.9,33-10.59,40-4.47,8.41,15.3,35.34,34.34,32.08,5.66-1-4.8-24.74-4.29-27.25.95-4.83,2.26-11.36,3.59-18.14.76-3.77,1.52-7.6,2.24-11.23,2-10.31,3.7-18.72,3.7-18.72Z"></path><path class="cls-21" d="M328.52,565.53,329,563l28.53-.7s-1.67,8.41-3.7,18.72c-.72,3.57-1.48,7.4-2.22,11.17-4.4-.63-9-2.76-13.62-6.78a35.82,35.82,0,0,1-10.31-15.32C328,568.23,328.31,566.72,328.52,565.53Z"></path><path class="cls-20" d="M346.14,495.23a33.39,33.39,0,0,0-20.05,12.48c-8.43,10.86-17.51,44.51,3.42,62.78s41.61-2.39,44.67-24.36S376.63,494.41,346.14,495.23Z"></path><path class="cls-20" d="M380.88,538.6c-2.49,4.89-6.7,7.53-9.36,6s-2.82-6.72-.33-11.56,6.69-7.53,9.37-6S383.37,533.77,380.88,538.6Z"></path><path class="cls-19" d="M349.69,494.72s-18,32-30.81,33.46-14.53,18.45-14.53,18.45,4.6-39.16,17.31-46.7S349.69,494.72,349.69,494.72Z"></path><path class="cls-20" d="M323.08,535.77c1,5.71-1.05,10.93-4.69,11.61s-7.43-3.19-8.48-8.91,1.06-10.86,4.7-11.61S322,530.13,323.08,535.77Z"></path><path class="cls-19" d="M230.94,1275.94c-16.67,3.07-27.75-6.65-33.52-13.93-4.23,8.21-6.82,18.52-3.71,25.29,2.74,6,10.21,7.6,16.52,7.85a18,18,0,0,0,16.23-9A54.5,54.5,0,0,0,230.94,1275.94Z"></path><path class="cls-19" d="M373,1273.62c-18.34,4.71-31.9,1.5-39.48-1.57-2,5.52-4.54,12.49-3.17,16.45,1.68,5,4.08,6,6.2,6.08,16.75.45,61.36,1.07,74.13,1.2a2.05,2.05,0,0,0,1.63-3.39C409.14,1288.62,374.37,1274.44,373,1273.62Z"></path><path class="cls-22" d="M314.29,723.72l41.29-27.11s-17.2-48.6-36.13-65.8-27.87-13.06-31.83-9.47c-11,9.92-9,33.95,3.45,63.65S314.29,723.72,314.29,723.72Z"></path><path class="cls-19" d="M348.82,494.41s11.63,19.08,19.93,20,9.41,11,9.41,11-3-23.4-11.2-27.9S348.82,494.41,348.82,494.41Z"></path><path class="cls-19" d="M346.24,494.36q11.1-3.11,9.62-11-12.8-10.68-27.61-8.36Q336.14,477.68,346.24,494.36Z"></path><path class="cls-19" d="M357.51,489.87q-6.33,3.31-9-.86,1.22-10.26,8.89-15.49Q355,478.07,357.51,489.87Z"></path><path class="cls-22" d="M313.28,606.77c.76,7.69,7,16.63,13.65,23.19,7.4,7.31,16.51,12.47,22.57,12,4.45-.35,7.31-2.88,7.6-9,.24-4.88-.35-10.69-4.61-22l-2.55-.79-1.85-.45c0,.48-.26.66-.15,1.1s.17.81.27,1.21c2.46,9.33,4.42,16.79,4.23,20.73-.15,3.09-1.39,4.36-3.3,4.51-4.73.37-12.4-4.2-18.92-10.65-6-5.89-11.64-14.61-12.29-21.13Z"></path><path class="cls-19" d="M348.2,495.17q7.26-.71,7.61,5.12-6.12,10.68-15.53,12.87Q344.67,509.3,348.2,495.17Z"></path><path class="cls-23" d="M366,521.77c.38-.09.84,0,1.22,0a5.72,5.72,0,0,0-1.43-.07,2.8,2.8,0,0,1-.71,0,6,6,0,0,1-.74-.14,14.18,14.18,0,0,1,1.74-.21,12.57,12.57,0,0,0-1.4,0,10.73,10.73,0,0,1-1.39,0c.35-.08.81-.08,1.13-.17a17,17,0,0,0-1.75-.05,5.42,5.42,0,0,1,1-.36,8.22,8.22,0,0,0-2.36.43,3,3,0,0,1,1.22-.56c-.3-.12-1.19.23-1.48.34l-.17.05c-.3.09-.6.28-.91.37a5.65,5.65,0,0,1,1.36-.8,4.89,4.89,0,0,0,.46-.19,4.83,4.83,0,0,0-1.46.49,2.85,2.85,0,0,1,.68-.43,2.79,2.79,0,0,0-1.27.53c-.37.24-.84.67-1.17.87a7,7,0,0,1,1.62-1.52,4.12,4.12,0,0,0-1.2.77l-.85.78a1.75,1.75,0,0,1-.29.26,5.08,5.08,0,0,1,.76-1.08c.31-.34.68-.61.84-.79a3,3,0,0,0-1.26.87c-.54.56-.72.89-1.08,1.29a5.21,5.21,0,0,1,1.13-1.69c-.36,0-.75.57-1.08.74a2.53,2.53,0,0,1,.42-.5c.15-.13.31-.23.44-.36-.55.13-1.44,1.37-1.78,1.75a6,6,0,0,1,1.18-1.91,12.73,12.73,0,0,0-1.09,1.15,3.53,3.53,0,0,1,.44-.84c.14-.23.34-.44.46-.64a8.5,8.5,0,0,0-1.62,2.43c0-.57.51-1.11.69-1.55-.12.18-.31.34-.45.58a24.33,24.33,0,0,0-1.13,2.43,5.81,5.81,0,0,1,.38-1.44,9.33,9.33,0,0,1,.72-1.22l-.46.42a6,6,0,0,0-.42.57c-.14.21-.27.42-.4.65s-.27.53-.36.65a5.51,5.51,0,0,1,.58-1.36c.24-.43.52-.75.72-1.1a6.74,6.74,0,0,0-1.31,1.79,4.81,4.81,0,0,0-.54,1.8,1.38,1.38,0,0,0,0,.5,6.75,6.75,0,0,1,1-2.07,7.16,7.16,0,0,0-.52,1.77,8.13,8.13,0,0,1,.51-1.42,4.59,4.59,0,0,0-.11,1.54,6.87,6.87,0,0,1,.31-1.07,3.57,3.57,0,0,0-.1,1.21c.05-.24.05-.46.12-.72s.14-.62.32-.75a1.75,1.75,0,0,0-.07,1c.1-.41.12-.77.25-1.22a2.62,2.62,0,0,1,.56-1.06c-.08.27-.39.81-.53,1.31a4.74,4.74,0,0,0-.19,1.19s.53-1.43.65-1.68a3.17,3.17,0,0,1,.86-1.28c-.11.25-.58.89-.82,1.38a5.13,5.13,0,0,0-.5,1.62,6.69,6.69,0,0,1,.63-1.52,7.18,7.18,0,0,0-.3,1.35c.13-.32.18-.71.35-1.09a5,5,0,0,1,.54-.89,10.31,10.31,0,0,0-.73,2.08c.07-.06.36-.5.45-.61a10.71,10.71,0,0,1,1.5-1.51,11.74,11.74,0,0,0-1.59,1.93,7,7,0,0,1,.65-.71c.21-.21.47-.39.67-.57l-1.11,1.21a11.85,11.85,0,0,1,2.67-1.61c-.18.14-.42.25-.62.39a14.78,14.78,0,0,0-1.76,1.29,2.46,2.46,0,0,0,.46-.28,12.05,12.05,0,0,1,1.24-.72l.13,0a5.08,5.08,0,0,1-.53.38,5.32,5.32,0,0,0-.52.37c.29,0,1.2-.67,1.58-.78l-.25.24a3.86,3.86,0,0,1,1.49-.64,2.1,2.1,0,0,1-.26.13c-.16.09-.58.39-.69.42a9.45,9.45,0,0,1,1.72-.63c-.27.2-.64.29-.9.5.53-.09,1-.37,1.57-.48-.17.11-.32.1-.49.24.29,0,.57-.17.87-.19l-.32.19c.27,0,.51-.16.76-.21s0,0,.13,0l-.36.2c.29,0,.63-.19.94-.19l-.08,0h-.06l-.21.07h0l0,0s0,0,0,0a6.92,6.92,0,0,0,1.1.07,5.2,5.2,0,0,1,1-.16,1.52,1.52,0,0,0-.2.06l-.21.08a4.1,4.1,0,0,0,.7,0,11.72,11.72,0,0,1,5.14,1.46,15.19,15.19,0,0,1,2.29,1.83c.44.39,1.8,1.64,2.15,1.89l-.08-.12s0,0-.06-.09l-.42-.5c-.19-.23-.36-.46-.54-.69l-1-1.43a11.16,11.16,0,0,0-2-1.93,8.16,8.16,0,0,1-.75-.58l.65.29a10.39,10.39,0,0,0-3.15-1.35h.3l.17,0,.14,0a7.23,7.23,0,0,0-1.07-.2C366.71,521.88,366.27,521.84,366,521.77Z"></path><path class="cls-10" d="M363.85,530.53c0,1.9-1.16,3.5-2.67,3.54s-2.77-1.45-2.82-3.36,1.16-3.49,2.67-3.54S363.81,528.62,363.85,530.53Z"></path><path class="cls-23" d="M358.36,530.71c0,1.91,1.31,3.41,2.82,3.36s2.71-1.63,2.67-3.54a4.06,4.06,0,0,0-.62-2.1l0,.26a1,1,0,0,1-.87,1.15,1,1,0,0,1-.91-1.09,1.05,1.05,0,0,1,.87-1.15h.1a2.31,2.31,0,0,0-1.42-.43C359.52,527.22,358.32,528.8,358.36,530.71Z"></path><path class="cls-23" d="M335.37,518c-.38-.19-.89-.2-1.28-.36a6.68,6.68,0,0,1,1.54.31,3.43,3.43,0,0,0,.75.19,7.83,7.83,0,0,0,.82.05,12.9,12.9,0,0,0-1.79-.64,11.1,11.1,0,0,1,1.51.32c.41.1,1.1.33,1.46.37-.35-.18-.83-.29-1.14-.46.55,0,1.31.33,1.86.4-.27-.29-.67-.38-1-.61a9.57,9.57,0,0,1,2.39,1c-.14-.19-.93-.87-1.13-.85.35,0,1.2.53,1.47.7l.17.1c.29.17.56.43.87.59a6.61,6.61,0,0,0-1.23-1.13,2.83,2.83,0,0,1-.44-.3,5.5,5.5,0,0,1,1.42.86,3.1,3.1,0,0,0-.6-.6,3.24,3.24,0,0,1,1.2.84c.32.33.7.87,1,1.14a7.2,7.2,0,0,0-1.3-1.89,4.67,4.67,0,0,1,1.07,1.06l.69,1a1.08,1.08,0,0,0,.24.32,5.05,5.05,0,0,0-.51-1.24c-.24-.41-.56-.76-.69-1a3.15,3.15,0,0,1,1.11,1.15c.42.68.52,1.06.79,1.53a5,5,0,0,0-.73-1.92c.37.13.64.74.94,1a2.7,2.7,0,0,0-.31-.58c-.12-.17-.27-.31-.36-.47.55.27,1.15,1.7,1.39,2.14a5.64,5.64,0,0,0-.72-2.15,15,15,0,0,1,.85,1.4,4.13,4.13,0,0,0-.23-.92c-.09-.26-.25-.52-.32-.74a8,8,0,0,1,1,2.77c.14-.55-.23-1.2-.29-1.67.08.2.22.4.32.67a24.56,24.56,0,0,1,.51,2.64,4.38,4.38,0,0,0,0-1.49,8.85,8.85,0,0,0-.42-1.36l.36.52a5.58,5.58,0,0,1,.3.66l.24.73a5.2,5.2,0,0,0,.21.72,5.56,5.56,0,0,0-.24-1.46c-.13-.48-.35-.86-.47-1.25a6.52,6.52,0,0,1,.9,2.07,4.39,4.39,0,0,1,.08,1.87,1.36,1.36,0,0,1-.17.49,6.09,6.09,0,0,0-.48-2.27,6.86,6.86,0,0,1,.06,1.86,8.23,8.23,0,0,0-.15-1.52,4,4,0,0,1-.32,1.52,6,6,0,0,0,0-1.11,3.87,3.87,0,0,1-.23,1.19c0-.24.07-.46.08-.72s0-.63-.14-.81a1.59,1.59,0,0,1-.2.94c0-.42.09-.77.07-1.23a2.38,2.38,0,0,0-.29-1.18c0,.29.18.89.2,1.4a3.94,3.94,0,0,1-.14,1.21s-.16-1.52-.22-1.79a2.87,2.87,0,0,0-.56-1.46c.05.26.38,1,.5,1.54a5,5,0,0,1,.08,1.68,6.06,6.06,0,0,0-.25-1.61,6.75,6.75,0,0,1-.06,1.37c-.05-.34,0-.73-.06-1.13a4.68,4.68,0,0,0-.33-1,9.14,9.14,0,0,1,.19,2.2c-.06-.08-.24-.59-.31-.72a10.11,10.11,0,0,0-1.17-1.84,11.57,11.57,0,0,1,1.16,2.27,7,7,0,0,0-.5-.85c-.17-.25-.39-.5-.56-.72l.85,1.45a13.48,13.48,0,0,0-2.38-2.25c.15.18.36.36.55.55a14.55,14.55,0,0,1,1.5,1.69,2.89,2.89,0,0,1-.41-.38,13.13,13.13,0,0,0-1.11-1l-.13-.08a3.59,3.59,0,0,0,.46.51,3.9,3.9,0,0,1,.44.48c-.29-.13-1.08-1-1.45-1.16l.19.29a4.38,4.38,0,0,0-1.41-1,1.64,1.64,0,0,0,.25.21c.15.12.51.52.62.57a11.3,11.3,0,0,0-1.66-1c.24.27.6.44.82.72-.54-.23-1-.62-1.54-.87.15.15.32.18.46.37-.31-.08-.56-.33-.87-.41l.29.25c-.28-.1-.5-.28-.76-.4-.1-.05,0,0-.12,0l.31.29c-.3-.1-.61-.35-.94-.43l.08.06.05,0,.21.12,0,0,0,0,0,0a7,7,0,0,1-1.19-.22,5.6,5.6,0,0,0-1-.4l.2.11.19.13c-.21,0-.51-.15-.73-.2a13.78,13.78,0,0,0-5.86.07A15.91,15.91,0,0,0,327,521c-.58.26-2.36,1.13-2.81,1.26l.12-.09.1-.07.58-.38.76-.52,1.45-1.12a11.71,11.71,0,0,1,2.67-1.34c.26-.11.77-.25,1-.37l-.79.12a12.28,12.28,0,0,1,3.73-.5l-.32-.07-.18,0-.15,0a9.61,9.61,0,0,1,1.19.07A8.9,8.9,0,0,0,335.37,518Z"></path><path class="cls-10" d="M342,524.27c-1.5-.23-2.86,1.12-3,3s.89,3.61,2.4,3.84,2.87-1.12,3.05-3S343.47,524.49,342,524.27Z"></path><path class="cls-23" d="M341.32,531.12c-1.51-.22-2.58-2-2.4-3.84s1.54-3.24,3-3a2.52,2.52,0,0,1,1.61,1l-.2-.06c-.49-.08-.94.35-1,1a1.08,1.08,0,0,0,.77,1.24c.49.08.93-.36,1-1v-.13a4.35,4.35,0,0,1,.22,1.82C344.19,530,342.82,531.35,341.32,531.12Z"></path><path class="cls-25" d="M351.65,550.05a19.43,19.43,0,0,1-3.92-.47.46.46,0,1,1,.19-.89c3,.64,5.6.58,6.39-.17a.6.6,0,0,0,.2-.59c-.8-5-1.36-8.59-1.81-13.55a.45.45,0,0,1,.41-.49h.05a.46.46,0,0,1,.45.41c.44,4.93,1,8.54,1.8,13.48a1.55,1.55,0,0,1-.47,1.41A5,5,0,0,1,351.65,550.05Z"></path><path class="cls-3" d="M337.14,558.29q14.33,10.08,20.52,3.29Q339.18,559.74,337.14,558.29Z"></path><path class="cls-8" d="M1533.81,547l-13.13,7.64a9.34,9.34,0,0,0-3.36,12.73l2.89,5c3.42,5.88,1.94,8.54.88,9.48-2.93,2.62-5.63,5.46-8.35,8.28-.8.84-3.34,3.68-10-.21l-4.58-2.65a9.33,9.33,0,0,0-12.73,3.37l-7.63,13.12a9.33,9.33,0,0,0,3.36,12.73l4.53,2.63c6.26,3.64,6.11,5.51,5.31,8.16-1.09,3.64-2.25,7.29-3,11.06-.71,3.36-.39,5.76-8.9,5.76h-5.22a9.33,9.33,0,0,0-9.31,9.31v15.19a9.33,9.33,0,0,0,9.31,9.31H1479c8.51,0,8.19,2.4,8.9,5.75.8,3.77,2,7.42,3,11.06.8,2.66,1,4.53-5.31,8.16l-4.53,2.63a9.33,9.33,0,0,0-3.36,12.73l7.63,13.13a9.33,9.33,0,0,0,12.73,3.37l4.58-2.66c6.67-3.88,9.21-1,10-.21,2.72,2.83,5.42,5.67,8.35,8.28,1.06,1,2.54,3.6-.88,9.49l-2.89,5a9.33,9.33,0,0,0,3.36,12.72l13.13,7.64a9.33,9.33,0,0,0,12.73-3.37l2.89-5c3.47-6,6.89-5.73,8.33-5.26,4.19,1.33,8,2.19,12.37,3.31,1.58.41,4.29,1.56,4.29,8.67v5.33a9.33,9.33,0,0,0,9.3,9.31h15.19a9.33,9.33,0,0,0,9.31-9.31v-5.33c0-7.11,2.7-8.26,4.28-8.67,4.32-1.12,8.19-2,12.37-3.31,1.45-.47,4.87-.7,8.33,5.26l2.89,5a9.33,9.33,0,0,0,12.73,3.37l13.13-7.64a9.34,9.34,0,0,0,3.37-12.72l-2.91-5c-3.42-5.89-1.92-8.54-.86-9.49,2.93-2.61,5.63-5.45,8.34-8.28.81-.83,3.34-3.67,10,.21l4.57,2.66a9.33,9.33,0,0,0,12.73-3.37l7.63-13.13a9.34,9.34,0,0,0-3.36-12.73l-4.54-2.63c-6.25-3.63-6.09-5.5-5.29-8.16,1.08-3.64,2.25-7.29,3-11.06.7-3.35.38-5.75,8.9-5.75h5.22a9.33,9.33,0,0,0,9.3-9.31V653.43a9.32,9.32,0,0,0-9.3-9.31h-5.22c-8.52,0-8.2-2.4-8.9-5.76-.8-3.77-2-7.42-3-11.06-.8-2.65-1-4.52,5.29-8.16l4.54-2.63a9.34,9.34,0,0,0,3.36-12.73l-7.63-13.12a9.33,9.33,0,0,0-12.73-3.37l-4.57,2.65c-6.68,3.89-9.21,1-10,.21-2.71-2.82-5.41-5.66-8.34-8.28-1.06-.94-2.56-3.6.86-9.48l2.91-5a9.35,9.35,0,0,0-3.37-12.73L1648.82,547a9.35,9.35,0,0,0-12.73,3.37l-2.89,5c-3.46,6-6.88,5.74-8.33,5.27-4.18-1.33-8-2.19-12.37-3.32-1.58-.4-4.28-1.55-4.28-8.67v-5.32a9.33,9.33,0,0,0-9.31-9.31h-15.19a9.32,9.32,0,0,0-9.3,9.31v5.32c0,7.12-2.71,8.27-4.29,8.67-4.32,1.13-8.18,2-12.37,3.32-1.44.47-4.86.7-8.33-5.27l-2.89-5a9.35,9.35,0,0,0-12.73-3.37ZM1591.32,641A20.05,20.05,0,1,1,1571.26,661,20.06,20.06,0,0,1,1591.32,641ZM1528.45,661a4.29,4.29,0,1,1,8.58,0,54.29,54.29,0,0,0,54.29,54.27,4.29,4.29,0,0,1,0,8.58A62.86,62.86,0,0,1,1528.45,661Zm124.9-10.13a4.27,4.27,0,1,1-8.44,1.33,54.33,54.33,0,0,0-44.28-44.7,4.28,4.28,0,0,1,1.44-8.44,62.87,62.87,0,0,1,51.28,51.81Zm-62-64.36A74.49,74.49,0,1,1,1516.83,661,74.49,74.49,0,0,1,1591.32,586.54Z"></path><path class="cls-26" d="M1712.71,531.51a33.89,33.89,0,1,1,33.88-33.88,33.88,33.88,0,0,1-33.88,33.88Zm61.53-28.8c.15-1.68.23-3.38.23-5.08s-.08-3.41-.23-5.09c-21.39-6.72-25.11-15.43-14.6-35.05a64.11,64.11,0,0,0-6.79-6.8c-19.63,10.51-28.34,6.79-35.06-14.61-1.67-.14-3.37-.22-5.08-.22s-3.41.08-5.08.22c-6.72,21.4-15.43,25.12-35.07,14.61a63.09,63.09,0,0,0-6.78,6.8c10.5,19.62,6.78,28.33-14.61,35.05-.14,1.68-.23,3.37-.23,5.09s.09,3.4.23,5.08c21.39,6.72,25.11,15.43,14.61,35.05a62.1,62.1,0,0,0,6.78,6.79c19.64-10.5,28.34-6.77,35.07,14.62,1.67.13,3.36.22,5.08.22s3.41-.09,5.08-.22c6.72-21.4,15.43-25.12,35.06-14.62a62.19,62.19,0,0,0,6.79-6.79C1749.13,518.14,1752.85,509.43,1774.24,502.71Z"></path><path class="cls-27" d="M1756.15,534.78a56.6,56.6,0,0,1-6.3,6.28c-18.16-9.72-26.22-6.27-32.44,13.53-1.55.12-3.12.21-4.7.21s-3.16-.09-4.71-.21c-6.22-19.8-14.28-23.25-32.45-13.53a60.15,60.15,0,0,1-6.29-6.28c9.73-18.17,6.29-26.23-13.52-32.45-.13-1.56-.21-3.13-.21-4.7s.08-3.16.21-4.72c19.81-6.21,23.25-14.27,13.52-32.44a59.2,59.2,0,0,1,6.29-6.28c18.17,9.72,26.23,6.27,32.45-13.53,1.55-.13,3.12-.21,4.71-.21s3.15.08,4.7.21c6.22,19.8,14.28,23.25,32.44,13.53a57.47,57.47,0,0,1,6.3,6.28c-9.72,18.17-6.28,26.23,13.52,32.44.13,1.56.21,3.12.21,4.72s-.08,3.14-.21,4.7c-19.8,6.22-23.24,14.28-13.52,32.45Zm18.09-32.07c.15-1.68.23-3.38.23-5.08s-.08-3.41-.23-5.09c-21.39-6.72-25.11-15.43-14.6-35.05a64.11,64.11,0,0,0-6.79-6.8c-19.63,10.51-28.34,6.79-35.06-14.61-1.67-.14-3.37-.22-5.08-.22s-3.41.08-5.08.22c-6.72,21.4-15.43,25.12-35.07,14.61a63.09,63.09,0,0,0-6.78,6.8c10.5,19.62,6.78,28.33-14.61,35.05-.14,1.68-.23,3.37-.23,5.09s.09,3.4.23,5.08c21.39,6.72,25.11,15.43,14.61,35.05a62.1,62.1,0,0,0,6.78,6.79c19.64-10.5,28.34-6.77,35.07,14.62,1.67.13,3.36.22,5.08.22s3.41-.09,5.08-.22c6.72-21.4,15.43-25.12,35.06-14.62a62.19,62.19,0,0,0,6.79-6.79C1749.13,518.14,1752.85,509.43,1774.24,502.71Z"></path><path class="cls-27" d="M1712.71,522.36a24.74,24.74,0,1,1,24.72-24.73,24.73,24.73,0,0,1-24.72,24.73Zm0-54.73a30,30,0,1,0,30,30A30,30,0,0,0,1712.71,467.63Z"></path><path class="cls-26" d="M151.45,790.39A52.4,52.4,0,1,1,203.85,738a52.4,52.4,0,0,1-52.4,52.39Zm95.17-44.53c.21-2.6.34-5.21.34-7.87s-.13-5.26-.34-7.86c-33.09-10.39-38.84-23.85-22.6-54.2a94.64,94.64,0,0,0-10.5-10.5c-30.35,16.24-43.82,10.48-54.21-22.6-2.59-.21-5.21-.35-7.86-.35s-5.27.14-7.87.35c-10.38,33.08-23.85,38.84-54.2,22.59a97.38,97.38,0,0,0-10.5,10.51c16.24,30.35,10.49,43.82-22.6,54.2-.21,2.6-.35,5.22-.35,7.86s.14,5.27.35,7.87c33.09,10.38,38.84,23.86,22.6,54.2a98.2,98.2,0,0,0,10.5,10.5c30.35-16.24,43.82-10.49,54.2,22.6,2.6.21,5.22.35,7.87.35s5.27-.14,7.86-.35c10.39-33.09,23.86-38.84,54.21-22.6a96.39,96.39,0,0,0,10.5-10.5C207.78,769.72,213.53,756.24,246.62,745.86Z"></path><path class="cls-27" d="M218.63,795.45a91.12,91.12,0,0,1-9.73,9.72c-28.09-15-40.55-9.71-50.17,20.91-2.4.19-4.83.32-7.28.32s-4.87-.13-7.28-.32c-9.61-30.62-22.08-36-50.17-20.91a91,91,0,0,1-9.72-9.72c15-28.1,9.71-40.56-20.91-50.18-.2-2.4-.33-4.83-.33-7.28s.13-4.87.33-7.28C94,721.1,99.32,708.64,84.28,680.55A89.21,89.21,0,0,1,94,670.83c28.09,15,40.56,9.7,50.17-20.92,2.41-.2,4.83-.33,7.28-.33s4.88.13,7.28.33c9.62,30.62,22.08,36,50.17,20.92a88.42,88.42,0,0,1,9.73,9.72c-15,28.09-9.71,40.55,20.91,50.16.19,2.41.32,4.83.32,7.28s-.13,4.88-.32,7.28c-30.62,9.62-35.95,22.08-20.91,50.18Zm28-49.59c.21-2.6.34-5.21.34-7.87s-.13-5.26-.34-7.86c-33.09-10.39-38.84-23.85-22.6-54.2a94.64,94.64,0,0,0-10.5-10.5c-30.35,16.24-43.82,10.48-54.21-22.6-2.59-.21-5.21-.35-7.86-.35s-5.27.14-7.87.35c-10.38,33.08-23.85,38.84-54.2,22.59a97.38,97.38,0,0,0-10.5,10.51c16.24,30.35,10.49,43.82-22.6,54.2-.21,2.6-.35,5.22-.35,7.86s.14,5.27.35,7.87c33.09,10.38,38.84,23.86,22.6,54.2a98.2,98.2,0,0,0,10.5,10.5c30.35-16.24,43.82-10.49,54.2,22.6,2.6.21,5.22.35,7.87.35s5.27-.14,7.86-.35c10.39-33.09,23.86-38.84,54.21-22.6a96.39,96.39,0,0,0,10.5-10.5C207.78,769.72,213.53,756.24,246.62,745.86Z"></path><path class="cls-27" d="M151.45,776.23A38.24,38.24,0,1,1,189.69,738a38.23,38.23,0,0,1-38.24,38.24Zm0-84.61A46.38,46.38,0,1,0,197.83,738,46.37,46.37,0,0,0,151.45,691.62Z"></path></g></g></svg>