<svg xmlns="http://www.w3.org/2000/svg" xmlns:xlink="http://www.w3.org/1999/xlink" viewBox="0 0 373.17 309.71"><defs><style>.cls-1{fill:none;}.cls-2{fill:#527bef;}.cls-15,.cls-3{fill:#fff;}.cls-4{fill:#fbdfb0;}.cls-5{fill:#ffa836;}.cls-6{fill:#fcf5eb;}.cls-7{fill:#fcc370;}.cls-8{fill:#6e8df9;}.cls-9{fill:#aebfff;}.cls-10{fill:#f9cc8c;}.cls-11{fill:#cdf3f7;}.cls-12{clip-path:url(#clip-path);}.cls-13{opacity:0.5;}.cls-14{fill:#ebfeff;}.cls-15{opacity:0.3;}.cls-16{clip-path:url(#clip-path-2);}.cls-17{fill:#44e2ae;}.cls-18{fill:#29d396;}.cls-19{fill:#2853c9;}</style><clipPath id="clip-path"><rect id="SVGID" class="cls-1" x="63.63" y="153.21" width="73.23" height="69"></rect></clipPath><clipPath id="clip-path-2"><rect id="SVGID-2" data-name="SVGID" class="cls-1" x="203.65" y="153.21" width="73.23" height="69"></rect></clipPath></defs><title>Asset 1</title><g id="Layer_2" data-name="Layer 2"><g id="OBJECTS"><ellipse class="cls-2" cx="171.03" cy="254.68" rx="156.21" ry="20.22"></ellipse><path class="cls-3" d="M326.32,88.67V75.75L316,73.42a35.91,35.91,0,0,0-4.06-9.81l5.67-9-9.14-9.13-9,5.67a36.11,36.11,0,0,0-9.81-4.07l-2.32-10.34H274.43L272.1,47.12a36.25,36.25,0,0,0-9.81,4.07l-9-5.67-9.13,9.13,5.67,9a36.25,36.25,0,0,0-4.07,9.81l-10.34,2.33V88.67L245.8,91a36.18,36.18,0,0,0,4.07,9.8l-5.67,9,9.13,9.14,9-5.67a35.91,35.91,0,0,0,9.81,4.06l2.33,10.35h12.92l2.32-10.35a35.78,35.78,0,0,0,9.81-4.06l9,5.67,9.14-9.14-5.67-9A35.85,35.85,0,0,0,316,91Zm-45.43,8.78a15.24,15.24,0,1,1,15.24-15.24A15.24,15.24,0,0,1,280.89,97.45Z"></path><rect class="cls-4" x="56.04" y="119.21" width="228" height="133.39"></rect><path class="cls-5" d="M45.48,141a12.42,12.42,0,0,0,12.44-12.4H33A12.42,12.42,0,0,0,45.48,141Z"></path><path class="cls-6" d="M70.37,141a12.42,12.42,0,0,0,12.44-12.4H57.92A12.42,12.42,0,0,0,70.37,141Z"></path><path class="cls-5" d="M95.25,141a12.42,12.42,0,0,0,12.44-12.4H82.81A12.42,12.42,0,0,0,95.25,141Z"></path><path class="cls-6" d="M120.13,141a12.42,12.42,0,0,0,12.45-12.4H107.69A12.42,12.42,0,0,0,120.13,141Z"></path><path class="cls-5" d="M145,141a12.42,12.42,0,0,0,12.44-12.4H132.58A12.42,12.42,0,0,0,145,141Z"></path><path class="cls-6" d="M169.9,141a12.42,12.42,0,0,0,12.45-12.4H157.46A12.42,12.42,0,0,0,169.9,141Z"></path><path class="cls-5" d="M194.79,141a12.42,12.42,0,0,0,12.44-12.4H182.35A12.42,12.42,0,0,0,194.79,141Z"></path><path class="cls-6" d="M219.68,141a12.42,12.42,0,0,0,12.44-12.4H207.23A12.42,12.42,0,0,0,219.68,141Z"></path><path class="cls-5" d="M244.56,141A12.42,12.42,0,0,0,257,128.59H232.12A12.42,12.42,0,0,0,244.56,141Z"></path><path class="cls-6" d="M269.45,141a12.42,12.42,0,0,0,12.44-12.4H257A12.42,12.42,0,0,0,269.45,141Z"></path><path class="cls-5" d="M294.33,141a12.42,12.42,0,0,0,12.44-12.4H281.89A12.42,12.42,0,0,0,294.33,141Z"></path><polygon class="cls-7" points="307.04 128.59 33.04 128.59 57.07 93.28 283 93.28 307.04 128.59"></polygon><polygon class="cls-3" points="82.81 128.59 99.25 93.28 78.59 93.28 57.92 128.59 82.81 128.59"></polygon><polygon class="cls-3" points="132.58 128.59 142.8 93.28 121.14 93.28 107.69 128.59 132.58 128.59"></polygon><polygon class="cls-3" points="177.35 93.28 162.46 93.28 157.46 128.59 182.35 128.59 177.35 93.28"></polygon><polygon class="cls-3" points="257 128.59 240.56 93.28 261.23 93.28 281.89 128.59 257 128.59"></polygon><polygon class="cls-3" points="207.23 128.59 197.01 93.28 218.68 93.28 232.12 128.59 207.23 128.59"></polygon><rect class="cls-5" x="57.07" y="82.21" width="225.96" height="11.07"></rect><rect class="cls-8" x="144.06" y="158.21" width="51.99" height="94.39"></rect><rect class="cls-9" x="149.07" y="164.31" width="41.96" height="88.29"></rect><rect class="cls-10" x="56.04" y="223.71" width="88.02" height="5.83"></rect><rect class="cls-10" x="196.05" y="223.71" width="88.02" height="5.83"></rect><rect class="cls-11" x="63.63" y="153.21" width="73.23" height="69"></rect><g class="cls-12"><g class="cls-13"><rect class="cls-14" x="-13.97" y="128.92" width="243.34" height="12.01" transform="translate(-63.85 115.5) rotate(-44.94)"></rect><rect class="cls-14" x="-13.98" y="157.72" width="243.34" height="6.59" transform="translate(-82.27 123.12) rotate(-44.94)"></rect><rect class="cls-14" x="-3.15" y="185.77" width="243.34" height="3.88" transform="translate(-97.97 138.58) rotate(-44.94)"></rect><rect class="cls-14" x="21.13" y="184.58" width="243.34" height="12.01" transform="translate(-92.91 156.57) rotate(-44.94)"></rect></g></g><polygon class="cls-15" points="63.63 222.21 136.87 153.21 136.87 222.21 63.63 222.21"></polygon><path class="cls-3" d="M138.37,223.71H62.13v-72h76.24Zm-73.24-3h70.24v-66H65.13Z"></path><rect class="cls-11" x="203.65" y="153.21" width="73.23" height="69"></rect><g class="cls-16"><g class="cls-13"><rect class="cls-14" x="126.04" y="128.92" width="243.34" height="12.01" transform="translate(-22.93 214.41) rotate(-44.94)"></rect><rect class="cls-14" x="126.04" y="157.72" width="243.34" height="6.59" transform="translate(-41.36 222.03) rotate(-44.94)"></rect><rect class="cls-14" x="136.87" y="185.77" width="243.34" height="3.88" transform="translate(-57.05 237.49) rotate(-44.94)"></rect><rect class="cls-14" x="161.14" y="184.58" width="243.34" height="12.01" transform="translate(-51.99 255.48) rotate(-44.94)"></rect></g></g><polygon class="cls-15" points="203.65 222.21 276.88 153.21 276.88 222.21 203.65 222.21"></polygon><path class="cls-3" d="M278.68,223.71H202.44v-72h76.24Zm-73.24-3h70.24v-66H205.44Z"></path><g class="cls-13"><rect class="cls-10" x="56.04" y="237.21" width="10" height="4.5"></rect><rect class="cls-10" x="64.04" y="244.21" width="10" height="4.5"></rect><rect class="cls-10" x="70.04" y="237.21" width="10" height="4.5"></rect><rect class="cls-10" x="78.04" y="244.21" width="10" height="4.5"></rect><rect class="cls-10" x="84.04" y="237.21" width="10" height="4.5"></rect><rect class="cls-10" x="92.04" y="244.21" width="10" height="4.5"></rect><rect class="cls-10" x="98.04" y="237.21" width="10" height="4.5"></rect><rect class="cls-10" x="106.04" y="244.21" width="10" height="4.5"></rect><rect class="cls-10" x="112.04" y="237.21" width="10" height="4.5"></rect><rect class="cls-10" x="120.04" y="244.21" width="10" height="4.5"></rect><rect class="cls-10" x="126.04" y="237.21" width="10" height="4.5"></rect><rect class="cls-10" x="134.04" y="244.21" width="10" height="4.5"></rect><rect class="cls-10" x="274.06" y="237.21" width="10" height="4.5"></rect><rect class="cls-10" x="266.06" y="244.21" width="10" height="4.5"></rect><rect class="cls-10" x="260.06" y="237.21" width="10" height="4.5"></rect><rect class="cls-10" x="252.06" y="244.21" width="10" height="4.5"></rect><rect class="cls-10" x="246.06" y="237.21" width="10" height="4.5"></rect><rect class="cls-10" x="238.06" y="244.21" width="10" height="4.5"></rect><rect class="cls-10" x="232.06" y="237.21" width="10" height="4.5"></rect><rect class="cls-10" x="224.06" y="244.21" width="10" height="4.5"></rect><rect class="cls-10" x="218.06" y="237.21" width="10" height="4.5"></rect><rect class="cls-10" x="210.06" y="244.21" width="10" height="4.5"></rect><rect class="cls-10" x="204.06" y="237.21" width="10" height="4.5"></rect><rect class="cls-10" x="196.06" y="244.21" width="10" height="4.5"></rect></g><path class="cls-3" d="M184.28,182.78l-14-12.51a.47.47,0,0,0-.3-.13h-.11a.47.47,0,0,0-.3.13l-14,12.51c-.48.44.23,1.15.72.72l13.63-12.2,13.64,12.2C184.05,183.93,184.76,183.22,184.28,182.78Z"></path><rect class="cls-8" x="153.87" y="180.83" width="32.07" height="14.84"></rect><path class="cls-3" d="M163.45,188.14a3,3,0,0,1-5.9,0,3,3,0,0,1,5.9,0Zm-4.08,0a1.22,1.22,0,0,0,1.15,1.28,1.18,1.18,0,0,0,1.1-1.28,1.17,1.17,0,0,0-1.1-1.26A1.2,1.2,0,0,0,159.37,188.15Z"></path><path class="cls-3" d="M167.23,185.47c1.39,0,2.19.69,2.19,1.92a1.93,1.93,0,0,1-2.19,2.05h-.74v1.39h-1.78v-5.36Zm-.74,2.62h.65a.57.57,0,0,0,.6-.65.56.56,0,0,0-.6-.63h-.65Z"></path><path class="cls-3" d="M172.5,186.81v.66H175v1.35H172.5v.66h2.83v1.35h-4.6v-5.36h4.54v1.34Z"></path><path class="cls-3" d="M180.5,190.83l-2.11-2.74v2.74h-1.61v-5.36h1.48l2.12,2.75v-2.75H182v5.36Z"></path><path class="cls-17" d="M317,181.41c1.34-14.12-2.89-26.3-19-26.5h-.38c-16.11.2-20.34,12.38-19,26.5s-10,17.75-7.44,30.73c3.22,16.29,24.48,14.63,26.63,14.42,2.15.21,23.41,1.87,26.62-14.42C327,199.16,315.69,195.65,317,181.41Z"></path><path class="cls-18" d="M317,181.41c1.13-11.84-1.67-22.31-12.09-25.5,5.65,4.77,7.16,13.17,6.28,22.41-1.35,14.23,10,17.74,7.43,30.72-3.21,16.29-24.47,14.63-26.62,14.42a38.17,38.17,0,0,1-15-1.65c7.48,5.82,19.2,4.91,20.77,4.75,2.15.21,23.41,1.87,26.62-14.42C327,199.16,315.69,195.65,317,181.41Z"></path><path class="cls-19" d="M311.22,197.77l-13.56,16.62V180.83a.63.63,0,0,0-1.25,0v24.79L285.22,191.9c-.51-.63-1.39.26-.89.88l11.89,14.57a.47.47,0,0,0,.19.16v60.73a.63.63,0,0,0,1.25,0V216.36l14.45-17.7C312.61,198,311.73,197.15,311.22,197.77Z"></path><path class="cls-17" d="M64.23,181.41c1.34-14.12-2.89-26.3-19-26.5h-.38c-16.11.2-20.35,12.38-19,26.5s-10,17.75-7.43,30.73c3.22,16.29,24.48,14.63,26.63,14.42,2.15.21,23.41,1.87,26.62-14.42C74.23,199.16,62.88,195.65,64.23,181.41Z"></path><path class="cls-18" d="M64.23,181.41c1.12-11.84-1.67-22.31-12.1-25.5,5.66,4.77,7.16,13.17,6.29,22.41-1.35,14.23,10,17.74,7.43,30.72-3.22,16.29-24.47,14.63-26.62,14.42a38.17,38.17,0,0,1-15-1.65c7.48,5.82,19.2,4.91,20.77,4.75,2.15.21,23.41,1.87,26.62-14.42C74.23,199.16,62.88,195.65,64.23,181.41Z"></path><path class="cls-19" d="M58.41,197.77,44.85,214.39V180.83a.63.63,0,0,0-1.25,0v24.79Q38,198.77,32.4,191.9c-.51-.63-1.39.26-.88.88l11.89,14.57a.47.47,0,0,0,.19.16v60.73a.63.63,0,0,0,1.25,0V216.36l14.44-17.7C59.8,198,58.92,197.15,58.41,197.77Z"></path><path class="cls-3" d="M208.92,244.94a39.2,39.2,0,1,0-71.2,22.62h0c.56.79,1.14,1.56,1.75,2.3l30.25,39.84L200,269.86c.6-.74,1.17-1.51,1.72-2.28l0,0h0A39,39,0,0,0,208.92,244.94Zm-39.19,15.64A15.61,15.61,0,1,1,185.34,245,15.61,15.61,0,0,1,169.73,260.58Z"></path><path class="cls-8" d="M86.4,70.2A34.48,34.48,0,1,1,51.92,35.72,34.47,34.47,0,0,1,86.4,70.2Z"></path><path class="cls-9" d="M79.71,70.2A27.79,27.79,0,1,1,51.92,42.41,27.79,27.79,0,0,1,79.71,70.2Z"></path><path class="cls-3" d="M63.12,73.53c0,4.8-3.75,7.32-8.58,7.82V87H49.1V81.14a19.89,19.89,0,0,1-8.54-3.68l2.81-5.69c2.59,2.2,6.81,3.85,9.4,3.85,1.59,0,2.6-.54,2.6-1.69,0-3.82-13.19-1.41-13.19-10.31,0-3.89,2.63-6.63,6.92-7.6v-5.7h5.44v5.44a19.75,19.75,0,0,1,8.65,2.81l-2.78,5.77c-2.59-1.48-6.27-2.81-8.4-2.81-1.26,0-2.09.43-2.09,1.37C49.92,66.61,63.12,64.41,63.12,73.53Z"></path><path class="cls-3" d="M209.79,76.62l-1.93-5.71a20.53,20.53,0,0,1-5.26-1.55l-4.73,3.74-6.24-5,2.67-5.41a20.56,20.56,0,0,1-2.61-4.81l-6-.7-.85-8,5.71-1.93A20.89,20.89,0,0,1,192.12,42l-3.74-4.73L193.43,31l5.4,2.68A20.3,20.3,0,0,1,203.65,31l.7-6,8-.84,1.94,5.71a20.58,20.58,0,0,1,5.25,1.55l4.73-3.74,6.24,5.05-2.67,5.41A21,21,0,0,1,230.44,43l6,.7.84,8-5.71,1.93A20.48,20.48,0,0,1,230,58.87l3.75,4.73-5.06,6.24-5.4-2.67a20.11,20.11,0,0,1-4.82,2.62l-.69,6Zm-7.33-8.43.28.13A19.78,19.78,0,0,0,208.3,70l.31,0,1.87,5.53,6.4-.67.67-5.8.29-.11a19.64,19.64,0,0,0,5.09-2.77l.25-.18,5.24,2.58,4-5L228.84,59l.13-.28a19.57,19.57,0,0,0,1.64-5.56l0-.3L236.19,51l-.67-6.4-5.81-.68-.1-.29a19.81,19.81,0,0,0-2.77-5.09l-.19-.24,2.59-5.24-5-4.05-4.58,3.63-.28-.13a19.78,19.78,0,0,0-5.56-1.65l-.3,0-1.88-5.53-6.39.67-.68,5.8-.29.11a19.64,19.64,0,0,0-5.09,2.77l-.25.18-5.24-2.58-4,5,3.62,4.59-.13.28a19.6,19.6,0,0,0-1.64,5.55l0,.31-5.54,1.87.68,6.4,5.8.68.11.29a19.37,19.37,0,0,0,2.77,5.09l.18.24-2.59,5.24,5,4ZM211.05,58a7.52,7.52,0,1,1,.8,0A7.14,7.14,0,0,1,211.05,58Zm0-14.11a5.58,5.58,0,0,0-.7,0,6.56,6.56,0,0,0-5.83,7.2,6.56,6.56,0,1,0,6.53-7.24Z"></path><path class="cls-8" d="M122,70.63A20.92,20.92,0,1,1,143,49.72,20.94,20.94,0,0,1,122,70.63Zm0-40.83A19.92,19.92,0,1,0,142,49.72,19.94,19.94,0,0,0,122,29.8Z"></path><path class="cls-8" d="M122,65.74a16,16,0,1,1,16-16A16,16,0,0,1,122,65.74Zm0-31a15,15,0,1,0,15,15A15,15,0,0,0,122,34.69Z"></path><path class="cls-8" d="M124,60.61h-4V57.24a11.38,11.38,0,0,1-4.58-2.07l-.32-.25,2-4.12.49.41a9.27,9.27,0,0,0,4.93,2c.44,0,.95-.08.95-.45s-1.1-.74-2.17-1c-2.2-.57-5.2-1.35-5.2-4.74,0-2.24,1.44-3.95,3.87-4.64V39.11h4V42.2a11.28,11.28,0,0,1,4.6,1.6L129,44l-2,4.1-.47-.26a11.2,11.2,0,0,0-4.44-1.51c-.25,0-.67,0-.67.27,0,.43,1.08.72,2.12,1,2.21.6,5.25,1.44,5.25,4.93,0,2.58-1.78,4.35-4.79,4.81Zm-3-1h2V56.5l.45,0c1.3-.13,4.34-.79,4.34-3.87,0-2.73-2.4-3.39-4.52-4-1.46-.4-2.85-.78-2.85-2,0-.61.44-1.27,1.67-1.27a11.57,11.57,0,0,1,4.47,1.38l1.12-2.34a10.74,10.74,0,0,0-4.23-1.26l-.45,0v-3h-2v3.08l-.39.09c-2.21.5-3.48,1.87-3.48,3.76,0,2.62,2.36,3.23,4.45,3.77,1.5.39,2.92.76,2.92,2,0,.34-.14,1.45-1.95,1.45a9.94,9.94,0,0,1-5.08-1.89l-1.11,2.26a10.79,10.79,0,0,0,4.23,1.72l.41.07Z"></path><path class="cls-3" d="M323.24,159.73a14.82,14.82,0,1,1,14.82-14.82A14.84,14.84,0,0,1,323.24,159.73Zm0-28.89a14.07,14.07,0,1,0,14.07,14.07A14.08,14.08,0,0,0,323.24,130.84Z"></path><path class="cls-3" d="M323.24,156.26a11.36,11.36,0,1,1,11.36-11.35A11.37,11.37,0,0,1,323.24,156.26Zm0-22a10.61,10.61,0,1,0,10.61,10.61A10.62,10.62,0,0,0,323.24,134.3Z"></path><path class="cls-3" d="M324.65,152.63h-2.9v-2.39a8.1,8.1,0,0,1-3.23-1.46l-.24-.19,1.46-3,.36.31a6.5,6.5,0,0,0,3.48,1.43c.29,0,.65,0,.65-.29s-.78-.51-1.52-.7c-1.56-.41-3.7-1-3.7-3.38a3.38,3.38,0,0,1,2.74-3.29v-2.34h2.9v2.19a8.1,8.1,0,0,1,3.25,1.13l.27.18-1.41,2.94-.35-.2a8,8,0,0,0-3.13-1.06c-.14,0-.45,0-.45.17s.78.5,1.48.69c1.48.41,3.73,1,3.73,3.51,0,1.83-1.26,3.09-3.39,3.42Zm-2.15-.75h1.4v-2.19l.34,0c.91-.1,3.05-.55,3.05-2.72,0-1.91-1.69-2.38-3.18-2.79-1.05-.28-2-.55-2-1.41,0-.45.31-.92,1.2-.92a8.12,8.12,0,0,1,3.15,1l.78-1.62a7.58,7.58,0,0,0-3-.88l-.34,0v-2.12h-1.4v2.18l-.29.06a2.74,2.74,0,0,0-2.45,2.64c0,1.84,1.67,2.27,3.13,2.65,1.07.28,2.09.54,2.09,1.43,0,.24-.1,1-1.4,1a7.08,7.08,0,0,1-3.59-1.32l-.77,1.56a7.62,7.62,0,0,0,3,1.2l.31.05Z"></path><path class="cls-8" d="M14.82,134.25a14.82,14.82,0,1,1,14.82-14.82A14.84,14.84,0,0,1,14.82,134.25Zm0-28.89a14.07,14.07,0,1,0,14.07,14.07A14.08,14.08,0,0,0,14.82,105.36Z"></path><path class="cls-8" d="M14.82,130.79a11.36,11.36,0,1,1,11.36-11.36A11.38,11.38,0,0,1,14.82,130.79Zm0-22a10.61,10.61,0,1,0,10.61,10.61A10.62,10.62,0,0,0,14.82,108.82Z"></path><path class="cls-8" d="M16.23,127.16h-2.9v-2.39a8.05,8.05,0,0,1-3.23-1.47l-.24-.19,1.45-3,.37.31a6.51,6.51,0,0,0,3.48,1.44c.29,0,.65-.06.65-.3s-.78-.51-1.53-.7c-1.55-.4-3.69-1-3.69-3.37a3.39,3.39,0,0,1,2.74-3.3V111.9h2.9v2.19a8,8,0,0,1,3.25,1.14l.27.18-1.41,2.94-.35-.2a7.86,7.86,0,0,0-3.13-1.06c-.14,0-.46,0-.46.16s.79.5,1.49.69c1.48.41,3.73,1,3.73,3.51,0,1.83-1.26,3.1-3.39,3.43Zm-2.15-.75h1.4v-2.2l.33,0c.92-.09,3.06-.55,3.06-2.72,0-1.91-1.69-2.37-3.18-2.78-1-.29-2-.56-2-1.42,0-.44.32-.91,1.21-.91a8.31,8.31,0,0,1,3.15,1l.78-1.61a7.64,7.64,0,0,0-3-.89l-.34,0v-2.12h-1.4v2.18l-.29.07a2.72,2.72,0,0,0-2.45,2.64c0,1.83,1.66,2.26,3.13,2.64,1.07.28,2.09.54,2.09,1.43,0,.25-.11,1-1.4,1a7.1,7.1,0,0,1-3.59-1.33l-.77,1.56a7.62,7.62,0,0,0,3,1.2l.31.06Z"></path><polygon class="cls-3" points="271.99 18.54 270.85 14.58 269.7 18.54 265.93 19.69 269.7 20.83 270.85 24.79 271.99 20.83 275.76 19.69 271.99 18.54"></polygon><polygon class="cls-3" points="299.76 10.27 297.56 2.64 295.35 10.27 288.08 12.48 295.35 14.68 297.56 22.32 299.76 14.68 307.04 12.48 299.76 10.27"></polygon><polygon class="cls-3" points="336.17 109.36 334.6 103.93 333.03 109.36 327.85 110.93 333.03 112.5 334.6 117.94 336.17 112.5 341.34 110.93 336.17 109.36"></polygon><polygon class="cls-3" points="168.64 64.17 167.07 58.73 165.5 64.17 160.32 65.74 165.5 67.31 167.07 72.74 168.64 67.31 173.81 65.74 168.64 64.17"></polygon><polygon class="cls-8" points="150.22 21.18 149.07 17.21 147.93 21.18 144.15 22.32 147.93 23.47 149.07 27.43 150.22 23.47 153.99 22.32 150.22 21.18"></polygon><polygon class="cls-8" points="131.18 7.64 128.97 0 126.77 7.64 119.49 9.84 126.77 12.05 128.97 19.69 131.18 12.05 138.45 9.84 131.18 7.64"></polygon><polygon class="cls-8" points="87.55 32.55 86.4 28.59 85.26 32.55 81.48 33.69 85.26 34.84 86.4 38.8 87.55 34.84 91.32 33.69 87.55 32.55"></polygon><polygon class="cls-8" points="32.94 18.12 31.37 12.68 29.8 18.12 24.62 19.69 29.8 21.25 31.37 26.69 32.94 21.25 38.11 19.69 32.94 18.12"></polygon><polygon class="cls-8" points="9.53 86.6 8.38 82.63 7.24 86.6 3.46 87.74 7.24 88.89 8.38 92.85 9.53 88.89 13.3 87.74 9.53 86.6"></polygon><polygon class="cls-8" points="14.44 153.76 13.3 149.8 12.16 153.76 8.38 154.91 12.16 156.05 13.3 160.01 14.44 156.05 18.22 154.91 14.44 153.76"></polygon><polygon class="cls-3" points="335.74 175.74 334.6 171.78 333.45 175.74 329.68 176.88 333.45 178.03 334.6 181.99 335.74 178.03 339.52 176.88 335.74 175.74"></polygon></g></g></svg>