<svg xmlns="http://www.w3.org/2000/svg" xmlns:xlink="http://www.w3.org/1999/xlink" viewBox="0 0 444.23 323.65"><defs><style>.cls-1{fill:none;}.cls-2{isolation:isolate;}.cls-3{fill:#e6f8ff;}.cls-4{fill:#caedff;}.cls-12,.cls-5{fill:#bae6f7;mix-blend-mode:multiply;}.cls-5{opacity:0.44;}.cls-6{fill:#7bc7ff;}.cls-7{fill:#379cf7;}.cls-8{fill:#2481c6;}.cls-9{fill:#0a4d7a;}.cls-10{fill:#083954;}.cls-11{fill:#fff;}.cls-12{opacity:0.85;}.cls-13{fill:#fbbe42;}.cls-14{fill:#b1d7dd;}.cls-15{clip-path:url(#clip-path);}.cls-16{fill:#ffa683;}.cls-17{fill:#e57c5c;}.cls-18{fill:#004cba;}.cls-19,.cls-23{fill:#ed7d5a;}.cls-20{fill:#006cbc;}.cls-21{fill:#57bfff;}.cls-22{fill:#30afef;}.cls-23{opacity:0.58;}.cls-24{fill:#0a85e0;}.cls-25{clip-path:url(#clip-path-2);}.cls-26{fill:#ff5a5a;}.cls-27{clip-path:url(#clip-path-3);}.cls-28{fill:#f9a643;}</style><clipPath id="clip-path"><circle class="cls-1" cx="189.6" cy="138.91" r="20.37" transform="translate(-26.65 46.84) rotate(-13.17)"></circle></clipPath><clipPath id="clip-path-2"><circle class="cls-1" cx="120.26" cy="200.79" r="20.37" transform="translate(-106.76 143.84) rotate(-45)"></circle></clipPath><clipPath id="clip-path-3"><circle class="cls-1" cx="189.6" cy="261.74" r="20.37" transform="translate(-132.62 286.74) rotate(-58.52)"></circle></clipPath></defs><title>Asset 1</title><g class="cls-2"><g id="Layer_2" data-name="Layer 2"><g id="OBJECTS"><path class="cls-3" d="M444.23,312.2c0-6.33-95.45-11.46-213.19-11.46s-213.2,5.13-213.2,11.46,95.45,11.45,213.2,11.45S444.23,318.52,444.23,312.2Z"></path><path class="cls-4" d="M44.35,306.75C19.5,306.63-.65,286.21,0,261.37c.36-13.51,5.41-26.6,20.75-33.74,40.42-18.8-16-141,55.46-153.22S144.85-30.87,228.51,38.69s98.71-24.44,153.23,24.44S346,174.05,413.7,206c44.63,21.08,30,58.91,14.84,82.24a44.38,44.38,0,0,1-37.46,20.12Z"></path><path class="cls-5" d="M391.08,308.37a44.38,44.38,0,0,0,37.46-20.12c15.15-23.33,29.79-61.16-14.84-82.24-67.68-32,22.56-94-32-142.88s-69.56,45.12-153.23-24.44c-20.58-17.12-35.93-24.38-48.44-25.44A46.9,46.9,0,0,1,191.89,25C222.28,67.54,240.52,98.61,304,93.21s-28.37,105.36,21.62,118.2c33,8.47,28.59,59.39,4.66,96.68Z"></path><path class="cls-6" d="M170.28,93.07a46.15,46.15,0,0,1-14.45-4c-6.88-3.18-13-9.29-9.55-15.32,5.15-8.26-9.51-15.25-4.52-19.85,5.07-4.07,6.13-.7,4.18-9.81-1.61-9.3,4.79-11.53,8.39-19.85,4.11-8.37,13.57-2.11,11.23,8.81-1.84,11.27,2.51-.37,5.71,4.71,2.72,4.2-8,22.28-3.26,20.65,4.39-2,8.17.77,7.58,5.82C173.88,75.91,170.06,92.84,170.28,93.07Z"></path><path class="cls-7" d="M173.78,97.83a.16.16,0,0,1-.13-.06,79.07,79.07,0,0,1-15.93-29.83l0-.09-.08,0a43.58,43.58,0,0,1-8.45-7.11c-.86-.88-1.7-1.78-2.55-2.69a.11.11,0,0,1,0-.15.2.2,0,0,1,.22-.11l.06,0c.83.88,1.66,1.77,2.49,2.63a45.54,45.54,0,0,0,7.75,6.67l.47.3-.15-.57a75.08,75.08,0,0,1-2.3-16.64V50L155,50a.09.09,0,0,1-.06,0,42.13,42.13,0,0,1-5.18-11.19.13.13,0,0,1,0-.16.16.16,0,0,1,.2,0l.06.09A42.15,42.15,0,0,0,154.69,49c.14.22.28.43.41.65,0-.26,0-.53,0-.79A84.55,84.55,0,0,1,156.82,31c0-.08,0-.09.06-.1a.16.16,0,0,1,.16,0,.19.19,0,0,1,.07.19A82.18,82.18,0,0,0,155.72,55c0,.16,0,.32,0,.47l.32-.3A60.88,60.88,0,0,0,165.32,44s.06-.07.12,0a.26.26,0,0,1,.11.14.22.22,0,0,1,0,.14,60.61,60.61,0,0,1-9.62,11.56l-.11.08,0,.14a73.15,73.15,0,0,0,2.11,11.53l0,.06,0,0a.14.14,0,0,1,0,.15V68a73.45,73.45,0,0,0,3.53,9.91c.08.19.16.38.25.57.05-.2.1-.4.16-.6a58,58,0,0,1,6.6-15.27.14.14,0,0,1,.17-.07.2.2,0,0,1,.12.1s0,0,0,.1A58.36,58.36,0,0,0,162,78.79l0,.08,0,.09A81.21,81.21,0,0,0,173.91,97.6c.05.06,0,.1,0,.11a.2.2,0,0,1-.16.12Z"></path><path class="cls-6" d="M152.44,121.53a54.31,54.31,0,0,0-1.46-16.2c-2-7.91-7-15.51-13.5-12.69-9,4.27-13.46-12.62-18.85-8-4.88,4.83-1.73,6.51-10.4,3-8.91-3.18-12.2,3.37-21,6-9,3.13-4.39,14.3,6.79,13.48,11.45-.23-.79,2.65,3.68,6.89,3.69,3.59,23.37-5.17,21-.3-2.7,4.42-.62,8.93,4.47,9.09C134.87,122.75,152.25,121.26,152.44,121.53Z"></path><path class="cls-7" d="M156.54,126a.15.15,0,0,0,0-.14c-5.8-7.44-15.14-16.34-26.75-21.83l-.09,0,0-.1A46.26,46.26,0,0,0,124,93.71c-.72-1.06-1.47-2.11-2.22-3.17a.12.12,0,0,0-.15-.05.21.21,0,0,0-.14.22l0,.07c.74,1,1.47,2.06,2.18,3.1a48.28,48.28,0,0,1,5.27,9.39c.07.19.14.37.22.55l-.54-.24a69.23,69.23,0,0,0-16-5.07l-.16,0,0-.16a.09.09,0,0,0,0-.06,40.81,40.81,0,0,0-10.17-7.33.15.15,0,0,0-.17,0,.2.2,0,0,0-.07.21.15.15,0,0,0,.08.08,40.59,40.59,0,0,1,9.42,6.62l.58.55-.78-.14a78,78,0,0,0-17.87-.91.15.15,0,0,0-.11.05.28.28,0,0,0,0,.18.17.17,0,0,0,.18.1,75.88,75.88,0,0,1,23.82,2.22l.45.12-.35.3a62.36,62.36,0,0,1-12.61,8.22c-.06,0-.08.06-.06.13a.24.24,0,0,0,.12.14.14.14,0,0,0,.14,0,62.44,62.44,0,0,0,13-8.57l.1-.1.13,0a68.06,68.06,0,0,1,11,4.07l.06,0,0,.06a.13.13,0,0,0,.14.06h.07l.06,0a68.67,68.67,0,0,1,9.19,5.35l.52.35-.61.08a56.06,56.06,0,0,0-16.21,4.74.17.17,0,0,0-.1.18.24.24,0,0,0,.08.15s0,0,.1,0a56,56,0,0,1,17.06-4.84h.09l.07,0a80.43,80.43,0,0,1,16.4,15.71.11.11,0,0,0,.11,0,.25.25,0,0,0,.14-.17Z"></path><path class="cls-7" d="M147.3,105.27c-.09,0,5.5-7.5,7.79-16.67,2.49-9,1.69-19.58-6.72-21.11-11.83-1.75-6.71-21-15-20-7.84,1.5-5.53,5.18-12.5-3.89-7.41-8.9-14.59-4.69-25.24-7.95-11.09-2.81-12.76,11-.68,17.51,12,7.25-2.35,2-.14,9.09,1.75,5.89,27.21,10.23,21.9,13.37-5.34,2.53-5.78,8.26-.59,11.73C128.38,95,147.26,104.88,147.3,105.27Z"></path><path class="cls-8" d="M149,112.32a.19.19,0,0,0,0-.17,97.23,97.23,0,0,0-15.22-38.62l-.07-.1,0-.11a53.45,53.45,0,0,0,.08-13.56c-.15-1.5-.32-3-.49-4.53a.15.15,0,0,0-.12-.14.21.21,0,0,0-.27.12.28.28,0,0,0,0,.09c.17,1.48.34,3,.48,4.43a55.49,55.49,0,0,1,.07,12.55l-.09.67-.41-.59A92.84,92.84,0,0,0,119.25,57l-.15-.13.05-.17a.14.14,0,0,0,0-.09,51.62,51.62,0,0,0-6.34-13.74.17.17,0,0,0-.18-.1.22.22,0,0,0-.2.16.24.24,0,0,0,0,.13,51,51,0,0,1,6,12.57c.1.3.19.6.29.9l-.73-.64a103.84,103.84,0,0,0-18-12.54c-.08,0-.12,0-.13,0a.17.17,0,0,0-.1.17.2.2,0,0,0,.12.21A101.62,101.62,0,0,1,123.3,61.38l.4.42-.53.05a74.54,74.54,0,0,1-17.81-.25.1.1,0,0,0-.13.09.27.27,0,0,0,0,.21.2.2,0,0,0,.15.09,74.78,74.78,0,0,0,18.45.2l.16,0,.12.12a88.89,88.89,0,0,1,9.1,11.15l.05.06v.08a.23.23,0,0,0,.11.16l.08,0,0,.07A89.94,89.94,0,0,1,140,85l.33.69-.68-.33a71.41,71.41,0,0,0-19.53-6,.16.16,0,0,0-.2.11.25.25,0,0,0,0,.19.14.14,0,0,0,.11.06,71.78,71.78,0,0,1,20.48,6.43l.09,0,.05.1a99.72,99.72,0,0,1,8,25.93.13.13,0,0,0,.08.12.28.28,0,0,0,.24-.07Z"></path><rect class="cls-9" x="140.14" y="76.97" width="128.16" height="231.38" rx="16.66"></rect><path class="cls-10" d="M251.64,77H156.8a16.66,16.66,0,0,0-16.66,16.66V291.69a16.61,16.61,0,0,0,6.43,13.13L266.93,87A16.66,16.66,0,0,0,251.64,77Z"></path><path class="cls-11" d="M222.74,85.08H187.55a1.77,1.77,0,0,0-1.76,1.76h0a1.76,1.76,0,0,0,1.76,1.76h35.19a1.76,1.76,0,0,0,1.76-1.76h0A1.77,1.77,0,0,0,222.74,85.08Z"></path><path class="cls-4" d="M251.64,83.21H237.72l-5,9.49a10.82,10.82,0,0,1-9.57,5.77H185.29a10.82,10.82,0,0,1-9.57-5.77l-5-9.49H156.8a10.43,10.43,0,0,0-10.42,10.42V291.69A10.42,10.42,0,0,0,156.8,302.1h94.84a10.42,10.42,0,0,0,10.42-10.41V93.63A10.43,10.43,0,0,0,251.64,83.21Z"></path><path class="cls-12" d="M262.06,93.63v2.2L149.64,299.25a10.4,10.4,0,0,1-3.26-7.57v-198a10.43,10.43,0,0,1,10.41-10.42h13.92l5,9.49a10.82,10.82,0,0,0,9.57,5.77h37.87a10.82,10.82,0,0,0,9.56-5.77l5-9.49h13.93A10.43,10.43,0,0,1,262.06,93.63Z"></path><rect class="cls-11" x="157.15" y="113.03" width="158.65" height="50.24" rx="7.29"></rect><path class="cls-13" d="M227.24,129.79l1,3a.52.52,0,0,0,.49.35h3.16a.51.51,0,0,1,.3.92l-2.56,1.86a.5.5,0,0,0-.18.57l1,3a.51.51,0,0,1-.78.57l-2.56-1.86a.51.51,0,0,0-.6,0l-2.56,1.86a.51.51,0,0,1-.78-.57l1-3a.52.52,0,0,0-.19-.57l-2.56-1.86a.51.51,0,0,1,.3-.92h3.16a.51.51,0,0,0,.49-.35l1-3A.51.51,0,0,1,227.24,129.79Z"></path><path class="cls-13" d="M244.78,129.79l1,3a.5.5,0,0,0,.48.35h3.17a.51.51,0,0,1,.3.92l-2.56,1.86a.51.51,0,0,0-.19.57l1,3a.51.51,0,0,1-.79.57l-2.55-1.86a.51.51,0,0,0-.6,0l-2.56,1.86a.51.51,0,0,1-.79-.57l1-3a.5.5,0,0,0-.18-.57l-2.56-1.86a.51.51,0,0,1,.3-.92h3.16a.52.52,0,0,0,.49-.35l1-3A.51.51,0,0,1,244.78,129.79Z"></path><path class="cls-13" d="M262.33,129.79l1,3a.52.52,0,0,0,.49.35H267a.51.51,0,0,1,.3.92l-2.56,1.86a.5.5,0,0,0-.18.57l1,3a.51.51,0,0,1-.79.57l-2.56-1.86a.51.51,0,0,0-.6,0L259,140.08a.51.51,0,0,1-.79-.57l1-3a.51.51,0,0,0-.19-.57l-2.56-1.86a.51.51,0,0,1,.3-.92h3.17a.5.5,0,0,0,.48-.35l1-3A.51.51,0,0,1,262.33,129.79Z"></path><path class="cls-13" d="M279.87,129.79l1,3a.51.51,0,0,0,.49.35h3.16a.51.51,0,0,1,.3.92l-2.56,1.86a.52.52,0,0,0-.19.57l1,3a.51.51,0,0,1-.78.57l-2.56-1.86a.51.51,0,0,0-.6,0l-2.56,1.86a.51.51,0,0,1-.78-.57l1-3a.5.5,0,0,0-.18-.57L274,134.07a.51.51,0,0,1,.3-.92h3.16a.52.52,0,0,0,.49-.35l1-3A.51.51,0,0,1,279.87,129.79Z"></path><path class="cls-14" d="M297.42,129.79l1,3a.5.5,0,0,0,.48.35H302a.51.51,0,0,1,.3.92l-2.55,1.86a.51.51,0,0,0-.19.57l1,3a.51.51,0,0,1-.79.57l-2.56-1.86a.5.5,0,0,0-.59,0l-2.56,1.86a.51.51,0,0,1-.79-.57l1-3a.52.52,0,0,0-.18-.57l-2.56-1.86a.51.51,0,0,1,.3-.92H295a.5.5,0,0,0,.48-.35l1-3A.51.51,0,0,1,297.42,129.79Z"></path><rect class="cls-14" x="221.13" y="145.12" width="51.02" height="1.42"></rect><rect class="cls-7" x="221.13" y="121.79" width="51.02" height="2.67"></rect><rect class="cls-14" x="221.13" y="150.51" width="51.02" height="1.42"></rect><rect class="cls-14" x="221.13" y="155.52" width="23.32" height="1.42"></rect><circle class="cls-6" cx="189.6" cy="138.91" r="20.37" transform="translate(-26.65 46.84) rotate(-13.17)"></circle><g class="cls-15"><path class="cls-9" d="M199.71,151.24l-1.79-18.82c0-4.82-1.89-9.26-7-7.94h0a6.14,6.14,0,0,0-7.07.87,10.74,10.74,0,0,0-3.13,7.7l-2,18.3Z"></path><path class="cls-16" d="M192.63,141.57v4.15s-.58,3.24-3.31,3.78a4.77,4.77,0,0,1-3.28-3.78v-4.15Z"></path><path class="cls-17" d="M192.63,141v2.64a7,7,0,0,1-6.59,0V141Z"></path><path class="cls-16" d="M196,132.64a7.51,7.51,0,0,1-5-2.43c-1.84,1.6-8.31,2.43-8.31,2.43l0,2.55a11.06,11.06,0,0,0,2.11,6.06,5.69,5.69,0,0,0,9.15,0,11.06,11.06,0,0,0,2.11-6.06Z"></path><path class="cls-16" d="M205.63,152.61c-2.59-4.44-13.51-6.89-13.51-6.89l-2.87,1.1-2.88-1.1s-10.92,2.45-13.5,6.89l-3.17,23.92,5-.08,2.95-20s1.85,6.45,1.75,10.22a83.19,83.19,0,0,1-1.27,10h22.2a82.41,82.41,0,0,1-1.28-10c-.1-3.77,1.76-10.22,1.76-10.22l2.94,20,5,.08Z"></path><path class="cls-7" d="M198.1,147.58a9.2,9.2,0,0,1-17.65,0,26.23,26.23,0,0,0-4.86,2.42l2,6.51a.91.91,0,0,1,.09.17l0-.17s.08.28.2.75l.06.23a39.93,39.93,0,0,1,1.49,9.24,83.19,83.19,0,0,1-1.27,10h22.2a82.41,82.41,0,0,1-1.28-10c-.1-3.77,1.76-10.22,1.76-10.22l0,.27a2.29,2.29,0,0,1,.14-.27l2-6.47A25.66,25.66,0,0,0,198.1,147.58Z"></path></g><path class="cls-16" d="M330.24,171.36a2,2,0,0,1-1.73-1.06l-10.44-20.78s-1.25-5-2.72-5l-.14,6.62,7.06,25.54c.41,1.6,1.24,3,3.37,3a93.84,93.84,0,0,1,17.44,2.85,19.13,19.13,0,0,0,9.74,0C353.15,170.83,334.68,171.46,330.24,171.36Z"></path><path class="cls-16" d="M345.86,168.75v5.91h-9v-3.33s-5.9-1.39-5.61-6.71,2.78-7.91,4.13-8.32,7.87,2.21,8,2.54.82,6,.82,6Z"></path><path class="cls-18" d="M336.44,160.68s1.59-2.24,3.07-1.13.74,3.33-1.11,4.45c0,0,1.85,6.29,5.55,5.92A9.69,9.69,0,0,0,352,159.54c-.41-6.1-8.38-10.4-12.74-9.54S330.58,155.73,336.44,160.68Z"></path><path class="cls-18" d="M352,155.69s4.83-6.14,9.66-.82,7.86,11.3,10.08,12.45-1.89,3.93-7.21,2.21S352.29,161.26,352,155.69Z"></path><path class="cls-19" d="M336.89,174.66v-3.33s3.66.14,5.22-1.27c0,0-1.09,2.53-3.49,2.6v2Z"></path><path class="cls-20" d="M333,221.91s2.11,33,4.8,40,19.7,38.37,19.7,38.37l8.81-1.94-12.57-37.58c-.09,2.3-1.76-8.53,1.35-19.5a27.35,27.35,0,0,0-1.61-19.06l-22-.24"></path><path class="cls-7" d="M353.26,220.52s-.83,9.18-11.38,19.59S327,257.68,327,257.68l-1.58,45.52h-8.79s-5.18-48-5-49.7,14.69-33,16.42-35.72S353.26,220.52,353.26,220.52Z"></path><path class="cls-21" d="M346.78,174.18s9.42.71,6,12.39c-3.79,12.77.56,33.24,1.42,35.36l-2.82,1.12a35.21,35.21,0,0,1-26.16-.56h0s7.49-16.52,2.16-25.16c-3.43-5.56-2.42-11.17,1.59-16.14,2.59-3.21,5.86-6.56,7.15-6.62Z"></path><path class="cls-8" d="M316.67,303.2h1.86l-3.76-49.35c.62-1,2.77-5,9.29-17.52a68.21,68.21,0,0,0,5-12.46,34.55,34.55,0,0,1-3.5-1.22c-4.66,9.57-13.82,29.49-13.93,30.86C311.48,255.23,316.67,303.2,316.67,303.2Z"></path><path class="cls-22" d="M334.92,194.22c-4.4,1.63-1.13,13.32-5.86,29.65a36,36,0,0,1-3.89-1.38h0s7.49-16.52,2.16-25.16a12.7,12.7,0,0,1-2-8.18L344,184.91S340.91,192,334.92,194.22Z"></path><path class="cls-16" d="M294.65,165s17.1,28.42,22.1,30c2.21.72,16-4.68,21.88-5.64a6.09,6.09,0,0,0,5.08-6.56h0c-.34-3.65-4.52-6.75-8.1-6l-19.2,6S300.16,166,296.54,162.15c0,0-1.5-4.73-3.73-4.73C290.81,157.42,293.84,163.33,294.65,165Z"></path><path class="cls-18" d="M308.29,306.11c2.43-.79,7-1.75,8.6-2.9h8.54c-.09,1.71-.13,3.37-.16,4.47a1.36,1.36,0,0,1-1.36,1.33h-17a1.1,1.1,0,0,1-.57-2A8.49,8.49,0,0,1,308.29,306.11Z"></path><path class="cls-18" d="M349.9,305c2.19-1.32,6.39-3.28,7.73-4.78l8.31-1.93c.3,1.69.63,3.32.86,4.4a1.35,1.35,0,0,1-1,1.6l-16.54,3.84a1.1,1.1,0,0,1-1-1.85A8.8,8.8,0,0,1,349.9,305Z"></path><path class="cls-23" d="M316.75,185.29c4,.09,22-6.65,26.78-3.43-.88-3.22-4.65-5.75-7.92-5l-19.2,6S300.16,166,296.54,162.15C296.54,162.15,312.38,185.18,316.75,185.29Z"></path><path class="cls-11" d="M351.83,155.32l-1.26.23a9,9,0,0,1,1.29,5.1l1.62-.31S353.31,155.85,351.83,155.32Z"></path><rect class="cls-11" x="87.8" y="174.91" width="158.65" height="50.24" rx="7.29"></rect><path class="cls-13" d="M157.89,191.67l1,3a.5.5,0,0,0,.48.35h3.16a.51.51,0,0,1,.3.92l-2.55,1.86a.51.51,0,0,0-.19.57l1,3a.51.51,0,0,1-.79.57l-2.56-1.86a.5.5,0,0,0-.59,0L154.55,202a.51.51,0,0,1-.79-.57l1-3a.52.52,0,0,0-.18-.57L152,196a.51.51,0,0,1,.3-.92h3.16a.5.5,0,0,0,.48-.35l1-3A.51.51,0,0,1,157.89,191.67Z"></path><path class="cls-13" d="M175.44,191.67l1,3a.52.52,0,0,0,.49.35h3.16a.51.51,0,0,1,.3.92l-2.56,1.86a.5.5,0,0,0-.18.57l1,3a.51.51,0,0,1-.78.57l-2.56-1.86a.51.51,0,0,0-.6,0L172.09,202a.51.51,0,0,1-.78-.57l1-3a.51.51,0,0,0-.19-.57L169.54,196a.51.51,0,0,1,.3-.92H173a.5.5,0,0,0,.48-.35l1-3A.51.51,0,0,1,175.44,191.67Z"></path><path class="cls-13" d="M193,191.67l1,3a.5.5,0,0,0,.48.35h3.17a.51.51,0,0,1,.3.92l-2.56,1.86a.51.51,0,0,0-.19.57l1,3a.51.51,0,0,1-.78.57l-2.56-1.86a.51.51,0,0,0-.6,0L189.64,202a.51.51,0,0,1-.78-.57l1-3a.5.5,0,0,0-.18-.57L187.09,196a.51.51,0,0,1,.3-.92h3.16a.52.52,0,0,0,.49-.35l1-3A.51.51,0,0,1,193,191.67Z"></path><path class="cls-13" d="M210.53,191.67l1,3a.5.5,0,0,0,.48.35h3.16a.51.51,0,0,1,.3.92l-2.56,1.86a.52.52,0,0,0-.18.57l1,3a.51.51,0,0,1-.79.57l-2.56-1.86a.51.51,0,0,0-.6,0L207.19,202a.51.51,0,0,1-.79-.57l1-3a.51.51,0,0,0-.19-.57L204.64,196a.51.51,0,0,1,.3-.92h3.16a.5.5,0,0,0,.48-.35l1-3A.51.51,0,0,1,210.53,191.67Z"></path><path class="cls-13" d="M228.07,191.67l1,3a.52.52,0,0,0,.49.35h3.16a.51.51,0,0,1,.3.92l-2.56,1.86a.52.52,0,0,0-.19.57l1,3a.51.51,0,0,1-.78.57l-2.56-1.86a.51.51,0,0,0-.6,0L224.73,202a.51.51,0,0,1-.78-.57l1-3a.52.52,0,0,0-.19-.57L222.18,196a.51.51,0,0,1,.3-.92h3.16a.52.52,0,0,0,.49-.35l1-3A.5.5,0,0,1,228.07,191.67Z"></path><rect class="cls-14" x="151.79" y="207" width="51.02" height="1.42"></rect><rect class="cls-9" x="151.79" y="183.67" width="51.02" height="2.67"></rect><rect class="cls-14" x="151.79" y="212.39" width="51.02" height="1.42"></rect><rect class="cls-14" x="151.79" y="217.4" width="23.32" height="1.42"></rect><circle class="cls-6" cx="120.26" cy="200.79" r="20.37" transform="translate(-106.76 143.84) rotate(-45)"></circle><path class="cls-24" d="M76.76,278.6s34.54-28.94,40.62-18.71-2.88,43.34-2.88,43.34Z"></path><path class="cls-20" d="M94.89,290.43l19.61,12.8s8.19-30.28,3.58-41.87C120.19,276.6,104,286.26,94.89,290.43Z"></path><path class="cls-7" d="M94.46,275.51s21.39,17.17,23.13,23.35c2.83,10-13.92,8.91-21.16,8.91s-53.36-1.28-53.36-1.28l.42-7.09,42.54-2s-23.56-3.49-22.69-17.09S94.46,275.51,94.46,275.51Z"></path><path class="cls-24" d="M116.43,304.53c-3.9,3.86-14.59,3.23-20,3.23-7.24,0-53.36-1.27-53.36-1.27l.42-7.09,42.55-2s16.95,8.16,30.06,7.2Z"></path><path class="cls-18" d="M43.29,306.37s-1.88,4.23-.44,7-4.8.76-5.8-4.75-.52-12.12,6.44-9.16Z"></path><path class="cls-9" d="M67.27,233s15.53-44.88,16-44.67a36.26,36.26,0,0,0,5,1.54L81.88,239.1Z"></path><path class="cls-10" d="M83.31,227.85c-3.53-1.67-7.94-3.62-13.11-3.3-2.13,6.11-2.93,8.42-2.93,8.42l14.61,6.13Z"></path><path class="cls-16" d="M86.71,221.1c-1.14,4.24-5.69,3.45-5.69,3.45v4H73.17v-5.45h0c4.08.94,8.5-2,6.55-3.48s-2.37-3.85-1.35-5,3.47-.3,3.47-.3a12.39,12.39,0,0,0,5-.89A19.45,19.45,0,0,1,86.71,221.1Z"></path><path class="cls-18" d="M81.88,214.34s-2.45-.88-3.47.3-.6,3.58,1.35,5-2.48,4.41-6.55,3.47-6.35-9.45-2.86-15c3.22-5.08,14.5-7.29,16.77-2S89.53,214.13,81.88,214.34Z"></path><path class="cls-17" d="M81,228.58v-4a15.87,15.87,0,0,1-3.68-.9,9.19,9.19,0,0,0,2.3,2v2.88Z"></path><path class="cls-9" d="M83.12,228.66s-13-4.49-16.62,5.61,2.55,34.34-4.06,42.66h0a41.75,41.75,0,0,0,32.49,1.18l1.42-.54s-4.53-30.91-4.75-29.83c-.18.9,15.31,5.84,18.39,4.16s21.78-22.79,21.78-22.79l-6.29-.94-16.84,11.09S87.38,228.94,83.12,228.66Z"></path><path class="cls-16" d="M131.77,229.11s6.48-2.8,6.88-4.08h-9.33a3,3,0,0,0-2.45,1.24l-1.39,1.9Z"></path><path class="cls-10" d="M96.35,277.57s-4-27.15-4.66-29.67a2,2,0,0,0,.38.27l-.47-.43s-9.88-2.4-13.4-6.56c0,0,3.36,6.88,7.67,8.48,3.86,1.42,2.49,22.23,5.46,29.63,1.21-.34,2.41-.73,3.6-1.18Z"></path><path class="cls-16" d="M83.74,188.51s1.65-5.89,4.1-6.3v7.68Z"></path><g class="cls-25"><path class="cls-13" d="M142.63,230.63l-1.31-11.76a6.52,6.52,0,0,0-2.93-4.65l-4.08-2.67v0l-3.37-1.3-3.42-1.33-2.83-1.09-1.25-.49-3.12,1.6-3.12-1.6-1.09.43-2.68,1-3.61,1.4-3.48,1.35v.06l-4,2.6a6.49,6.49,0,0,0-2.93,4.65l-1.31,11.76h8.26l0,9.78h27.83l0-9.78Z"></path><path class="cls-9" d="M120.44,186.7h0a8.31,8.31,0,0,0-8.31,8.32v4h16.62v-4A8.31,8.31,0,0,0,120.44,186.7Z"></path><path class="cls-16" d="M123.74,205.17v2.91l0,.24c-.44,1.71-1.89,5-3.31,5s-2.82-3.41-3.14-5.15a.73.73,0,0,0,0-.08v-2.91Z"></path><path class="cls-17" d="M123.74,204.59v2.6a6.82,6.82,0,0,1-6.52,0v-2.6Z"></path><path class="cls-16" d="M116.08,199a2,2,0,1,0-2,2A2,2,0,0,0,116.08,199Z"></path><path class="cls-16" d="M128.71,199a2,2,0,1,0-2,2A2,2,0,0,0,128.71,199Z"></path><path class="cls-16" d="M127.09,195.6a14.21,14.21,0,0,1-3.35-2.4h-6.55c-.52,1.48-3.26,2.4-3.26,2.4l-.06,3.26a10.89,10.89,0,0,0,2.09,6,5.36,5.36,0,0,0,2,1.69,5.68,5.68,0,0,0,2.54.6,5.56,5.56,0,0,0,4.52-2.29,10.89,10.89,0,0,0,2.09-6Z"></path></g><rect class="cls-11" x="157.15" y="236.43" width="158.65" height="50.24" rx="7.29"></rect><path class="cls-13" d="M227.24,253.18l1,3a.52.52,0,0,0,.49.35h3.16a.51.51,0,0,1,.3.92l-2.56,1.86a.5.5,0,0,0-.18.57l1,3a.51.51,0,0,1-.78.57l-2.56-1.86a.51.51,0,0,0-.6,0l-2.56,1.86a.51.51,0,0,1-.78-.57l1-3a.52.52,0,0,0-.19-.57l-2.56-1.86a.51.51,0,0,1,.3-.92h3.16a.51.51,0,0,0,.49-.35l1-3A.51.51,0,0,1,227.24,253.18Z"></path><path class="cls-13" d="M244.78,253.18l1,3a.5.5,0,0,0,.48.35h3.17a.51.51,0,0,1,.3.92l-2.56,1.86a.51.51,0,0,0-.19.57l1,3a.51.51,0,0,1-.79.57l-2.55-1.86a.51.51,0,0,0-.6,0l-2.56,1.86a.51.51,0,0,1-.79-.57l1-3a.5.5,0,0,0-.18-.57l-2.56-1.86a.51.51,0,0,1,.3-.92h3.16a.52.52,0,0,0,.49-.35l1-3A.51.51,0,0,1,244.78,253.18Z"></path><path class="cls-14" d="M262.33,253.18l1,3a.52.52,0,0,0,.49.35H267a.51.51,0,0,1,.3.92l-2.56,1.86a.5.5,0,0,0-.18.57l1,3a.51.51,0,0,1-.79.57l-2.56-1.86a.51.51,0,0,0-.6,0L259,263.47a.51.51,0,0,1-.79-.57l1-3a.51.51,0,0,0-.19-.57l-2.56-1.86a.51.51,0,0,1,.3-.92h3.17a.5.5,0,0,0,.48-.35l1-3A.51.51,0,0,1,262.33,253.18Z"></path><path class="cls-13" d="M261.76,252.86a.46.46,0,0,0-.4.32l-1,3a.5.5,0,0,1-.48.35h-3.17a.51.51,0,0,0-.3.92l2.56,1.86a.51.51,0,0,1,.19.57l-1,3a.51.51,0,0,0,.79.57l2.55-1.86a.47.47,0,0,1,.22-.07Z"></path><path class="cls-14" d="M279.87,253.18l1,3a.51.51,0,0,0,.49.35h3.16a.51.51,0,0,1,.3.92l-2.56,1.86a.52.52,0,0,0-.19.57l1,3a.51.51,0,0,1-.78.57l-2.56-1.86a.51.51,0,0,0-.6,0l-2.56,1.86a.51.51,0,0,1-.78-.57l1-3a.5.5,0,0,0-.18-.57L274,257.46a.51.51,0,0,1,.3-.92h3.16a.52.52,0,0,0,.49-.35l1-3A.51.51,0,0,1,279.87,253.18Z"></path><path class="cls-14" d="M297.42,253.18l1,3a.5.5,0,0,0,.48.35H302a.51.51,0,0,1,.3.92l-2.55,1.86a.51.51,0,0,0-.19.57l1,3a.51.51,0,0,1-.79.57l-2.56-1.86a.5.5,0,0,0-.59,0l-2.56,1.86a.51.51,0,0,1-.79-.57l1-3a.52.52,0,0,0-.18-.57l-2.56-1.86a.51.51,0,0,1,.3-.92H295a.5.5,0,0,0,.48-.35l1-3A.51.51,0,0,1,297.42,253.18Z"></path><rect class="cls-14" x="221.13" y="268.51" width="51.02" height="1.42"></rect><rect class="cls-26" x="221.13" y="245.18" width="51.02" height="2.67"></rect><rect class="cls-14" x="221.13" y="273.9" width="51.02" height="1.42"></rect><rect class="cls-14" x="221.13" y="278.91" width="23.32" height="1.42"></rect><circle class="cls-6" cx="189.6" cy="261.74" r="20.37" transform="translate(-132.62 286.74) rotate(-58.52)"></circle><g class="cls-27"><path class="cls-9" d="M181.4,257.37s-1.16-4.62.64-6.65,5.37-4.19,8.28-3.08a4.72,4.72,0,0,1,4.38-.23c2.09,1.16,5.11,2.17,5.43.78,0,0,.18,5.32-2.2,6.16l-1,4.09H181.69Z"></path><path class="cls-9" d="M205.63,275.44c-2.59-4.44-13.51-6.9-13.51-6.9l-2.87,1.11-2.88-1.11s-10.92,2.46-13.5,6.9l-3.17,23.92,5-.08,2.95-20s1.85,6.45,1.75,10.22a82.91,82.91,0,0,1-1.27,10h22.2a82.13,82.13,0,0,1-1.28-10c-.1-3.77,1.76-10.22,1.76-10.22l2.94,20,5,.08Z"></path><path class="cls-16" d="M192.63,264.4v4.14s-.58,3.24-3.31,3.79a4.77,4.77,0,0,1-3.28-3.79V264.4Z"></path><path class="cls-17" d="M192.63,263.81v2.64a7,7,0,0,1-6.59,0v-2.64Z"></path><path class="cls-16" d="M196,255.47a7.51,7.51,0,0,1-5-2.43c-1.84,1.6-8.31,2.43-8.31,2.43l0,2.55a11.06,11.06,0,0,0,2.11,6.06,5.69,5.69,0,0,0,9.15,0A11.06,11.06,0,0,0,196,258Z"></path><path class="cls-16" d="M184.39,258.33a1.83,1.83,0,1,1-1.83-1.83A1.83,1.83,0,0,1,184.39,258.33Z"></path><path class="cls-16" d="M197.88,258.33a1.83,1.83,0,1,1-1.83-1.83A1.83,1.83,0,0,1,197.88,258.33Z"></path></g><circle class="cls-13" cx="281.75" cy="29.85" r="29.85"></circle><path class="cls-28" d="M281.75,0h-.54A27.94,27.94,0,0,1,267,52a28.2,28.2,0,0,1-5.93-.63A29.85,29.85,0,1,0,281.75,0Z"></path><path class="cls-6" d="M71.69,124.3c6.25,0,6.58-9.3.34-9.7h-.18s0-.08,0-.12A12,12,0,0,0,54,103.91a12.51,12.51,0,0,0-23.53,5.91c0,.37,0,.73.05,1.1a14.55,14.55,0,0,0-16.12,5.88,4.85,4.85,0,0,0,4.07,7.5Z"></path><path class="cls-6" d="M263.73,48.29c8.19,0,8.62-12.19.45-12.72h-.24a.76.76,0,0,0,0-.15,15.78,15.78,0,0,0-23.36-13.84,16.39,16.39,0,0,0-30.83,7.74c0,.49,0,1,.07,1.44a19.11,19.11,0,0,0-21.12,7.7A6.35,6.35,0,0,0,194,48.29Z"></path><path class="cls-6" d="M362.29,77c-7.53,0-7.93-11.2-.42-11.68l.22,0s0-.09,0-.14a14.49,14.49,0,0,1,21.47-12.71,15.06,15.06,0,0,1,28.33,7.11c0,.45,0,.89-.07,1.33a17.35,17.35,0,0,1,4.86-.69A17.53,17.53,0,0,1,431.23,68a5.85,5.85,0,0,1-4.91,9Z"></path><path class="cls-7" d="M388.8,286.7l1.48-.49c.21-2.56-.89-6.87-6.69-13.52-10.75-12.31-20-29.84-17.64-36.68,0,0-10.51,15.82-3.42,26.27C369.19,272.08,386.88,274.19,388.8,286.7Z"></path><path class="cls-20" d="M389.4,286.5l.88-.29c.22-2.56-.88-6.87-6.69-13.52-10.75-12.31-20-29.84-17.64-36.68,0,0-5.56,14.54,1.66,24.28S387.45,271.9,389.4,286.5Z"></path><path class="cls-7" d="M393.1,276.18a30.65,30.65,0,0,1-2,6.14l.68.12c3.15-4.25,8.32-12.66,9.47-23.32,1.67-15.58,3.94-35.09,3.94-35.09s-15.87,13.09-12.32,31.28C394.64,264.38,394.18,271.28,393.1,276.18Z"></path><path class="cls-20" d="M398.68,247.87c-.86,13-3.32,27.31-6.5,33l1.46-1.11a48,48,0,0,0,7.61-20.63c1.67-15.58,3.94-35.09,3.94-35.09S399.81,230.94,398.68,247.87Z"></path><path class="cls-7" d="M396,282.23a23.5,23.5,0,0,1-3.62,3.39l.41.33a37.72,37.72,0,0,0,15-12.2c6.89-9.88,15.63-22.18,15.63-22.18s-15.53,3-19.86,16.52A39.43,39.43,0,0,1,396,282.23Z"></path><path class="cls-20" d="M410.18,265.22c-5.39,8.44-12.34,17.17-16.58,19.82l1.39-.21a36.9,36.9,0,0,0,12.76-11.08c6.89-9.88,15.63-22.18,15.63-22.18S417.21,254.25,410.18,265.22Z"></path><path class="cls-7" d="M390,281.75c1,2.78,1.68,4.68,2.1,6l.56-.13c-.91-4.87-2.49-13.29-4-18.81-2.19-8.14-.48-12.09-2.24-26.25s-10.16-32.86-10.16-32.86-5.43,19.74,2.33,38.56S385.7,269.52,390,281.75Z"></path><path class="cls-20" d="M392.14,287.74l.11,0,.06-2c-.94-5-2.32-12.06-3.63-16.92-2.19-8.14-.48-12.09-2.24-26.25s-10.16-32.86-10.16-32.86,2.63,28.12,6.48,40.42C386.32,261.49,391.4,284.39,392.14,287.74Z"></path><path class="cls-11" d="M376.09,284.9l3.4,20.11a3.9,3.9,0,0,0,3.84,3.25H403a3.9,3.9,0,0,0,3.85-3.25l3.4-20.11a3,3,0,0,0-2.94-3.48H379A3,3,0,0,0,376.09,284.9Z"></path><path class="cls-4" d="M410.21,283.88h0a2.48,2.48,0,0,0-.15-.55v0a4.16,4.16,0,0,0-.24-.47l-.06-.08a3.37,3.37,0,0,0-.29-.37l-.12-.12A3.88,3.88,0,0,0,409,282l-.22-.14-.29-.16a2.06,2.06,0,0,0-.35-.12l-.23-.08a3.39,3.39,0,0,0-.64-.07H379a3,3,0,0,0-3,3.06H401.3a3,3,0,0,1,0,.42L397.88,305a3.9,3.9,0,0,1-3.84,3.25H403a3.9,3.9,0,0,0,3.85-3.25l3.4-20.11A3.16,3.16,0,0,0,410.21,283.88Z"></path><path class="cls-9" d="M116.58,138.2H72.21A5.76,5.76,0,0,0,66.45,144v34.86L77.73,168.6a5,5,0,0,1,3.35-1.3h35.5a4,4,0,0,0,4-4v-21.2A4,4,0,0,0,116.58,138.2Z"></path><path class="cls-26" d="M101.39,147.14a4.91,4.91,0,0,0-7,0l-.65.65-.66-.65a4.91,4.91,0,0,0-6.95,7l.66.65,7,6.95,6.95-6.95.65-.65a4.91,4.91,0,0,0,0-7Z"></path><path class="cls-9" d="M380.41,91.15H335.78A5.8,5.8,0,0,0,330,97V132l11.35-10.28a5,5,0,0,1,3.36-1.3h35.71a4,4,0,0,0,4-4V95.13A4,4,0,0,0,380.41,91.15Z"></path><path class="cls-7" d="M369.85,107.08a1.55,1.55,0,0,0-.12-3.1h-3a3.44,3.44,0,0,0-.46,0,8.24,8.24,0,0,1-2.35-.12c-1.32-.29.23-1.89-.59-4.83s-3.68-2.77-3.55-1.4.3,4.65-.46,5.68a6.79,6.79,0,0,1-4.53,2.56l-.05,7.79,3.06,0A7.51,7.51,0,0,0,362,115.6v0h5.83a1.41,1.41,0,0,0,.88-2.52,1.54,1.54,0,0,0,1.45-1.54,1.57,1.57,0,0,0-1.07-1.48h.23a1.55,1.55,0,0,0,1.55-1.54h0A1.54,1.54,0,0,0,369.85,107.08Z"></path><polygon class="cls-7" points="346.14 115.09 351.39 115.1 351.45 103.72 346.21 103.71 346.14 115.09"></polygon><path class="cls-9" d="M278.5,218.42a14.44,14.44,0,1,1,7.45,6.36,4.42,4.42,0,0,0-2.85-.1l-5.62,1.7,1.37-4.55A4.32,4.32,0,0,0,278.5,218.42Z"></path><path class="cls-13" d="M290.74,203.45,289.25,208a.62.62,0,0,1-.59.43h-4.82a.62.62,0,0,0-.36,1.13l3.89,2.83a.63.63,0,0,1,.23.7l-1.49,4.58a.63.63,0,0,0,1,.7l3.9-2.83a.62.62,0,0,1,.73,0l3.9,2.83a.63.63,0,0,0,1-.7l-1.49-4.58a.63.63,0,0,1,.23-.7l3.89-2.83a.62.62,0,0,0-.36-1.13H294a.62.62,0,0,1-.59-.43l-1.49-4.58A.62.62,0,0,0,290.74,203.45Z"></path></g></g></g></svg>