<svg xmlns="http://www.w3.org/2000/svg" viewBox="0 0 449.94 450.08"><defs><style>.cls-1{fill:#ebebeb;}.cls-2{fill:#e0e0e0;}.cls-3{fill:#fff;}.cls-4{fill:#f5f5f5;}.cls-5{opacity:0.6;}.cls-6{opacity:0.3;}.cls-7{fill:#263238;}.cls-8{fill:#ff725e;}.cls-9{opacity:0.2;}.cls-10{fill:#fafafa;}.cls-11{fill:#455a64;}.cls-12{fill:#ffbe9d;}.cls-13{fill:#eb996e;}.cls-14{fill:none;}</style></defs><title>Asset 1</title><g id="Layer_2" data-name="Layer 2"><g id="Character"><path class="cls-1" d="M427.15,315.48l-41.07-15.65a5.49,5.49,0,0,1-3.19-7.09l21.65-56.85a5.5,5.5,0,0,1,7.1-3.18l26.05,9.92,12.25,28.46-15.7,41.2A5.49,5.49,0,0,1,427.15,315.48Z"></path><path class="cls-2" d="M437.69,242.63l-6.1,16a5.12,5.12,0,0,0,3,6.6l15.39,5.86Z"></path><path class="cls-3" d="M428.4,256.66c-.08.21-4.4-1.24-9.64-3.24s-9.44-3.79-9.36-4,4.39,1.24,9.64,3.24S428.48,256.46,428.4,256.66Z"></path><path class="cls-3" d="M437.23,270.38c-.08.21-7.15-2.29-15.78-5.58s-15.58-6.12-15.5-6.33,7.14,2.3,15.78,5.59S437.3,270.18,437.23,270.38Z"></path><path class="cls-3" d="M437.17,279c-.08.21-7.78-2.53-17.19-6.12s-17-6.66-16.9-6.86,7.77,2.53,17.18,6.12S437.24,278.8,437.17,279Z"></path><path class="cls-3" d="M434.45,286.14c-.08.2-7.77-2.54-17.18-6.12s-17-6.66-16.91-6.87,7.77,2.54,17.19,6.12S434.53,285.93,434.45,286.14Z"></path><path class="cls-3" d="M431.74,293.26c-.08.21-7.78-2.53-17.19-6.12s-17-6.65-16.9-6.86,7.77,2.53,17.18,6.12S431.82,293.06,431.74,293.26Z"></path><path class="cls-3" d="M429,300.39c-.08.21-7.77-2.53-17.18-6.12s-17-6.66-16.91-6.86,7.78,2.53,17.19,6.12S429.1,300.18,429,300.39Z"></path><path class="cls-4" d="M232.67,133.07c-.12-1.25-.26-2.49-.43-3.73s-.37-2.61-.59-3.9c.22,1.29.42,2.59.59,3.9S232.55,131.82,232.67,133.07Z"></path><path class="cls-4" d="M222.66,148.53c-1.08-2.44-1.32-5.14-2-7.7a5.12,5.12,0,0,0-2.32-3.45,21.39,21.39,0,0,0-2.77-.63c-3.26-1-4.15-5.53-7.24-6.94a10.64,10.64,0,0,0-3.1-.64c-4.13-.49-8.4-1.92-11-5.16a20,20,0,0,0-2.55-3.14c-1.06-.86-2.7-1.22-3.73-.35.87,1.74,1.73,3.49,2.58,5.21a13.77,13.77,0,0,0,2.9,4.34,4.66,4.66,0,0,0,4.86,1.05,3.25,3.25,0,0,1,1.64-.58,1.8,1.8,0,0,1,1.06.68c2.25,2.5,1.52,6.63-.68,9.17s-5.42,3.86-8.54,5.09a6.59,6.59,0,0,1-3.49.68c-2.16-.4-3.31-2.75-3.94-4.86-1.41-4.67-2.09-9.75-5-13.68a16.89,16.89,0,0,1-2.63-3.82c-.6-1.57-.46-3.4-1.4-4.78s-3.05-2.28-3.19-4a3.16,3.16,0,0,1,2-2.82c1.12-.54,2.37-.7,3.52-1.17.45-.19,1-.52,1-1,0-.73-1-1-1.27-1.71s.5-1.48.83-2.23c.72-1.71-1.06-3.43-2.79-4.13s-3.78-1.2-4.58-2.88a9.8,9.8,0,0,1-.56-2.49,5.45,5.45,0,0,0-4.08-4.5c-2.14-.35-4.51,1.55-4.17,3.68.21,1.17,1.09,2.08,1.56,3.16s.34,2.68-.77,3c-1.83.56-3.59-2.79-5.13-1.64.63,2.15,1.24,4.29,1.87,6.45-2.41,1.22-5.28-1-6.31-3.5s-1.07-5.35-2.29-7.76-4.51-4.22-6.6-2.51c-.11,3.1,4,4.36,5.8,6.87,1.31,1.81,1.12,4.76-.82,5.91s-5-.86-4.23-3c.26-.73.87-1.34.94-2.12.07-1-.75-1.76-1.5-2.39l-3.5-3a7.38,7.38,0,0,0-2.5-1.57c-2.4-.69-4.81,1.26-6.08,3.4s-2,4.69-3.75,6.49c-2.53,2.61-7.32,2.77-9.69,0s-1.17-7.86,2.33-8.85c1.33-.37,3-.33,3.7-1.5,1.22-2.08-2.27-4.73-1.06-6.82.92-1.6,3.36-.87,5.14-1.41s2.75-2.32,3.8-3.85,2.65-3,4.46-2.65a5.61,5.61,0,0,1,.19-3.18,2,2,0,0,1,2.67-1c-.89,1.46.18,3.5,1.73,4.23a9.35,9.35,0,0,0,5.07.37c1.71-.21,3.85-.84,4-2.54a5.88,5.88,0,0,1,0-1.68c.75-2,4.52.77,6-.87.83-.85-.09-2.37-1.26-2.65s-2.35.14-3.54.18-2.63-.58-2.68-1.77,1.25-2,1.39-3.15c.23-2-3.08-2.46-4.25-.87s-.75,3.76-.4,5.7.54,4.22-.89,5.58c-.61.92-2.2.43-2.72-.54a8,8,0,0,1-.51-3.26c-.08-1.12-.57-2.37-1.65-2.67a6,6,0,0,0-2.32.26c-3,.37-5.14-3.56-4.18-6.45s3.69-4.78,6.36-6.26c2-1.08,4.37-2.09,6.31-1,.91.5,1.53,1.38,2.42,1.9,1.54.9,3.44.57,5.2.61a12.1,12.1,0,0,1,7.58,2.94c.78.72,1.52,1.9.91,2.76s-2.57,1.1-2.24,2.16a3.79,3.79,0,0,0,4.75-3A3.17,3.17,0,0,1,167.18,67a5.64,5.64,0,0,1,8.28.68,7.09,7.09,0,0,0,1.53,2c.7.45,1.92.23,2-.59a1.85,1.85,0,0,0-.14-.77c-.42-1.19-.86-2.35-1.28-3.52,1.63-.87,3.54.49,4.64,2,4.08,5.46,7,2.18,12.74,3.07,3.89.59,5.6,3.08,7.8,6.1,6.73,9.27,15.62,16.88,21.74,26.57.64,1,1.23,2,1.79,3.08-.1-.26-.19-.52-.3-.78a106.44,106.44,0,0,0-8.89-18.08c-.75-1.22-1.51-2.42-2.3-3.61-.49-.73-1-1.48-1.5-2.19-.64-1-1.32-1.85-2-2.76-.54-.73-1.08-1.44-1.64-2.14-.38-.49-.78-1-1.18-1.47s-.88-1.09-1.36-1.64l-1.47-1.69c-.14-.17-.3-.34-.47-.52-.51-.59-1.05-1.17-1.59-1.74a.5.5,0,0,0-.15-.18l-.46-.47c-.43-.49-.9-1-1.36-1.43-.75-.76-1.51-1.53-2.3-2.26-.64-.65-1.3-1.26-2-1.87s-1.19-1.08-1.8-1.6-1.19-1-1.8-1.54-1.48-1.23-2.24-1.84h0c-2.11-1.7-4.29-3.3-6.52-4.8-.56-.38-1.1-.75-1.66-1.11s-1.13-.74-1.69-1.08-1.13-.72-1.71-1-1.15-.7-1.72-1-.93-.54-1.4-.78a6.36,6.36,0,0,0-.71-.4c-1-.56-2-1.1-3-1.61-.5-.26-1-.52-1.53-.77s-1.31-.64-2-.94a2.09,2.09,0,0,0-.3-.14l-1.79-.82c-.86-.36-1.71-.73-2.57-1.08s-1.95-.8-2.94-1.16-2.2-.82-3.31-1.19-2.25-.75-3.39-1.1-2.26-.66-3.41-1Q148.44,36.74,145,36a.53.53,0,0,1-.12,0c-.89-.17-1.78-.35-2.67-.49l-.17,0-1.19-.2c-1.65-.27-3.33-.5-5-.69a5.68,5.68,0,0,0-.61-.07c-.49-.07-1-.11-1.48-.16-1.12-.1-2.23-.19-3.37-.26s-2.35-.14-3.53-.17-2.48-.07-3.72-.07c-3.27,0-6.52.13-9.72.43-.77,0-1.52.12-2.27.21s-1.57.17-2.35.28-1.57.21-2.34.33-1.55.24-2.34.38-1.34.23-2,.37q-2.46.46-4.86,1-1.12.26-2.25.57c-.75.19-1.5.4-2.23.61-1.24.35-2.45.73-3.65,1.12h0l-2.92,1a.1.1,0,0,0-.07,0c-1,.34-2,.71-2.93,1.09l-.16.06c-.89.34-1.78.71-2.65,1.08-1.1.45-2.18.94-3.24,1.43-.91.42-1.8.83-2.67,1.27s-1.88.94-2.81,1.43l-.1,0c-.89.47-1.78,1-2.65,1.47s-1.8,1-2.68,1.58h0c-.84.51-1.66,1-2.48,1.54-.31.19-.61.4-.92.61-.87.55-1.71,1.13-2.56,1.72-1,.72-2.06,1.47-3.07,2.22s-1.76,1.34-2.62,2a110,110,0,0,0-13.7,13c-1.48,1.63-2.88,3.31-4.23,5-1.16,1.46-2.27,2.94-3.34,4.48-.95,1.33-1.88,2.69-2.77,4.07.89-1.38,1.82-2.74,2.77-4.07q.42-.06.84-.09a12.84,12.84,0,0,0,4.64-.75c1.31-.65,2.23-1.81,3.42-2.65,3-2.16,8-2.56,8.82-6.19.28-1.22-.06-2.54.4-3.71.85-2.18,3.76-2.5,6.1-2.46,1,0,2.16.14,2.61,1a2.47,2.47,0,0,1-.1,2,18.93,18.93,0,0,1-8,9.83c-3,1.85-7,3.28-7.83,6.73.42,1.17,2.55,1.08,2.72,2.3.12,1-1.13,1.49-1.59,2.36-.66,1.27.86,2.82,2.3,2.75s2.65-1.11,3.72-2.09c3.17-2.95,6.5-6.12,7.65-10.3.49-1.73.66-3.75,2.06-4.9a3.41,3.41,0,0,1,5.18,1.66c1.37-.77,3.52-1.35,4.23.08a7,7,0,0,1,.3,1.64c.45,2.23,3.5,3.24,3.82,5.49.36,2.6-3,3.94-5.57,4.34l-7.06,1.12a6.54,6.54,0,0,0-2.92.94,2.3,2.3,0,0,0-.88,2.74,7.2,7.2,0,0,0,1.22,1.25c2,2,.35,6-2.4,6.07-.94,0-1.87-.31-2.81-.35-2.79-.12-5,2.34-6.33,4.79s-2.31,5.27-4.55,6.94c-3.59,2.7-9.78,2.08-11.52,6.23-.7,1.67-.33,3.55-.05,5.35s.4,3.76-.65,5.25-3.71,1.77-4.48.13a4,4,0,0,1-.1-2.31c.42-2.58.82-5.16,1.22-7.74.3-1.92.56-4.07-.58-5.63-1.58-2.2-5.14-2-7.2-.23s-2.89,4.51-3.46,7.15a31.14,31.14,0,0,1-2,6.93h0c-.37,2.17-.66,4.36-.89,6.58s-.38,4.51-.47,6.81a9.26,9.26,0,0,0,.89-.83c1.1-1.14,3.31-5.93,5.3-3.58a1.79,1.79,0,0,1,0,2.18c-.61.79-1.83,1-2.3,1.81-.57,1,.23,2.27,1.17,2.93s2.09,1.1,2.75,2.06c1.28,1.83.06,4.6,1.29,6.47,1.07,1.6,3.33,1.71,5.27,1.91l.66.11c.54-3.84,2.34-7,7.57-8.14,7.21-1.64,16.7,4.34,20.76,9.78C61,160.16,63.1,168.77,70,171.82c5,2.18,12,1.4,14.45,6.26,2.17,4.36-1.6,9.26-2.17,14.09-.37,3.19.68,6.36.92,9.55s-.72,6.94-3.63,8.28c-1.62.73-3.66.65-5,1.87-2.31,2.19-.41,6.73-2.73,8.92a11.53,11.53,0,0,1-3,1.55C63.75,225,63.89,232.65,66.31,238c.09.2.18.37.26.56a110.18,110.18,0,0,0,56.5,15.6,109.65,109.65,0,0,0,51.69-12.86h0a111.89,111.89,0,0,0,9.74-5.88,109.07,109.07,0,0,0,13.69-10.87,107.78,107.78,0,0,0,8.36-8.74c1.85-2.13,3.6-4.34,5.27-6.61.85-1.16,1.69-2.33,2.47-3.53A107.81,107.81,0,0,0,228,177.44a108.28,108.28,0,0,0,4.2-18.67q.5-3.72.77-7.52a6.34,6.34,0,0,1-4.43,2C225.91,153.19,223.73,151,222.66,148.53Z"></path><path class="cls-4" d="M27.32,172.94c-.35-3.16.69-6.31.75-9.5,0-2.2-.13-4.52-.16-6.73a31.07,31.07,0,0,1-5.6-.78,1.69,1.69,0,0,1-1-.53,2,2,0,0,1-.22-1.17c-.14-2.47-2.53-4.11-4.67-5.35a19.13,19.13,0,0,0-3.4-1.67c0,.26,0,.51,0,.77a109.94,109.94,0,0,0,7,35,105.17,105.17,0,0,0,6.73,14.43c1.08,2,2.27,4,3.5,5.91,1.54,2.39,3.14,4.73,4.87,7s3.31,4.27,5.11,6.29a107.14,107.14,0,0,0,7.79,8Q51.64,228,55.59,231c-6-16.14-11.68-32.62-22-46.36C30.92,181.06,27.82,177.4,27.32,172.94Z"></path><path class="cls-4" d="M13,142c0,.66,0,1.32,0,2s0,1.08,0,1.62c0-.54,0-1.08,0-1.62S13,142.66,13,142Z"></path><g class="cls-5"><path class="cls-4" d="M61.76,235.47c.92.63,1.86,1.24,2.81,1.83.66.42,1.32.82,2,1.22-.68-.4-1.34-.8-2-1.22C63.62,236.71,62.68,236.1,61.76,235.47Z"></path></g><path class="cls-1" d="M155.05,228.56a9.4,9.4,0,0,1-2.05-.22,6.68,6.68,0,0,1-4.86-3.68,12.68,12.68,0,0,1-.85-4.79,17.8,17.8,0,0,0-.35-3.28,17.31,17.31,0,0,0-2.58-5.27,24.65,24.65,0,0,1-2.24-4.06,24.36,24.36,0,0,1-1.21-8.35l0-.68c-.58-19.38-6-35.11-15.62-45.48a10.45,10.45,0,0,0-4.73-3.35,5.91,5.91,0,0,0-6.07,2.09,13.3,13.3,0,0,0-.91,1.5,8.62,8.62,0,0,1-1.59,2.27,4.61,4.61,0,0,1-3.88,1.05,7.05,7.05,0,0,1-4.84-3.34c-1.71-3-1.4-6.73-1.15-9.71l1-12c.16-1.85.37-4.39,1.87-6.13a10.13,10.13,0,0,1,4.47-2.56,14,14,0,0,0,3.44-1.65c1.93-1.45,2.79-3.73,3.7-6.15a25.07,25.07,0,0,1,1.75-4,7.43,7.43,0,0,1,6.9-3.4,3.24,3.24,0,0,1,2.53,1.69,7.62,7.62,0,0,1,4.49-4.11c4-1.14,8.84,2,13.53,5.06,4.29,2.78,8.33,5.41,11.51,4.83.8-.15,1.62-.37,2.4-.6a12.84,12.84,0,0,1,5.17-.71c4.63.65,7,5.67,8.53,10l7.53,21c.94,2.62,2.15,5.5,4.64,6.46a9.5,9.5,0,0,0,3.15.46,10.78,10.78,0,0,1,3.27.47,5.26,5.26,0,0,1,3.46,4.25c.64,3.47-1.1,8-4.05,10.57h0A48.86,48.86,0,0,1,187,170c-3.4,2.31-6.62,4.5-8,8.1a19.28,19.28,0,0,0-.92,6.16,19.08,19.08,0,0,1-1.08,6.62,19.2,19.2,0,0,1-3.27,4.78,29.54,29.54,0,0,0-2.19,2.79c-2.41,3.63-3.08,8.13-3.73,12.49-.08.56-.16,1.11-.25,1.67-.75,4.85-2.05,10.27-6,13.64A10.12,10.12,0,0,1,155.05,228.56Z"></path><g class="cls-5"><path class="cls-4" d="M13,139.4v0h0v0c0,.21,0,.4,0,.61,0,.65,0,1.32,0,2,0-.67,0-1.34,0-2C13,139.8,13,139.61,13,139.4Z"></path></g><g class="cls-5"><path class="cls-4" d="M13,145.6c0,.54,0,1.08,0,1.61h0C13,146.68,13,146.14,13,145.6Z"></path></g><path class="cls-1" d="M28.1,152.44l-.66-.11c-1.94-.2-4.2-.31-5.27-1.91-1.23-1.87,0-4.64-1.29-6.47-.66-1-1.81-1.38-2.75-2.06S16.39,140,17,139c.47-.85,1.69-1,2.3-1.81a1.79,1.79,0,0,0,0-2.18c-2-2.35-4.2,2.44-5.3,3.58a9.26,9.26,0,0,1-.89.83v0c0,.21,0,.4,0,.61,0,.65,0,1.32,0,2s0,1.32,0,2,0,1.08,0,1.62,0,1.08,0,1.61a19.13,19.13,0,0,1,3.4,1.67c2.14,1.24,4.53,2.88,4.67,5.35a2,2,0,0,0,.22,1.17,1.69,1.69,0,0,0,1,.53,31.07,31.07,0,0,0,5.6.78"></path><path class="cls-1" d="M27.91,156.71c0,2.21.19,4.53.16,6.73-.06,3.19-1.1,6.34-.75,9.5.5,4.46,3.6,8.12,6.31,11.71,10.28,13.74,15.95,30.22,22,46.36h0c1.11.89,2.25,1.72,3.4,2.54.9.66,1.82,1.3,2.75,1.92s1.86,1.24,2.81,1.83c.66.42,1.32.82,2,1.22-.08-.19-.17-.36-.26-.56-2.42-5.31-2.56-13,2.65-15.62a11.53,11.53,0,0,0,3-1.55c2.32-2.19.42-6.73,2.73-8.92,1.31-1.22,3.35-1.14,5-1.87,2.91-1.34,3.86-5.07,3.63-8.28s-1.29-6.36-.92-9.55c.57-4.83,4.34-9.73,2.17-14.09C82.07,173.22,75,174,70,171.82c-6.94-3-9.08-11.66-13.61-17.74-4.06-5.44-13.55-11.42-20.76-9.78-5.23,1.18-7,4.3-7.57,8.14"></path><path class="cls-1" d="M19.85,111.91c2.06-1.76,5.62-2,7.2.23,1.14,1.56.88,3.71.58,5.63-.4,2.58-.8,5.16-1.22,7.74a4,4,0,0,0,.1,2.31c.77,1.64,3.46,1.33,4.48-.13s.93-3.47.65-5.25-.65-3.68.05-5.35c1.74-4.15,7.93-3.53,11.52-6.23,2.24-1.67,3.23-4.48,4.55-6.94S51.3,99,54.09,99.13c.94,0,1.87.38,2.81.35,2.75-.09,4.36-4.11,2.4-6.07a7.2,7.2,0,0,1-1.22-1.25A2.3,2.3,0,0,1,59,89.42a6.54,6.54,0,0,1,2.92-.94l7.06-1.12c2.6-.4,5.93-1.74,5.57-4.34-.32-2.25-3.37-3.26-3.82-5.49a7,7,0,0,0-.3-1.64c-.71-1.43-2.86-.85-4.23-.08A3.41,3.41,0,0,0,61,74.15c-1.4,1.15-1.57,3.17-2.06,4.9-1.15,4.18-4.48,7.35-7.65,10.3-1.07,1-2.27,2-3.72,2.09s-3-1.48-2.3-2.75c.46-.87,1.71-1.38,1.59-2.36-.17-1.22-2.3-1.13-2.72-2.3C45,80.58,48.91,79.15,52,77.3a18.93,18.93,0,0,0,8-9.83,2.47,2.47,0,0,0,.1-2c-.45-.87-1.62-1-2.61-1-2.34,0-5.25.28-6.1,2.46-.46,1.17-.12,2.49-.4,3.71-.82,3.63-5.79,4-8.82,6.19-1.19.84-2.11,2-3.42,2.65a12.84,12.84,0,0,1-4.64.75q-.42,0-.84.09c-.95,1.33-1.88,2.69-2.77,4.07s-1.75,2.79-2.58,4.21a109,109,0,0,0-9.55,21.3c-.85,2.61-1.61,5.25-2.26,7.94s-1.21,5.42-1.66,8.18a31.14,31.14,0,0,0,2-6.93C17,116.42,17.81,113.67,19.85,111.91Z"></path><path class="cls-1" d="M112.26,60.81c1-1.36.73-3.33,1.41-4.9,1.12-2.63,4.61-3.57,5.82-6.15.46-1,.58-2.21,1.39-2.95s1.68-.74,2.4-1.3c1.63-1.24,1-4.07-.77-5.17-4.32-2.76-12.27.43-16,3.13-4.8,3.47-9.49,7.66-15.88,7.25-1.76-.11-3.59-.6-5.24,0s-2.66,3.09-1.24,4.14c.79.58,1.91.42,2.8.83,1.64.77,1.81,3.15,1,4.77s-2.25,2.85-3.2,4.39a8.29,8.29,0,0,0-1.18,5.05,4.58,4.58,0,0,0,1.49,3.24c2,1.59,5,.23,6.69-1.68s2.85-4.36,5-5.67a12.69,12.69,0,0,1,3.58-1.25l8.33-2A6,6,0,0,0,112.26,60.81Z"></path><g class="cls-5"><path class="cls-4" d="M233.18,142.47c0-1.59-.06-3.16-.14-4.73.08,1.57.13,3.14.14,4.73,0,.5,0,1,0,1.51,0,2.45-.09,4.85-.22,7.26.13-2.41.22-4.81.22-7.26C233.21,143.48,233.21,143,233.18,142.47Z"></path></g><g class="cls-5"><path class="cls-4" d="M226.29,105.51c.52,1.4,1,2.8,1.48,4.21-.46-1.41-1-2.81-1.48-4.21,0,0,0,0,0,0h0Z"></path></g><path class="cls-1" d="M233.18,142.47c0-1.59-.06-3.16-.14-4.73s-.21-3.12-.37-4.67c-.12-1.25-.26-2.49-.43-3.73s-.37-2.61-.59-3.9A106.48,106.48,0,0,0,229.08,114c-.41-1.44-.85-2.86-1.31-4.28s-1-2.81-1.48-4.21v0h0c-.56-1-1.15-2.07-1.79-3.08-6.12-9.69-15-17.3-21.74-26.57-2.2-3-3.91-5.51-7.8-6.1-5.75-.89-8.66,2.39-12.74-3.07-1.1-1.46-3-2.82-4.64-2,.42,1.17.86,2.33,1.28,3.52A1.85,1.85,0,0,1,179,69c-.09.82-1.31,1-2,.59a7.09,7.09,0,0,1-1.53-2,5.64,5.64,0,0,0-8.28-.68,3.17,3.17,0,0,0-1.83-2.58,3.79,3.79,0,0,1-4.75,3c-.33-1.06,1.57-1.25,2.24-2.16s-.13-2-.91-2.76a12.1,12.1,0,0,0-7.58-2.94c-1.76,0-3.66.29-5.2-.61-.89-.52-1.51-1.4-2.42-1.9-1.94-1.1-4.36-.09-6.31,1-2.67,1.48-5.42,3.35-6.36,6.26s1.15,6.82,4.18,6.45a6,6,0,0,1,2.32-.26c1.08.3,1.57,1.55,1.65,2.67a8,8,0,0,0,.51,3.26c.52,1,2.11,1.46,2.72.54,1.43-1.36,1.25-3.65.89-5.58s-.75-4.12.4-5.7,4.48-1.08,4.25.87c-.14,1.15-1.44,2-1.39,3.15s1.5,1.82,2.68,1.77,2.39-.48,3.54-.18,2.09,1.8,1.26,2.65c-1.45,1.64-5.22-1.17-6,.87a5.88,5.88,0,0,0,0,1.68c-.14,1.7-2.28,2.33-4,2.54a9.35,9.35,0,0,1-5.07-.37c-1.55-.73-2.62-2.77-1.73-4.23a2,2,0,0,0-2.67,1,5.61,5.61,0,0,0-.19,3.18c-1.81-.4-3.43,1.13-4.46,2.65s-2,3.31-3.8,3.85-4.22-.19-5.14,1.41c-1.21,2.09,2.28,4.74,1.06,6.82-.7,1.17-2.37,1.13-3.7,1.5-3.5,1-4.72,6.12-2.33,8.85s7.16,2.58,9.69,0c1.76-1.8,2.48-4.33,3.75-6.49s3.68-4.09,6.08-3.4a7.38,7.38,0,0,1,2.5,1.57l3.5,3c.75.63,1.57,1.41,1.5,2.39-.07.78-.68,1.39-.94,2.12-.73,2.11,2.32,4.12,4.23,3s2.13-4.1.82-5.91c-1.81-2.51-5.91-3.77-5.8-6.87,2.09-1.71,5.38.09,6.6,2.51s1.26,5.26,2.29,7.76,3.9,4.72,6.31,3.5c-.63-2.16-1.24-4.3-1.87-6.45,1.54-1.15,3.3,2.2,5.13,1.64,1.11-.35,1.25-2,.77-3s-1.35-2-1.56-3.16c-.34-2.13,2-4,4.17-3.68a5.45,5.45,0,0,1,4.08,4.5,9.8,9.8,0,0,0,.56,2.49c.8,1.68,2.87,2.18,4.58,2.88s3.51,2.42,2.79,4.13c-.33.75-1.11,1.47-.83,2.23s1.27,1,1.27,1.71c0,.49-.53.82-1,1-1.15.47-2.4.63-3.52,1.17a3.16,3.16,0,0,0-2,2.82c.14,1.75,2.21,2.58,3.19,4s.8,3.21,1.4,4.78a16.89,16.89,0,0,0,2.63,3.82c2.89,3.93,3.57,9,5,13.68.63,2.11,1.78,4.46,3.94,4.86a6.59,6.59,0,0,0,3.49-.68c3.12-1.23,6.36-2.56,8.54-5.09s2.93-6.67.68-9.17a1.8,1.8,0,0,0-1.06-.68,3.25,3.25,0,0,0-1.64.58,4.66,4.66,0,0,1-4.86-1.05,13.77,13.77,0,0,1-2.9-4.34c-.85-1.72-1.71-3.47-2.58-5.21,1-.87,2.67-.51,3.73.35A20,20,0,0,1,194.2,124c2.6,3.24,6.87,4.67,11,5.16a10.64,10.64,0,0,1,3.1.64c3.09,1.41,4,6,7.24,6.94a21.39,21.39,0,0,1,2.77.63,5.12,5.12,0,0,1,2.32,3.45c.71,2.56,1,5.26,2,7.7s3.25,4.66,5.9,4.69a6.34,6.34,0,0,0,4.43-2h0c.13-2.41.22-4.81.22-7.26C233.21,143.48,233.21,143,233.18,142.47Z"></path><path class="cls-1" d="M188.59,188.19c-1.64.33-2,1.29-2.86,2.51-1.16,1.58-2.82,3.16-3.88,4.72-1.79,2.65-.18,6.78-2.53,9a18.66,18.66,0,0,0-1.54,1.25,2.79,2.79,0,0,0,.57,3.85,3.78,3.78,0,0,0,4.1.07,6,6,0,0,0,2.52-3.44,5.85,5.85,0,0,1,1.27-2.81c1.35-1.18,3.45-.31,5.22-.56C199,201.74,195.77,186.78,188.59,188.19Z"></path><path class="cls-1" d="M186.4,413.07l-39.34,12.3A5.15,5.15,0,0,1,140.6,422l-17-54.45a5.16,5.16,0,0,1,3.39-6.46l24.94-7.8,25.54,13.86,12.34,39.47A5.15,5.15,0,0,1,186.4,413.07Z"></path><path class="cls-2" d="M137.91,399.25h51.53a0,0,0,0,1,0,0v15a5.46,5.46,0,0,1-5.46,5.46H143.25a5.33,5.33,0,0,1-5.33-5.33v-15.1A0,0,0,0,1,137.91,399.25Z" transform="translate(-114.73 67.5) rotate(-17.36)"></path><path class="cls-3" d="M157.06,406.92l2.49,7.95-1.76.55-1-3.26-3.46,1.08,1,3.26-1.77.55-2.48-7.95,1.76-.55,1,3.14,3.46-1.09-1-3.13Z"></path><path class="cls-3" d="M164.92,412.87a2.41,2.41,0,0,1-1.26.81,2.05,2.05,0,0,1-2.87-1.5l-.79-2.52-.9.29-.43-1.37.91-.28-.47-1.49,1.7-.53.46,1.49,1.46-.46.43,1.37-1.46.45.78,2.49a.73.73,0,0,0,1,.58,1.16,1.16,0,0,0,.61-.44Z"></path><path class="cls-3" d="M174.77,406.27l1.09,3.5-1.69.53-1-3.23c-.31-1-.88-1.31-1.56-1.09s-1.14.91-.8,2l1,3.07-1.7.53-1-3.22c-.31-1-.86-1.32-1.56-1.1s-1.13.91-.79,2l1,3.07-1.7.53-1.91-6.11,1.62-.51.23.71a2.39,2.39,0,0,1,1.59-1.37,2.23,2.23,0,0,1,2.23.39,2.75,2.75,0,0,1,1.8-1.66C172.92,403.88,174.19,404.41,174.77,406.27Z"></path><path class="cls-3" d="M174.76,400.86l1.7-.53,2.63,8.43-1.7.53Z"></path><path class="cls-3" d="M149.13,379.93l-5.67,4.81,7.4.71.88,2.83-10.62-1.18-.93-3,8.06-7Z"></path><path class="cls-3" d="M153.54,369.33l2.73-.85.2,23.41-2.72.85Z"></path><path class="cls-3" d="M169,375.14l.92,2.95-8.06,7-.89-2.84,5.68-4.79-7.4-.72-.88-2.82Z"></path><g class="cls-6"><path class="cls-3" d="M151.9,353.28l4.8,15.32a4.8,4.8,0,0,0,6,3.15l14.73-4.61Z"></path></g><path class="cls-2" d="M157.32,369.88a5.34,5.34,0,0,0,5.58,3.68,4.55,4.55,0,0,0,.52,0c2-.26,15.4-2,15.31-2.26l-1.29-4.12-14.73,4.61S159,372.78,157.32,369.88Z"></path><path class="cls-7" d="M430.66,447.11c0,.14-92.21.26-205.93.26s-205.95-.12-205.95-.26,92.19-.26,206-.26S430.66,447,430.66,447.11Z"></path><rect class="cls-3" x="70.59" y="99.82" width="298.69" height="224.44"></rect><path class="cls-7" d="M369.28,324.26s0-.37,0-1.06,0-1.71,0-3.06c0-2.7,0-6.71-.05-11.93,0-10.45-.06-25.78-.11-45.36-.05-39.1-.13-95.16-.22-163l.43.43-298.66.09h0l.52-.52c0,80.69,0,157.11,0,224.44l-.47-.47,215.58.23,61.23.12,16.25.06,4.19,0h1.07l.37,0H367.9l-4.14,0-16.16.06-61.12.12-215.89.24h-.47v-.47c0-67.33,0-143.75-.05-224.44V99.3h.55l298.66.09h.43v.43c-.09,68-.16,124.13-.22,163.3-.05,19.54-.08,34.84-.11,45.26,0,5.19,0,9.17-.05,11.85,0,1.33,0,2.34,0,3S369.28,324.26,369.28,324.26Z"></path><path class="cls-7" d="M367.78,127.3a3.29,3.29,0,0,1-.75,0l-2.22.05-8.52.09c-7.39.06-18.1.09-31.32.09-26.46,0-63-.2-103.36-.53l-103.36-.83L86.92,126l-8.51-.11-2.22-.05a6.09,6.09,0,0,1-.75,0,3.58,3.58,0,0,1,.75-.06l2.22,0,8.51-.09c7.4-.06,18.1-.08,31.33-.08,26.45,0,63,.2,103.37.52l103.35.83,31.33.25,8.51.1,2.22.06A4.27,4.27,0,0,1,367.78,127.3Z"></path><path class="cls-7" d="M90.1,111.22a3.52,3.52,0,1,1-3.51-3.52A3.51,3.51,0,0,1,90.1,111.22Z"></path><path class="cls-7" d="M104.17,111.22a3.52,3.52,0,1,1-3.52-3.52A3.51,3.51,0,0,1,104.17,111.22Z"></path><circle class="cls-7" cx="114.72" cy="111.22" r="3.52"></circle><rect class="cls-1" x="122.65" y="257.59" width="61.38" height="45.95"></rect><rect class="cls-1" x="190.06" y="257.59" width="61.38" height="45.95"></rect><rect class="cls-1" x="268.62" y="257.59" width="61.38" height="45.95"></rect><path class="cls-4" d="M435.53,148.08c-1.87-34.64-38.07-52.06-56.59-54.31l-14.82,17.45c11.93-1.8,41.6,14.76,43.05,26.75s-7.68,27.29-19.7,28.39c-9.44.86-25.18-7.51-31.17-.17-15.14-13.48-41-12.37-54.92,2.36A37.84,37.84,0,0,0,251,200l55.75,32.36s23.23,20.82,39.07,8c5.41-4.39,7.47-10.68,8-16.74a8.61,8.61,0,0,0,3.16-.21c4-1.07,7-4.68,8.32-8.63.17-.51.3-1,.42-1.55,13.54,3,32-.39,42.89-7.19C424.43,196.14,436.53,166.71,435.53,148.08Z"></path><path class="cls-7" d="M360.24,172.89a1.92,1.92,0,0,1-.21-.27l-.55-.83c-.24-.36-.54-.81-.93-1.31s-.81-1.11-1.36-1.73A36,36,0,0,0,346.36,160a34.89,34.89,0,0,0-9-3.28,32.53,32.53,0,0,0-11-.49,35.57,35.57,0,0,0-22,11.43c-.84.9-1.57,1.88-2.26,2.78l-.13.17-.19-.09A35.07,35.07,0,0,0,278.28,168a36.63,36.63,0,0,0-5.13,1.65,41.61,41.61,0,0,0-4.53,2.27,36.8,36.8,0,0,0-7.29,5.4,29.56,29.56,0,0,0-7.28,10.8c-.3.71-.5,1.37-.68,1.94a14.26,14.26,0,0,0-.41,1.45l-.24.89a1,1,0,0,1-.1.31s0-.11,0-.32l.19-.91a11.56,11.56,0,0,1,.37-1.46,19.84,19.84,0,0,1,.63-2,29.28,29.28,0,0,1,7.22-11,36.09,36.09,0,0,1,7.33-5.51,40.72,40.72,0,0,1,4.57-2.33,36.21,36.21,0,0,1,5.19-1.68A35.39,35.39,0,0,1,302,170.09l-.33.08c.7-.91,1.44-1.9,2.29-2.82a36,36,0,0,1,22.33-11.56,33,33,0,0,1,11.14.55,35.56,35.56,0,0,1,19.93,12.28,20.92,20.92,0,0,1,1.33,1.77,14.27,14.27,0,0,1,.9,1.35l.51.85A1.42,1.42,0,0,1,360.24,172.89Z"></path><path class="cls-7" d="M371,165.65c-.06.08-.78-.45-2.1-.94a10.61,10.61,0,0,0-2.38-.59,12.66,12.66,0,0,0-3,0,12.08,12.08,0,0,0-2.89.79,10.91,10.91,0,0,0-2.15,1.2c-1.14.83-1.69,1.54-1.76,1.47s.09-.21.33-.53a7.51,7.51,0,0,1,1.21-1.23,9.89,9.89,0,0,1,2.17-1.35,10.87,10.87,0,0,1,6.16-.84,9.59,9.59,0,0,1,2.46.72,7.14,7.14,0,0,1,1.49.85C370.87,165.47,371,165.62,371,165.65Z"></path><path class="cls-7" d="M386.76,186.72s-.56-.28-1.64-.67a12.37,12.37,0,0,0-4.75-.67,11.36,11.36,0,0,0-6.62,2.55,11.87,11.87,0,0,0-4.21,7.68l-.05.41-.34-.22a17.63,17.63,0,0,0-3.67-1.8,18.14,18.14,0,0,0-17.94,3.15,19.89,19.89,0,0,0-3.84,4.33c-.74,1.16-1.06,1.86-1.1,1.84a1.82,1.82,0,0,1,.2-.52,12.23,12.23,0,0,1,.73-1.42,18,18,0,0,1,3.77-4.51,18.57,18.57,0,0,1,7.74-4,18.91,18.91,0,0,1,10.62.63,18.6,18.6,0,0,1,3.77,1.85l-.4.19a12.24,12.24,0,0,1,4.43-8,11.54,11.54,0,0,1,6.9-2.54,11.79,11.79,0,0,1,4.83.84,8.88,8.88,0,0,1,1.19.58C386.64,186.62,386.77,186.7,386.76,186.72Z"></path><path class="cls-7" d="M429.94,127.85a3.79,3.79,0,0,1,.41.7c.24.47.62,1.15,1,2.06a46.88,46.88,0,0,1,2.8,8,54.51,54.51,0,0,1,1.51,12.55,64.28,64.28,0,0,1-.38,7.46,69.65,69.65,0,0,1-1.28,7.92,82.69,82.69,0,0,1-10.46,26,47.52,47.52,0,0,1-5.1,6.82,22.49,22.49,0,0,1-1.64,1.64,3.13,3.13,0,0,1-.62.52,6.41,6.41,0,0,1,.55-.59c.38-.37.89-1,1.56-1.7a52,52,0,0,0,4.94-6.88,85.26,85.26,0,0,0,10.26-25.9,73.62,73.62,0,0,0,1.29-7.87,65.56,65.56,0,0,0,.4-7.4,56,56,0,0,0-1.39-12.46,50.85,50.85,0,0,0-2.63-8.05c-.39-.92-.75-1.62-1-2.1A5.11,5.11,0,0,1,429.94,127.85Z"></path><path class="cls-7" d="M402.28,129.2a5.4,5.4,0,0,1,.93,1,19.15,19.15,0,0,1,2.07,3,21.86,21.86,0,0,1-.74,22.93,19.91,19.91,0,0,1-2.25,2.86,6.08,6.08,0,0,1-1,.9,44.86,44.86,0,0,0,2.93-4,22.43,22.43,0,0,0,.73-22.56A41.45,41.45,0,0,0,402.28,129.2Z"></path><path class="cls-8" d="M365.62,102.35a35.39,35.39,0,0,0,9.75,9.91,3.17,3.17,0,0,0,4.75-3.7l0-.07A132.51,132.51,0,0,0,394.37,118a3.91,3.91,0,0,0,5.64-4.72A59.84,59.84,0,0,0,372.6,81.37Z"></path><g class="cls-6"><path d="M371.38,102.82a5.88,5.88,0,0,0,1.57,1.79,2,2,0,0,0,2.24.13c1-.67.95-2.29,2-2.91s2.41.26,3.33,1.14l2.9,2.77c.71.68,1.67,1.41,2.58,1s1.07-1.81.85-2.88a15.58,15.58,0,0,0-9.31-11.14Z"></path></g><path class="cls-8" d="M409.88,126.65a3.5,3.5,0,1,0,0-.25"></path><path class="cls-4" d="M226,6c-2.82,4.39,3.35,19.73,17.49,39.38a134.18,134.18,0,0,0,30,30.18L355,127.85l13.78-21.49,8-12.45,13.78-21.49L316.57,25a134.57,134.57,0,0,0-22.85-11.79,161.55,161.55,0,0,0-24.62-7.7C245.55.3,228.83,1.6,226,6"></path><path class="cls-8" d="M339.47,39.65l.3-.1a61.05,61.05,0,0,1,52.4,6.51l9.77,6.27L376,63.09Z"></path><path class="cls-7" d="M339.47,39.65l.19.11.53.34,2,1.28,7.58,4.82L376.09,63H376l23.63-9.82,2.29-.95,0,.31-5.76-3.7c-1.9-1.2-3.74-2.45-5.61-3.54a62.35,62.35,0,0,0-11.28-5.3,58.69,58.69,0,0,0-10.93-2.71c-1.74-.31-3.44-.42-5.07-.58s-3.2-.18-4.7-.13a60.37,60.37,0,0,0-14,1.75c-1.64.35-2.86.78-3.71,1l-1.29.37.32-.13.95-.3c.84-.25,2.06-.71,3.7-1.08a58.93,58.93,0,0,1,14.06-1.86c1.5-.06,3.08,0,4.72.1s3.34.26,5.09.57a59.14,59.14,0,0,1,11,2.69A62,62,0,0,1,390.65,45c1.89,1.1,3.72,2.34,5.62,3.54l5.76,3.7.28.17-.31.13-2.29.95-23.64,9.8-.08,0-.07-.05-26.31-17-7.5-4.85-2-1.29-.5-.33Z"></path><path class="cls-8" d="M303.92,95.07c0,.05,0,.15,0,.31a60.21,60.21,0,0,0,27.39,44.3l9.64,6.18-1-27.67Z"></path><path class="cls-7" d="M303.92,95.07l.16.1.51.32,2,1.24,7.44,4.72L340,118.06l.08,0v.09c.29,7.76.61,16.29.94,25.22,0,.84.06,1.67.09,2.45v.33l-.28-.18-5.68-3.65c-1.86-1.21-3.72-2.34-5.48-3.58a61.09,61.09,0,0,1-9.43-8,57.1,57.1,0,0,1-6.93-8.75c-1-1.44-1.79-2.93-2.61-4.33s-1.47-2.82-2-4.19a58.8,58.8,0,0,1-4.12-13.37c-.33-1.62-.43-2.9-.55-3.76-.05-.42-.09-.75-.12-1s0-.34,0-.34c0,.2.08.55.2,1.31s.26,2.13.61,3.74a60.13,60.13,0,0,0,4.21,13.3c.57,1.37,1.32,2.72,2.05,4.16s1.61,2.88,2.6,4.31a58.43,58.43,0,0,0,6.93,8.68,60.37,60.37,0,0,0,9.39,7.93c1.75,1.23,3.62,2.37,5.48,3.57l5.68,3.65-.27.15c0-.77-.05-1.61-.09-2.45-.32-8.93-.63-17.46-.91-25.22l.07.13c-10.51-6.8-19.48-12.59-25.84-16.69l-7.43-4.82-2-1.29c-.22-.14-.39-.25-.51-.34A.74.74,0,0,1,303.92,95.07Z"></path><path class="cls-8" d="M226,6c-2.31,3.31,1,13.34,9.12,26.76L257.07,3.19C241.3,1.25,229,1.73,226,6Z"></path><line class="cls-4" x1="342.09" y1="119.56" x2="376.96" y2="64.49"></line><path class="cls-7" d="M377,64.49c.08.05-7.66,12.42-17.29,27.63s-17.5,27.49-17.58,27.44,7.66-12.42,17.29-27.63S376.88,64.44,377,64.49Z"></path><line class="cls-4" x1="344.4" y1="121.39" x2="379.27" y2="66.32"></line><path class="cls-7" d="M379.27,66.32c.08.05-7.66,12.42-17.29,27.63s-17.5,27.49-17.58,27.44,7.66-12.42,17.29-27.63S379.19,66.27,379.27,66.32Z"></path><line class="cls-4" x1="347.04" y1="123.02" x2="381.91" y2="67.95"></line><path class="cls-7" d="M381.91,68c.08,0-7.66,12.42-17.29,27.63S347.12,123.07,347,123s7.66-12.42,17.29-27.63S381.83,67.9,381.91,68Z"></path><line class="cls-4" x1="349.67" y1="124.65" x2="384.55" y2="69.58"></line><path class="cls-7" d="M384.55,69.58c.08,0-7.67,12.42-17.29,27.63s-17.51,27.49-17.59,27.44S357.33,112.23,367,97,384.47,69.53,384.55,69.58Z"></path><line class="cls-4" x1="352.31" y1="126.28" x2="387.18" y2="71.21"></line><path class="cls-7" d="M387.18,71.21c.08.05-7.66,12.42-17.29,27.63s-17.5,27.49-17.58,27.44S360,113.86,369.6,98.65,387.1,71.16,387.18,71.21Z"></path><path class="cls-7" d="M321.82,67.29a2,2,0,0,1,.42.18c.28.13.65.36,1.15.65,1,.58,2.39,1.44,4.11,2.53,3.45,2.18,8.18,5.23,13.38,8.64s9.89,6.53,13.28,8.8l4,2.7,1.07.75a2,2,0,0,1,.36.28,2.18,2.18,0,0,1-.4-.22l-1.11-.7L354,88.29l-13.33-8.71-13.32-8.72-4.05-2.63c-.48-.3-.85-.56-1.11-.69A3.3,3.3,0,0,1,321.82,67.29Z"></path><path class="cls-7" d="M339.47,39.65c.08.05-7.74,12.4-17.46,27.58s-17.67,27.45-17.75,27.4S312,82.23,321.72,67,339.39,39.6,339.47,39.65Z"></path><path class="cls-7" d="M351.56,80.1a.86.86,0,0,1,0-.49,2.07,2.07,0,0,1,.64-1.19,2,2,0,0,1,1.94-.49,2.12,2.12,0,0,1,.37,4,2,2,0,0,1-2-.12,2.08,2.08,0,0,1-.86-1.05c-.1-.31-.08-.49-.06-.49s.06.17.19.44a2.12,2.12,0,0,0,.85.89,1.79,1.79,0,0,0,1.73,0,1.82,1.82,0,0,0-.32-3.4,1.74,1.74,0,0,0-1.68.37,2.1,2.1,0,0,0-.68,1A3.54,3.54,0,0,1,351.56,80.1Z"></path><path class="cls-7" d="M336,69.7s-.07-.17,0-.5a2,2,0,0,1,.64-1.18,2,2,0,0,1,1.94-.49,2.12,2.12,0,0,1,.37,4,2,2,0,0,1-2-.12,2.11,2.11,0,0,1-.85-1c-.1-.31-.08-.49-.06-.49s.05.17.19.43a2.08,2.08,0,0,0,.85.9,1.77,1.77,0,0,0,1.72,0,2,2,0,0,0,1-1.81,1.93,1.93,0,0,0-1.33-1.59,1.76,1.76,0,0,0-1.69.37,2.14,2.14,0,0,0-.67,1A3.54,3.54,0,0,1,336,69.7Z"></path><path class="cls-7" d="M306,62.46a.84.84,0,0,1,0-.5,2.09,2.09,0,0,1,.65-1.19,2,2,0,0,1,1.94-.48,2.13,2.13,0,0,1,.37,4,2,2,0,0,1-2-.12,2.05,2.05,0,0,1-.85-1.05c-.11-.31-.09-.49-.07-.49s.06.16.19.43a2.14,2.14,0,0,0,.85.9,1.76,1.76,0,0,0,1.73,0,1.82,1.82,0,0,0-.32-3.39,1.74,1.74,0,0,0-1.68.37,2.17,2.17,0,0,0-.68,1C306,62.28,306,62.46,306,62.46Z"></path><path class="cls-7" d="M292.65,59.21c.06-.08,5.78,3.07,12.78,7S318.05,73.5,318,73.57s-5.78-3.07-12.78-7S292.6,59.29,292.65,59.21Z"></path><g class="cls-6"><path d="M339,117.59s-23.32-15.73-35.1-22.52c4.07,5.84,8.76,12.46,14.41,16.78A29.74,29.74,0,0,0,339,117.59Z"></path></g><circle class="cls-3" cx="282.23" cy="42.62" r="19.72" transform="translate(161.78 301.39) rotate(-73.63)"></circle><path class="cls-7" d="M301.92,43.74a1.34,1.34,0,0,1,0-.32c0-.24,0-.55,0-.94a8.5,8.5,0,0,0-.09-1.51,14.93,14.93,0,0,0-.3-2,19,19,0,0,0-1.9-5.32,19.62,19.62,0,0,0-4.67-5.81,19.28,19.28,0,0,0-8-4.09,19.65,19.65,0,0,0-10.27.27,18.85,18.85,0,0,0-5.07,2.37,22.62,22.62,0,0,0-2.31,1.75,23,23,0,0,0-2,2.15,19.39,19.39,0,0,0-1.31,23,22.13,22.13,0,0,0,1.77,2.37,23.25,23.25,0,0,0,2.1,2,18.53,18.53,0,0,0,4.77,2.93,19.56,19.56,0,0,0,23.88-6.95,18.88,18.88,0,0,0,2.49-5.08,16,16,0,0,0,.54-2,9.57,9.57,0,0,0,.26-1.49c0-.39.09-.69.13-.93a1.43,1.43,0,0,1,.06-.32,1.93,1.93,0,0,1,0,.32c0,.24,0,.55-.08.94a9.14,9.14,0,0,1-.21,1.51,14.19,14.19,0,0,1-.5,2,18.41,18.41,0,0,1-2.44,5.18,19.89,19.89,0,0,1-13.89,8.66A19.93,19.93,0,0,1,274.37,61a18.75,18.75,0,0,1-4.9-3,20.73,20.73,0,0,1-2.15-2.05,21.93,21.93,0,0,1-1.83-2.42A19.26,19.26,0,0,1,263,47.84a21.09,21.09,0,0,1-.67-6.36,19.93,19.93,0,0,1,4.56-11.56,20.73,20.73,0,0,1,2.09-2.2,22.31,22.31,0,0,1,2.37-1.79,18.87,18.87,0,0,1,5.2-2.42A19.92,19.92,0,0,1,287,23.28a19.9,19.9,0,0,1,12.83,10.18,18.5,18.5,0,0,1,1.83,5.42,12.29,12.29,0,0,1,.26,2.07,9.29,9.29,0,0,1,.05,1.53c0,.39,0,.7,0,.94A1.25,1.25,0,0,1,301.92,43.74Z"></path><path class="cls-7" d="M226,6l.13-.19a2.88,2.88,0,0,1,.45-.52,7.66,7.66,0,0,1,2.3-1.41,31.73,31.73,0,0,1,10.26-1.79,98.82,98.82,0,0,1,16.59.9,152,152,0,0,1,21.69,4.44q5.94,1.68,12.31,4a139.19,139.19,0,0,1,13,5.5A137.32,137.32,0,0,1,316,24.32L329.54,33l61.16,39.2.22.14-.14.21L373,100.27,355.22,128l-.13.22-.22-.14L293.72,88.8l-13.56-8.71-6.47-4.16c-2.11-1.42-4.06-3-5.95-4.51a143.9,143.9,0,0,1-19.09-19.11,174.79,174.79,0,0,1-12.77-18.09,111.34,111.34,0,0,1-7.75-14.69,32.19,32.19,0,0,1-2.81-10,7.37,7.37,0,0,1,.29-2.69,2.71,2.71,0,0,1,.29-.63A2.05,2.05,0,0,1,226,6a5.05,5.05,0,0,0-.36.85,7.44,7.44,0,0,0-.24,2.66,32.62,32.62,0,0,0,2.88,10,111.67,111.67,0,0,0,7.81,14.63,174.44,174.44,0,0,0,12.8,18,142.94,142.94,0,0,0,19.09,19c1.88,1.53,3.84,3.07,5.92,4.47l6.48,4.15L294,88.42l61.18,39.21-.36.08L372.57,100l17.77-27.7.08.35L329.29,33.39l-13.56-8.71a137.73,137.73,0,0,0-13.18-7.38c-4.37-2.14-8.71-3.94-12.93-5.51s-8.32-2.92-12.27-4.06a153.22,153.22,0,0,0-21.64-4.49,98.24,98.24,0,0,0-16.54-1A32,32,0,0,0,228.94,4a7.74,7.74,0,0,0-2.31,1.36A5.87,5.87,0,0,0,226,6Z"></path><path class="cls-3" d="M306.77,232.35H133.1a20.53,20.53,0,0,1-20.53-20.53h0a20.53,20.53,0,0,1,20.53-20.54H306.77a20.53,20.53,0,0,1,20.53,20.54h0A20.53,20.53,0,0,1,306.77,232.35Z"></path><path class="cls-7" d="M306.77,232.35l1.22-.09a12.18,12.18,0,0,0,1.5-.15,16.29,16.29,0,0,0,2.05-.4l1.22-.32c.42-.13.85-.31,1.31-.47l.7-.27.71-.34a13.87,13.87,0,0,0,1.47-.77,20.13,20.13,0,0,0,5.95-5.22,16.48,16.48,0,0,0,1.31-1.91,17.47,17.47,0,0,0,1.13-2.15,21.75,21.75,0,0,0,.92-2.38l.33-1.28.17-.65.1-.67.21-1.37q0-.69.06-1.41l0-.71,0-.73c0-.48,0-1-.09-1.46a22.05,22.05,0,0,0-1.58-5.92,20.79,20.79,0,0,0-9.07-9.81,19.84,19.84,0,0,0-7-2.23,78.19,78.19,0,0,0-7.86-.17l-168.39.07a20.18,20.18,0,0,0-15.78,7.55,20.29,20.29,0,0,0-4.41,10.83,22,22,0,0,0,.3,5.84,20.31,20.31,0,0,0,5.29,10.12,20.14,20.14,0,0,0,9.73,5.6A23.51,23.51,0,0,0,131,232c.94,0,1.86.13,2.81.11h27.5l75.71,0,51,.09,13.88.05,3.61,0,1.23,0-1.23,0-3.61,0-13.88,0-51,.08-75.71.06h-27.5c-.94,0-1.91-.07-2.86-.11a22.71,22.71,0,0,1-2.83-.52,20.63,20.63,0,0,1-10-5.74,21.24,21.24,0,0,1-3.46-4.77,22.09,22.09,0,0,1-2-5.6,22.67,22.67,0,0,1-.3-6,20.81,20.81,0,0,1,4.51-11.1,22.82,22.82,0,0,1,4.5-4.16A20.78,20.78,0,0,1,133.11,191l168.39.08c2.69,0,5.32-.11,7.9.19a20.68,20.68,0,0,1,7.15,2.28,21,21,0,0,1,9.17,10,22,22,0,0,1,1.59,6c.05.5.05,1,.08,1.48l0,.74,0,.72c0,.48-.05,1-.07,1.43s-.14.92-.22,1.38l-.1.68-.17.66c-.12.43-.23.86-.34,1.29a23.48,23.48,0,0,1-.94,2.4,17.17,17.17,0,0,1-1.16,2.17,15.9,15.9,0,0,1-1.33,1.92,20.09,20.09,0,0,1-6,5.23,12.45,12.45,0,0,1-1.49.77l-.72.34-.7.26c-.47.16-.9.33-1.33.47l-1.22.3a17.07,17.07,0,0,1-2.06.38,10.26,10.26,0,0,1-1.51.12C307.18,232.35,306.77,232.35,306.77,232.35Z"></path><circle class="cls-3" cx="298.89" cy="210.69" r="9.14" transform="translate(-61.44 273.06) rotate(-45)"></circle><path class="cls-7" d="M298.89,220.33a9.64,9.64,0,1,1,9.63-9.64A9.65,9.65,0,0,1,298.89,220.33Zm0-18.28a8.64,8.64,0,1,0,8.63,8.64A8.66,8.66,0,0,0,298.89,202.05Z"></path><rect class="cls-7" x="309.62" y="213.96" width="1" height="9.15" transform="translate(-40.23 364.08) rotate(-57.73)"></rect><path class="cls-7" d="M141.41,215.14l.75-1.67a5.66,5.66,0,0,0,3.17,1c1.31,0,1.85-.44,1.85-1,0-1.79-5.58-.56-5.58-4.12,0-1.63,1.32-3,4-3a6.44,6.44,0,0,1,3.33.85l-.68,1.69a5.4,5.4,0,0,0-2.66-.76c-1.32,0-1.82.5-1.82,1.1,0,1.77,5.57.55,5.57,4.07,0,1.6-1.33,3-4.07,3A6.8,6.8,0,0,1,141.41,215.14Z"></path><path class="cls-7" d="M157.93,213h-5.58a2,2,0,0,0,2.11,1.48,2.47,2.47,0,0,0,1.85-.71l1.14,1.23a3.82,3.82,0,0,1-3,1.2c-2.55,0-4.21-1.61-4.21-3.8a3.76,3.76,0,0,1,3.94-3.79,3.64,3.64,0,0,1,3.83,3.82C158,212.59,157.94,212.83,157.93,213Zm-5.6-1.24H156a1.84,1.84,0,0,0-3.63,0Z"></path><path class="cls-7" d="M165.71,211.88v4.21h-2v-.92a2.42,2.42,0,0,1-2.25,1c-1.72,0-2.75-1-2.75-2.24s.92-2.2,3.16-2.2h1.7c0-.92-.55-1.45-1.7-1.45a3.55,3.55,0,0,0-2.12.68L159,209.5a5.63,5.63,0,0,1,3.18-.89C164.41,208.61,165.71,209.65,165.71,211.88Zm-2.14,1.88V213h-1.46c-1,0-1.32.37-1.32.87s.45.89,1.21.89A1.57,1.57,0,0,0,163.57,213.76Z"></path><path class="cls-7" d="M172.22,208.61v2l-.48,0a1.82,1.82,0,0,0-2,2.06v3.48h-2.14v-7.37h2v1A3,3,0,0,1,172.22,208.61Z"></path><path class="cls-7" d="M172.87,212.4a3.81,3.81,0,0,1,4.11-3.79,3.38,3.38,0,0,1,3.3,1.87l-1.65.89a1.84,1.84,0,0,0-1.66-1,2,2,0,0,0,0,4.08,1.82,1.82,0,0,0,1.66-1l1.65.9a3.41,3.41,0,0,1-3.3,1.87A3.81,3.81,0,0,1,172.87,212.4Z"></path><path class="cls-7" d="M189,211.87v4.22h-2.14V212.2c0-1.2-.55-1.74-1.5-1.74s-1.76.63-1.76,2v3.65h-2.14V205.92h2.14v3.56a3.23,3.23,0,0,1,2.34-.87C187.68,208.61,189,209.62,189,211.87Z"></path><path class="cls-7" d="M190.4,214.85a1.33,1.33,0,0,1,2.66,0,1.33,1.33,0,1,1-2.66,0Z"></path><path class="cls-7" d="M194,214.85a1.33,1.33,0,0,1,2.66,0,1.33,1.33,0,1,1-2.66,0Z"></path><path class="cls-7" d="M197.58,214.85a1.33,1.33,0,0,1,2.66,0,1.33,1.33,0,1,1-2.66,0Z"></path><path class="cls-8" d="M75.64,70.25l-32.24-17a4.56,4.56,0,0,1-1.9-6.17L65.06,2.43A4.56,4.56,0,0,1,71.23.53l20.45,10.8L98.89,36,81.81,68.35A4.56,4.56,0,0,1,75.64,70.25Z"></path><g class="cls-6"><path class="cls-3" d="M91.68,11.33,85,23.89a4.24,4.24,0,0,0,1.77,5.73L98.89,36Z"></path></g><g class="cls-9"><path d="M84.63,25.08a4.71,4.71,0,0,0,1.17,5.79,3.27,3.27,0,0,0,.35.3c1.43,1.12,10.83,8.44,11,8.21S98.89,36,98.89,36L86.81,29.62S83.85,27.93,84.63,25.08Z"></path></g><path class="cls-10" d="M82.61,22c-.09.16-3.49-1.47-7.61-3.65s-7.39-4.07-7.31-4.23,3.5,1.47,7.62,3.65S82.7,21.79,82.61,22Z"></path><path class="cls-10" d="M88.49,34.14c-.08.16-5.65-2.61-12.43-6.19s-12.2-6.62-12.12-6.78,5.65,2.61,12.43,6.19S88.58,34,88.49,34.14Z"></path><path class="cls-10" d="M87.57,41.23c-.08.16-6.14-2.87-13.53-6.77s-13.31-7.2-13.23-7.36S67,30,74.35,33.88,87.66,41.07,87.57,41.23Z"></path><path class="cls-10" d="M84.62,46.83c-.09.16-6.15-2.87-13.54-6.78S57.77,32.86,57.86,32.7,64,35.57,71.39,39.47,84.7,46.67,84.62,46.83Z"></path><path class="cls-10" d="M81.66,52.42c-.08.16-6.14-2.87-13.53-6.77s-13.31-7.2-13.23-7.36,6.15,2.87,13.54,6.78S81.75,52.26,81.66,52.42Z"></path><path class="cls-10" d="M78.71,58c-.08.16-6.15-2.87-13.53-6.78S51.86,44.05,52,43.89s6.14,2.87,13.53,6.77S78.8,57.86,78.71,58Z"></path><path class="cls-11" d="M234.56,405.8a5.21,5.21,0,0,1-4.41-5.89l6.43-44.73a4.32,4.32,0,0,1,5-3.48l4.2.6a4.46,4.46,0,0,0,4.34-1.82l1.17-1.7a4.46,4.46,0,0,1,4.34-1.82l20,2.87a4.5,4.5,0,0,1,3.5,2.57l.76,1.69a4.5,4.5,0,0,0,3.49,2.57l25.45,3.66a4.31,4.31,0,0,1,3.81,4.76L306,410.82a5.19,5.19,0,0,1-5.88,4.41Z"></path><g class="cls-6"><path d="M234.56,405.8a5.21,5.21,0,0,1-4.41-5.89l6.43-44.73a4.32,4.32,0,0,1,5-3.48l4.2.6a4.46,4.46,0,0,0,4.34-1.82l1.17-1.7a4.46,4.46,0,0,1,4.34-1.82l20,2.87a4.5,4.5,0,0,1,3.5,2.57l.76,1.69a4.5,4.5,0,0,0,3.49,2.57l25.45,3.66a4.31,4.31,0,0,1,3.81,4.76L306,410.82a5.19,5.19,0,0,1-5.88,4.41Z"></path></g><path class="cls-11" d="M280.83,356.3l-16.18-2.36L263.59,351a5.63,5.63,0,0,0-4.54-3.58l-15.82-2.27a5,5,0,0,0-5.79,4l-.26,1.84-7,48.57a5.68,5.68,0,0,0,5,6.26l64.28,9.24a5.68,5.68,0,0,0,6.58-4.59l6.59-45.88a3.74,3.74,0,0,0-3.17-4.24Z"></path><rect class="cls-3" x="254.19" y="373.44" width="38.65" height="16.26" transform="translate(57.09 -35.04) rotate(8.18)"></rect><path class="cls-7" d="M286.89,382.52c0,.15-5.92-.58-13.18-1.63s-13.12-2-13.1-2.15,5.92.59,13.18,1.64S286.91,382.38,286.89,382.52Z"></path><path class="cls-7" d="M286.4,386c0,.15-5.92-.58-13.18-1.63s-13.13-2-13.11-2.15,5.92.59,13.18,1.64S286.42,385.81,286.4,386Z"></path><path class="cls-8" d="M350.65,385.92a3.42,3.42,0,0,1-4.41-2l-10.6-27.7a2.83,2.83,0,0,1,1.75-3.6l2.6-1a2.93,2.93,0,0,0,1.91-2.43l.12-1.35a3,3,0,0,1,1.91-2.43l12.36-4.73a3,3,0,0,1,2.83.36l1,.73a2.94,2.94,0,0,0,2.82.35l15.77-6a2.83,2.83,0,0,1,3.7,1.51L393.23,366a3.41,3.41,0,0,1-2,4.41Z"></path><g class="cls-6"><path d="M350.65,385.92a3.42,3.42,0,0,1-4.41-2l-10.6-27.7a2.83,2.83,0,0,1,1.75-3.6l2.6-1a2.93,2.93,0,0,0,1.91-2.43l.12-1.35a3,3,0,0,1,1.91-2.43l12.36-4.73a3,3,0,0,1,2.83.36l1,.73a2.94,2.94,0,0,0,2.82.35l15.77-6a2.83,2.83,0,0,1,3.7,1.51L393.23,366a3.41,3.41,0,0,1-2,4.41Z"></path></g><path class="cls-8" d="M361.37,342.75l-10,3.81-1.54-1.33a3.72,3.72,0,0,0-3.74-.6l-9.8,3.75a3.29,3.29,0,0,0-2,4.17l.44,1.14,11.51,30.08a3.73,3.73,0,0,0,4.88,2l39.81-15.24a3.72,3.72,0,0,0,2.31-4.73l-10.88-28.42a2.47,2.47,0,0,0-3.18-1.42Z"></path><rect class="cls-3" x="352.56" y="354.24" width="25.37" height="10.67" transform="translate(-104.41 154.34) rotate(-20.95)"></rect><path class="cls-7" d="M373.22,355.85a73.77,73.77,0,0,1-8.05,3.36,73.8,73.8,0,0,1-8.23,2.87,73.77,73.77,0,0,1,8.05-3.36A71.42,71.42,0,0,1,373.22,355.85Z"></path><path class="cls-7" d="M374,358a70.8,70.8,0,0,1-8,3.36,71.91,71.91,0,0,1-8.24,2.87,76.21,76.21,0,0,1,8.05-3.36A74.6,74.6,0,0,1,374,358Z"></path><path class="cls-8" d="M390.56,403.19a8.19,8.19,0,0,1,4.24,4.8,14.47,14.47,0,0,1,.56,6.51c-.48,4.22-2.88,8.48-5.46,11.86-3.56-3.11-4.37-8.52-4.62-11.29-.38-4.38,1.59-12.54,5.28-11.88"></path><path class="cls-8" d="M394,433.33a7,7,0,0,1,2.26-6.64,9.31,9.31,0,0,1,6.84-2.14,3.93,3.93,0,0,1,3,1.35,3,3,0,0,1,0,3,6,6,0,0,1-2.24,2.2c-3.08,1.94-6.41,3.24-9.9,2.2"></path><path class="cls-7" d="M389.47,446.27a5.31,5.31,0,0,1,.13-.86c.11-.61.26-1.4.43-2.35a24.53,24.53,0,0,1,2.42-7.49,14.87,14.87,0,0,1,5.38-5.71,9.89,9.89,0,0,1,2.19-1,4.81,4.81,0,0,1,.63-.16.61.61,0,0,1,.22,0,15.1,15.1,0,0,0-2.93,1.34,15.59,15.59,0,0,0-5.22,5.68,26.65,26.65,0,0,0-2.48,7.39c-.21,1-.39,1.77-.52,2.32A4.37,4.37,0,0,1,389.47,446.27Z"></path><path class="cls-7" d="M389.61,409.53a2.28,2.28,0,0,1,0,.38l.06,1.08c.05.95.11,2.32.16,4,.11,3.38.2,8.06.18,13.23s-.15,9.84-.29,13.22c-.07,1.69-.14,3.06-.2,4,0,.44-.05.8-.07,1.08a1.65,1.65,0,0,1-.05.38,2.21,2.21,0,0,1,0-.38l0-1.09c0-1,.05-2.34.09-4,.09-3.38.18-8.05.2-13.22s0-9.83-.08-13.21c0-1.67-.05-3-.07-4v-1.09A1.59,1.59,0,0,1,389.61,409.53Z"></path><path class="cls-8" d="M387.88,435.9a16.35,16.35,0,0,0-8.92-12c-1.19-.57-2.74-.94-3.71-.05s-.76,2.47-.28,3.7a13.93,13.93,0,0,0,12.83,8.66"></path><path class="cls-7" d="M379.54,427.94a4,4,0,0,1,.75.33,7.31,7.31,0,0,1,.86.45c.32.2.7.4,1.08.68a15,15,0,0,1,1.24.94,14.34,14.34,0,0,1,1.32,1.2,18.36,18.36,0,0,1,2.52,3.22,18.12,18.12,0,0,1,1.65,3.75,16,16,0,0,1,.42,1.73,13.74,13.74,0,0,1,.21,1.54,12.06,12.06,0,0,1,.06,1.28,7.19,7.19,0,0,1,0,1,4.61,4.61,0,0,1-.09.82c-.07,0,.05-1.18-.16-3.05a13.76,13.76,0,0,0-.24-1.51c-.1-.54-.27-1.11-.44-1.7a18.1,18.1,0,0,0-1.65-3.67,19,19,0,0,0-2.45-3.18c-.44-.44-.85-.86-1.28-1.21s-.83-.67-1.2-.95C380.58,428.49,379.51,428,379.54,427.94Z"></path><path class="cls-11" d="M91.42,418.82l-.61,29.07,38.28.9c-.13-3.46-19.75-10.86-19.75-10.86l1.2-18.62Z"></path><g class="cls-5"><path class="cls-3" d="M97.54,436.08a1.4,1.4,0,1,0,.61,2.73,1.55,1.55,0,0,0,1.18-1.76,1.57,1.57,0,0,0-1.93-.92"></path></g><g class="cls-5"><path class="cls-3" d="M90.81,447.89,91,445l36.63,2s1.68.74,1.46,1.87Z"></path></g><path class="cls-7" d="M110,437.76c0,.18-.94.23-1.88.78s-1.44,1.28-1.61,1.2.13-1.08,1.28-1.73S110,437.6,110,437.76Z"></path><path class="cls-7" d="M113.94,439.42c0,.18-.78.46-1.44,1.19s-.86,1.52-1,1.51-.28-1,.55-1.91S113.94,439.26,113.94,439.42Z"></path><path class="cls-7" d="M116.1,444c-.17,0-.41-.86.09-1.81s1.39-1.32,1.47-1.17-.48.65-.88,1.44S116.28,444,116.1,444Z"></path><path class="cls-7" d="M109.74,433.49c-.08.16-.94-.11-2-.06s-1.89.34-2,.18.72-.76,2-.8S109.83,433.35,109.74,433.49Z"></path><path class="cls-7" d="M108.94,429.18a3.89,3.89,0,0,1-1.92-.06,9.18,9.18,0,0,1-2-.63,8.13,8.13,0,0,1-1.08-.58,2.14,2.14,0,0,1-.57-.44.73.73,0,0,1-.06-.94,1,1,0,0,1,.83-.38,2.79,2.79,0,0,1,.71.11,7.91,7.91,0,0,1,1.19.41,7.1,7.1,0,0,1,1.73,1.14c.87.8,1.16,1.47,1.09,1.5s-.5-.51-1.39-1.17a7.91,7.91,0,0,0-1.68-.95,7.31,7.31,0,0,0-1.09-.35c-.41-.11-.75-.12-.86.05s0,.09,0,.2a1.62,1.62,0,0,0,.41.32c.34.22.67.41,1,.58a11.8,11.8,0,0,0,1.84.71A11.48,11.48,0,0,1,108.94,429.18Z"></path><path class="cls-7" d="M108.69,429.42c-.07,0-.42-.61-.46-1.76a5.55,5.55,0,0,1,.31-2,5.92,5.92,0,0,1,.52-1.08,1.57,1.57,0,0,1,1.25-.89.92.92,0,0,1,.79.52,2.4,2.4,0,0,1,.18.67,4.1,4.1,0,0,1,0,1.22,4.18,4.18,0,0,1-.86,1.86c-.78.92-1.56,1.11-1.58,1s.6-.42,1.2-1.31a4,4,0,0,0,.65-1.68,3.37,3.37,0,0,0,0-1.05c0-.39-.19-.7-.34-.66s-.52.27-.69.57a6.39,6.39,0,0,0-.5,1,6.17,6.17,0,0,0-.42,1.8C108.61,428.73,108.79,429.4,108.69,429.42Z"></path><path class="cls-11" d="M62.41,421.23l-3.65,28.85-38-4.71c.64-3.41,21.13-7.86,21.13-7.86l1.54-18.59Z"></path><g class="cls-5"><path class="cls-3" d="M53.83,437.42a1.47,1.47,0,0,1,.87,1.8,1.51,1.51,0,0,1-1.87.81,1.56,1.56,0,0,1-.91-1.92,1.59,1.59,0,0,1,2-.63"></path></g><g class="cls-5"><path class="cls-3" d="M58.76,450.08l.25-2.92-36.52-3.43s-1.78.49-1.73,1.64Z"></path></g><path class="cls-7" d="M41.3,437.26c0,.17.9.37,1.75,1s1.24,1.48,1.42,1.43,0-1.1-1-1.9S41.28,437.09,41.3,437.26Z"></path><path class="cls-7" d="M37.13,438.32c-.07.16.7.56,1.24,1.38s.63,1.63.81,1.64.43-1-.26-2S37.15,438.15,37.13,438.32Z"></path><path class="cls-7" d="M34.32,442.55c.16.06.52-.79.16-1.81s-1.18-1.51-1.27-1.37.38.72.66,1.56S34.13,442.51,34.32,442.55Z"></path><path class="cls-7" d="M42.15,433.06c.06.17.94,0,2,.23s1.82.62,1.93.48-.59-.86-1.82-1.08S42.07,432.91,42.15,433.06Z"></path><path class="cls-7" d="M43.57,428.91a3.6,3.6,0,0,0,1.9.23,8.85,8.85,0,0,0,2.06-.33,9.48,9.48,0,0,0,1.16-.41,2.44,2.44,0,0,0,.63-.36.73.73,0,0,0,.2-.92,1,1,0,0,0-.77-.5,2.44,2.44,0,0,0-.72,0,6.55,6.55,0,0,0-1.23.23,7.08,7.08,0,0,0-1.89.87c-1,.67-1.35,1.28-1.29,1.33s.57-.43,1.54-1a7.69,7.69,0,0,1,1.81-.69,6.67,6.67,0,0,1,1.13-.18c.42-.05.76,0,.84.17s0,.09-.07.19a1.39,1.39,0,0,1-.46.26,10.27,10.27,0,0,1-1.07.42,11.23,11.23,0,0,1-1.92.44A15.49,15.49,0,0,0,43.57,428.91Z"></path><path class="cls-7" d="M43.78,429.2a2.8,2.8,0,0,0,.71-1.68,5.62,5.62,0,0,0,0-2,5.05,5.05,0,0,0-.35-1.15,1.54,1.54,0,0,0-1.1-1.06.91.91,0,0,0-.86.4,2.54,2.54,0,0,0-.27.63,3.74,3.74,0,0,0-.15,1.22,4,4,0,0,0,.59,2c.62,1,1.37,1.32,1.4,1.27a13.69,13.69,0,0,1-1-1.47,4.08,4.08,0,0,1-.39-1.76,3.46,3.46,0,0,1,.16-1c.1-.37.29-.66.44-.6s.47.34.59.67a6,6,0,0,1,.36,1,6.44,6.44,0,0,1,.15,1.84C44,428.52,43.68,429.16,43.78,429.2Z"></path><path class="cls-7" d="M121.11,264.49,61.52,266.4S47.47,360.19,47.86,366.7l-8.66,68,25.2.88s4-22.06,6.73-37.16c1.84-10,5.2-24.79,6.11-33.18s15.65-67,15.65-67-1.09,68-1.06,70.8-2.92,66.46-2.92,66.46h25c1.29-11.49,4.36-57.47,5-66.77,1.2-16.77,5-64.17,5.51-76.28S121.11,264.49,121.11,264.49Z"></path><path class="cls-11" d="M117.19,265a10.52,10.52,0,0,1,0-4.28,11,11,0,0,1,0,4.28Z"></path><path class="cls-11" d="M119.66,266.07a5.67,5.67,0,0,1-.24-2.74,5.57,5.57,0,0,1,.69-2.66,20.4,20.4,0,0,1-.26,2.7A19.79,19.79,0,0,1,119.66,266.07Z"></path><path class="cls-11" d="M97.4,261.61a2.3,2.3,0,0,0-1.26.7,1.74,1.74,0,0,0-.41,1.41,1.64,1.64,0,0,0,2.85.55,1.8,1.8,0,0,0,.14-1.47,2.33,2.33,0,0,0-.92-1.12s.17,0,.42.11a1.84,1.84,0,0,1,.79.9,2,2,0,0,1-.09,1.79,2,2,0,0,1-3.59-.69,2.06,2.06,0,0,1,.58-1.69,1.9,1.9,0,0,1,1.06-.55C97.25,261.52,97.4,261.59,97.4,261.61Z"></path><path class="cls-11" d="M69.93,365.09a51.9,51.9,0,0,1-6.38-2.38,53.49,53.49,0,0,1-6.22-2.79,55.47,55.47,0,0,1,6.38,2.38A54.46,54.46,0,0,1,69.93,365.09Z"></path><path class="cls-7" d="M66.69,123.53c.2-3.47,2.33-5.6,5.32-7.37a10.85,10.85,0,0,1,10-.46c2.1,1,3.94,2.71,6.24,3,3.8.49,7.39-3,11.11-2.15a4.94,4.94,0,0,1-.36,9.68c2.49.36,3.89,3.5,3,5.84s-3.52,3.69-6,3.75a13.91,13.91,0,0,1-7.1-2.23c-2.17-1.26-4.2-2.78-6.46-3.86a10.8,10.8,0,0,0-7.3-1.08c-3.29.88-5.62,4-6.47,7.27s-.49,6.77,0,10.13,1.16,6.75.84,10.14a1.26,1.26,0,0,1-.48,1c-.5.28-1.08-.2-1.45-.64a49.87,49.87,0,0,1-9.38-17C57,136,56.38,132.5,57.75,129s6-6.88,8.94-5.45"></path><path class="cls-12" d="M63.49,140.3,69,174.57c1,6.4,5.2,12.58,15.24,10.48h0c8.58-2.48,7.94-8.65,6.83-16.25h0s9.43-2.46,8.58-12.05c-.4-4.64-2-14.12-3.59-22.68a17.94,17.94,0,0,0-19.44-14.62l-.93.1C65.82,121.13,61.63,130.43,63.49,140.3Z"></path><path class="cls-13" d="M91.11,168.8a23.26,23.26,0,0,1-12.85-2.44s3.76,7.13,13.24,5.31Z"></path><path class="cls-7" d="M94.22,142.45A1.38,1.38,0,0,1,93,144a1.31,1.31,0,0,1-1.53-1.09,1.38,1.38,0,0,1,1.18-1.52A1.31,1.31,0,0,1,94.22,142.45Z"></path><path class="cls-7" d="M94.52,139c-.15.19-1.27-.47-2.74-.32s-2.48,1-2.66.84.06-.42.49-.81a3.86,3.86,0,0,1,2.11-.88,3.61,3.61,0,0,1,2.2.47C94.41,138.58,94.59,138.89,94.52,139Z"></path><path class="cls-7" d="M80.81,144.58a1.37,1.37,0,0,1-1.18,1.51A1.31,1.31,0,0,1,78.1,145a1.38,1.38,0,0,1,1.18-1.52A1.32,1.32,0,0,1,80.81,144.58Z"></path><path class="cls-7" d="M80.35,140.7c-.15.2-1.27-.46-2.74-.31s-2.48,1-2.66.83.06-.41.49-.8a3.79,3.79,0,0,1,2.11-.89,3.67,3.67,0,0,1,2.2.48C80.24,140.31,80.42,140.62,80.35,140.7Z"></path><path class="cls-7" d="M86.51,151.09a10.35,10.35,0,0,1,2.35-.67c.37-.08.72-.19.76-.45a2,2,0,0,0-.36-1.09c-.45-.87-.91-1.79-1.4-2.75-2-3.92-3.41-7.16-3.25-7.24s1.87,3,3.82,7c.47,1,.93,1.89,1.36,2.77a2.27,2.27,0,0,1,.34,1.46,1,1,0,0,1-.56.61,2.64,2.64,0,0,1-.63.16A9.07,9.07,0,0,1,86.51,151.09Z"></path><path class="cls-7" d="M79.87,134.9c-.1.41-1.59.37-3.3.75s-3.06,1-3.32.66c-.12-.16.08-.56.61-1a5.65,5.65,0,0,1,2.4-1.12,5.73,5.73,0,0,1,2.64,0C79.56,134.42,79.91,134.7,79.87,134.9Z"></path><path class="cls-7" d="M93.55,134.77c-.23.36-1.28.12-2.5.22s-2.23.45-2.5.13c-.12-.16,0-.51.43-.88a3.6,3.6,0,0,1,4-.27C93.47,134.27,93.65,134.6,93.55,134.77Z"></path><path class="cls-12" d="M65,147.31c-.17-.05-6.78-1.28-5.91,5.25s7.25,4.31,7.23,4.12S65,147.31,65,147.31Z"></path><path class="cls-13" d="M64,154.47s-.1.1-.28.21a1.17,1.17,0,0,1-.85.13,2.83,2.83,0,0,1-1.64-2.35,3.7,3.7,0,0,1,.1-1.67,1.33,1.33,0,0,1,.74-1,.59.59,0,0,1,.71.22c.12.18.09.31.13.32s.12-.13,0-.39a.8.8,0,0,0-.32-.38.88.88,0,0,0-.65-.08,1.59,1.59,0,0,0-1.05,1.17,3.86,3.86,0,0,0-.15,1.87,3,3,0,0,0,2,2.6,1.23,1.23,0,0,0,1-.31C64,154.63,64,154.48,64,154.47Z"></path><path class="cls-7" d="M95.32,125.13a12.58,12.58,0,0,0-4.49-4.23A21.41,21.41,0,0,0,78,117.72a17.47,17.47,0,0,0-11.73,5.83,18.45,18.45,0,0,0-4.11,9.77,27.12,27.12,0,0,0,1,10.63,8.11,8.11,0,0,0,2.21,4.1c.75.64,2,1,2.67.31a2.58,2.58,0,0,0,.61-1.59c.75-5.18,1.45-10.74-.89-15.42a15.05,15.05,0,0,1,4.09-4.6,7.85,7.85,0,0,1,5.87-1.42c3,.61,5.1,3.27,7.63,5a13.89,13.89,0,0,0,12.57,1.53Z"></path><path class="cls-13" d="M87.81,155.07a6.49,6.49,0,0,1-.49,1.8A2.18,2.18,0,0,1,86,158.08a2,2,0,0,1-1.83-.55,3.12,3.12,0,0,1-.84-1.77c-.1-.59,0-1.35.59-1.54a1.47,1.47,0,0,1,.75,0l3.33.6"></path><path class="cls-7" d="M87.11,157.85a4.23,4.23,0,0,1-1.68.14,2.36,2.36,0,0,1-1.47-.86,2.51,2.51,0,0,1-.46-2,2.26,2.26,0,0,1,.17-.52c.09-.15.07-.14.21-.15s.35.06.53.09l.55.1c.71.13,1.36.24,1.9.32a5.33,5.33,0,0,0,1.78.15,6.35,6.35,0,0,0-1.7-.54c-.54-.13-1.17-.28-1.88-.43l-.54-.12a6,6,0,0,0-.61-.12.84.84,0,0,0-.46.11,1,1,0,0,0-.28.34A2.56,2.56,0,0,0,83,155a2.89,2.89,0,0,0,.61,2.43,2.66,2.66,0,0,0,1.82.94,2.58,2.58,0,0,0,1.34-.23C87,158,87.13,157.88,87.11,157.85Z"></path><path class="cls-12" d="M111.46,141l1.55-.42L137.14,164l19.54,2.35s-.2-5.91-7.55-13.45c-6.56-6.72-21.91-14.75-27.11-18.87a8.23,8.23,0,0,0-2.25-1.35Z"></path><path class="cls-12" d="M111.45,129.81l-2.47-.69-5.82-2.76-6.62,2.46s.15,2.27,1.89,1.65l-6.93,2.29s.56,1.64.88,1.75a38.59,38.59,0,0,1-4.08.48s0,2.23,4.15,2.19,5.76-.76,5.76-.76l3.33.89-.13,2-4.54-.06.21,2.54a53.24,53.24,0,0,0,5.84.89s7,.1,8.9-.81,4.32-2.24,4.32-2.24l3.63-6.92Z"></path><path class="cls-13" d="M105.2,131c0,.06-.39-.14-1-.41a16,16,0,0,1-2.35-1.25h.3l-.27.18a6.74,6.74,0,0,1-2.73,1c-.74.09-1.2,0-1.2,0a15.3,15.3,0,0,0,3.66-1.4l.25-.16.15-.1.15.1c.81.57,1.66,1,2.22,1.36S105.25,130.94,105.2,131Z"></path><path class="cls-13" d="M103.07,134.51c0,.05-.45.16-1.12-.12s-1.42-1-2.37-1.4l.24,0a10.52,10.52,0,0,1-1.33.76,9.57,9.57,0,0,1-3.75.92,3.18,3.18,0,0,1-1.58-.18,16.46,16.46,0,0,0,5.1-1.21,10.22,10.22,0,0,0,1.28-.71l.13-.08.11.06c1.08.54,1.71,1.28,2.3,1.58S103.07,134.44,103.07,134.51Z"></path><path class="cls-13" d="M109.27,136.68c0,.09-.51-.07-1.3-.06a5.55,5.55,0,0,0-2.88.87,5.06,5.06,0,0,0-1.43,1.41l-.06.09-.09,0a8.54,8.54,0,0,1-2.37.29,7.7,7.7,0,0,1,2.28-.74l-.15.11a4.77,4.77,0,0,1,1.53-1.62,5,5,0,0,1,3.18-.79C108.84,136.34,109.3,136.63,109.27,136.68Z"></path><path class="cls-14" d="M119.77,132.69l-8.32-2.88-2.47-.69-5.82-2.76-6.62,2.46s.15,2.27,1.89,1.65l-6.93,2.29s.56,1.64.88,1.75a38.59,38.59,0,0,1-4.08.48s0,2.23,4.15,2.19,5.76-.76,5.76-.76l3.33.89-.13,2-4.32-.18.45,2.79a43.46,43.46,0,0,0,5.38.76s7,.1,8.9-.81,4.32-2.24,4.32-2.24"></path><path class="cls-13" d="M116.14,139.61a.68.68,0,0,1-.2.14l-.63.35-2.42,1.32a7.79,7.79,0,0,1-1.83.82,15.85,15.85,0,0,1-2.35.37,56.25,56.25,0,0,1-5.79.24h0l-2.61-.26a17.86,17.86,0,0,1-2.86-.49l-.1,0,0-.13c-.14-.88-.29-1.82-.45-2.8l-.05-.27h.28l4.32.17-.26.23c0-.62.09-1.3.13-2l.19.25-3.34-.88.17,0a17.58,17.58,0,0,1-5,.77,11.74,11.74,0,0,1-2.63-.14,3.37,3.37,0,0,1-2.37-1.43A2,2,0,0,1,88,135v-.24l.25,0c1-.09,2.07-.18,3.08-.3.25,0,.5-.06.74-.09l.16,0s0,0,0,0l0,0a.24.24,0,0,0-.06.23c0,.09.18.2.14.17a.55.55,0,0,1-.16-.11,1.56,1.56,0,0,1-.27-.37,12.43,12.43,0,0,1-.6-1.43l-.09-.24.25-.09,7-2.27.16.46a1.86,1.86,0,0,1-.88.1,1.37,1.37,0,0,1-.78-.45,2.73,2.73,0,0,1-.56-1.51l0-.18.18-.06,6.63-2.44.08,0,.08,0,5.81,2.79h0l2.43.7,2.12.75,3.36,1.21,2.11.78a4.85,4.85,0,0,1,.72.3,4,4,0,0,1-.75-.2c-.53-.18-1.24-.41-2.14-.69l-3.39-1.13-2.12-.72-2.44-.66h0l-5.84-2.73h.17L96.62,129l.16-.23a2.24,2.24,0,0,0,.45,1.22,1,1,0,0,0,1.12.21l.16.46L91.58,133l.16-.33a9,9,0,0,0,.57,1.35,1.21,1.21,0,0,0,.16.25h0a.36.36,0,0,0-.06.11h0c.1-.26,0-.07.07-.13l.07,0a.27.27,0,0,1,.09.15.26.26,0,0,1-.07.24l-.08.06-.09,0-.21,0-.77.1c-1,.12-2,.21-3.09.3l.23-.26a1.52,1.52,0,0,0,.2.6,2.86,2.86,0,0,0,2,1.18,10.58,10.58,0,0,0,2.52.13,17.24,17.24,0,0,0,4.81-.71l.1,0,.07,0,3.33.9.2,0,0,.2c0,.69-.09,1.36-.13,2l0,.24-.23,0-4.32-.2.24-.26c.15,1,.3,1.92.43,2.8l-.12-.16a20.06,20.06,0,0,0,2.72.47l2.59.29h0c2.13,0,4.06,0,5.75-.16A15.42,15.42,0,0,0,111,142a7.56,7.56,0,0,0,1.8-.76l2.46-1.21.65-.31Z"></path><path class="cls-13" d="M107.78,132.08a10.47,10.47,0,0,1-5.88,4.19c-.06-.14,1.4-.84,3-2S107.66,132,107.78,132.08Z"></path><path class="cls-8" d="M156.51,165.64,137.14,164,114.3,172.7l-5,3.06,7.15,24.4s35.79-21.09,37.31-22.9A13,13,0,0,0,156.51,165.64Z"></path><path class="cls-8" d="M53.11,183.59l-6.66,4.13,15.38,60.54L59,283.12c4,3.46,14,6.43,33,5.35s31.69-9.31,31.69-9.31l-1.82-35.91-4.33-40.51L112.72,175,98.08,176.1l-5.71-3.38L89.81,174l-3.28,9.09L78,176.92,68,172.1l-3.65,6.82Z"></path><path class="cls-7" d="M112.72,182.08a7.91,7.91,0,0,1,.52,1.35c.32.88.73,2.16,1.2,3.75a124.38,124.38,0,0,1,3,12.66,124.33,124.33,0,0,1,1.58,12.9c.11,1.67.16,3,.17,3.94a6.83,6.83,0,0,1,0,1.45,9.09,9.09,0,0,1-.17-1.44c-.09-1-.2-2.34-.34-3.92-.31-3.3-.84-7.85-1.73-12.84s-1.95-9.44-2.8-12.65c-.41-1.53-.76-2.8-1-3.79A6.76,6.76,0,0,1,112.72,182.08Z"></path><path class="cls-7" d="M83.8,182.56a3.8,3.8,0,0,1-1.38-.5,8.79,8.79,0,0,1-3-2.59l.36-.1A34.27,34.27,0,0,1,78,188.12l-.12.32-.28-.2-.7-.48c-3.44-2.37-6.55-4.55-8.77-6.14l-2.63-1.91a5.28,5.28,0,0,1-.92-.76,5.13,5.13,0,0,1,1,.59l2.71,1.77c2.29,1.52,5.42,3.65,8.86,6l.71.49-.4.12a36.45,36.45,0,0,0,1.88-8.6l0-.54.31.44a9.14,9.14,0,0,0,2.81,2.62C83.33,182.34,83.82,182.52,83.8,182.56Z"></path><path class="cls-7" d="M97.49,177.21a30.93,30.93,0,0,1-3.25,3.69l-.18.2-.18-.21a22.35,22.35,0,0,0-2.17-2.2c-.41-.36-.83-.7-1.24-1l-.61-.44c-.09-.07-.14-.06-.12-.06s0,0-.09.14c-.33.85-.64,1.65-.93,2.38a10.46,10.46,0,0,1-1,2.15,10.38,10.38,0,0,1,.64-2.27c.26-.75.54-1.57.83-2.43a.67.67,0,0,1,.35-.42.61.61,0,0,1,.58.09c.22.15.43.29.64.45.43.32.86.66,1.28,1a18.63,18.63,0,0,1,2.2,2.28H93.9A33.52,33.52,0,0,1,97.49,177.21Z"></path><path class="cls-11" d="M93.53,285.9a41.43,41.43,0,1,1-9.85,78.27h0a41.42,41.42,0,0,1,9.85-78.27Zm14.77,78.69a38.64,38.64,0,1,0-23.45-2.94A38.63,38.63,0,0,0,108.3,364.59Z"></path><path class="cls-11" d="M101.11,370.05A43.61,43.61,0,1,1,116,367.39,43.19,43.19,0,0,1,101.11,370.05Zm.08-80.12A36.67,36.67,0,0,0,85.7,359.84a36.35,36.35,0,0,0,22.23,2.78h0a36.79,36.79,0,0,0,26.47-20.54,36.69,36.69,0,0,0-33.21-52.15Z"></path><path class="cls-11" d="M.39,286.13l.37-.9c.78-1.94,2.5-3.06,3.84-2.52l60.54,24.64c.3.12.4.56.23,1l-2.58,6.34c-.18.43-.56.68-.86.56L1.39,290.61C.05,290.07-.4,288.06.39,286.13Z"></path><path class="cls-12" d="M56.93,216.42l-7.28,24.09L53.3,289.6,42.56,291s-12.3-41.84-11.08-49.35S37.68,212,37.68,212Z"></path><path class="cls-12" d="M53.28,289.26l5,8.53,3.12,8L56.68,304s-2,9.66-2.81,9.92-3.06-.53-2.83-2.38a3.1,3.1,0,0,1-2.55.84c-1.42-.3-1.75-1.21-1.6-3,0,0-1.65,1.35-2.64.51a3,3,0,0,1-.89-2.3s-2.15.19-2.45-.93a18.45,18.45,0,0,1-.12-5.51c.25-1.22,1.29-6.18,1.29-6.18l.48-4Z"></path><path class="cls-13" d="M52.1,305.93a9,9,0,0,0-.75,2.74A9.33,9.33,0,0,0,51,311.5a18.16,18.16,0,0,0,1.06-5.57Z"></path><path class="cls-13" d="M47.72,304.81a11.69,11.69,0,0,0-.9,4.46,5.94,5.94,0,0,0,.67-2.18A6.24,6.24,0,0,0,47.72,304.81Z"></path><path class="cls-13" d="M44.06,303.78a6,6,0,0,0-.39,1.9c-.17,1-.44,1.84-.31,1.89a3,3,0,0,0,.75-1.82A3.59,3.59,0,0,0,44.06,303.78Z"></path><path class="cls-13" d="M57.05,301.18a10.35,10.35,0,0,0-.8,2.68,10.55,10.55,0,0,0-.51,2.75,7.82,7.82,0,0,0,.94-2.65A7.59,7.59,0,0,0,57.05,301.18Z"></path><path class="cls-8" d="M30.89,257.84c0-.82-3.36-12.27-2.34-18.2s13.22-46,14.86-48.86a12.49,12.49,0,0,1,5.21-4.41,19.9,19.9,0,0,1,9.71,12.18c2.46,8.79,2.46,19.83,2.46,19.83L51,242.71l1.17,13.81Z"></path><path class="cls-7" d="M60.16,217.58c-.1,0,.09-1.8,0-4.68a41.14,41.14,0,0,0-.49-5,45.37,45.37,0,0,0-1.41-6,46,46,0,0,0-2.31-5.74,41.55,41.55,0,0,0-2.5-4.39c-1.58-2.41-2.76-3.76-2.69-3.82a4.9,4.9,0,0,1,.88.9,29,29,0,0,1,2.12,2.72,36.39,36.39,0,0,1,2.62,4.38,41.52,41.52,0,0,1,2.37,5.79,42,42,0,0,1,1.4,6.11,38.32,38.32,0,0,1,.38,5.09,27.34,27.34,0,0,1-.17,3.44A6.59,6.59,0,0,1,60.16,217.58Z"></path><path class="cls-7" d="M59.53,222.66a17.91,17.91,0,0,1-1,3c-.71,1.84-1.78,4.35-3,7.09l-3.16,7a23.25,23.25,0,0,1-1.36,2.9,17.91,17.91,0,0,1,1-3c.71-1.84,1.78-4.35,3-7.09l3.16-7A24.19,24.19,0,0,1,59.53,222.66Z"></path><path class="cls-7" d="M51.54,243.65a44.48,44.48,0,0,0-6.72-2.92,45.92,45.92,0,0,0-7.22-1.28,7.08,7.08,0,0,1,2.18-.11,21.59,21.59,0,0,1,10,3A6.69,6.69,0,0,1,51.54,243.65Z"></path><path class="cls-3" d="M115.4,312.56c.09.11-7.79,7-17.61,15.41s-17.85,15.12-17.94,15,7.79-7,17.61-15.41S115.31,312.45,115.4,312.56Z"></path><path class="cls-3" d="M125.54,312.56c.1.11-6.54,6-14.83,13.09s-15.07,12.8-15.17,12.69,6.55-6,14.83-13.09S125.45,312.45,125.54,312.56Z"></path><path class="cls-7" d="M140.47,326.61s0-.22-.05-.64-.07-1.06-.12-1.86c0-.42-.06-.87-.09-1.38s-.16-1.05-.25-1.64-.19-1.23-.3-1.91-.34-1.39-.51-2.15a37.79,37.79,0,0,0-4.36-10.42,39,39,0,0,0-9.95-11.1l-1.69-1.26c-.6-.39-1.22-.75-1.84-1.13s-1.23-.79-1.91-1.1l-2-1-1-.49-1.09-.4-2.2-.8c-.75-.25-1.53-.4-2.3-.62a20.38,20.38,0,0,0-2.37-.53,36.24,36.24,0,0,0-4.94-.57c-.84,0-1.69-.11-2.55-.1l-2.58.13c-.44,0-.88,0-1.31.09l-1.3.2c-.87.14-1.76.25-2.63.43a41.21,41.21,0,0,0-5.21,1.53,40.72,40.72,0,0,0-5.09,2.23c-.83.45-1.62,1-2.44,1.46-.4.25-.82.47-1.2.76l-1.15.86a36.11,36.11,0,0,0-8.26,8.29l-.9,1.21L68,306l-.78,1.29a10.82,10.82,0,0,0-.73,1.34l-1.32,2.75c-.36,1-.71,1.92-1.06,2.89a41.61,41.61,0,0,0-2,12.32,42,42,0,0,0,2,12.33c.36,1,.71,1.93,1.06,2.89s.89,1.84,1.33,2.75l.33.69.4.65L68,347.2l.79,1.28.9,1.21a43.84,43.84,0,0,0,3.82,4.52A44.64,44.64,0,0,0,78,358l1.15.86c.39.29.81.51,1.21.77.82.48,1.61,1,2.43,1.45a42.93,42.93,0,0,0,10.31,3.77c.87.18,1.76.28,2.63.42l1.3.21c.44.05.87.05,1.31.08l2.58.13c.86,0,1.71-.07,2.55-.09a36.24,36.24,0,0,0,4.94-.58,18.51,18.51,0,0,0,2.37-.53c.77-.21,1.56-.37,2.3-.62l2.2-.8,1.09-.39,1-.49,2-1a21.06,21.06,0,0,0,1.91-1.1c.62-.38,1.24-.74,1.84-1.13l1.69-1.26a38.86,38.86,0,0,0,9.95-11.1,37.79,37.79,0,0,0,4.36-10.42c.17-.76.43-1.46.51-2.14s.21-1.32.3-1.92.2-1.13.25-1.64.06-1,.09-1.37c0-.81.09-1.43.12-1.87s.05-.63.05-.63,0,.21,0,.63,0,1.07-.07,1.88c0,.41,0,.87-.06,1.37s-.14,1.06-.22,1.65l-.28,1.93c-.08.69-.33,1.39-.5,2.16a36.82,36.82,0,0,1-4.3,10.52,39.11,39.11,0,0,1-10,11.25l-1.7,1.27c-.6.4-1.23.76-1.85,1.15s-1.24.81-1.92,1.12l-2,1-1,.5-1.1.4-2.22.82c-.75.25-1.54.42-2.33.63a20.75,20.75,0,0,1-2.39.55,35.43,35.43,0,0,1-5,.59c-.85,0-1.71.12-2.58.11L98.27,366c-.43,0-.88,0-1.32-.09l-1.32-.2c-.88-.14-1.77-.24-2.66-.42a42.62,42.62,0,0,1-5.27-1.54,42,42,0,0,1-5.17-2.26c-.83-.45-1.63-1-2.46-1.47-.41-.26-.84-.48-1.23-.77l-1.16-.87a43.51,43.51,0,0,1-4.49-3.81A43.84,43.84,0,0,1,69.31,350l-.92-1.22-.79-1.3-.8-1.31-.4-.66-.34-.69c-.44-.93-.89-1.86-1.34-2.79l-1.08-2.93a39.13,39.13,0,0,1,0-25c.35-1,.71-2,1.07-2.93l1.35-2.79a9.76,9.76,0,0,1,.73-1.35l.8-1.31.8-1.3.91-1.22a45.1,45.1,0,0,1,3.88-4.58,43.51,43.51,0,0,1,4.49-3.81l1.17-.87c.38-.29.81-.51,1.22-.77.83-.49,1.63-1,2.46-1.47a42,42,0,0,1,5.17-2.26A42.57,42.57,0,0,1,93,287.93c.89-.18,1.78-.29,2.66-.43l1.32-.2c.44-.06.88-.05,1.32-.08l2.62-.13c.86,0,1.72.07,2.58.1a38.65,38.65,0,0,1,5,.59,21.25,21.25,0,0,1,2.39.55c.78.22,1.57.38,2.33.63l2.22.82,1.09.4,1.05.5,2,1c.69.31,1.29.76,1.93,1.12s1.25.75,1.85,1.15l1.7,1.28a39,39,0,0,1,10,11.24,37,37,0,0,1,4.3,10.53c.17.76.42,1.46.5,2.15s.19,1.33.28,1.93.18,1.14.22,1.65,0,1,.06,1.38c0,.81,0,1.43.07,1.87S140.47,326.61,140.47,326.61Z"></path><path class="cls-7" d="M126,347.47a12.62,12.62,0,0,1,1-1.33,36.88,36.88,0,0,0,2.5-3.75,34.53,34.53,0,0,0,3-28.63,40.64,40.64,0,0,0-1.67-4.18,11.75,11.75,0,0,1-.69-1.51s.1.11.25.35.37.59.62,1.07a30.76,30.76,0,0,1,1.83,4.15,33.42,33.42,0,0,1-3,28.94,30.52,30.52,0,0,1-2.66,3.68c-.34.42-.64.71-.83.92S126,347.49,126,347.47Z"></path><path class="cls-7" d="M123.89,351.07c.07.12-.24.43-.69.69s-.88.37-1,.24.24-.43.69-.69S123.82,350.94,123.89,351.07Z"></path><path class="cls-3" d="M72.33,343.44a2.38,2.38,0,0,1-.24-.47c-.14-.32-.36-.78-.59-1.4a35,35,0,0,1-1.58-5.34A38.48,38.48,0,0,1,79.17,302a36.12,36.12,0,0,1,4.06-3.81c.5-.42.93-.71,1.21-.91a2.11,2.11,0,0,1,.45-.29,20.08,20.08,0,0,1-1.53,1.35,42.75,42.75,0,0,0-3.92,3.91,39.36,39.36,0,0,0-9.16,33.94,42,42,0,0,0,1.41,5.35A19.1,19.1,0,0,1,72.33,343.44Z"></path><path class="cls-3" d="M95.54,294.42a5.31,5.31,0,0,1-2.31.46,5.3,5.3,0,0,1-2.36-.07,5.62,5.62,0,0,1,2.31-.45A5.55,5.55,0,0,1,95.54,294.42Z"></path></g></g></svg>