<svg xmlns="http://www.w3.org/2000/svg" xmlns:xlink="http://www.w3.org/1999/xlink" viewBox="0 0 2773.84 2800"><defs><style>.cls-1{fill:url(#linear-gradient);}.cls-2{fill:#7d97f4;}.cls-3{fill:#91b3fa;}.cls-4,.cls-5,.cls-8,.cls-9{fill:#fff;}.cls-4{opacity:0.83;}.cls-5{opacity:0.75;}.cls-6{fill:url(#linear-gradient-2);}.cls-7{fill:url(#linear-gradient-3);}.cls-9{opacity:0.78;}.cls-10{fill:url(#linear-gradient-4);}.cls-11{fill:url(#linear-gradient-5);}.cls-12{fill:url(#linear-gradient-6);}.cls-13{fill:url(#linear-gradient-7);}.cls-14{fill:url(#linear-gradient-8);}.cls-15{fill:url(#linear-gradient-9);}.cls-16{fill:url(#linear-gradient-10);}.cls-17{fill:url(#linear-gradient-11);}.cls-18{fill:url(#linear-gradient-12);}.cls-19{fill:url(#linear-gradient-13);}.cls-20{fill:url(#linear-gradient-14);}.cls-21{fill:url(#linear-gradient-15);}.cls-22{fill:url(#linear-gradient-16);}.cls-23{fill:url(#linear-gradient-17);}.cls-24{fill:url(#linear-gradient-18);}.cls-25{fill:url(#linear-gradient-19);}.cls-26{fill:url(#linear-gradient-20);}.cls-27{opacity:0.64;}.cls-28{fill:url(#linear-gradient-21);}.cls-29{fill:url(#linear-gradient-22);}.cls-30{fill:url(#linear-gradient-23);}.cls-31{fill:url(#linear-gradient-24);}.cls-32{fill:url(#linear-gradient-25);}.cls-33{fill:url(#linear-gradient-26);}.cls-34{fill:url(#linear-gradient-27);}.cls-35{fill:url(#linear-gradient-28);}.cls-36{fill:url(#linear-gradient-29);}.cls-37{fill:url(#linear-gradient-30);}.cls-38{fill:url(#linear-gradient-31);}.cls-39{fill:url(#linear-gradient-32);}.cls-40{fill:url(#linear-gradient-33);}.cls-41{fill:url(#linear-gradient-34);}.cls-42{fill:url(#linear-gradient-35);}.cls-43{fill:url(#linear-gradient-36);}.cls-44{fill:url(#linear-gradient-37);}.cls-45{fill:url(#linear-gradient-38);}.cls-46{fill:url(#linear-gradient-39);}.cls-47{fill:url(#linear-gradient-40);}.cls-48{fill:url(#linear-gradient-41);}.cls-49{fill:url(#linear-gradient-42);}.cls-50{fill:url(#linear-gradient-43);}.cls-51{fill:#666694;}.cls-52{fill:url(#linear-gradient-44);}.cls-53{fill:url(#linear-gradient-45);}.cls-54{fill:url(#linear-gradient-46);}.cls-55{fill:url(#linear-gradient-47);}.cls-56{fill:url(#linear-gradient-48);}.cls-57{fill:url(#linear-gradient-49);}.cls-58{fill:url(#linear-gradient-50);}.cls-59{fill:url(#linear-gradient-51);}.cls-60{fill:url(#linear-gradient-52);}</style><linearGradient id="linear-gradient" x1="3011.47" y1="2837.89" x2="929.13" y2="1015.85" gradientUnits="userSpaceOnUse"><stop offset="0" stop-color="#dae3fe"></stop><stop offset="1" stop-color="#e9effd"></stop></linearGradient><linearGradient id="linear-gradient-2" x1="885.26" y1="2941.2" x2="1230.37" y2="2540.63" gradientTransform="translate(2153.18 -133.17) rotate(45)" gradientUnits="userSpaceOnUse"><stop offset="0" stop-color="#e1473d"></stop><stop offset="1" stop-color="#e9605a"></stop></linearGradient><linearGradient id="linear-gradient-3" x1="1425.38" y1="2248.46" x2="404.88" y2="3790.15" gradientTransform="translate(2153.18 -133.17) rotate(45)" gradientUnits="userSpaceOnUse"><stop offset="0" stop-color="#fe7062"></stop><stop offset="1" stop-color="#ff928e"></stop></linearGradient><linearGradient id="linear-gradient-4" x1="1394.94" y1="2292.64" x2="851.54" y2="3204.91" gradientTransform="matrix(1, 0, 0, 1, 0, 0)" xlink:href="#linear-gradient-3"></linearGradient><linearGradient id="linear-gradient-5" x1="1900.19" y1="2541.03" x2="2234.63" y2="2152.85" gradientTransform="matrix(0.71, 0.71, -0.71, 0.71, 2173.74, -963.08)" xlink:href="#linear-gradient-2"></linearGradient><linearGradient id="linear-gradient-6" x1="2181.79" y1="2399.89" x2="2359.39" y2="1696.23" gradientTransform="translate(2170.46 -963.09) rotate(45)" xlink:href="#linear-gradient-3"></linearGradient><linearGradient id="linear-gradient-7" x1="2118.97" y1="2354.06" x2="2503.39" y2="1778.54" gradientTransform="matrix(1, 0, 0, 1, 0, 0)" xlink:href="#linear-gradient-3"></linearGradient><linearGradient id="linear-gradient-8" x1="1758.21" y1="2283.1" x2="2192" y2="1779.59" gradientTransform="matrix(0.75, 0.66, -0.66, 0.75, 1956.44, -1260.77)" xlink:href="#linear-gradient-2"></linearGradient><linearGradient id="linear-gradient-9" x1="2175.5" y1="1956.16" x2="2760" y2="998.47" gradientTransform="translate(1790.54 -1280.55) rotate(45)" xlink:href="#linear-gradient-3"></linearGradient><linearGradient id="linear-gradient-10" x1="2364.03" y1="1376.17" x2="2613.58" y2="715.21" gradientTransform="matrix(1, -0.06, 0.06, 1, 131.29, -103.32)" xlink:href="#linear-gradient-3"></linearGradient><linearGradient id="linear-gradient-11" x1="1046.37" y1="2559.71" x2="1265.06" y2="2305.87" gradientTransform="translate(3446.92 829.78) rotate(84.85)" xlink:href="#linear-gradient-3"></linearGradient><linearGradient id="linear-gradient-12" x1="1388.63" y1="2120.73" x2="741.96" y2="3097.68" gradientTransform="translate(1998.69 -223.78) rotate(45)" xlink:href="#linear-gradient-3"></linearGradient><linearGradient id="linear-gradient-13" x1="1369.34" y1="2148.72" x2="1025" y2="2726.82" gradientTransform="matrix(1, 0, 0, 1, 0, 0)" xlink:href="#linear-gradient-3"></linearGradient><linearGradient id="linear-gradient-14" x1="1864.29" y1="2616.93" x2="2144.89" y2="2291.24" gradientTransform="matrix(0.66, 0.75, -0.75, 0.66, 2171.37, -590.89)" xlink:href="#linear-gradient-2"></linearGradient><linearGradient id="linear-gradient-15" x1="1774.91" y1="2747.34" x2="2008.72" y2="2234.77" gradientTransform="translate(2339.33 -582.57) rotate(45)" xlink:href="#linear-gradient-3"></linearGradient><linearGradient id="linear-gradient-16" x1="1905.47" y1="2869.72" x2="1743.61" y2="3240.65" gradientTransform="translate(-124.65 112.89) rotate(3.73)" xlink:href="#linear-gradient-3"></linearGradient><linearGradient id="linear-gradient-17" x1="1050.03" y1="2025.23" x2="1201.77" y2="644.4" gradientUnits="userSpaceOnUse"><stop offset="0" stop-color="#4f52ff"></stop><stop offset="1" stop-color="#4042e2"></stop></linearGradient><linearGradient id="linear-gradient-18" x1="1191.23" y1="745.5" x2="1494.7" y2="-99.18" xlink:href="#linear-gradient-17"></linearGradient><linearGradient id="linear-gradient-19" x1="1099.74" y1="1278.91" x2="1283" y2="2644.23" xlink:href="#linear-gradient-17"></linearGradient><linearGradient id="linear-gradient-20" x1="1178.43" y1="2350.15" x2="1239.12" y2="2802.25" xlink:href="#linear-gradient-17"></linearGradient><linearGradient id="linear-gradient-21" x1="818.09" y1="598.49" x2="1243.03" y2="2065.53" gradientUnits="userSpaceOnUse"><stop offset="0" stop-color="#febbba"></stop><stop offset="1" stop-color="#ff928e"></stop></linearGradient><linearGradient id="linear-gradient-22" x1="1000.25" y1="545.73" x2="1425.18" y2="2012.77" xlink:href="#linear-gradient-21"></linearGradient><linearGradient id="linear-gradient-23" x1="1251.18" y1="473.04" x2="1676.12" y2="1940.08" xlink:href="#linear-gradient-21"></linearGradient><linearGradient id="linear-gradient-24" x1="1409.17" y1="427.28" x2="1834.11" y2="1894.32" xlink:href="#linear-gradient-21"></linearGradient><linearGradient id="linear-gradient-25" x1="1210.79" y1="484.74" x2="1635.72" y2="1951.78" xlink:href="#linear-gradient-21"></linearGradient><linearGradient id="linear-gradient-26" x1="954.48" y1="558.99" x2="1379.41" y2="2026.02" xlink:href="#linear-gradient-21"></linearGradient><linearGradient id="linear-gradient-27" x1="1109.15" y1="514.18" x2="1534.09" y2="1981.22" xlink:href="#linear-gradient-21"></linearGradient><linearGradient id="linear-gradient-28" x1="1773.4" y1="747.37" x2="1041.64" y2="2116.47" gradientUnits="userSpaceOnUse"><stop offset="0" stop-color="#ff928e"></stop><stop offset="1" stop-color="#fe7062"></stop></linearGradient><linearGradient id="linear-gradient-29" x1="1773.34" y1="747.33" x2="1041.58" y2="2116.43" xlink:href="#linear-gradient-28"></linearGradient><linearGradient id="linear-gradient-30" x1="652.27" y1="646.52" x2="1077.2" y2="2113.56" xlink:href="#linear-gradient-21"></linearGradient><linearGradient id="linear-gradient-31" x1="818.28" y1="598.44" x2="1243.21" y2="2065.47" xlink:href="#linear-gradient-21"></linearGradient><linearGradient id="linear-gradient-32" x1="1023.29" y1="539.06" x2="1448.22" y2="2006.09" xlink:href="#linear-gradient-21"></linearGradient><linearGradient id="linear-gradient-33" x1="1096.25" y1="517.92" x2="1521.19" y2="1984.95" xlink:href="#linear-gradient-21"></linearGradient><linearGradient id="linear-gradient-34" x1="923" y1="568.1" x2="1347.93" y2="2035.14" xlink:href="#linear-gradient-21"></linearGradient><linearGradient id="linear-gradient-35" x1="716.73" y1="627.85" x2="1141.66" y2="2094.89" xlink:href="#linear-gradient-21"></linearGradient><linearGradient id="linear-gradient-36" x1="874.17" y1="582.25" x2="1299.1" y2="2049.28" xlink:href="#linear-gradient-21"></linearGradient><linearGradient id="linear-gradient-37" x1="1323.28" y1="506.79" x2="591.52" y2="1875.88" xlink:href="#linear-gradient-28"></linearGradient><linearGradient id="linear-gradient-38" x1="1323.41" y1="506.85" x2="591.65" y2="1875.95" xlink:href="#linear-gradient-28"></linearGradient><linearGradient id="linear-gradient-39" x1="-6536.04" y1="1332.26" x2="-6437.14" y2="1332.26" gradientTransform="translate(7119.68 618.86) rotate(2.91)" gradientUnits="userSpaceOnUse"><stop offset="0" stop-color="#09005d"></stop><stop offset="1" stop-color="#1a0f91"></stop></linearGradient><linearGradient id="linear-gradient-40" x1="-6378.53" y1="901.34" x2="-6338.42" y2="901.34" gradientTransform="translate(6768.3 -30.79) rotate(-6.43)" xlink:href="#linear-gradient-21"></linearGradient><linearGradient id="linear-gradient-41" x1="-6282" y1="1093.85" x2="-6126.83" y2="1093.85" gradientTransform="translate(7035.13 750.1) rotate(2)" xlink:href="#linear-gradient-39"></linearGradient><linearGradient id="linear-gradient-42" x1="-6340.5" y1="1281.74" x2="-6300.61" y2="1281.74" gradientTransform="translate(7186.25 1157.46) rotate(7.83)" xlink:href="#linear-gradient-21"></linearGradient><linearGradient id="linear-gradient-43" x1="-6406.1" y1="552.95" x2="-6134.14" y2="552.95" gradientTransform="translate(6768.3 -30.79) rotate(-6.43)" xlink:href="#linear-gradient-39"></linearGradient><linearGradient id="linear-gradient-44" x1="1311.04" y1="-482.94" x2="926.63" y2="204.95" gradientTransform="matrix(1, 0, 0, 1, 0, 0)" xlink:href="#linear-gradient-2"></linearGradient><linearGradient id="linear-gradient-45" x1="-5911.68" y1="-261.22" x2="-5763.44" y2="-261.22" gradientTransform="translate(6768.3 -30.79) rotate(-6.43)" xlink:href="#linear-gradient-21"></linearGradient><linearGradient id="linear-gradient-46" x1="1006.4" y1="341.08" x2="485.42" y2="953.1" xlink:href="#linear-gradient-28"></linearGradient><linearGradient id="linear-gradient-47" x1="-5576" y1="-228.91" x2="-5896.31" y2="169.59" gradientTransform="translate(6768.3 -30.79) rotate(-6.43)" xlink:href="#linear-gradient-21"></linearGradient><linearGradient id="linear-gradient-48" x1="-5515.27" y1="-180.1" x2="-5835.59" y2="218.41" gradientTransform="translate(6768.3 -30.79) rotate(-6.43)" xlink:href="#linear-gradient-21"></linearGradient><linearGradient id="linear-gradient-49" x1="-5936.36" y1="-469.72" x2="-6246.58" y2="100.27" gradientTransform="translate(6768.3 -30.79) rotate(-6.43)" xlink:href="#linear-gradient-21"></linearGradient><linearGradient id="linear-gradient-50" x1="-4238.26" y1="-1257.03" x2="-4375.36" y2="-1075.66" gradientTransform="translate(4733.58 -1594.88) rotate(-41.65)" xlink:href="#linear-gradient-21"></linearGradient><linearGradient id="linear-gradient-51" x1="-4342.97" y1="-1213.28" x2="-4179.19" y2="-1213.28" gradientTransform="translate(4733.58 -1594.88) rotate(-41.65)" xlink:href="#linear-gradient-39"></linearGradient><linearGradient id="linear-gradient-52" x1="-4439.06" y1="-1113.4" x2="-4329.1" y2="-1226.22" gradientTransform="translate(4733.58 -1594.88) rotate(-41.65)" xlink:href="#linear-gradient-21"></linearGradient></defs><title>Asset 1</title><g id="Layer_2" data-name="Layer 2"><g id="Illustration"><path class="cls-1" d="M2657.58,1891.62c-269.13,633.68-986,988.67-1607.68,892.91-101.16-15.58-378.49-62-624-281C-46.81,2082-147.9,1247.34,233.4,659.11,510.91,231,1008.39-11.71,1481.09.43c101.82,2.62,492,18.73,835,301.51,50.37,41.53,161.46,140.23,261.59,296.8C2812.76,966.41,2833,1478.65,2657.58,1891.62Z"></path><circle class="cls-2" cx="1871.97" cy="551.47" r="251.46" transform="translate(158.34 1485.21) rotate(-45)"></circle><circle class="cls-3" cx="1871.97" cy="551.47" r="243.1" transform="translate(158.34 1485.21) rotate(-45)"></circle><path class="cls-4" d="M1647.88,542.13h-.14a2.57,2.57,0,0,1-2.43-2.7,228.5,228.5,0,0,1,3.3-28.51,2.57,2.57,0,1,1,5.06.92,223.75,223.75,0,0,0-3.23,27.86A2.56,2.56,0,0,1,1647.88,542.13Z"></path><path class="cls-4" d="M1671.52,453.06a2.54,2.54,0,0,1-1.16-.28,2.57,2.57,0,0,1-1.13-3.45A226,226,0,0,1,1872,324.5a228.71,228.71,0,0,1,41,3.69,2.57,2.57,0,0,1-.92,5.05,224,224,0,0,0-40-3.6,220.91,220.91,0,0,0-198.16,122A2.57,2.57,0,0,1,1671.52,453.06Z"></path><circle class="cls-5" cx="1877.27" cy="556.77" r="205.75" transform="translate(156.14 1490.5) rotate(-45)"></circle><path class="cls-3" d="M1937.58,475.42c0,36-29.22,74.95-65.26,74.95s-65.26-38.91-65.26-74.95,29.22-61.61,65.26-61.61S1937.58,439.38,1937.58,475.42Z"></path><path class="cls-3" d="M1791.33,689.14h159.31a38.57,38.57,0,0,0,36.73-26.81l8.57-26.8a38.52,38.52,0,0,0-23.27-47.93c-64.83-23.7-131.87-20.66-200.55,2.19-19.24,6.4-29.91,27-24.61,46.55l6.6,24.33A38.57,38.57,0,0,0,1791.33,689.14Z"></path><circle class="cls-6" cx="1237.34" cy="2532.54" r="257.29" transform="translate(-1428.37 1616.7) rotate(-45)"></circle><circle class="cls-7" cx="1237.34" cy="2532.54" r="248.74" transform="translate(-1428.37 1616.7) rotate(-45)"></circle><path class="cls-8" d="M1032.24,2432a2.76,2.76,0,0,1-1.24-.3,2.72,2.72,0,0,1-1.2-3.67,231.35,231.35,0,0,1,207.54-127.79,234.59,234.59,0,0,1,41.92,3.77,2.73,2.73,0,0,1-1,5.38,229.26,229.26,0,0,0-40.94-3.68,226,226,0,0,0-202.66,124.78A2.72,2.72,0,0,1,1032.24,2432Z"></path><circle class="cls-9" cx="1242.76" cy="2537.96" r="210.53" transform="translate(-1430.61 1622.12) rotate(-45)"></circle><path class="cls-10" d="M1222.1,2694.46v-22.9c-23.87-.95-47.49-6.59-64.26-13.93a13.26,13.26,0,0,1-7.33-15.66l5.82-21.33a13.36,13.36,0,0,1,18.13-8.74c16.64,7,37.19,12.5,59.34,12.5,23,0,40.15-7.8,40.15-23.78,0-14.42-13.26-23-45.22-31.57-45.6-12.48-78.35-32.36-78.35-72.51,0-36.25,26.51-63.92,72.5-71.33v-22.9a13.35,13.35,0,0,1,13.35-13.35h13.46a13.35,13.35,0,0,1,13.34,13.35v20.56c22.1.89,38.18,4.67,50.94,9.15a13.28,13.28,0,0,1,8.3,16l-5.35,19.73a13.31,13.31,0,0,1-17.57,9,139,139,0,0,0-50-9.07c-27.29,0-35.08,11.3-35.08,21.44,0,12.47,16.37,21.05,51.84,32,50.67,15.2,71.72,36.25,71.72,74.06,0,34.69-25.72,65.88-75.62,73.67v25.63a13.34,13.34,0,0,1-13.34,13.35h-13.46A13.35,13.35,0,0,1,1222.1,2694.46Z"></path><circle class="cls-11" cx="2247.78" cy="2138.43" r="249.33" transform="translate(-853.74 2215.75) rotate(-45)"></circle><circle class="cls-12" cx="2247.78" cy="2138.43" r="241.04" transform="translate(-853.74 2215.75) rotate(-45)"></circle><path class="cls-9" d="M2048.83,2041.34a2.7,2.7,0,0,1-1.2-.28,2.66,2.66,0,0,1-1.18-3.56,224.21,224.21,0,0,1,200.89-124.22,226.56,226.56,0,0,1,40.62,3.57,2.65,2.65,0,1,1-.94,5.22,221.57,221.57,0,0,0-39.67-3.49,218.94,218.94,0,0,0-196.16,121.3A2.62,2.62,0,0,1,2048.83,2041.34Z"></path><circle class="cls-9" cx="2253.04" cy="2143.68" r="204.01" transform="translate(-855.91 2221.01) rotate(-45)"></circle><path class="cls-13" d="M2233.32,2295.38l-.05-22.19c-23.14-.89-46-6.3-62.3-13.39a12.84,12.84,0,0,1-7.13-15.15l5.6-20.69a13,13,0,0,1,17.55-8.5c16.14,6.73,36.06,12,57.53,12,22.28-.05,38.89-7.63,38.86-23.12,0-14-12.89-22.26-43.88-30.51-44.22-12-76-31.21-76.06-70.11-.07-35.13,25.57-62,70.12-69.26l0-22.2a13,13,0,0,1,12.91-13l13,0a12.93,12.93,0,0,1,13,12.9l0,19.93c21.41.82,37,4.45,49.38,8.77a12.88,12.88,0,0,1,8.07,15.52l-5.15,19.13a12.9,12.9,0,0,1-17,8.75,134.48,134.48,0,0,0-48.43-8.7c-26.44.05-34,11-33.95,20.84,0,12.09,15.9,20.37,50.29,30.88,49.14,14.63,69.57,35,69.64,71.63.07,33.62-24.8,63.89-73.14,71.54l0,24.83a12.92,12.92,0,0,1-12.9,13l-13.05,0A12.93,12.93,0,0,1,2233.32,2295.38Z"></path><circle class="cls-14" cx="2441.03" cy="1521.1" r="323.4" transform="translate(-360.62 2171.59) rotate(-45)"></circle><circle class="cls-15" cx="2441.03" cy="1521.1" r="312.64" transform="translate(-360.62 2171.59) rotate(-45)"></circle><path class="cls-9" d="M2175.63,1411.49a3.41,3.41,0,0,1-1.56-.27,3.45,3.45,0,0,1-1.82-4.52c43.54-102.08,139.34-169.92,250-177a294.37,294.37,0,0,1,52.88,1.34,3.44,3.44,0,1,1-.8,6.84,287,287,0,0,0-51.64-1.32c-108.07,7-201.61,73.2-244.13,172.88A3.43,3.43,0,0,1,2175.63,1411.49Z"></path><circle class="cls-9" cx="2448.26" cy="1527.46" r="264.61" transform="translate(-363 2178.57) rotate(-45)"></circle><path class="cls-16" d="M2435,1725.44l-1.85-28.73c-30,.73-60.11-4.44-81.74-12.29a16.66,16.66,0,0,1-10.45-19l5.58-27.23a16.78,16.78,0,0,1,22-12.43c21.44,7.41,47.65,12.67,75.44,10.88,28.84-1.85,49.73-13,48.44-33.06-1.17-18.09-18.48-27.78-59.27-36-58.21-12-100.88-34.26-104.12-84.62-2.93-45.47,28.08-82.32,85.18-95.32l-1.85-28.74A16.76,16.76,0,0,1,2428,1341.1l16.88-1.09a16.78,16.78,0,0,1,17.82,15.66l1.66,25.8c27.78-.68,48.26,2.76,64.63,7.36a16.68,16.68,0,0,1,11.7,19.44l-5.12,25.18a16.72,16.72,0,0,1-21.31,12.69,174.64,174.64,0,0,0-63.4-7.34c-34.22,2.2-43.09,17-42.27,29.72,1,15.64,22.24,25.08,67.61,35.91,64.79,15,92.89,39.67,95.94,87.1,2.8,43.51-26.95,84.71-88.9,98.51l2.07,32.15a16.78,16.78,0,0,1-15.66,17.82l-16.89,1.09A16.77,16.77,0,0,1,2435,1725.44Z"></path><circle class="cls-17" cx="1269.48" cy="2300.75" r="163.04" transform="matrix(0.09, -1, 1, 0.09, -1135.98, 3358.47)"></circle><circle class="cls-18" cx="1269.48" cy="2300.75" r="157.62" transform="translate(-1255.05 1571.53) rotate(-45)"></circle><path class="cls-8" d="M1139.5,2237a1.81,1.81,0,0,1-.78-.18,1.73,1.73,0,0,1-.76-2.33,146.61,146.61,0,0,1,131.52-81,148.15,148.15,0,0,1,26.56,2.39,1.73,1.73,0,0,1-.63,3.41,144.8,144.8,0,0,0-25.93-2.33,143.18,143.18,0,0,0-128.43,79.07A1.73,1.73,0,0,1,1139.5,2237Z"></path><circle class="cls-9" cx="1272.91" cy="2304.18" r="133.41" transform="translate(-1256.47 1574.96) rotate(-45)"></circle><path class="cls-19" d="M1259.82,2403.36v-14.52c-15.13-.6-30.1-4.17-40.73-8.83a8.4,8.4,0,0,1-4.64-9.92l3.69-13.51a8.46,8.46,0,0,1,11.49-5.54,98.24,98.24,0,0,0,37.6,7.92c14.57,0,25.44-4.95,25.44-15.07,0-9.14-8.4-14.58-28.65-20-28.9-7.9-49.65-20.5-49.65-45.94,0-23,16.8-40.51,45.94-45.2v-14.52a8.46,8.46,0,0,1,8.46-8.46h8.53a8.45,8.45,0,0,1,8.45,8.46v13c14,.56,24.2,3,32.28,5.8a8.41,8.41,0,0,1,5.26,10.16l-3.39,12.5a8.44,8.44,0,0,1-11.13,5.7,88,88,0,0,0-31.66-5.75c-17.29,0-22.23,7.16-22.23,13.58,0,7.91,10.37,13.34,32.85,20.26,32.11,9.63,45.45,23,45.45,46.93,0,22-16.3,41.74-47.92,46.68v16.25a8.45,8.45,0,0,1-8.46,8.45h-8.52A8.45,8.45,0,0,1,1259.82,2403.36Z"></path><circle class="cls-20" cx="1872.89" cy="2532.54" r="209.2" transform="translate(-1242.22 2066.1) rotate(-45)"></circle><circle class="cls-21" cx="1872.89" cy="2532.54" r="202.24" transform="translate(-1242.22 2066.1) rotate(-45)"></circle><path class="cls-9" d="M1711.79,2440.09a2.27,2.27,0,0,1-1-.3,2.23,2.23,0,0,1-.78-3.05A188.12,188.12,0,0,1,1885.16,2344a190.56,190.56,0,0,1,33.81,5.27,2.23,2.23,0,1,1-1.08,4.32,186.54,186.54,0,0,0-33-5.15,183.7,183.7,0,0,0-171,90.54A2.22,2.22,0,0,1,1711.79,2440.09Z"></path><circle class="cls-9" cx="1877" cy="2537.22" r="171.17" transform="translate(-1244.32 2070.38) rotate(-45)"></circle><path class="cls-22" d="M1852,2663.11l1.21-18.58c-19.33-2-38.19-7.86-51.41-14.7a10.77,10.77,0,0,1-5.12-13.08l5.85-17a10.86,10.86,0,0,1,15.17-6.13c13.13,6.54,29.51,12.1,47.49,13.27,18.65,1.22,33-4.21,33.83-17.17.76-11.7-9.54-19.36-35-28-36.35-12.53-61.86-30.39-59.74-63,1.91-29.41,24.88-50.47,62.59-54l1.21-18.59a10.85,10.85,0,0,1,11.53-10.12l10.92.71a10.85,10.85,0,0,1,10.12,11.53l-1.08,16.69c17.88,1.88,30.73,5.8,40.84,10.11a10.78,10.78,0,0,1,5.89,13.44l-5.38,15.73a10.81,10.81,0,0,1-14.73,6.36,113.15,113.15,0,0,0-40.06-10c-22.14-1.44-29.06,7.31-29.59,15.54-.66,10.12,12.17,17.94,40.37,28.67,40.31,15,56.28,33.2,54.28,63.88-1.83,28.14-24.35,52.09-65.24,55.78l-1.36,20.8a10.85,10.85,0,0,1-11.53,10.12l-10.92-.71A10.85,10.85,0,0,1,1852,2663.11Z"></path><path class="cls-23" d="M1689.67,1953.72H691C495.46,1556,300,1150.29,104.43,748.57H2276.21C2080.69,1150.29,1885.18,1556,1689.67,1953.72Z"></path><rect class="cls-24" x="36.62" y="700.36" width="2309.88" height="88.38" rx="25.23"></rect><path class="cls-25" d="M1618,2423.73H762.68c-24.79-148.63-49.58-313.34-74.37-470h1004C1667.54,2110.39,1642.75,2275.1,1618,2423.73Z"></path><path class="cls-26" d="M1643.5,2427.65c0,17.33-10.7,28.22-23.3,28.22H753.88c-12.6,0-22.28-10.89-22.28-28.22v-19.31c0-17.33,9.68-32.81,22.28-32.81H1620.2c12.6,0,23.3,15.48,23.3,32.81Z"></path><path class="cls-3" d="M636.15,1752.62a7.09,7.09,0,0,1-6.51-4.26l-380.74-872a7.1,7.1,0,0,1,13-5.69l380.74,872a7.1,7.1,0,0,1-6.51,9.95Z"></path><path class="cls-3" d="M777.46,2318.72a7.11,7.11,0,0,1-7-6.23l-36-289.77a7.1,7.1,0,1,1,14.09-1.75l36,289.77a7.11,7.11,0,0,1-6.17,7.93C778.05,2318.7,777.75,2318.72,777.46,2318.72Z"></path><g class="cls-27"><path class="cls-28" d="M1134,1688.61a8.44,8.44,0,0,1-6.55-3.1c-2.87-3.53-5.74-7.2-8.51-10.9a8.43,8.43,0,0,1,13.5-10.1c2.63,3.51,5.35,7,8.09,10.35a8.42,8.42,0,0,1-6.53,13.75Z"></path><path class="cls-29" d="M1101.21,1639.93a8.44,8.44,0,0,1-7.4-4.37c-4.56-8.3-8.83-16.93-12.69-25.62a8.43,8.43,0,1,1,15.42-6.83c3.66,8.26,7.71,16.44,12,24.33a8.43,8.43,0,0,1-7.38,12.49Zm-27.85-67.53a8.45,8.45,0,0,1-8.1-6.1c-2.63-9.13-4.9-18.48-6.74-27.79a8.43,8.43,0,0,1,16.54-3.27c1.75,8.84,3.91,17.72,6.41,26.39a8.45,8.45,0,0,1-5.77,10.44A8.64,8.64,0,0,1,1073.36,1572.4Zm-12.26-72a8.43,8.43,0,0,1-8.41-8c-.35-6.16-.52-12.42-.52-18.6q0-5,.15-10a8.43,8.43,0,0,1,16.86.51q-.15,4.76-.15,9.51c0,5.87.17,11.81.49,17.66a8.43,8.43,0,0,1-7.94,8.89Zm4.18-72.94a7.79,7.79,0,0,1-1.44-.13,8.42,8.42,0,0,1-6.88-9.73c1.6-9.35,3.63-18.75,6-27.95a8.43,8.43,0,0,1,16.32,4.25c-2.28,8.74-4.2,17.67-5.72,26.55A8.44,8.44,0,0,1,1065.28,1427.45Zm20.28-70.17a8.57,8.57,0,0,1-3.23-.64,8.44,8.44,0,0,1-4.56-11c3.64-8.76,7.7-17.48,12.07-25.92a8.43,8.43,0,0,1,15,7.76c-4.15,8-8,16.3-11.46,24.62A8.44,8.44,0,0,1,1085.56,1357.28Zm35.31-63.93a8.43,8.43,0,0,1-6.87-13.3c5.48-7.74,11.36-15.34,17.49-22.6a8.43,8.43,0,1,1,12.88,10.87c-5.81,6.9-11.41,14.12-16.61,21.47A8.44,8.44,0,0,1,1120.87,1293.35Zm48.6-54.49a8.43,8.43,0,0,1-5.63-14.71c7.08-6.34,14.52-12.45,22.1-18.14a8.43,8.43,0,1,1,10.13,13.48c-7.2,5.41-14.26,11.2-21,17.22A8.41,8.41,0,0,1,1169.47,1238.86Zm59.54-42.27a8.43,8.43,0,0,1-4.08-15.81c8.29-4.58,16.9-8.86,25.59-12.74a8.44,8.44,0,1,1,6.87,15.41c-8.26,3.67-16.44,7.74-24.31,12.09A8.43,8.43,0,0,1,1229,1196.59Zm67.46-28a8.43,8.43,0,0,1-2.34-16.53c9.13-2.65,18.47-4.94,27.77-6.8a8.43,8.43,0,0,1,3.31,16.53c-8.84,1.77-17.71,3.94-26.39,6.46A8.3,8.3,0,0,1,1296.47,1168.63Zm72-12.4a8.43,8.43,0,0,1-.48-16.85c6.39-.37,12.84-.56,19.19-.56h.09c3.11,0,6.22,0,9.32.13a8.43,8.43,0,0,1-.48,16.86q-4.41-.13-8.84-.13h-.09c-6,0-12.15.18-18.21.53Z"></path><path class="cls-30" d="M1454.79,1162.79a8.66,8.66,0,0,1-1.75-.18c-4.32-.92-8.66-1.75-12.9-2.47a8.43,8.43,0,1,1,2.82-16.62c4.47.76,9,1.63,13.57,2.59a8.43,8.43,0,0,1-1.74,16.68Z"></path></g><g class="cls-27"><path class="cls-31" d="M1664.3,1309.4a8.44,8.44,0,0,1-7.17-4c-2.33-3.75-4.75-7.45-7.17-11a8.43,8.43,0,1,1,13.92-9.51c2.56,3.74,5.1,7.64,7.57,11.59a8.43,8.43,0,0,1-7.15,12.89Z"></path><path class="cls-32" d="M1387.21,1808.9c-8.5,0-17.11-.33-25.58-1a8.43,8.43,0,1,1,1.29-16.81c8,.62,16.21.93,24.27.93h2.49a8.43,8.43,0,0,1,.07,16.86Zm46.88-3.41a8.43,8.43,0,0,1-1.21-16.77c8.76-1.28,17.59-3,26.25-5a8.43,8.43,0,1,1,3.83,16.42c-9.11,2.13-18.41,3.89-27.64,5.24A8.48,8.48,0,0,1,1434.09,1805.49Zm69.56-18.14a8.43,8.43,0,0,1-3-16.31c8.3-3.16,16.56-6.7,24.54-10.53a8.43,8.43,0,0,1,7.3,15.2c-8.41,4-17.11,7.76-25.84,11.09A8.32,8.32,0,0,1,1503.65,1787.35Zm63.94-32.78a8.44,8.44,0,0,1-4.66-15.47c7.39-4.88,14.67-10.15,21.64-15.66a8.43,8.43,0,0,1,10.46,13.23c-7.34,5.8-15,11.35-22.8,16.5A8.43,8.43,0,0,1,1567.59,1754.57Zm55.15-46a8.44,8.44,0,0,1-6.08-14.27c6.13-6.39,12.07-13.13,17.66-20a8.43,8.43,0,0,1,13.11,10.6c-5.89,7.28-12.15,14.37-18.6,21.1A8.41,8.41,0,0,1,1622.74,1708.54Zm43.72-57a8.45,8.45,0,0,1-7.21-12.8c4.59-7.58,8.93-15.46,12.87-23.42a8.43,8.43,0,0,1,15.11,7.5c-4.16,8.38-8.72,16.67-13.55,24.65A8.43,8.43,0,0,1,1666.46,1651.53Zm30.27-65.18a8.43,8.43,0,0,1-8-11.13c2.84-8.42,5.35-17,7.47-25.65a8.43,8.43,0,1,1,16.37,4c-2.23,9.06-4.87,18.15-7.86,27A8.44,8.44,0,0,1,1696.73,1586.35Zm15.34-70.22a8.85,8.85,0,0,1-.89-.05,8.43,8.43,0,0,1-7.51-9.27c.93-8.83,1.49-17.8,1.66-26.66a8.54,8.54,0,0,1,8.6-8.26,8.43,8.43,0,0,1,8.26,8.6c-.18,9.33-.77,18.78-1.75,28.09A8.43,8.43,0,0,1,1712.07,1516.13Zm-.5-71.89a8.42,8.42,0,0,1-8.36-7.44c-1-8.81-2.48-17.69-4.26-26.38a8.43,8.43,0,1,1,16.52-3.38c1.87,9.15,3.38,18.5,4.48,27.78a8.42,8.42,0,0,1-7.38,9.36A8.51,8.51,0,0,1,1711.57,1444.24Zm-16.24-70a8.43,8.43,0,0,1-7.95-5.64c-3-8.4-6.27-16.76-9.88-24.84a8.43,8.43,0,1,1,15.39-6.88c3.8,8.51,7.3,17.3,10.4,26.14a8.45,8.45,0,0,1-8,11.22Z"></path><path class="cls-33" d="M1318,1801.45a8,8,0,0,1-1.81-.2c-4.53-1-9.06-2.07-13.44-3.22a8.43,8.43,0,0,1,4.27-16.31c4.16,1.09,8.45,2.12,12.77,3.06a8.43,8.43,0,0,1-1.79,16.67Z"></path></g><path class="cls-34" d="M1293.9,1706.7a3.92,3.92,0,0,0,4.51-.6l34.88-32.53a207.55,207.55,0,0,0,67,6.42l28.06,38.54a3.91,3.91,0,0,0,4.31,1.44l54.71-16.77a3.91,3.91,0,0,0,2.76-3.61l1.66-47.64a207.9,207.9,0,0,0,51.9-42.87l47.12,7.41a3.92,3.92,0,0,0,4.07-2l26.82-50.53a3.91,3.91,0,0,0-.6-4.51l-32.53-34.88a207.86,207.86,0,0,0,6.43-67l38.53-28.06a3.91,3.91,0,0,0,1.44-4.31l-16.77-54.71a3.9,3.9,0,0,0-3.61-2.76L1567,1366a207.72,207.72,0,0,0-42.87-51.9l7.41-47.12a3.93,3.93,0,0,0-2-4.07l-50.54-26.82a3.91,3.91,0,0,0-4.51.59l-34.88,32.54a207.84,207.84,0,0,0-67-6.43l-28.06-38.53a3.91,3.91,0,0,0-4.31-1.44l-54.71,16.77a3.91,3.91,0,0,0-2.76,3.61l-1.66,47.64a207.68,207.68,0,0,0-51.9,42.87l-47.11-7.41a3.94,3.94,0,0,0-4.08,2l-26.82,50.54a3.91,3.91,0,0,0,.6,4.51l32.53,34.88a207.84,207.84,0,0,0-6.43,67l-38.53,28.06a3.91,3.91,0,0,0-1.44,4.31l16.77,54.7a3.91,3.91,0,0,0,3.61,2.77l47.64,1.66a207.67,207.67,0,0,0,42.87,51.89l-7.41,47.12a3.92,3.92,0,0,0,2,4.07Z"></path><path class="cls-35" d="M1373.52,1531.41c-.59-.12-1.16-.25-1.74-.4a61.43,61.43,0,1,1,1.74.4Zm21.36-99.31a40.22,40.22,0,0,0-18.06,78.37,39.56,39.56,0,0,0,30.43-4.66h0a40.2,40.2,0,0,0-12.38-73.7Z"></path><path class="cls-36" d="M1397.37,1613.05a5.28,5.28,0,0,1-4.15-4.72,5.38,5.38,0,0,1,.1-1.56,5.29,5.29,0,0,1,4.72-4.16,133.45,133.45,0,0,0,27.76-5.39l1.24-.38a131.8,131.8,0,0,0,74.57-59.72c.38-.65.75-1.29,1.11-1.95.49-.87,1-1.75,1.44-2.63a133.51,133.51,0,0,0,12.62-34.46,132,132,0,0,0-3-66.69c-21.45-70-95.84-109.48-165.84-88a132.8,132.8,0,0,0-50.07,225.5,5.29,5.29,0,1,1-7.08,7.86,143.39,143.39,0,0,1,54.05-243.48c75.58-23.14,155.9,19.48,179.06,95a142.62,142.62,0,0,1,3.18,72,144.2,144.2,0,0,1-13.62,37.21,142.42,142.42,0,0,1-84.61,69.84l-1.44.43a143.3,143.3,0,0,1-28.52,5.38A5.14,5.14,0,0,1,1397.37,1613.05Z"></path><g class="cls-27"><path class="cls-37" d="M805.17,1180.49a8.43,8.43,0,0,1-7.74-5.08c-1.86-4.32-3.6-8.69-5.17-13a8.43,8.43,0,0,1,15.85-5.76c1.45,4,3.07,8.06,4.8,12.06a8.43,8.43,0,0,1-7.74,11.78Z"></path><path class="cls-38" d="M789.11,1125.26a8.45,8.45,0,0,1-8.32-7.11,244.43,244.43,0,0,1-2.66-25.2c-.06-.93-.1-1.88-.14-2.82a8.43,8.43,0,0,1,16.85-.68c0,.86.07,1.73.12,2.59a227,227,0,0,0,2.48,23.46,8.42,8.42,0,0,1-7,9.65A8.75,8.75,0,0,1,789.11,1125.26Zm-.38-71.07a7.61,7.61,0,0,1-1.25-.1,8.43,8.43,0,0,1-7.1-9.57,239.5,239.5,0,0,1,5.79-27.58,8.43,8.43,0,1,1,16.27,4.43,221.2,221.2,0,0,0-5.38,25.62A8.43,8.43,0,0,1,788.73,1054.19Zm21.18-67.85a8.28,8.28,0,0,1-3.72-.87,8.43,8.43,0,0,1-3.84-11.28,243.19,243.19,0,0,1,13.9-24.49,8.43,8.43,0,0,1,14.16,9.17,223.26,223.26,0,0,0-12.93,22.77A8.44,8.44,0,0,1,809.91,986.34Zm40.8-58.2a8.44,8.44,0,0,1-6.09-14.27,240.94,240.94,0,0,1,20.63-19.14,8.43,8.43,0,1,1,10.73,13,224.27,224.27,0,0,0-19.19,17.8A8.39,8.39,0,0,1,850.71,928.14ZM907.16,885a8.43,8.43,0,0,1-4-15.84,242.19,242.19,0,0,1,25.47-12,8.43,8.43,0,0,1,6.27,15.66,223,223,0,0,0-23.68,11.14A8.35,8.35,0,0,1,907.16,885Zm164.67-21.83a8.36,8.36,0,0,1-2-.24,224.11,224.11,0,0,0-25.77-4.56,8.43,8.43,0,0,1,2-16.75,240.68,240.68,0,0,1,27.74,4.91,8.44,8.44,0,0,1-2,16.64ZM974,861a8.43,8.43,0,0,1-1.57-16.71,242.3,242.3,0,0,1,27.89-3.67,8.43,8.43,0,0,1,1.23,16.82,224.6,224.6,0,0,0-26,3.41A8.75,8.75,0,0,1,974,861Z"></path><path class="cls-39" d="M1125.78,883.45a8.4,8.4,0,0,1-3.92-1c-3.81-2-7.74-3.93-11.66-5.72a8.43,8.43,0,1,1,7-15.35c4.22,1.92,8.44,4,12.54,6.16a8.43,8.43,0,0,1-3.94,15.89Z"></path></g><g class="cls-27"><path class="cls-40" d="M1241.56,1027.81a8.42,8.42,0,0,1-8.13-6.23c-1.13-4.18-2.4-8.36-3.76-12.43a8.43,8.43,0,1,1,16-5.36c1.48,4.39,2.84,8.89,4,13.39a8.41,8.41,0,0,1-5.94,10.33A8.33,8.33,0,0,1,1241.56,1027.81Z"></path><path class="cls-41" d="M1022.24,1320.21a8.43,8.43,0,0,1-.16-16.86q3.87-.07,7.77-.28c6-.32,12-.89,17.92-1.68a8.43,8.43,0,0,1,2.24,16.71c-6.36.85-12.84,1.46-19.26,1.8q-4.18.22-8.35.31ZM979,1317a8.69,8.69,0,0,1-1.42-.12,239.91,239.91,0,0,1-27-6.21,8.43,8.43,0,0,1,4.73-16.18,222.31,222.31,0,0,0,25.09,5.77A8.43,8.43,0,0,1,979,1317Zm112.18-8.57a8.43,8.43,0,0,1-2.66-16.43,222.89,222.89,0,0,0,23.91-9.53,8.43,8.43,0,1,1,7.14,15.27,237.61,237.61,0,0,1-25.73,10.25A8.24,8.24,0,0,1,1091.16,1308.43Zm62.23-31.88a8.43,8.43,0,0,1-5-15.26,225.6,225.6,0,0,0,20-16.25,8.43,8.43,0,1,1,11.37,12.45,242.82,242.82,0,0,1-21.47,17.47A8.39,8.39,0,0,1,1153.39,1276.55Zm49.88-49a8.42,8.42,0,0,1-6.74-13.49,224.16,224.16,0,0,0,14.26-21.45,8.43,8.43,0,0,1,14.56,8.51A243.34,243.34,0,0,1,1210,1224.2,8.42,8.42,0,0,1,1203.27,1227.57Zm33.08-61.59a8.44,8.44,0,0,1-7.94-11.26,219.78,219.78,0,0,0,7.19-24.73,8.43,8.43,0,0,1,16.44,3.76,240.24,240.24,0,0,1-7.74,26.62A8.45,8.45,0,0,1,1236.35,1166Zm13.12-68.68h-.32a8.43,8.43,0,0,1-8.11-8.74q.15-4.1.15-8.24c0-4-.11-8.09-.32-12.14-.1-1.78-.22-3.58-.36-5.37a8.43,8.43,0,0,1,16.81-1.31c.15,1.92.28,3.84.38,5.78.23,4.35.35,8.74.35,13,0,3,0,5.92-.16,8.87A8.44,8.44,0,0,1,1249.47,1097.3Z"></path><path class="cls-42" d="M912.46,1294.9a8.38,8.38,0,0,1-3.84-.92c-4.14-2.12-8.26-4.39-12.24-6.73a8.43,8.43,0,1,1,8.55-14.53c3.7,2.17,7.53,4.28,11.38,6.25a8.43,8.43,0,0,1-3.85,15.93Z"></path></g><path class="cls-43" d="M909.21,1221.06a2.76,2.76,0,0,0,3.19.46l30.1-15.47A147.62,147.62,0,0,0,987,1223.39l11.72,31.73a2.79,2.79,0,0,0,2.67,1.82l40.59-.88a2.78,2.78,0,0,0,2.58-1.93l10.34-32.21a147.51,147.51,0,0,0,43.72-19.24l30.74,14.16a2.78,2.78,0,0,0,3.17-.6l28.08-29.32a2.79,2.79,0,0,0,.47-3.2l-15.48-30.1a147.62,147.62,0,0,0,17.34-44.51l31.73-11.71a2.8,2.8,0,0,0,1.82-2.67l-.88-40.59a2.77,2.77,0,0,0-1.93-2.59l-32.21-10.34a147.51,147.51,0,0,0-19.24-43.72l14.16-30.74a2.77,2.77,0,0,0-.6-3.17l-29.32-28.08a2.78,2.78,0,0,0-3.19-.47l-30.11,15.48a147.42,147.42,0,0,0-44.51-17.34L1037,901.44a2.79,2.79,0,0,0-2.67-1.82l-40.59.88a2.79,2.79,0,0,0-2.59,1.93l-10.33,32.21a147.4,147.4,0,0,0-43.72,19.24l-30.74-14.16a2.78,2.78,0,0,0-3.18.6l-28.08,29.32a2.79,2.79,0,0,0-.46,3.2l15.48,30.1a147.1,147.1,0,0,0-17.34,44.51L841,1059.16a2.78,2.78,0,0,0-1.81,2.67l.87,40.59A2.8,2.8,0,0,0,842,1105l32.21,10.33a147.48,147.48,0,0,0,19.25,43.73l-14.17,30.74a2.79,2.79,0,0,0,.61,3.17Z"></path><path class="cls-44" d="M1007,1129.07a52.21,52.21,0,0,1-14.75-5.64,51.93,51.93,0,1,1,39.44,4.9h0A51.62,51.62,0,0,1,1007,1129.07Zm20.47-16,0,0Zm-5.34-54.49a20.19,20.19,0,1,0,1.12,39.2h0a20.21,20.21,0,0,0,14.1-24.82,20.28,20.28,0,0,0-15.22-14.38Z"></path><path class="cls-45" d="M998.6,1179a5.29,5.29,0,0,1-4.08-6.17l0-.12a5.28,5.28,0,0,1,6.17-4.07,93.63,93.63,0,0,0,19.67,1.66l.48,0a92.8,92.8,0,0,0,90.18-91c0-1.21,0-2.43,0-3.66a92.68,92.68,0,1,0-171.15,51.3,5.29,5.29,0,0,1-8.95,5.64,103.28,103.28,0,1,1,89.67,48.3l-1.85,0a103,103,0,0,1-18.83-1.64l-.16,0-1-.19Z"></path><circle class="cls-2" cx="1259" cy="311.12" r="280.83" transform="translate(148.76 981.37) rotate(-45)"></circle><circle class="cls-3" cx="1259" cy="311.12" r="271.49" transform="translate(148.76 981.37) rotate(-45)"></circle><path class="cls-4" d="M1008.73,300.69h-.15a2.87,2.87,0,0,1-2.71-3,253,253,0,0,1,3.68-31.83,2.87,2.87,0,0,1,5.65,1,247.49,247.49,0,0,0-3.6,31.12A2.87,2.87,0,0,1,1008.73,300.69Z"></path><path class="cls-4" d="M1035.13,201.21a2.86,2.86,0,0,1-2.56-4.16C1076,111.06,1162.74,57.64,1259,57.64a255,255,0,0,1,45.73,4.12,2.87,2.87,0,0,1-1,5.64,250,250,0,0,0-44.7-4c-94.08,0-178.88,52.21-221.31,136.26A2.85,2.85,0,0,1,1035.13,201.21Z"></path><circle class="cls-4" cx="1264.91" cy="317.04" r="229.78" transform="translate(146.31 987.29) rotate(-45)"></circle><path class="cls-3" d="M1332.27,226.19c0,40.25-32.63,83.7-72.88,83.7s-72.88-43.45-72.88-83.7,32.63-68.81,72.88-68.81S1332.27,185.93,1332.27,226.19Z"></path><path class="cls-3" d="M1168.94,464.87h177.92a43.07,43.07,0,0,0,41-29.95l9.57-29.92a43,43,0,0,0-26-53.53c-72.41-26.47-147.28-23.08-224,2.44-21.48,7.15-33.4,30.14-27.48,52l7.38,27.18A43.07,43.07,0,0,0,1168.94,464.87Z"></path><path class="cls-2" d="M891.41,2776.52a9.12,9.12,0,0,1-9.12-9.12V1677.25a9.12,9.12,0,0,1,18.24,0V2767.4A9.12,9.12,0,0,1,891.41,2776.52Z"></path><path class="cls-2" d="M644.26,2776.52a9.12,9.12,0,0,1-9.13-9.12V1677.25a9.13,9.13,0,0,1,18.25,0V2767.4A9.12,9.12,0,0,1,644.26,2776.52Z"></path><path class="cls-3" d="M37,2783.44a9.13,9.13,0,0,1-8.39-12.7L495,1673.68a9.12,9.12,0,0,1,16.79,7.14L45.42,2777.88A9.12,9.12,0,0,1,37,2783.44Z"></path><path class="cls-3" d="M325.11,2783.44a9.23,9.23,0,0,1-3.57-.73,9.13,9.13,0,0,1-4.82-12L783.11,1673.68a9.12,9.12,0,1,1,16.78,7.14L333.51,2777.88A9.14,9.14,0,0,1,325.11,2783.44Z"></path><path class="cls-3" d="M905.57,1687.29H478.35a12.86,12.86,0,0,1-12.86-12.86h0a12.85,12.85,0,0,1,12.86-12.85H905.57a12.85,12.85,0,0,1,12.85,12.85h0A12.85,12.85,0,0,1,905.57,1687.29Z"></path><path class="cls-3" d="M721,1854.12H432.1a9.12,9.12,0,0,1,0-18.24H721a9.12,9.12,0,1,1,0,18.24Z"></path><rect class="cls-3" x="343.45" y="2043.36" width="288.94" height="18.24"></rect><rect class="cls-3" x="257.62" y="2250.85" width="288.94" height="18.24"></rect><path class="cls-3" d="M456.55,2476.57H167.62a9.12,9.12,0,1,1,0-18.24H456.55a9.12,9.12,0,0,1,0,18.24Z"></path><path class="cls-3" d="M369.53,2684.05H80.6a9.12,9.12,0,1,1,0-18.24H369.53a9.12,9.12,0,0,1,0,18.24Z"></path><path class="cls-46" d="M540.1,1583.91s-11.85,16.74-17.07,65a7.9,7.9,0,0,0,7.42,8.75l85.83,4.36a5.07,5.07,0,0,0,5.15-6.42c-4.27-15.14-17.64-52.21-50.52-74.67Z"></path><path class="cls-47" d="M528.46,1557.65l9.4,40a7.68,7.68,0,0,0,7.41,6,68.1,68.1,0,0,0,18-2.21,12.6,12.6,0,0,0,8.91-13.58l-4.41-39.1Z"></path><path class="cls-48" d="M736.13,1586.88s-17.33,25-18.2,60.07a15.17,15.17,0,0,0,14.74,15.37L866.08,1667a6.39,6.39,0,0,0,4.07-11.49c-24.62-18.61-73.09-53.46-108.52-67.72Z"></path><path class="cls-49" d="M732.81,1544.29l3.41,51.28a10.38,10.38,0,0,0,11.06,9.76,37.75,37.75,0,0,0,12.29-3.26,11.92,11.92,0,0,0,6.93-11.33l-2.32-61.88Z"></path><path class="cls-50" d="M467.22,867.82S435,903.45,432.5,942.21s93,653.48,93,653.48,36.5,1.92,53.7-11.36c0,0-23.29-403.3-17.08-497.8,0,0,134.12,405.37,166.77,477.66,0,0,35,.31,45.38-7.51,0,0-83.56-535.66-123.08-628.11Z"></path><path class="cls-51" d="M559.19,1075a5.24,5.24,0,0,1-4.88-3.35l-21.07-54.75-33.42-16.48a5.23,5.23,0,0,1,4.63-9.37l35.25,17.38a5.18,5.18,0,0,1,2.56,2.81l21.8,56.66a5.21,5.21,0,0,1-3,6.75A5.12,5.12,0,0,1,559.19,1075Z"></path><path class="cls-52" d="M780.52,471.08c-152.23,4.49-188.13,40.14-188.13,40.14l85.38,106.25S825.63,597.83,922.59,504c-22.29-19.16-38.76-41.26-49.69-58.68C846.81,459.81,816,470,780.52,471.08Z"></path><path class="cls-53" d="M991.73,223.08a4.65,4.65,0,0,0-9-.77l-14.62,43.23a43.07,43.07,0,0,0-.54,25.84L977,314.52a41.5,41.5,0,0,1-4.71,33.78c-15.19,24.1-48.3,68.72-99.4,97,10.93,17.42,27.4,39.52,49.69,58.68,35.57-34.42,64.3-78.82,76.35-135.91a20.32,20.32,0,0,0,12-21.67Z"></path><path class="cls-54" d="M837.64,531.82c-59.54-51.22-163.58-65.67-223.33-69.68A54.05,54.05,0,0,0,558.12,503c-18.36,73.8-69.24,266.15-79.56,299.39-8.47,27.27-17.51,54-23.28,70.71A19.16,19.16,0,0,0,467,897.43c51.94,18.19,143.61,35.06,180.72,41.49a12.41,12.41,0,0,0,14.44-13.64,38.82,38.82,0,0,1,3.26-20.44L776,662.7c95.44,84.49,170.69,84.71,225.44,57.69a431.91,431.91,0,0,1-28.94-87C886.54,628.45,837.64,531.82,837.64,531.82Z"></path><path class="cls-55" d="M1110,601.89l-17.5-18.57c-45.44,39.38-85.71,52-120.07,50.07a431.91,431.91,0,0,0,28.94,87C1073.53,684.79,1110,601.89,1110,601.89Z"></path><path class="cls-56" d="M1099.35,603.47l86.1-6.32,74-53c-12.13-5.82-74.56,15.91-74.56,15.91s-68.11-2.57-86.23-.55c-15.06,1.67-10.47,23.08-8.48,30.28.41,1.47.7,2.35.7,2.35Z"></path><path class="cls-57" d="M683,348,650.21,463.45s56,30.11,97.44,22L759,383.64Z"></path><path class="cls-58" d="M750.91,264.14c1.2,1.35,45.79,112.24,45.79,112.24l-63.86,24.11L675,301.67S730.8,241.53,750.91,264.14Z"></path><path class="cls-59" d="M701.51,314.69l26.39,54.4a8.47,8.47,0,0,0,1.27,1.91c3.15,3.55,14.88,15,25.83,2.26,9.94-11.54,19.19-21.92,28.5-24.67a8.44,8.44,0,0,1,10.22,5c4,10.08,12.75,32.95,17.28,54a8.42,8.42,0,0,1-5.79,9.79c-12.56,3.88-39.29,11.34-62.2,12.3a8.44,8.44,0,0,1-7.62-4.08c-7.81-13-31.68-52.34-40-62.28-7.83-9.32-24.22-7.19-31-5.8a8.28,8.28,0,0,1-6.41-1.33c-6.62-4.6-19.61-16.79-5.3-34.75a8.46,8.46,0,0,0-1.56-12.08c-7.66-5.73-16.37-16.45-6.44-32.07,10.09-15.89,25.83-15.32,35.71-12.92a8.47,8.47,0,0,0,9.69-4.88c1-2.13,2.86-3.88,6.48-4a8.33,8.33,0,0,0,7.87-9.47c-1.22-9.31.79-21.48,16.4-28.34,27.71-12.17,48.75,13.55,52.86,34.05s-26.69,32-45.48,32.7c-14.28.54-23.22,15.76-26.68,23A8.35,8.35,0,0,0,701.51,314.69Z"></path><path class="cls-60" d="M705.17,383s-8.69-35.42-23.84-35.49S653,361.33,670.15,379.82C691.47,402.83,705.17,383,705.17,383Z"></path></g></g></svg>