<svg xmlns="http://www.w3.org/2000/svg" xmlns:xlink="http://www.w3.org/1999/xlink" viewBox="0 0 2249.91 1381.53"><defs><style>.cls-1{fill:url(#linear-gradient);}.cls-2{fill:#bdd0fb;}.cls-3{fill:#dce5fe;}.cls-4{fill:#91b3fa;}.cls-5{opacity:0.74;}.cls-6{fill:url(#linear-gradient-2);}.cls-7{fill:url(#linear-gradient-3);}.cls-8{fill:url(#linear-gradient-4);}.cls-9{fill:url(#linear-gradient-5);}.cls-10{fill:url(#linear-gradient-6);}.cls-11{fill:url(#linear-gradient-7);}.cls-12,.cls-18,.cls-29,.cls-30,.cls-36{fill:#fff;}.cls-12{opacity:0.48;}.cls-13{fill:url(#linear-gradient-8);}.cls-14{fill:url(#linear-gradient-9);}.cls-15{fill:url(#linear-gradient-10);}.cls-16{fill:url(#linear-gradient-11);}.cls-17{fill:url(#linear-gradient-12);}.cls-18{opacity:0.3;}.cls-19{fill:url(#linear-gradient-13);}.cls-20{fill:url(#linear-gradient-14);}.cls-21{fill:url(#linear-gradient-15);}.cls-22{fill:url(#linear-gradient-16);}.cls-23{fill:url(#linear-gradient-17);}.cls-24{fill:url(#linear-gradient-18);}.cls-25{fill:#7d97f4;}.cls-26{fill:url(#linear-gradient-19);}.cls-27{fill:url(#linear-gradient-20);}.cls-28{fill:url(#linear-gradient-21);}.cls-29{opacity:0.5;}.cls-30{opacity:0.27;}.cls-31{fill:url(#linear-gradient-22);}.cls-32{fill:url(#linear-gradient-23);}.cls-33{fill:url(#linear-gradient-24);}.cls-34{fill:url(#linear-gradient-25);}.cls-35{fill:url(#linear-gradient-26);}.cls-37{fill:url(#linear-gradient-27);}.cls-38{fill:url(#linear-gradient-28);}.cls-39{fill:url(#linear-gradient-29);}.cls-40{fill:url(#linear-gradient-30);}.cls-41{fill:url(#linear-gradient-31);}.cls-42{fill:url(#linear-gradient-32);}.cls-43{fill:url(#linear-gradient-33);}.cls-44{fill:url(#linear-gradient-34);}.cls-45{fill:url(#linear-gradient-35);}.cls-46{fill:url(#linear-gradient-36);}.cls-47{fill:url(#linear-gradient-37);}.cls-48{fill:url(#linear-gradient-38);}.cls-49{fill:url(#linear-gradient-39);}.cls-50{fill:url(#linear-gradient-40);}.cls-51{fill:url(#linear-gradient-41);}.cls-52{fill:url(#linear-gradient-42);}.cls-53{fill:url(#linear-gradient-43);}.cls-54{fill:url(#linear-gradient-44);}.cls-55{fill:url(#linear-gradient-45);}.cls-56{fill:url(#linear-gradient-46);}.cls-57{fill:url(#linear-gradient-47);}.cls-58{fill:url(#linear-gradient-48);}.cls-59{fill:url(#linear-gradient-49);}.cls-60{fill:url(#linear-gradient-50);}.cls-61{fill:url(#linear-gradient-51);}.cls-62{fill:url(#linear-gradient-52);}.cls-63{fill:url(#linear-gradient-53);}.cls-64{fill:url(#linear-gradient-54);}.cls-65{fill:url(#linear-gradient-55);}.cls-66{fill:url(#linear-gradient-56);}.cls-67{fill:url(#linear-gradient-57);}.cls-68{fill:url(#linear-gradient-58);}.cls-69{fill:url(#linear-gradient-59);}.cls-70{fill:url(#linear-gradient-60);}.cls-71{fill:url(#linear-gradient-61);}.cls-72{fill:url(#linear-gradient-62);}.cls-73{fill:url(#linear-gradient-63);}.cls-74{fill:url(#linear-gradient-64);}.cls-75{fill:url(#linear-gradient-65);}.cls-76{fill:url(#linear-gradient-66);}.cls-77{fill:url(#linear-gradient-67);}.cls-78{fill:url(#linear-gradient-68);}</style><linearGradient id="linear-gradient" x1="-94.97" y1="1671.66" x2="2181.27" y2="18.68" gradientUnits="userSpaceOnUse"><stop offset="0" stop-color="#dae3fe"></stop><stop offset="1" stop-color="#e9effd"></stop></linearGradient><linearGradient id="linear-gradient-2" x1="1221.29" y1="895.52" x2="999.27" y2="1570.59" gradientUnits="userSpaceOnUse"><stop offset="0" stop-color="#09005d"></stop><stop offset="1" stop-color="#1a0f91"></stop></linearGradient><linearGradient id="linear-gradient-3" x1="1164.05" y1="1012.88" x2="1140.04" y2="1327.92" xlink:href="#linear-gradient-2"></linearGradient><linearGradient id="linear-gradient-4" x1="1168.29" y1="-26.83" x2="1159.29" y2="909.26" xlink:href="#linear-gradient-2"></linearGradient><linearGradient id="linear-gradient-5" x1="1632.57" y1="21.39" x2="564.46" y2="1149.51" gradientUnits="userSpaceOnUse"><stop offset="0" stop-color="#fe7062"></stop><stop offset="1" stop-color="#ff928e"></stop></linearGradient><linearGradient id="linear-gradient-6" x1="1165.67" y1="1198.81" x2="1192.23" y2="1198.81" gradientUnits="userSpaceOnUse"><stop offset="0" stop-color="#4042e2"></stop><stop offset="1" stop-color="#4f52ff"></stop></linearGradient><linearGradient id="linear-gradient-7" x1="869.3" y1="1220" x2="1135.57" y2="1220" xlink:href="#linear-gradient-6"></linearGradient><linearGradient id="linear-gradient-8" x1="1283.1" y1="-265.42" x2="785.05" y2="988.7" gradientUnits="userSpaceOnUse"><stop offset="0" stop-color="#ff928e"></stop><stop offset="1" stop-color="#feb3b1"></stop></linearGradient><linearGradient id="linear-gradient-9" x1="1368.7" y1="-231.43" x2="870.65" y2="1022.7" xlink:href="#linear-gradient-8"></linearGradient><linearGradient id="linear-gradient-10" x1="1843.97" y1="-42.68" x2="1345.92" y2="1211.44" xlink:href="#linear-gradient-8"></linearGradient><linearGradient id="linear-gradient-11" x1="1235.76" y1="-284.23" x2="737.71" y2="969.9" xlink:href="#linear-gradient-8"></linearGradient><linearGradient id="linear-gradient-12" x1="744.67" y1="130.66" x2="469.65" y2="612.28" xlink:href="#linear-gradient-6"></linearGradient><linearGradient id="linear-gradient-13" x1="756.55" y1="137.45" x2="481.53" y2="619.07" xlink:href="#linear-gradient-6"></linearGradient><linearGradient id="linear-gradient-14" x1="1337.43" y1="258.3" x2="1210.41" y2="691.57" xlink:href="#linear-gradient-6"></linearGradient><linearGradient id="linear-gradient-15" x1="1225.6" y1="97.32" x2="1083.6" y2="389.32" xlink:href="#linear-gradient-2"></linearGradient><linearGradient id="linear-gradient-16" x1="1328.9" y1="255.79" x2="1201.87" y2="689.06" xlink:href="#linear-gradient-6"></linearGradient><linearGradient id="linear-gradient-17" x1="621.18" y1="777.12" x2="604.48" y2="1605.44" xlink:href="#linear-gradient-2"></linearGradient><linearGradient id="linear-gradient-18" x1="1162.65" y1="1365.8" x2="246.11" y2="781.71" xlink:href="#linear-gradient-6"></linearGradient><linearGradient id="linear-gradient-19" x1="696.99" y1="834.18" x2="646.82" y2="1185.33" xlink:href="#linear-gradient-2"></linearGradient><linearGradient id="linear-gradient-20" x1="1842.22" y1="606.2" x2="1544.57" y2="1419.3" xlink:href="#linear-gradient-2"></linearGradient><linearGradient id="linear-gradient-21" x1="1938.04" y1="742.23" x2="1408.15" y2="1302.97" xlink:href="#linear-gradient-6"></linearGradient><linearGradient id="linear-gradient-22" x1="1696.33" y1="1146.01" x2="1617.46" y2="1423.59" gradientTransform="translate(1.02 -3.77) rotate(-0.3)" xlink:href="#linear-gradient-5"></linearGradient><linearGradient id="linear-gradient-23" x1="1764.25" y1="1155.96" x2="1685.38" y2="1433.55" gradientTransform="translate(1.02 -3.77) rotate(-0.3)" xlink:href="#linear-gradient-5"></linearGradient><linearGradient id="linear-gradient-24" x1="1635.36" y1="1164.34" x2="1552.39" y2="1361" xlink:href="#linear-gradient-5"></linearGradient><linearGradient id="linear-gradient-25" x1="1544.88" y1="1160.58" x2="1811.72" y2="1160.58" xlink:href="#linear-gradient"></linearGradient><linearGradient id="linear-gradient-26" x1="1668.5" y1="1092.75" x2="1530.22" y2="1325.26" xlink:href="#linear-gradient-5"></linearGradient><linearGradient id="linear-gradient-27" x1="1616.41" y1="978.15" x2="1750.35" y2="978.15" xlink:href="#linear-gradient"></linearGradient><linearGradient id="linear-gradient-28" x1="1659.35" y1="977.99" x2="1729.4" y2="977.99" xlink:href="#linear-gradient"></linearGradient><linearGradient id="linear-gradient-29" x1="812.32" y1="2193.87" x2="719.65" y2="2109.2" gradientTransform="translate(2239.61)" xlink:href="#linear-gradient-8"></linearGradient><linearGradient id="linear-gradient-30" x1="1742.9" y1="953.51" x2="1742.9" y2="1023.51" xlink:href="#linear-gradient-8"></linearGradient><linearGradient id="linear-gradient-31" x1="3914.3" y1="1346.85" x2="3778.11" y2="1494.99" gradientTransform="matrix(-1, 0, 0, 1, 5725.67, 0)" xlink:href="#linear-gradient-2"></linearGradient><linearGradient id="linear-gradient-32" x1="3870.1" y1="1357.85" x2="3882.2" y2="1357.85" gradientTransform="matrix(-1, 0, 0, 1, 5725.67, 0)" xlink:href="#linear-gradient-8"></linearGradient><linearGradient id="linear-gradient-33" x1="3925.03" y1="1179.32" x2="3809.14" y2="1336.39" gradientTransform="matrix(-1, 0, 0, 1, 5725.67, 0)" xlink:href="#linear-gradient-6"></linearGradient><linearGradient id="linear-gradient-34" x1="3883.75" y1="1318.76" x2="3747.56" y2="1466.9" gradientTransform="matrix(-1, 0, 0, 1, 5725.67, 0)" xlink:href="#linear-gradient-2"></linearGradient><linearGradient id="linear-gradient-35" x1="3826.5" y1="1357.23" x2="3836.95" y2="1357.23" gradientTransform="matrix(-1, 0, 0, 1, 5725.67, 0)" xlink:href="#linear-gradient-8"></linearGradient><linearGradient id="linear-gradient-36" x1="3904.37" y1="1164.08" x2="3788.49" y2="1321.15" gradientTransform="matrix(-1, 0, 0, 1, 5725.67, 0)" xlink:href="#linear-gradient-6"></linearGradient><linearGradient id="linear-gradient-37" x1="1979.72" y1="574.54" x2="1643.72" y2="478.09" gradientTransform="matrix(-1, 0, 0, 1, 5725.67, 0)" xlink:href="#linear-gradient-5"></linearGradient><linearGradient id="linear-gradient-38" x1="803.92" y1="2203.06" x2="711.26" y2="2118.4" gradientTransform="translate(2239.61)" xlink:href="#linear-gradient-8"></linearGradient><linearGradient id="linear-gradient-39" x1="1982.63" y1="564.41" x2="1646.63" y2="467.96" gradientTransform="matrix(-1, 0, 0, 1, 5725.67, 0)" xlink:href="#linear-gradient-5"></linearGradient><linearGradient id="linear-gradient-40" x1="1867.76" y1="1015" x2="1861.76" y2="1093.67" xlink:href="#linear-gradient-8"></linearGradient><linearGradient id="linear-gradient-41" x1="-2893.75" y1="-1562" x2="-2898.42" y2="-1513.33" gradientTransform="matrix(-0.75, -0.67, -0.67, 0.75, 15.94, -1593.68)" xlink:href="#linear-gradient-8"></linearGradient><linearGradient id="linear-gradient-42" x1="1942.62" y1="886.79" x2="1916.62" y2="927.79" gradientUnits="userSpaceOnUse"><stop offset="0" stop-color="#e1473d"></stop><stop offset="1" stop-color="#e9605a"></stop></linearGradient><linearGradient id="linear-gradient-43" x1="-2906.23" y1="-1563.21" x2="-2910.9" y2="-1514.54" gradientTransform="matrix(-0.75, -0.67, -0.67, 0.75, 15.94, -1593.68)" xlink:href="#linear-gradient-8"></linearGradient><linearGradient id="linear-gradient-44" x1="-2279.87" y1="1273.54" x2="-2305.01" y2="1093" gradientTransform="matrix(-1, 0, 0, 1, -373.01, 0)" xlink:href="#linear-gradient-8"></linearGradient><linearGradient id="linear-gradient-45" x1="-2282.87" y1="1256.18" x2="-2302.93" y2="1112.1" gradientTransform="matrix(-1, 0, 0, 1, -373.01, 0)" xlink:href="#linear-gradient-8"></linearGradient><linearGradient id="linear-gradient-46" x1="493.98" y1="1037.24" x2="205.98" y2="1219.24" xlink:href="#linear-gradient-2"></linearGradient><linearGradient id="linear-gradient-47" x1="673.74" y1="706.61" x2="481.74" y2="1088.61" xlink:href="#linear-gradient-2"></linearGradient><linearGradient id="linear-gradient-48" x1="530.27" y1="840.42" x2="82.78" y2="1257.97" xlink:href="#linear-gradient-6"></linearGradient><linearGradient id="linear-gradient-49" x1="569.02" y1="881.95" x2="121.54" y2="1299.5" xlink:href="#linear-gradient-6"></linearGradient><linearGradient id="linear-gradient-50" x1="565" y1="877.64" x2="117.52" y2="1295.19" xlink:href="#linear-gradient-6"></linearGradient><linearGradient id="linear-gradient-51" x1="249.16" y1="1291.57" x2="502.16" y2="1387.58" xlink:href="#linear-gradient-8"></linearGradient><linearGradient id="linear-gradient-52" x1="375.96" y1="1191.87" x2="263.96" y2="1297.87" xlink:href="#linear-gradient-8"></linearGradient><linearGradient id="linear-gradient-53" x1="226.55" y1="1106.65" x2="255.46" y2="1106.65" xlink:href="#linear-gradient-8"></linearGradient><linearGradient id="linear-gradient-54" x1="-1513.27" y1="1325.57" x2="-1538.57" y2="1368.38" gradientTransform="matrix(-1, 0, 0, 1, -1263.17, 0)" xlink:href="#linear-gradient-6"></linearGradient><linearGradient id="linear-gradient-55" x1="-2896.36" y1="650.77" x2="-2921.66" y2="693.58" gradientTransform="matrix(-0.92, -0.39, -0.39, 0.92, -2188.02, -411.11)" xlink:href="#linear-gradient-6"></linearGradient><linearGradient id="linear-gradient-56" x1="255.33" y1="1220.55" x2="189.64" y2="1374.2" xlink:href="#linear-gradient-5"></linearGradient><linearGradient id="linear-gradient-57" x1="258.12" y1="1031.71" x2="278.66" y2="1031.71" xlink:href="#linear-gradient-8"></linearGradient><linearGradient id="linear-gradient-58" x1="295.12" y1="1053.96" x2="186.39" y2="1193.45" xlink:href="#linear-gradient-5"></linearGradient><linearGradient id="linear-gradient-59" x1="286.21" y1="1026.29" x2="325.21" y2="1093.29" xlink:href="#linear-gradient-8"></linearGradient><linearGradient id="linear-gradient-60" x1="318.95" y1="1007.23" x2="357.95" y2="1074.23" xlink:href="#linear-gradient-8"></linearGradient><linearGradient id="linear-gradient-61" x1="292.32" y1="1031.7" x2="252.42" y2="973.36" xlink:href="#linear-gradient-8"></linearGradient><linearGradient id="linear-gradient-62" x1="161.55" y1="1047.76" x2="291.55" y2="1047.76" xlink:href="#linear-gradient-2"></linearGradient><linearGradient id="linear-gradient-63" x1="807.15" y1="475.39" x2="720.05" y2="667.22" xlink:href="#linear-gradient-6"></linearGradient><linearGradient id="linear-gradient-64" x1="795.27" y1="258.44" x2="757.27" y2="434.44" xlink:href="#linear-gradient-2"></linearGradient><linearGradient id="linear-gradient-65" x1="784.57" y1="465.13" x2="697.46" y2="656.96" xlink:href="#linear-gradient-6"></linearGradient><linearGradient id="linear-gradient-66" x1="1579" y1="183.34" x2="1573" y2="355.34" xlink:href="#linear-gradient-2"></linearGradient><linearGradient id="linear-gradient-67" x1="1531.7" y1="462.34" x2="1689.64" y2="781.18" xlink:href="#linear-gradient-6"></linearGradient><linearGradient id="linear-gradient-68" x1="1583.3" y1="158.87" x2="1583.3" y2="346.87" xlink:href="#linear-gradient-2"></linearGradient></defs><title>Asset 1</title><g id="Layer_2" data-name="Layer 2"><g id="Illustration"><path class="cls-1" d="M2210.75,599.16c-59.71-82.88-186.26-127.28-189.55-251.5-2.13-80.71,34.72-124.45-24.25-193.35C1854.41-12.23,1634.76-31.75,1447.2,37.83s-337.32,209-545.78,200.55c-113.52-4.57-219-58.13-331.36-68.18-34.61-3.1-67-.44-97.21,7.26-113.38,28.88-213.5,137.31-251.2,257.78-30.56,97.65,8.49,194.06-39.5,289.68C131,826.85,30.28,897.65,4.91,1015.33c-30.46,141.23,85.91,264.05,210.91,267.9,79.56,2.44,227-10.2,294.64-59,82.3-59.43,163.19-63.34,259.14-61.06,182.6,4.33,365.19,45.18,545.43,74.26,154.45,24.93,306.67,61.83,463.2,66.52,115,3.44,212.51,5,274.71-119.14C2127.28,1036.45,2336,773,2210.75,599.16Z"></path><path class="cls-2" d="M2140.22,622c-18.71,78.48-146.23,530.74-592.12,487.3,0,0,7.31-319.35,583.51-495.42A6.82,6.82,0,0,1,2140.22,622Z"></path><path class="cls-3" d="M2078.48,674.22s-5.53,8.33-15.64,22.55c-5.08,7.09-11.25,15.7-18.52,25.44s-15.54,20.68-24.71,32.5-19.26,24.49-30.18,37.7-22.58,27-34.82,41.16-25.23,28.45-38.7,42.75l-10.12,10.78-10.35,10.67c-6.87,7.19-14,14.18-21.06,21.22-3.51,3.55-7.11,7-10.72,10.45l-10.78,10.33c-7.25,6.81-14.57,13.48-21.81,20.13-7.4,6.46-14.64,13-22,19.24l-11,9.24c-3.64,3.06-7.23,6.12-10.93,9-14.57,11.76-29,22.77-42.93,32.78l-10.39,7.32c-3.41,2.41-6.76,4.8-10.17,7-6.78,4.41-13.26,8.79-19.61,12.78l-18.44,11.16c-5.89,3.47-11.65,6.49-17,9.48l-7.76,4.27-7.39,3.67-13,6.45c-2,1-3.86,1.83-5.65,2.61l-5,2.2-7.94,3.47-6.61,2.89a3.65,3.65,0,1,1-2.92-6.69h0l.17-.07,6.53-2.81,7.84-3.37,5-2.14c1.77-.75,3.66-1.54,5.59-2.53l12.89-6.29,7.32-3.57,7.7-4.17c5.28-2.92,11-5.87,16.85-9.27l18.32-10.92c6.33-3.92,12.77-8.22,19.53-12.54,3.39-2.13,6.73-4.48,10.13-6.85l10.35-7.2c13.93-9.84,28.31-20.68,42.87-32.28,3.69-2.84,7.29-5.85,10.93-8.87l11-9.12c7.34-6.16,14.59-12.61,22-19,7.25-6.57,14.59-13.17,21.85-19.89L1860,925.61c3.61-3.4,7.22-6.82,10.74-10.33,7.09-7,14.23-13.89,21.13-21l10.39-10.57L1912.42,873c13.52-14.16,26.44-28.46,38.86-42.37s24.11-27.66,35-40.84,21.08-25.74,30.37-37.42,17.59-22.56,24.87-32.26,13.53-18.22,18.65-25.27c10.19-14.13,15.73-22.36,15.73-22.36a1.55,1.55,0,0,1,2.57,1.72Z"></path><path class="cls-4" d="M2048.64,192.7c3.3,90.28,1.07,616.41-493,703,0,0-87.7-346.75,481.29-709.18A7.64,7.64,0,0,1,2048.64,192.7Z"></path><path class="cls-3" d="M1997.36,267.46s-13.66,43.6-39.53,107c-12.93,31.67-28.88,68.29-47.55,106.78s-40,78.86-63.39,118.08-48.85,77.21-75,111.14-53,63.75-77.91,87.43c-12.44,11.84-24.35,22.17-35.18,31l-7.93,6.31c-2.56,2-5.11,3.87-7.51,5.7-4.79,3.69-9.38,6.84-13.47,9.74l-3,2.12-2.88,1.91-5.24,3.47c-3.23,2.19-6.07,3.9-8.36,5.31l-7,4.34a3.32,3.32,0,0,1-3.48-5.65h0l.1-.06,6.93-4.23c2.26-1.38,5.07-3,8.26-5.19l5.18-3.39,2.86-1.87,3-2.07c4-2.85,8.58-5.92,13.33-9.54,2.39-1.8,4.91-3.6,7.45-5.59l7.87-6.2c10.75-8.66,22.58-18.81,35-30.47,24.76-23.33,51.61-52.76,77.78-86.37s51.74-71.32,75.27-110.25,45.05-79.1,63.83-117.42,34.93-74.76,48-106.31,23.09-58.19,29.83-76.94,10.18-29.57,10.18-29.57a1.41,1.41,0,0,1,1.77-.91A1.39,1.39,0,0,1,1997.36,267.46Z"></path><path class="cls-4" d="M902.78,1166.87s-220.12-84.51-287.11-359.59C550.55,539.91,522,161,209.83,72.64A12.52,12.52,0,0,0,195.29,90.4C224.8,147.86,295.5,298.34,319.4,463.15,349.91,673.53,528.68,1163.76,902.78,1166.87Z"></path><path class="cls-3" d="M284.16,163.64l.67.38c.43.23,1.3.78,2.32,1.4,1.82,1.18,4.47,2.91,7.74,5.32a254.81,254.81,0,0,1,26.65,22.6c5.35,5.24,11.21,11.12,17.17,17.9,3.06,3.32,6,7,9.18,10.66l4.64,5.8c1.58,2,3.18,4,4.7,6.08l4.72,6.38,4.66,6.71c3.22,4.5,6.18,9.36,9.38,14.24,6.06,9.95,12.31,20.53,18,32,3,5.65,5.64,11.62,8.49,17.62,1.41,3,2.65,6.13,4,9.24s2.74,6.22,3.92,9.46c2.47,6.42,5,12.94,7.22,19.7,1.13,3.37,2.33,6.74,3.41,10.18s2.08,6.93,3.13,10.43a528.94,528.94,0,0,1,17.9,89.9q.68,5.92,1.34,11.89.47,6,.93,12t.9,12q.42,6,.83,12.06c1.11,16.12,2.75,32.12,4.71,48.46,4,32.55,9.72,65.42,17,98s16.17,64.73,26.37,96,21.69,61.48,34.21,90.17a870.72,870.72,0,0,0,40.2,80.77,750.62,750.62,0,0,0,43.5,68.18,653.87,653.87,0,0,0,42.67,53.45c7,7.42,13.32,14.57,19.69,20.68,3.13,3.1,6.1,6.12,9,8.92L692,1080c5.31,5,10.41,9.15,14.74,12.85,2.18,1.83,4.16,3.56,6,5.07l5.2,4,9.53,7.37-9.71-7.13-5.3-3.89c-1.93-1.46-4-3.15-6.18-4.92-4.43-3.59-9.64-7.58-15.09-12.5l-8.73-7.63c-3-2.74-6.05-5.69-9.27-8.72-6.55-6-13.08-13-20.28-20.26a656,656,0,0,1-44.24-52.65c-30.41-40.23-61-90.94-87.28-148.31A963.89,963.89,0,0,1,485.28,753c-10.76-31.35-20.19-63.72-28-96.49s-14.18-65.91-18.68-98.81c-2.21-16.39-4.16-32.94-5.5-49.07q-1-12.06-2-24-.51-5.89-1-11.75-.71-5.83-1.4-11.61a514.8,514.8,0,0,0-18.13-87.46,454.51,454.51,0,0,0-29.42-74.14c-5.47-11.09-11.49-21.29-17.32-30.9-3.08-4.7-5.92-9.39-9-13.72l-4.48-6.47c-1.53-2.08-3-4.12-4.53-6.14a338.18,338.18,0,0,0-33.88-39.12,263.7,263.7,0,0,0-25-21.73c-3-2.3-5.38-3.9-6.94-5-.71-.44-1.12-.74-1.6-1l-.67-.39-.11-.06a6.62,6.62,0,0,1,6.59-11.48Z"></path><g class="cls-5"><path class="cls-2" d="M84.07,407.18C80,402,85.16,394.57,91.51,396.5c64.43,19.52,231.36,90.89,312,320.09,101.23,287.56,206.72,358.55,306.93,384.1,0,0-110.63,19.43-221.11-50.91C218.13,877.1,156.34,500.33,84.07,407.18Z"></path><path class="cls-3" d="M162,472.83l1.56,1.2c1,.82,2.58,2,4.46,3.67,1,.81,2,1.72,3.2,2.73l3.74,3.38c2.73,2.41,5.7,5.34,9,8.63s6.86,7.06,10.78,11.12,7.84,8.72,12.21,13.55,8.61,10.32,13.3,15.92c4.44,5.79,9.11,11.89,14,18.24,4.64,6.53,9.47,13.34,14.48,20.37q7.13,10.82,14.73,22.32l14.74,24.1c4.81,8.34,9.52,17,14.42,25.72,9.37,17.69,18.9,36.07,27.63,55.19q3.35,7.14,6.73,14.32l6.27,14.62q6.27,14.58,12.55,29.22l6.3,14.63c2.14,4.83,4.07,9.84,6.43,14.47,4.58,9.38,9,18.79,13.62,28q7.34,13.71,14.52,27.18l15.11,26,15.41,24.67,15.41,23.21,15.23,21.54,14.77,19.74,14,17.82,13,15.82,11.7,13.65,10.16,11.38c3.12,3.37,5.91,6.38,8.33,9l6.25,6.54,3.91,4,1.32,1.3.1.1a6.62,6.62,0,0,1-9.2,9.52l-1.49-1.41-4.15-4-6.54-6.59-8.65-9.07-10.47-11.46-12-13.74-13.35-15.92c-4.58-5.71-9.37-11.73-14.31-18.05l-15-20-15.49-21.85L404.93,900l-15.54-25.15-15.12-26.56-14.5-27.76c-4.68-9.48-9.11-19.21-13.71-28.88-2.39-4.83-4.23-9.74-6.34-14.63s-4.11-9.78-6.16-14.68l-3.13-7.48-3-7.33q-3-7.34-5.95-14.64l-5.92-14.59L309.2,704c-8.26-19.09-17.32-37.43-26.24-55.11l-13.72-25.72-13.83-24.26-13.88-22.49-13.69-20.56L214.58,537.4c-4.39-5.71-8.48-11.21-12.48-16.25s-7.81-9.7-11.5-13.87-7-8.09-10.18-11.4-6-6.39-8.52-8.89l-3.51-3.52-3-2.83c-1.78-1.72-3.19-2.91-4.13-3.76l-1.48-1.26,0,0a1.77,1.77,0,0,1,2.23-2.76Z"></path></g><polygon class="cls-6" points="998.75 910.68 966.65 1198.64 1339.15 1198.64 1290.64 910.68 998.75 910.68"></polygon><path class="cls-7" d="M1419.39,1257.56H874.2c-14.81,0-25.93-10.54-23.07-21.87l7-27.67c2.1-8.32,11.25-14.43,22.13-14.77l525.58-16.4c11.36-.35,21.42,5.68,23.89,14.33l12.61,44.06C1445.62,1246.69,1434.44,1257.56,1419.39,1257.56Z"></path><path class="cls-8" d="M531.44,201.21V860.72a100,100,0,0,0,97.47,100c240.88,6.21,861.31,21.28,1090.61,17.9A73.61,73.61,0,0,0,1792,907.11c4.43-153.21,11.61-521.64-15-692.68a75.75,75.75,0,0,0-72.43-64.12c-201.83-6.46-872.86-27-1102-21.81A72.73,72.73,0,0,0,531.44,201.21Z"></path><path class="cls-9" d="M572.83,198V824.58a58,58,0,0,0,57.1,58l1056.6,15.79a56.42,56.42,0,0,0,57.26-56.2l2.14-621a41.27,41.27,0,0,0-40.26-41.4L618.62,153.31A44.7,44.7,0,0,0,572.83,198Z"></path><path class="cls-4" d="M1753.42,924.26h-.05L572.79,900.36a2,2,0,1,1,.08-4l1180.58,23.9a2,2,0,0,1,0,4Z"></path><path class="cls-4" d="M1129.55,953.45a16.62,16.62,0,1,1,16.61-16.62A16.64,16.64,0,0,1,1129.55,953.45Zm0-29.19a12.58,12.58,0,1,0,12.58,12.57A12.59,12.59,0,0,0,1129.55,924.26Z"></path><path class="cls-10" d="M1167.69,1201a2,2,0,0,1,0-4l22.52-.33a2,2,0,1,1,.06,4l-22.52.33Z"></path><path class="cls-11" d="M871.32,1242.55a1.66,1.66,0,0,1-.32,0,2,2,0,0,1-1.68-2.31l3.21-20.12A22.69,22.69,0,0,1,894.64,1201l238.88-3.5a2,2,0,1,1,.06,4L894.7,1205a18.66,18.66,0,0,0-18.18,15.74l-3.21,20.13A2,2,0,0,1,871.32,1242.55Z"></path><path class="cls-12" d="M1475.62,267.43a22.11,22.11,0,1,1,22.12-22.11A22.14,22.14,0,0,1,1475.62,267.43Zm0-40.29a18.18,18.18,0,1,0,18.18,18.18A18.2,18.2,0,0,0,1475.62,227.14Z"></path><path class="cls-12" d="M1554.08,267.43a22.11,22.11,0,1,1,22.11-22.11A22.14,22.14,0,0,1,1554.08,267.43Zm0-40.29a18.18,18.18,0,1,0,18.18,18.18A18.2,18.2,0,0,0,1554.08,227.14Z"></path><path class="cls-12" d="M1632.54,267.43a22.11,22.11,0,1,1,22.11-22.11A22.14,22.14,0,0,1,1632.54,267.43Zm0-40.29a18.18,18.18,0,1,0,18.18,18.18A18.21,18.21,0,0,0,1632.54,227.14Z"></path><path class="cls-13" d="M1266.22,763.33l-610.95,4.12c-17.52.12-31.6-16-31-35.41l11.68-382.3c.53-17.42,13.44-31.22,29.13-31.15l594.8,2.79c16,.07,29,14.57,28.9,32.39L1287,740.28C1286.9,753,1277.65,763.25,1266.22,763.33Z"></path><path class="cls-14" d="M1279.72,824.58H633.31c-4.51,0-8.16-4.23-8.16-9.45V797.85c0-5.27,3.72-9.52,8.27-9.45l646.4,9.92c4.47.07,8.06,4.28,8.06,9.45v7.36C1287.88,820.35,1284.23,824.58,1279.72,824.58Z"></path><path class="cls-12" d="M1680.22,864.82h-.58L628.76,845.87a37.75,37.75,0,0,1-37-38.31l9.54-583.48a42.57,42.57,0,0,1,43.59-41.85l1029.91,25a37.18,37.18,0,0,1,36.49,37.39V833.74a31.08,31.08,0,0,1-31.06,31.08ZM643.82,186.16a38.62,38.62,0,0,0-38.59,38l-9.55,583.48a33.81,33.81,0,0,0,33.15,34.3l1050.88,19a27.16,27.16,0,0,0,27.64-27.14V244.62a33.27,33.27,0,0,0-32.65-33.45l-1029.91-25Z"></path><path class="cls-12" d="M1652.68,503.53h0l-300.24-5.8A24.85,24.85,0,0,1,1328.17,473V343.9a32.66,32.66,0,0,1,32.63-32.62h291.88a32.65,32.65,0,0,1,32.62,32.62v127A32.65,32.65,0,0,1,1652.68,503.53ZM1360.8,314.23a29.7,29.7,0,0,0-29.67,29.67V473a21.87,21.87,0,0,0,21.34,21.76l300.22,5.8a29.71,29.71,0,0,0,29.66-29.67v-127a29.7,29.7,0,0,0-29.67-29.67Z"></path><path class="cls-15" d="M1672.33,825.81H1341.15a11.5,11.5,0,0,1-11.5-11.49V798.66a11.49,11.49,0,0,1,11.73-11.49L1672.56,794a11.5,11.5,0,0,1,11.26,11.5v8.86A11.49,11.49,0,0,1,1672.33,825.81Z"></path><path class="cls-12" d="M1666.89,768.86h-.28l-321.18-4.67a18.5,18.5,0,0,1-18.15-18.42V653.35a18.41,18.41,0,0,1,18.7-18.41l321.18,4.89a18.49,18.49,0,0,1,18.14,18.41v92.2a18.42,18.42,0,0,1-18.41,18.42Zm-.23-3a15.47,15.47,0,0,0,15.69-15.47v-92.2a15.53,15.53,0,0,0-15.23-15.46l-321.19-4.89a15.48,15.48,0,0,0-15.7,15.46v92.42a15.54,15.54,0,0,0,15.24,15.47Z"></path><path class="cls-12" d="M1661.71,619h-.28l-310.27-4.82a17.7,17.7,0,0,1-17.35-17.62V524.63a17.61,17.61,0,0,1,18-17.61L1662.1,514a17.73,17.73,0,0,1,17.23,17.62v69.78A17.63,17.63,0,0,1,1661.71,619ZM1351.42,510a14.66,14.66,0,0,0-14.66,14.67v71.91a14.73,14.73,0,0,0,14.44,14.67L1661.48,616a14.65,14.65,0,0,0,14.89-14.66V531.58A14.76,14.76,0,0,0,1662,516.91L1351.76,510Z"></path><path class="cls-16" d="M649.2,209.44l751,20.53a15.11,15.11,0,0,1,14.71,15.11v38.54a15.13,15.13,0,0,1-15.23,15.12l-757.75-5.6a15.11,15.11,0,0,1-15-15.11V231.11A21.67,21.67,0,0,1,649.2,209.44Z"></path><path class="cls-12" d="M1390.34,284.47h-.12L652.5,281.31c-9,0-16.07-4.44-16.07-10V241a7.55,7.55,0,0,1,2.46-5.38c3-2.94,8.41-4.72,14.15-4.63l737.72,11.7c8.84.14,15.77,4.54,15.77,10v21.77a7.51,7.51,0,0,1-2.43,5.33C1401.16,282.72,1396,284.47,1390.34,284.47ZM652.61,233.93c-4.82,0-9.26,1.44-11.65,3.79a4.61,4.61,0,0,0-1.58,3.27V271.3c0,3.79,6,7,13.13,7.06l737.72,3.16c4.88,0,9.4-1.45,11.79-3.82a4.6,4.6,0,0,0,1.55-3.24V252.69c0-3.71-5.88-6.95-12.86-7.06L653,233.94Z"></path><path class="cls-17" d="M671.71,273.89l-54.54,55.53a5.6,5.6,0,0,0,.4,8.21l.41.34a5.2,5.2,0,0,0,7.35-.66l49.94-60.24Z"></path><ellipse class="cls-18" cx="695.15" cy="244.96" rx="36.1" ry="35.45" transform="translate(-37.72 323.3) rotate(-25.51)"></ellipse><path class="cls-19" d="M678.16,209.36c-20,9.56-28.65,33.24-19.26,52.91s33.22,27.85,53.25,18.3,28.64-33.25,19.26-52.91S698.19,199.81,678.16,209.36Zm31.49,66c-17.08,8.15-37.42,1.16-45.43-15.62s-.64-37,16.44-45.13,37.42-1.16,45.42,15.61S726.73,267.18,709.65,275.34Z"></path><path class="cls-20" d="M1360.4,535.12H1199.07a69.77,69.77,0,0,1-69.7-69.69V444.78a69.78,69.78,0,0,1,69.7-69.7H1360.4a69.78,69.78,0,0,1,69.7,69.7v20.65A69.77,69.77,0,0,1,1360.4,535.12ZM1199.07,400.89a43.94,43.94,0,0,0-43.89,43.89v20.65a43.94,43.94,0,0,0,43.89,43.88H1360.4a43.94,43.94,0,0,0,43.89-43.88V444.78a43.94,43.94,0,0,0-43.89-43.89Z"></path><path class="cls-21" d="M1132.27,535.12H970.94a69.77,69.77,0,0,1-69.7-69.69V444.78a69.78,69.78,0,0,1,69.7-69.7h161.33a69.77,69.77,0,0,1,69.7,69.7v20.65A69.77,69.77,0,0,1,1132.27,535.12Zm11.49-132.7a43.52,43.52,0,0,0-11.49-1.53H970.94a43.93,43.93,0,0,0-43.88,43.89v20.65a43.93,43.93,0,0,0,43.88,43.88h161.33a43.94,43.94,0,0,0,43.89-43.88V444.78A44,44,0,0,0,1143.76,402.42Z"></path><path class="cls-22" d="M1160.72,423.48a43.9,43.9,0,0,1,38.35-22.59H1360.4a43.9,43.9,0,0,1,38.35,22.59h28a69.82,69.82,0,0,0-66.37-48.4H1199.07a69.82,69.82,0,0,0-66.37,48.4Z"></path><path class="cls-23" d="M1036.21,1287.68c0,8.91-6.7,16.19-14.89,16.19H216.52c-8.19,0-14.89-7.28-14.89-16.19L194.94,784c0-8.9,9.63-26.29,27.29-25l786.54-22.17a36,36,0,0,1,27.48,11.91,42.82,42.82,0,0,1,11,29.87Z"></path><path class="cls-24" d="M1021.51,1272.15c0,8.43-6.33,15.33-14.08,15.33H235.92c-7.74,0-14.08-6.9-14.08-15.33l-6.32-457.22c.75-27.52,22.9-37.4,36.33-36.82l753.83-22a25.22,25.22,0,0,1,19.3,8.36,30.08,30.08,0,0,1,7.74,21Z"></path><path class="cls-2" d="M230.18,1053.75a1.06,1.06,0,0,1-1.06-1l-.5-37.08a1.06,1.06,0,0,1,2.12,0l.5,37.08a1.06,1.06,0,0,1-1,1.08Z"></path><path class="cls-2" d="M229,962.88a1,1,0,0,1-1.06-1l-1.92-142c0-9.89,3-17.69,8.73-23.18,9.55-9.12,23.72-8.64,24.31-8.62l240.73-7a1,1,0,0,1,1.09,1,1.06,1.06,0,0,1-1,1.1l-240.8,7c-.65,0-13.94-.47-22.84,8-5.32,5.08-8,12.36-8.08,21.64l1.92,142a1.05,1.05,0,0,1-1.05,1.07Z"></path><path class="cls-25" d="M255.83,1246.78c.81-37.79.51-372.42-1.48-401.32s39.34-34.33,102.8-37.58S956,791.75,969.83,790.54c31-2.74,37.4,47.7,34.3,157.2-2.33,82.26-6.19,217.78-8,280.1-.52,18.56-14.45,33.28-31.5,33.33-128.85.39-622.68,1.93-655.55,3C271.27,1265.39,255.51,1261.77,255.83,1246.78Z"></path><rect class="cls-26" x="152.66" y="1301.43" width="948.84" height="44.25" rx="7.51"></rect><path class="cls-2" d="M939.25,1201.14H320.9c-8.91,0-15.89-7.37-15.89-16.78V866.8c0-9.2,6.93-16.54,15.78-16.7l618.27-11.5a15.89,15.89,0,0,1,11.61,4.79,17.07,17.07,0,0,1,4.87,11.91v329.06A16.56,16.56,0,0,1,939.25,1201.14ZM320.83,852.22c-7.68.14-13.7,6.54-13.7,14.58v317.56c0,8.22,6.05,14.66,13.77,14.66H939.25a14.44,14.44,0,0,0,14.17-14.66V855.3a15,15,0,0,0-4.26-10.42,13.79,13.79,0,0,0-10.06-4.16Z"></path><path class="cls-2" d="M889.75,974H758.61a15.09,15.09,0,0,1-15.22-15.3v-49.9a15,15,0,0,1,15.22-15.07H889.75c9,0,16.94,7,16.94,15.07v49.9C906.69,966.86,898.78,974,889.75,974ZM758.61,895.86a12.74,12.74,0,0,0-13.1,12.95v49.9a13,13,0,0,0,13.1,13.18H889.75c7.76,0,14.82-6.28,14.82-13.18v-49.9c0-6.9-6.92-12.95-14.82-12.95Z"></path><path class="cls-2" d="M889.75,1074.14H758.61c-8.68,0-15.22-6.38-15.22-14.85v-49.9a15.21,15.21,0,0,1,15.22-15.52H889.75c8.87,0,16.94,7.4,16.94,15.52v49.9C906.69,1067.34,898.93,1074.14,889.75,1074.14ZM758.61,996c-8.2,0-13.1,6.81-13.1,13.4v49.9c0,7.26,5.63,12.73,13.1,12.73H889.75c7.9,0,14.82-6,14.82-12.73v-49.9c0-7-7.06-13.4-14.82-13.4Z"></path><path class="cls-2" d="M889.75,1174.27H758.61c-8.82,0-15.22-6-15.22-14.4V1110c0-7.68,5.82-16,15.22-16H889.75c8.87,0,16.94,7.61,16.94,16v49.9C906.69,1167.81,899.09,1174.27,889.75,1174.27Zm-131.14-78.15c-8.09,0-13.1,7.19-13.1,13.85v49.9c0,7.12,5.51,12.28,13.1,12.28H889.75c8,0,14.82-5.62,14.82-12.28V1110c0-7.12-7.2-13.85-14.82-13.85Z"></path><path class="cls-4" d="M580.38,1149.82c-36.91-.09-204.21-.47-241.2-.13a7.5,7.5,0,0,0-7.47,7.25v4a7.27,7.27,0,0,0,7.11,7.25l240.84,5.53a8.55,8.55,0,0,0,5.77-2.06c1.39-1.37,2.72-3.24,2.72-5.19v-9.45C588.15,1153.08,584.38,1149.83,580.38,1149.82Z"></path><path class="cls-4" d="M358.66,871.43l319.45-5.15a31.52,31.52,0,0,1,32,31.51v90a31.52,31.52,0,0,1-32,31.52l-319.46-5.29a31.52,31.52,0,0,1-31-31.52V903A31.52,31.52,0,0,1,358.66,871.43Z"></path><path class="cls-4" d="M332.71,1104v-55.3a20.45,20.45,0,0,1,20.76-20.44l346.59,5.32c13.83.22,24.93,11.22,24.93,24.72v50.33c0,13.78-11.54,24.9-25.66,24.72l-342-4.39A25,25,0,0,1,332.71,1104Z"></path><path class="cls-27" d="M1500.14,715.65A32.61,32.61,0,0,0,1470.25,748c-.72,103.26-2.65,459.42,3.56,585.51a25.34,25.34,0,0,0,24.94,24.1c66.14,1,256.4,3.06,364.45-3.41a42.66,42.66,0,0,0,40.15-42.45c.31-108.37-.18-413.16-14.46-552.54a34.8,34.8,0,0,0-31.8-31.15C1785,722.1,1593.45,707.91,1500.14,715.65Z"></path><path class="cls-28" d="M1497.68,779.55c-2.1,84.59-8.46,366-3,469.93a29.43,29.43,0,0,0,28.2,27.88c62.57,2.54,223,7.74,314.6-1.24a33.07,33.07,0,0,0,29.8-31.75c3.11-86.32,11.77-348.41,6.46-451.17a32.5,32.5,0,0,0-30.16-30.73c-67.73-4.87-241.68-16.21-319.51-10.57A28.44,28.44,0,0,0,1497.68,779.55Z"></path><path class="cls-25" d="M1515,798.76c-1.86,77.34-7.47,334.62-2.53,429.64a26.66,26.66,0,0,0,25.28,25.5c56.06,2.34,199.84,7.15,281.87-1a30,30,0,0,0,26.69-29c2.75-78.92,10.43-318.54,5.64-412.49a29.46,29.46,0,0,0-27-28.11c-60.69-4.47-216.54-14.9-286.28-9.76A25.74,25.74,0,0,0,1515,798.76Z"></path><path class="cls-29" d="M1633.37,731.31a6,6,0,0,0,5.74,5.84c15.62.54,59.65,2.07,79.33,2.85a5.94,5.94,0,0,0,6-7.18l-.14-.65a5.93,5.93,0,0,0-5.38-4.7c-13.31-1-53.46-3.64-80-2.22A5.93,5.93,0,0,0,1633.37,731.31Z"></path><path class="cls-30" d="M1797.31,1132.06l-239.42-2.82a32.78,32.78,0,0,1-32.39-33.5l5.58-257.29a32.78,32.78,0,0,1,33.21-32.07L1802,809.49a32.79,32.79,0,0,1,32.36,33.28l-3.92,257A32.77,32.77,0,0,1,1797.31,1132.06Z"></path><path class="cls-31" d="M1711,1217.87a30.06,30.06,0,0,1-29.9,30.22c-16.6.08-33-12.42-33.12-29s16.21-31,32.81-31.1A30,30,0,0,1,1711,1217.87Z"></path><path class="cls-12" d="M1675.61,1236.55a4,4,0,0,1-4-3.55l-2.85-25.31a4,4,0,0,1,4.26-4.42l2.71.19a4,4,0,0,1,3.7,4l.13,25.11A4,4,0,0,1,1675.61,1236.55Z"></path><path class="cls-12" d="M1684.06,1207l.14,25.52a4,4,0,0,0,4,4h.64a4,4,0,0,0,4-3.87l.79-25.53a4,4,0,0,0-4-4.11H1688A4,4,0,0,0,1684.06,1207Z"></path><path class="cls-32" d="M1774.35,1217.54a22.91,22.91,0,0,1-22.79,23c-12.65.06-25.17-9.46-25.24-22.11s12.35-23.64,25-23.7A22.9,22.9,0,0,1,1774.35,1217.54Z"></path><path class="cls-12" d="M1741.9,1207.85l.11,20.4a3.2,3.2,0,0,0,3.17,3.18h.51a3.19,3.19,0,0,0,3.21-3.09l.63-20.42a3.19,3.19,0,0,0-3.2-3.29h-1.25A3.19,3.19,0,0,0,1741.9,1207.85Z"></path><path class="cls-12" d="M1754.17,1207.1l-1,21.36a1.71,1.71,0,0,0,2.94,1.27l10.28-10.68a1.71,1.71,0,0,0,.06-2.31l-9.31-10.69A1.71,1.71,0,0,0,1754.17,1207.1Z"></path><path class="cls-33" d="M1588.57,1218.51a22.91,22.91,0,0,0,23,22.79c12.66-.07,25.08-9.72,25-22.38s-12.59-23.5-25.24-23.44A22.91,22.91,0,0,0,1588.57,1218.51Z"></path><path class="cls-12" d="M1620.91,1208.48l.11,20.4a3.19,3.19,0,0,1-3.14,3.21h-.51a3.19,3.19,0,0,1-3.24-3.06l-.85-20.41a3.2,3.2,0,0,1,3.18-3.32h1.25A3.19,3.19,0,0,1,1620.91,1208.48Z"></path><path class="cls-12" d="M1608.64,1207.86l1.19,21.35a1.71,1.71,0,0,1-2.93,1.29l-10.39-10.57a1.72,1.72,0,0,1-.08-2.31l9.2-10.78A1.71,1.71,0,0,1,1608.64,1207.86Z"></path><path class="cls-34" d="M1544.9,1159.76l.28,2.65a4.75,4.75,0,0,0,4.76,4.25l257-1.33a4.76,4.76,0,0,0,0-9.52l-257.33-1.31A4.77,4.77,0,0,0,1544.9,1159.76Z"></path><path class="cls-35" d="M1709.43,1162.79c-.31-2.47-.7-5-1.06-7.48l-158.71-.81a4.77,4.77,0,0,0-4.76,5.26l.28,2.65a4.75,4.75,0,0,0,4.76,4.25l160-.83C1709.71,1164.77,1709.55,1163.74,1709.43,1162.79Z"></path><path class="cls-36" d="M1719.29,1160.27a8.6,8.6,0,1,1-8.65-8.55A8.61,8.61,0,0,1,1719.29,1160.27Z"></path><path class="cls-37" d="M1684.62,1045.11a67,67,0,1,1,65.72-68.19V977A67,67,0,0,1,1684.62,1045.11Zm-2.33-130a63,63,0,1,0,64.1,61.92V977A63.06,63.06,0,0,0,1682.29,915.14Z"></path><path class="cls-38" d="M1665.52,1012.11a3.46,3.46,0,0,1-3.52-3.31l-2.64-59.09a5.59,5.59,0,0,1,7.85-5.35l58.88,26.27a5.58,5.58,0,0,1,.45,10l-51.06,28.4a3.47,3.47,0,0,1-3.37-6.06l48.69-27.09-54.42-24.27,2.55,56.9a3.48,3.48,0,0,1-3.31,3.62Z"></path><path class="cls-39" d="M1744.75,1009.34c-.33,1,3.48,2.64,5.72-1.63.07-2.05,1.32-10.82.1-12.49-6.52-8.88-19.15-20-19.15-20a3,3,0,0,0-.37,4.17l6.12,6.39c-1.28,2.31-2.84,4.27-3.57,7.07a8.57,8.57,0,0,0,.85,6.32c1.08,1.93,2.55,4.45,3.93,6.42A8.49,8.49,0,0,0,1744.75,1009.34Z"></path><path class="cls-40" d="M1739.85,989.91l5.59,4.73,1.75,4.71-5,5.52s-1.67-9.35-2.92-11.37S1738.7,990.5,1739.85,989.91Z"></path><path class="cls-41" d="M1854.42,1357.89s1.41,8,2.1,15.89a5.45,5.45,0,0,1-5.21,5.9c-10.53.44-33,1.29-41.12.93a1.78,1.78,0,0,1-1.56-2.43,4,4,0,0,1,2-2.14l37.19-17.09Z"></path><path class="cls-42" d="M1855.57,1353.2l-1.13,9.55s-6.52,3-11-.39l2.69-10.64Z"></path><path class="cls-43" d="M1854.72,1173.64c.49,2.49,2.63,124.46-10.41,179.12a1.86,1.86,0,0,0,1.09,2.16,32.54,32.54,0,0,0,10.62,2.16,3.21,3.21,0,0,0,3.17-2.3c3.72-12.68,21.58-76.22,23.91-136.91,2.6-67.83,0-2.31,0-2.31l-1.53-41.93Z"></path><path class="cls-44" d="M1897.2,1362.05s2.24,4,4.42,14.75a3.32,3.32,0,0,1-2.93,4c-3.47.35-8.82.79-13.11.76a3.32,3.32,0,0,1-3.28-3.7c.48-3.91,2-10.32,6.53-15.32Z"></path><path class="cls-45" d="M1899.17,1349.77l-2.65,14.44s-2.61,2-7.79.54l1.26-15.54Z"></path><path class="cls-46" d="M1906.32,1177.38c10.67,64.35-2.31,159-6.68,177.59a2.9,2.9,0,0,1-2.34,2.19,19.32,19.32,0,0,1-8.34-.33,2.64,2.64,0,0,1-1.9-2.44c-.59-15,.47-107-9.47-143.33a8.26,8.26,0,0,0-3.18-4.56l-19.29-13.71-1.48-22.16Z"></path><path class="cls-47" d="M1838.38,1055.45c31.95-.53,67.21,8.39,67.21,8.39,9.53,55.57,1.67,119.68,1.67,119.68-24.74,6.49-52.65-4-52.65-4-4.11-23.23-23.29-88.6-23.29-88.6a105.37,105.37,0,0,1-39.07-12.4c8.08-9.37,11.89-21.28,13.54-28.33C1817.09,1053.73,1828.52,1055.61,1838.38,1055.45Z"></path><path class="cls-48" d="M1744,1008.38a6.12,6.12,0,0,1,7.11-2c4.7,19.86,29.36,36,54.69,43.84-1.65,7-5.46,19-13.54,28.33C1750.21,1054.91,1744,1008.38,1744,1008.38Z"></path><path class="cls-49" d="M1893.34,1094.78l12.25-30.94s29.85,20.28,34.76,46a70.58,70.58,0,0,0-25.95,7C1912.2,1104.64,1893.34,1094.78,1893.34,1094.78Z"></path><path class="cls-50" d="M1870.75,1029.5l10.17,29.41a1.07,1.07,0,0,1-.49,1.27c-2.77,1.54-12.75,6-24.79-1.66a5,5,0,0,1-2.3-3.57l-3.29-25.45Z"></path><path class="cls-51" d="M1848.62,1002.27s-11.16,21-9.73,29.51,15.27,7.88,27.35,1l8.45-22.7Z"></path><path class="cls-52" d="M1865.71,1021.62a.87.87,0,0,1-.38-1.27,22.75,22.75,0,0,0,3.11-6.59s2-1.29-5.11-3-17.73-4.35-20-10.4,3.54-20.76,12.65-8.93a.87.87,0,0,0,1.38,0c1.49-1.94,5.42-6,10.87-3.53,5.11,2.29,5.68,6,5.61,7.91a.87.87,0,0,0,1,.89c2.59-.5,8.78-.92,11.67,5.43,2.38,5.24.83,8.2-.58,9.65a.86.86,0,0,0,.37,1.43c1.7.52,3.89,2,3.67,5.93-.3,5.5-6.45,5-8.19,4.76a.88.88,0,0,0-.77.27c-1.5,1.66-8.26,8.71-15.57,9.56a.88.88,0,0,1-.92-1.16l3.17-9.2a.87.87,0,0,0-.47-1.07Z"></path><path class="cls-53" d="M1864.44,1022.93s8-5.46,8.53-.86-7.16,6.65-11,4.94Z"></path><path class="cls-54" d="M1914.4,1116.78s10.43,47.07,1,73.53c11.59,5.37,9.45,4.36,9.45,4.36s22.92-67,15.52-84.84C1925.76,1108.28,1918.53,1112.2,1914.4,1116.78Z"></path><path class="cls-55" d="M1915.38,1190.31s-6,7.72-5.49,10.8.59,4.33.59,4.33,3-2,2.81-4.67c-.41,8.32-3.2,17.78-.66,17.33s15.64-12.54,12.67-25.42C1918.58,1188,1916.69,1188.51,1915.38,1190.31Z"></path><path class="cls-56" d="M439.12,1043.51,193.83,1204.58a21.1,21.1,0,0,0-5.1,30.57l1.23,1.6a19.64,19.64,0,0,0,27.64,3.43l232.09-182.11Z"></path><ellipse class="cls-30" cx="548.59" cy="955.61" rx="136.12" ry="133.67" transform="translate(-205.03 151.74) rotate(-13.29)"></ellipse><path class="cls-57" d="M514.39,810.86C433,830.1,382.29,910.49,401.18,990.44s100.19,129.16,181.6,109.92S714.88,1000.73,696,920.79,595.8,791.63,514.39,810.86Zm63.37,268.24c-69.45,16.41-138.82-25.58-154.93-93.78S450,848.53,519.41,832.13,658.23,857.7,674.34,925.9,647.21,1062.69,577.76,1079.1Z"></path><path class="cls-58" d="M416.39,1005.28a.55.55,0,0,1-.51-.36c-1.25-3.32-2.38-6.72-3.36-10.12a.55.55,0,1,1,1.05-.31c1,3.38,2.09,6.76,3.33,10a.55.55,0,0,1-.32.7A.43.43,0,0,1,416.39,1005.28Zm-8.55-40.72a.55.55,0,0,1-.55-.51,136,136,0,0,1,1.52-29,139.43,139.43,0,0,1,35.49-72.67A143.84,143.84,0,0,1,595.61,824a.53.53,0,0,1,.34.69.54.54,0,0,1-.69.34,142,142,0,0,0-78.39-3.64c-56,13.24-98,57.94-107,113.88A135.22,135.22,0,0,0,408.38,964a.54.54,0,0,1-.51.57Z"></path><path class="cls-59" d="M207.23,1238.16h-.06c-8.89-.9-14.31-4.58-16.11-10.93a16,16,0,0,1,6.59-17.33l29.26-20.18a.55.55,0,0,1,.62.9l-29.26,20.18a14.85,14.85,0,0,0-6.16,16.13c1.67,5.88,6.77,9.3,15.17,10.15a.54.54,0,0,1,.49.59A.55.55,0,0,1,207.23,1238.16Z"></path><path class="cls-60" d="M236.23,1184.5a.56.56,0,0,1-.45-.23.55.55,0,0,1,.14-.76l3.79-2.62a.55.55,0,0,1,.62.9l-3.79,2.61A.5.5,0,0,1,236.23,1184.5Z"></path><path class="cls-61" d="M273.58,1213.92l-24.16,6,6,45.3s-9.06,9.06-12.08,21.14-5.8,62.8-5.8,62.8l-5.74,3.47-.69,2.89L247.82,1378l-2.76-17.84c-.44-2.84.32-8.58.08-8.7,9.06-24.16,28.44-92.22,28.44-92.22Z"></path><path class="cls-62" d="M280.64,1355.87c-.26,0-.52,0-.78,0,1.16-14.56,6.5-78.66,11.84-102.69,6-27.18-9.06-81.53-9.06-81.53l-27.18,27.18,15.1,51.33c-10.35,15.52,1.69,106.42,1.43,106.38v.2l-3.93,5.42.47,2.94,24.07,14.2-9.47-15.38A17.31,17.31,0,0,1,280.64,1355.87Z"></path><path class="cls-63" d="M250.07,1051.11s-52.92,73.43,0,111.07l5.39-4.8s-26.27-31,0-68.89Z"></path><path class="cls-64" d="M294.2,1381.53h-7.68a4.61,4.61,0,0,1-3.67-1.8c-2.4-3.11-7.36-9.18-9.73-9.34-3.19-.21-2.79,11.14-2.79,11.14h-1.79l-2.26-14.11a8.35,8.35,0,0,1,4.38-8.73s.73,5.4,4.69,7.79,16.1,10.94,16.1,10.94a11.19,11.19,0,0,1,3.13.08A2,2,0,0,1,294.2,1381.53Z"></path><path class="cls-65" d="M248.42,1380.65l-7.08-3a4.59,4.59,0,0,1-2.68-3.08c-1-3.79-3.22-11.31-5.35-12.38-2.86-1.43-6.88,9.19-6.88,9.19l-1.65-.7,3.38-13.88a8.34,8.34,0,0,1,7.42-6.34s-1.42,5.25,1.3,9,10.61,16.33,10.61,16.33a10.86,10.86,0,0,1,2.84,1.29A2,2,0,0,1,248.42,1380.65Z"></path><path class="cls-66" d="M289.56,1125.69s-.89,5.44.41,20.41,7.53,50.1,6.26,83.71c0,0-17.68,4.12-48.41,2.17,0,0-13-52.48-9.8-72.44s20.29-34.26,20.29-34.26Z"></path><polygon class="cls-67" points="276.5 1025.69 278.66 1051.11 258.12 1051.11 263.23 1012.32 276.5 1025.69"></polygon><path class="cls-68" d="M252,1047.59c7.09-.39,22.93-1.11,34.15-.5a13,13,0,0,1,12.07,10.36l2.74,13.12a31.62,31.62,0,0,1-.44,14.76l-11,40.36s-9.78,5.88-31.25-.41c0,0-18.86-45-11.14-73.73A5.36,5.36,0,0,1,252,1047.59Z"></path><path class="cls-69" d="M297.73,1055.09c3,8,5.75,16.32,8.69,24.15,1.49,3.91,3,7.75,4.62,11.28.82,1.75,1.72,3.37,2.55,4.83a21.51,21.51,0,0,0,2.24,3.21c.1.08-.22.14-.33.15s2,.34,2.69.45h2.53a88.58,88.58,0,0,0,11.84-1.63c8.3-1.55,16.93-3.72,25.8-5.36l.07,0a3.12,3.12,0,0,1,2.63,5.42,91.18,91.18,0,0,1-11.29,8.24c-2,1.21-4,2.4-6,3.54s-4.17,2.13-6.35,3.12a73.55,73.55,0,0,1-14.09,4.79c-1.37.23-2.72.47-4.13.66-1.58,0-3,.19-4.74.09-.91-.09-1.83-.2-2.75-.33a13.93,13.93,0,0,1-1.44-.26c-.63-.19-1.26-.4-1.88-.63a20.39,20.39,0,0,1-3.17-1.61c-.88-.58-1.67-1.18-2.44-1.8a33,33,0,0,1-6.17-7.13,56.1,56.1,0,0,1-3.89-6.89,93.1,93.1,0,0,1-5.35-13.53,125.7,125.7,0,0,1-5.59-27.39,8.23,8.23,0,0,1,15.88-3.63Z"></path><path class="cls-70" d="M355.57,1096.22l3.66-8.7,19.29-4.81s1.54,3.35-6.56,4.81c0,0,2.89,3.2,1.35,7S355.37,1102,355.57,1096.22Z"></path><path class="cls-71" d="M285.19,996.34c.73.44,6.51,20.81,1.67,29.35s-19.63-1-23.63-13.37S265.66,984.83,285.19,996.34Z"></path><path class="cls-72" d="M246.88,1012.32c-3.32,16.24-14.31,11.79-22.09,19-12.61,11.72-30.65-.36-48.19,10.74-12.66,8-18.76,28.52-12.69,45.07,8.42,22.93,37.18,32.36,52.08,25.37,14.25-6.67,12.22-26.66,31.39-34.38,8.13-3.28,12.15-1.15,17-6,8.53-8.51,6.23-25,5.34-31.38-1.92-13.81-6.55-16.31-4.34-22.37,4.31-11.8,24.37-9.37,26-17.7,1.53-7.58-13-22-26.7-19.69C243.56,984.49,248.35,1005.08,246.88,1012.32Z"></path><path class="cls-73" d="M815.16,559.71,775.84,625.8a33.26,33.26,0,0,1-45.54,11.56l-8.46-5a33.26,33.26,0,0,1-11.56-45.54L749.6,520.7a33.25,33.25,0,0,1,45.53-11.56l8.46,5A33.26,33.26,0,0,1,815.16,559.71Zm-94.31,33.37a20.94,20.94,0,0,0,7.28,28.67l8.46,5a21,21,0,0,0,28.67-7.28l39.32-66.1a20.94,20.94,0,0,0-7.28-28.67l-8.46-5A20.94,20.94,0,0,0,760.17,527Z"></path><path class="cls-74" d="M759.56,653.16l-39.32,66.09a33.26,33.26,0,0,1-45.54,11.56l-8.46-5a33.26,33.26,0,0,1-11.56-45.54L694,614.15a33.26,33.26,0,0,1,45.54-11.56l8.45,5A33.25,33.25,0,0,1,759.56,653.16Zm-51.57-37a21.48,21.48,0,0,0-3.42,4.33l-39.32,66.1a21,21,0,0,0,7.28,28.67l8.46,5A21,21,0,0,0,709.67,713L749,646.87a20.94,20.94,0,0,0-7.29-28.67l-8.46-5A21,21,0,0,0,708,616.11Z"></path><path class="cls-75" d="M720.76,614.3a20.94,20.94,0,0,1,.09-21.22L760.17,527a20.91,20.91,0,0,1,18.6-10.2l6.83-11.48a33.27,33.27,0,0,0-36,15.39l-39.32,66.09a33.27,33.27,0,0,0,3.65,39Z"></path><path class="cls-76" d="M1525.31,491.66l8.46-5a33.26,33.26,0,0,1,45.54,11.56l39.32,66.09a33.26,33.26,0,0,1-11.57,45.54l-8.46,5a33.25,33.25,0,0,1-45.53-11.56l-39.32-66.09A33.26,33.26,0,0,1,1525.31,491.66Zm43.42,12.82a20.94,20.94,0,0,0-28.67-7.28l-8.46,5a20.94,20.94,0,0,0-7.28,28.67l39.32,66.1a21,21,0,0,0,28.67,7.28l8.46-5a20.94,20.94,0,0,0,7.28-28.67Z"></path><path class="cls-77" d="M1580.91,585.11l8.46-5a33.26,33.26,0,0,1,45.54,11.56l39.32,66.09a33.27,33.27,0,0,1-11.57,45.54l-8.46,5a33.26,33.26,0,0,1-45.54-11.56l-39.32-66.09A33.27,33.27,0,0,1,1580.91,585.11Zm40,8.49a21,21,0,0,0-25.25-3l-8.46,5a20.94,20.94,0,0,0-7.28,28.67l39.32,66.09a20.94,20.94,0,0,0,28.67,7.28l8.46-5a20.94,20.94,0,0,0,7.28-28.67l-39.32-66.1A21.14,21.14,0,0,0,1620.91,593.6Z"></path><path class="cls-78" d="M1608.15,591.79a20.94,20.94,0,0,0-.1-21.22l-39.32-66.09a20.9,20.9,0,0,0-18.6-10.2l-6.82-11.48a33.29,33.29,0,0,1,36,15.39l39.32,66.09a33.29,33.29,0,0,1-3.66,39Z"></path><path class="cls-2" d="M1272.36,1261.41c96.8-48.05,171.48-123.64,179.81-281.81C1452.17,979.6,1200.23,1063.72,1272.36,1261.41Z"></path><path class="cls-36" d="M1288,1225.93a1.28,1.28,0,0,0,1.21-.86c44-125.42,129.31-198,130.16-198.71a1.28,1.28,0,0,0-1.65-2c-.86.72-86.69,73.71-130.93,199.83a1.29,1.29,0,0,0,.78,1.64A1.33,1.33,0,0,0,1288,1225.93Z"></path><path class="cls-4" d="M1282.14,1257.5c68,6.28,133.31-9.6,190.3-91.94C1472.44,1165.56,1309,1127.18,1282.14,1257.5Z"></path><path class="cls-36" d="M1320.75,1235.76a1.29,1.29,0,0,0,1-.45c38.39-45.27,124.3-59.87,125.16-60a1.28,1.28,0,0,0-.41-2.53c-.88.15-87.71,14.91-126.71,60.89a1.27,1.27,0,0,0,.15,1.8A1.24,1.24,0,0,0,1320.75,1235.76Z"></path></g></g></svg>